max v2;
#N vpatcher 78 525 696 896;
#P origin -3 0;
#P window setfont "Sans Serif" 9.;
#P window linecount 1;
#P hidden message 493 133 14 9109513 1;
#P hidden newex 493 108 28 9109513 sel 1;
#P hidden newex 493 83 34 9109513 active;
#P hidden message 531 108 14 9109513 0;
#P hidden newex 531 83 50 9109513 closebang;
#N comlet 0: closing 1: opening;
#P hidden outlet 493 158 15 0;
#N comlet dummy;
#P hidden inlet 455 50 15 0;
#P bpatcher 282 141 51 157 0 0 scrlt.mixer.aux.mxt 4 1 scrlt.mix.aux.1;
#P objectname aux.1;
#P window setfont "Arial Black" 14.;
#P comment 17 31 60 10551310 mixer;
#P bpatcher 176 56 51 242 0 0 scrlt.mixer.chan.mxt 4 3 scrlt.mix.chan.3;
#P objectname chan.3;
#P bpatcher 123 56 51 242 0 0 scrlt.mixer.chan.mxt 4 2 scrlt.mix.chan.2;
#P objectname chan.2;
#P bpatcher 335 56 51 242 0 0 scrlt.mixer.master.mxt 4;
#P objectname master;
#P bpatcher 229 141 51 157 0 0 scrlt.mixer.aux.mxt 4 0 scrlt.mix.aux.0;
#P objectname aux.0;
#P bpatcher 70 56 51 242 0 0 scrlt.mixer.chan.mxt 4 1 scrlt.mix.chan.1;
#P objectname chan.1;
#P bpatcher 17 56 51 242 0 0 scrlt.mixer.chan.mxt 4 0 scrlt.mix.chan.0;
#P objectname chan.0;
#P user panel 6 26 390 310;
#X brgb 154 154 154;
#X frgb 0 0 0;
#X border 1;
#X rounded 0;
#X shadow 0;
#X done;
#P background;
#P hidden connect 13 0 14 0;
#P hidden connect 14 0 15 0;
#P hidden connect 12 0 10 0;
#P hidden connect 15 0 10 0;
#P hidden connect 11 0 12 0;
#P pop;
