max v2;
#N vpatcher 25 70 625 470;
#P window setfont "Sans Serif" 9.;
#P window linecount 1;
#P hidden newex 317 61 209 9109513 loadmess M:/maxmsp/scrlt/scrlt.main/samples/;
#P hidden newex 92 191 46 9109513 _ replace;
#P hidden newex 356 238 60 9109513 pattr sample;
#X prestore 1 0 0;
#P objectname sample;
#P user hint 115 0 130 15 "refresh listing" 1000 100 0 65535 65535 52428 9 139 0 1 0 0 0;
#P user hint 130 1 145 16 "choose folder" 1000 100 0 65535 65535 52428 9 139 0 1 0 0 0;
#P hidden outlet 157 277 15 0;
#P hidden newex 229 178 40 9109513 _ prefix;
#P button 0 0 16 0;
#P button 114 0 16 0;
#P hidden newex 258 63 45 9109513 loadbang;
#P hidden newex 204 139 40 9109513 t b s s;
#P hidden newex 296 127 71 9109513 opendialog fold;
#P button 129 0 16 0;
#P hidden newex 110 100 78 9109513 loadmess WAVE;
#P hidden newex 70 132 44 9109513 f0.folder;
#P user ubumenu 15 0 100 9109513 0 1 1 0;
#X add aughra.wav;
#X add dbbl11.wav;
#X prefix_set 0 0 M:/maxmsp/scrlt/scrlt.main/samples/ 0;
#P objectname ubumenu;
#P hidden connect 13 1 0 0;
#P hidden connect 9 0 0 0;
#P hidden connect 8 0 0 0;
#P hidden connect 1 1 0 0;
#P hidden connect 5 0 1 0;
#P hidden connect 7 0 1 0;
#P hidden connect 2 0 1 1;
#P hidden connect 0 1 14 0;
#P hidden connect 5 1 1 2;
#P hidden connect 6 0 7 0;
#P hidden connect 14 0 10 0;
#P hidden connect 15 0 5 0;
#P hidden connect 4 0 5 0;
#P hidden connect 5 2 9 0;
#P hidden connect 3 0 4 0;
#P pop;
