max v2;
#N vpatcher 547 113 1242 692;
#P window setfont "Sans Serif" 9.;
#P window linecount 1;
#P hidden newex 412 94 34 9109513 mute~;
#P user pictctrl 226 8 17 17 scrlt.button.mute.bmp 0 0 0 1 26 0 0 0 17 17 128 0 1 10 2 1 1 270;
#P hidden message 387 447 60 9109513 window exec;
#P hidden newex 387 342 66 9109513 b 5;
#P hidden message 401 426 118 9109513 window size 50 50 300 490;
#P hidden message 415 405 93 9109513 window flags nogrow;
#P hidden message 429 384 96 9109513 window flags nozoom;
#P hidden newex 387 321 95 9109513 sel setdisplaywindow;
#N thispatcher;
#Q end;
#P hidden newobj 387 468 54 9109513 thispatcher;
#P hidden newex 514 200 122 9109513 s~ scrlt.rack.aux.0.fx.2.out;
#P hidden newex 514 174 122 9109513 s~ scrlt.rack.aux.0.fx.1.out;
#P hidden newex 514 148 122 9109513 s~ scrlt.rack.aux.0.fx.0.out;
#P hidden message 350 164 14 9109513 1;
#P hidden newex 350 139 28 9109513 sel 1;
#P hidden newex 350 114 34 9109513 active;
#P hidden message 350 214 14 9109513 0;
#P hidden newex 350 189 50 9109513 closebang;
#N comlet 0: closing 1: opening;
#P hidden outlet 350 239 15 0;
#N comlet dummy;
#P hidden inlet 350 89 15 0;
#N comlet signal in;
#P hidden inlet 313 74 15 0;
#P bpatcher 0 305 250 134 0 0 scrlt.fx.filter.mxt 4;
#P objectname fx.2;
#P hidden outlet 0 469 15 0;
#P bpatcher 0 172 250 134 0 0 scrlt.fx.degrade.mxt 4;
#P objectname fx.1;
#P bpatcher 0 39 250 134 0 0 scrlt.fx.delay.mxt 4;
#P objectname fx.0;
#P window setfont "Arial Black" 18.;
#P comment 5 3 135 10682386 aux.0;
#P background;
#P user panel 0 0 250 40;
#X brgb 191 191 191;
#X frgb 0 0 0;
#X border 1;
#X rounded 0;
#X shadow 0;
#X done;
#P background;
#P hidden connect 25 0 2 0;
#P hidden connect 6 0 2 0;
#P hidden connect 25 0 3 0;
#P hidden connect 2 0 3 0;
#P hidden connect 25 0 5 0;
#P hidden connect 3 0 5 0;
#P hidden connect 5 0 4 0;
#P hidden connect 11 0 12 0;
#P hidden connect 12 0 13 0;
#P hidden connect 9 0 10 0;
#P hidden connect 13 0 8 0;
#P hidden connect 10 0 8 0;
#P hidden connect 7 0 18 0;
#P hidden connect 18 0 22 0;
#P hidden connect 22 0 23 0;
#P hidden connect 23 0 17 0;
#P hidden connect 21 0 17 0;
#P hidden connect 20 0 17 0;
#P hidden connect 19 0 17 0;
#P hidden connect 22 1 21 0;
#P hidden connect 24 0 25 0;
#P hidden connect 22 2 20 0;
#P hidden connect 22 3 19 0;
#P hidden connect 2 0 14 0;
#P hidden connect 3 0 15 0;
#P hidden connect 5 0 16 0;
#P pop;
