max v2;
#N vpatcher 618 476 1218 876;
#P window setfont "Sans Serif" 9.;
#P window linecount 1;
#P newex 34 102 27 9109513 + 1;
#P comment 158 23 22 9109513 wet;
#P comment 116 23 22 9109513 dry;
#P comment 74 23 22 9109513 d/w;
#P newex 52 159 54 9109513 selector~ 2;
#P newex 80 105 71 9109513 tap.crossfade~;
#P newex 140 73 32 9109513 / 127.;
#P outlet 51 201 15 0;
#N comlet dry/wet fade;
#P inlet 80 41 15 0;
#N comlet bypass;
#P inlet 51 41 15 0;
#N comlet wet signal;
#P inlet 138 41 15 0;
#N comlet dry signal;
#P inlet 109 41 15 0;
#P comment 32 23 39 9109513 bypass;
#P connect 3 0 12 0;
#P connect 8 0 5 0;
#P connect 12 0 8 0;
#P connect 7 0 8 1;
#P connect 1 0 7 0;
#P connect 1 0 8 2;
#P connect 2 0 7 1;
#P connect 4 0 6 0;
#P connect 6 0 7 2;
#P pop;
