max v2;
#N vpatcher 646 264 796 684;
#P window setfont "Sans Serif" 9.;
#P window linecount 1;
#P newex 29 251 27 9109513 - 0.;
#P newex 29 180 27 9109513 t f f;
#P newex 71 180 27 9109513 t f f;
#P newex 71 251 27 9109513 + 0.;
#P newex 71 151 27 9109513 / 2.;
#P newex 29 306 60 9109513 unpack 0. 0.;
#P newex 29 281 52 9109513 pack 0. 0.;
#P newex 29 105 52 9109513 bondo;
#P comment 79 360 14 9109513 E;
#P comment 29 361 14 9109513 S;
#P comment 71 37 14 9109513 L;
#N comlet end offset;
#P outlet 79 340 15 0;
#N comlet start offset;
#P outlet 29 340 15 0;
#N comlet length;
#P inlet 71 59 15 0;
#N comlet center offset;
#P inlet 29 59 15 0;
#P comment 29 37 14 9109513 C;
#P connect 1 0 8 0;
#P connect 8 0 14 0;
#P connect 14 0 15 0;
#P connect 15 0 9 0;
#P connect 9 0 10 0;
#P connect 10 0 3 0;
#P connect 13 0 15 1;
#P connect 2 0 8 1;
#P connect 8 1 11 0;
#P connect 11 0 13 0;
#P connect 14 1 12 0;
#P connect 12 0 9 1;
#P connect 10 1 4 0;
#P connect 13 1 12 1;
#P pop;
