max v2;
#N vpatcher 488 207 1183 786;
#P window setfont "Sans Serif" 9.;
#P hidden message 394 454 60 9109513 window exec;
#P hidden newex 394 349 66 9109513 b 5;
#P hidden message 408 433 118 9109513 window size 50 50 300 490;
#P hidden message 422 412 93 9109513 window flags nogrow;
#P hidden message 436 391 96 9109513 window flags nozoom;
#P hidden newex 394 328 95 9109513 sel setdisplaywindow;
#N thispatcher;
#Q end;
#P hidden newobj 394 475 54 9109513 thispatcher;
#P hidden newex 520 305 122 9109513 s~ scrlt.rack.aux.0.fx.2.out;
#P hidden newex 516 267 122 9109513 s~ scrlt.rack.aux.0.fx.1.out;
#P hidden newex 502 198 122 9109513 s~ scrlt.rack.aux.0.fx.0.out;
#P hidden message 332 143 14 9109513 1;
#P hidden newex 332 118 28 9109513 sel 1;
#P hidden newex 332 93 34 9109513 active;
#P hidden message 332 193 14 9109513 0;
#P hidden newex 332 168 50 9109513 closebang;
#N comlet 0: closing 1: opening;
#P hidden outlet 332 218 15 0;
#N comlet dummy;
#P hidden inlet 332 68 15 0;
#P hidden newex 402 69 96 9109513 r scrlt.rack.aux.1.fbk;
#P objectname fbk[1];
#P hidden newex 402 97 44 9109513 pattr fbk;
#X prestore 1 0 0;
#P objectname fbk;
#P hidden newex 384 291 28 9109513 *~ 0.;
#P hidden newex 401 228 32 9109513 / 127.;
#P user dial 225 16 21 21 128 1 0 0 255 270 1 1. 170 170 170 221 221 221 120 120 120 225 225 225 0 0 0 0 0 0;
#P objectname dial;
#P comment 225 3 20 9109513 fbk;
#N comlet signal in;
#P hidden inlet 287 62 15 0;
#P bpatcher 0 305 250 134 0 0 scrlt.fx.filter.mxt 4;
#P objectname fx.2;
#P hidden outlet 0 469 15 0;
#P bpatcher 0 172 250 134 0 0 scrlt.fx.cloud.mxt 4;
#P objectname fx.1;
#P bpatcher 0 39 250 134 0 0 scrlt.fx.delay.mxt 4;
#P objectname fx.0;
#P window setfont "Arial Black" 18.;
#P comment 5 3 135 10813458 aux.1;
#P background;
#P user panel 0 0 250 40;
#X brgb 191 191 191;
#X frgb 0 0 0;
#X border 1;
#X rounded 0;
#X shadow 0;
#X done;
#P background;
#P hidden connect 10 0 2 0;
#P hidden connect 6 0 2 0;
#P hidden connect 2 0 3 0;
#P hidden connect 3 0 5 0;
#P hidden connect 5 0 4 0;
#P hidden connect 11 1 8 0;
#P hidden connect 17 0 18 0;
#P hidden connect 18 0 19 0;
#P hidden connect 15 0 16 0;
#P hidden connect 16 0 14 0;
#P hidden connect 19 0 14 0;
#P hidden connect 5 0 10 0;
#P hidden connect 13 0 24 0;
#P hidden connect 24 0 28 0;
#P hidden connect 28 0 29 0;
#P hidden connect 29 0 23 0;
#P hidden connect 27 0 23 0;
#P hidden connect 26 0 23 0;
#P hidden connect 25 0 23 0;
#P hidden connect 11 0 9 0;
#P hidden connect 12 0 11 0;
#P hidden connect 9 0 10 1;
#P hidden connect 28 1 27 0;
#P hidden connect 28 2 26 0;
#P hidden connect 28 3 25 0;
#P hidden connect 2 0 20 0;
#P hidden connect 3 0 21 0;
#P hidden connect 5 0 22 0;
#P pop;
