max v2;
#N vpatcher 201 147 626 646;
#P user ezdac~ 310 410 354 443 0;
#P user meter~ 351 269 381 395 50 0 168 0 103 103 103 255 153 0 255 0 0 217 217 0 153 186 0 12 3 3 3 3;
#P user gain~ 319 271 24 100 158 0 1.071519 7.94321 10.;
#P user meter~ 280 270 310 396 50 0 168 0 103 103 103 255 153 0 255 0 0 217 217 0 153 186 0 12 3 3 3 3;
#P user meter~ 36 390 231 405 50 0 168 0 103 103 103 255 153 0 255 0 0 217 217 0 153 186 0 12 3 3 3 3;
#P user meter~ 39 227 234 242 50 0 168 0 103 103 103 255 153 0 255 0 0 217 217 0 153 186 0 12 3 3 3 3;
#P bpatcher 19 37 250 184 0 0 scrlt.gen.groove.single.mxt 4 scrlt.rack.track.0.gen;
#P objectname gen;
#P bpatcher 19 250 250 134 0 0 scrlt.fx.delay.mxt 4;
#P objectname fx.2;
#P hidden connect 1 0 0 0;
#P hidden connect 0 0 3 0;
#P hidden connect 1 0 2 0;
#P hidden connect 0 0 4 0;
#P hidden connect 5 0 7 0;
#P hidden connect 0 0 5 0;
#P hidden connect 5 0 7 1;
#P hidden connect 5 0 6 0;
#P pop;
