max v2;
#N vpatcher 346 285 1206 879;
#P window setfont "Sans Serif" 9.;
#P window linecount 1;
#P hidden newex 277 106 54 9109513 s $0.togl.in;
#P hidden newex 277 79 42 9109513 route $1;
#P hidden newex 277 52 74 9109513 r scrlt.bcr.ctlout;
#P hidden newex 436 328 26 9109513 _ $1;
#P hidden newex 436 301 42 9109513 route $1;
#P hidden newex 436 274 68 9109513 r scrlt.bcr.ctlin;
#P hidden newex 403 247 43 9109513 V;
#P hidden newex 403 382 112 9109513 V;
#P hidden newex 505 247 36 9109513 _ send;
#P hidden newex 403 409 39 9109513 forward;
#P hidden message 403 217 14 9109513 0;
#P hidden newex 403 355 43 9109513 gate;
#P hidden newex 436 191 79 9109513 t b s;
#P hidden newex 403 165 43 9109513 sel none;
#P hidden newex 403 139 42 9109513 route $1;
#P hidden newex 403 87 41 9109513 t b s;
#P hidden newex 403 113 41 9109513 pack i s;
#P hidden newex 403 61 51 9109513 unpack s i;
#P hidden newex 403 35 69 9109513 r scrlt.bcr.map;
#P hidden message 436 218 14 9109513 1;
#P hidden newex 235 182 58 9109513 r $0.togl.out;
#P hidden message 235 239 23 9109513 127;
#P hidden newex 235 209 35 9109513 sel 1;
#P hidden newex 260 300 70 9109513 s scrlt.bcr.ctlin;
#P hidden newex 260 273 26 9109513 _ $1;
#P hidden newex 91 123 60 9109513 s $0.togl.out;
#P hidden newex 65 50 65 9109513 rset $0.togl.in;
#P hidden newex 123 181 58 9109513 r $0.togl.out;
#P hidden newex 189 105 54 9109513 s $0.togl.in;
#P hidden message 123 238 23 9109513 127;
#P hidden newex 123 208 35 9109513 sel 1;
#P hidden newex 148 299 76 9109513 s scrlt.bcr.ctlout;
#P user pictctrl 0 0 25 25 scrlt.toggle.png 0 0 1 1 83 0 0 0 50 50 128 0 1 33 2 0 1 270;
#P hidden newex 148 272 26 9109513 _ $1;
#P hidden newex 189 78 42 9109513 route $1;
#P hidden newex 189 51 68 9109513 r scrlt.bcr.ctlin;
#P hidden connect 9 0 3 0;
#P hidden connect 3 0 10 0;
#P hidden connect 8 0 5 0;
#P hidden connect 5 0 6 0;
#P hidden connect 5 1 2 0;
#P hidden connect 6 0 2 0;
#P hidden connect 2 0 4 0;
#P hidden connect 0 0 1 0;
#P hidden connect 1 0 7 0;
#P hidden connect 15 0 13 0;
#P hidden connect 13 0 14 0;
#P hidden connect 14 0 11 0;
#P hidden connect 13 1 11 0;
#P hidden connect 11 0 12 0;
#P hidden connect 33 0 34 0;
#P hidden connect 34 0 35 0;
#P hidden connect 17 0 18 0;
#P hidden connect 18 0 20 0;
#P hidden connect 18 1 19 0;
#P hidden connect 20 0 19 0;
#P hidden connect 19 0 21 0;
#P hidden connect 21 0 22 0;
#P hidden connect 22 0 25 0;
#P hidden connect 25 0 29 0;
#P hidden connect 29 0 24 0;
#P hidden connect 24 0 28 0;
#P hidden connect 28 0 26 0;
#P hidden connect 20 1 19 1;
#P hidden connect 22 1 23 0;
#P hidden connect 23 0 16 0;
#P hidden connect 16 0 29 1;
#P hidden connect 30 0 31 0;
#P hidden connect 31 0 32 0;
#P hidden connect 32 0 24 1;
#P hidden connect 23 1 27 0;
#P hidden connect 27 0 28 1;
#P pop;
