max v2;
#N vpatcher 415 347 1003 801;
#P window setfont "Sans Serif" 9.;
#P window linecount 1;
#P hidden newex 221 151 21 9109513 _ 0;
#P objectname aux.prefade[5];
#P user pictslider 186 322 50 21 5 2 5 2 scrlt.hslider.sm.knob.png 1 scrlt.hslider.sm.back.png 1 2673 0 8323072 127 1. 1.;
#P objectname pictslider[1];
#P user pictslider 0 123 25 120 3 8 3 8 scrlt.vslider.knob.png 1 scrlt.vslider.back.png 1 2674 0 8323072 127 1. 1.;
#P objectname pictslider;
#P user pictctrl 32 105 13 13 scrlt.toggle.png 0 0 1 1 83 0 0 0 25 15 128 0 1 33 2 0 1 270;
#P objectname pictctrl[3];
#P user pictctrl 36 24 13 13 scrlt.toggle.png 0 0 1 1 83 0 0 0 25 15 128 0 1 33 2 0 1 270;
#P objectname pictctrl[4];
#P user pictctrl 32 41 17 17 scrlt.knob.png 408 0 1 2 90 0 96 0 25 25 128 0 1 33 2 0 1 270;
#P objectname pictctrl[2];
#P user pictctrl 3 61 17 17 scrlt.knob.png 204 0 1 2 90 0 47 0 25 25 128 0 1 33 2 0 1 270;
#P objectname pictctrl[1];
#P hidden newex 342 130 109 9109513 scrlt.util.bcrfwd $2.mute;
#P hidden newex 342 174 98 9109513 scrlt.util.bcrfwd $2.lvl;
#P hidden newex 342 196 106 9109513 scrlt.util.bcrfwd $2.mon;
#P hidden newex 342 152 111 9109513 scrlt.util.bcrfwd $2.aux.1;
#P hidden newex 342 108 111 9109513 scrlt.util.bcrfwd $2.aux.0;
#P hidden newex 342 86 138 9109513 scrlt.util.bcrfwd $2.aux.prefade;
#P hidden newex 270 125 48 9109513 r $2.mute;
#P objectname aux.prefade[4];
#P hidden newex 270 156 51 9109513 pattr mute;
#X prestore 1 0 0;
#P objectname mute;
#P hidden newex 221 127 37 9109513 r $2.lvl;
#P objectname aux.prefade[3];
#P hidden newex 205 182 40 9109513 pattr lvl;
#X prestore 2 0 0 122;
#P objectname lvl;
#P hidden newex 261 234 45 9109513 r $2.mon;
#P objectname aux.prefade[2];
#P hidden newex 261 265 48 9109513 pattr mon;
#X prestore 1 0 59;
#P objectname mon;
#P hidden newex 213 19 77 9109513 r $2.aux.prefade;
#P objectname aux.prefade[1];
#P hidden newex 213 50 80 9109513 pattr aux.prefade;
#X prestore 1 0 0;
#P objectname aux.prefade;
#P hidden newex 472 253 50 9109513 r $2.aux.1;
#P hidden newex 472 279 53 9109513 pattr aux.1;
#X prestore 1 0 47;
#P objectname aux.1;
#P hidden newex 360 249 50 9109513 r $2.aux.0;
#P hidden newex 360 275 53 9109513 pattr aux.0;
#X prestore 1 0 96;
#P objectname aux.0;
#P hidden comment 313 57 171 9109513 arg 2: s/r prefix (ex: scrlt.mixer.chan.0);
#P user pictctrl 31 84 17 17 scrlt.knob.png 255 0 1 2 90 0 59 0 25 25 128 0 1 33 2 0 1 270;
#P objectname pictctrl;
#P hidden newex 66 258 45 9109513 loadbang;
#P hidden message 66 283 156 9109513 script send ch_num_lbl set chan $1;
#N thispatcher;
#Q end;
#P hidden newobj 66 308 54 9109513 thispatcher;
#P window setfont "Sans Serif" 14.;
#P comment 1 0 65 9109518 chan $1;
#B frgb 51 102 153;
#P objectname ch_num_lbl;
#P window setfont "Sans Serif" 9.;
#P hidden newex 67 208 23 9109513 Not;
#P hidden newex 97 208 31 9109513 gate~;
#P comment 0 105 25 9109513 mute;
#B frgb 51 102 153;
#P hidden newex 67 46 27 9109513 + 1;
#P hidden newex 97 46 54 9109513 selector~ 2;
#P comment 24 62 29 9109513 aux 1;
#B frgb 51 102 153;
#P hidden user gain~ 463 326 14 30 158 0 1.071519 7.94321 10.;
#P hidden newex 462 393 96 9109513 s~ scrlt.rack.aux.1.in;
#P comment 0 43 29 9109513 aux 0;
#B frgb 51 102 153;
#P hidden user gain~ 360 326 14 30 158 0 1.071519 7.94321 10.;
#P hidden newex 363 393 96 9109513 s~ scrlt.rack.aux.0.in;
#P hidden newex 143 394 112 9109513 s~ scrlt.mixer.master.in;
#P hidden user gain~ 259 324 14 39 158 0 1.071519 7.94321 10.;
#P hidden newex 259 393 101 9109513 s~ scrlt.mixer.mon.in;
#P hidden newex 202 100 39 9109513 r~ $2.in;
#P user meter~ 25 123 51 243 50 0 168 0 0 17 51 255 153 0 255 0 0 217 217 0 153 186 0 12 3 3 3 3;
#P hidden user gain~ 164 211 13 29 158 0 1.071519 7.94321 127.;
#P objectname gain~;
#P comment 0 85 24 9109513 mon;
#B frgb 51 102 153;
#P comment 0 23 36 9109513 prefade;
#B frgb 51 102 153;
#P hidden comment 102 21 101 9109513 scrlt.mixer.chan.0.in;
#P hidden comment 314 38 100 9109513 arg 1: channel number;
#P user panel 0 0 51 20;
#X brgb 0 17 51;
#X frgb 51 102 153;
#X border 1;
#X rounded 0;
#X shadow 0;
#X done;
#P background;
#P user panel 0 19 51 104;
#X brgb 0 17 51;
#X frgb 51 102 153;
#X border 1;
#X rounded 0;
#X shadow 0;
#X done;
#P background;
#P hidden connect 37 1 51 0;
#P hidden connect 31 1 47 0;
#P hidden connect 21 0 7 0;
#P hidden connect 35 1 27 0;
#P hidden connect 29 1 48 0;
#P hidden connect 39 1 50 0;
#P hidden connect 33 1 49 0;
#P hidden connect 26 0 25 0;
#P hidden connect 25 0 24 0;
#P hidden connect 33 0 19 0;
#P hidden connect 39 0 22 0;
#P hidden connect 19 0 18 0;
#P hidden connect 22 0 21 0;
#P hidden connect 6 0 21 1;
#P hidden connect 8 0 18 1;
#P hidden connect 21 0 18 2;
#P hidden connect 21 0 11 0;
#P hidden connect 8 0 6 0;
#P hidden connect 51 1 6 0;
#P connect 53 0 37 0;
#P hidden connect 34 0 33 0;
#P connect 38 0 53 0;
#P hidden connect 35 0 10 0;
#P hidden connect 8 0 10 0;
#P hidden connect 10 0 9 0;
#P hidden connect 36 0 35 0;
#P hidden connect 40 0 39 0;
#P hidden connect 33 0 41 0;
#P hidden connect 29 0 42 0;
#P hidden connect 39 0 46 0;
#P hidden connect 31 0 43 0;
#P hidden connect 37 0 45 0;
#P hidden connect 35 0 44 0;
#P hidden connect 30 0 29 0;
#P hidden connect 18 0 13 0;
#P hidden connect 29 0 13 0;
#P hidden connect 13 0 12 0;
#P hidden connect 16 0 15 0;
#P hidden connect 18 0 16 0;
#P hidden connect 31 0 16 0;
#P hidden connect 32 0 31 0;
#P pop;
