max v2;
#N vpatcher 618 476 1218 876;
#P window setfont "Sans Serif" 9.;
#P newex 80 105 71 9109513 tap.crossfade~;
#P newex 140 73 32 9109513 / 127.;
#P newex 51 169 39 9109513 gate~;
#P newex 51 137 23 9109513 Not;
#P outlet 51 201 15 0;
#N comlet dry/wet fade;
#P inlet 80 41 15 0;
#N comlet bypass;
#P inlet 51 41 15 0;
#N comlet wet signal;
#P inlet 138 41 15 0;
#N comlet dry signal;
#P inlet 109 41 15 0;
#P connect 2 0 5 0;
#P connect 5 0 6 0;
#P connect 6 0 4 0;
#P connect 0 0 8 0;
#P connect 8 0 6 1;
#P connect 1 0 8 1;
#P connect 3 0 7 0;
#P connect 7 0 8 2;
#P pop;
