max v2;
#N vpatcher 647 436 1247 836;
#P window setfont "Sans Serif" 9.;
#P hidden message 2 102 23 9109513 127;
#P hidden newex 2 72 35 9109513 sel 1;
#P hidden newex 27 163 76 9109513 s scrlt.bcr.ctlout;
#P hidden newex 111 85 29 9109513 _ set;
#P user pictctrl 2 3 25 25 scrlt.toggle.png 0 0 1 1 83 0 0 0 50 50 128 0 1 33 2 0 1 270;
#P hidden newex 27 136 26 9109513 _ $1;
#P hidden newex 111 58 42 9109513 route $1;
#P hidden newex 111 33 68 9109513 r scrlt.bcr.ctlin;
#P hidden connect 4 0 3 0;
#P hidden connect 3 0 6 0;
#P hidden connect 6 0 7 0;
#P hidden connect 6 1 2 0;
#P hidden connect 7 0 2 0;
#P hidden connect 2 0 5 0;
#P hidden connect 0 0 1 0;
#P hidden connect 1 0 4 0;
#P pop;
