max v2;
#N vpatcher 106 76 852 509;
#P origin 0 -21;
#P bpatcher 66 32 145 16 0 0 scrlt.util.samplechooser.mxt 4;
#P objectname sample[1];
#P window setfont "Sans Serif" 9.;
#P hidden newex 374 320 72 9109513 scrlt.util.0or127;
#P hidden newex 455 221 122 9109513 scrlt.util.bcrfwd $1.sel.start;
#P hidden newex 370 344 98 9109513 scrlt.util.bcrfwd $1.on;
#P hidden newex 455 196 104 9109513 scrlt.util.bcrfwd $1.rate;
#P hidden newex 455 246 118 9109513 scrlt.util.bcrfwd $1.sel.end;
#P window setfont "Sans Serif" 20.;
#P hidden comment 308 274 214 9109524 todo: param ranges;
#B color 3;
#P window setfont "Sans Serif" 9.;
#P hidden newex 114 223 61 9109513 rset $1.par.3;
#P hidden newex 189 223 50 9109513 s $1.par.3;
#P hidden newex 396 64 57 9109513 r $1.sel.end;
#P hidden newex 114 200 61 9109513 rset $1.par.2;
#P hidden newex 189 200 50 9109513 s $1.par.2;
#P hidden newex 467 62 61 9109513 r $1.sel.start;
#P hidden newex 330 64 43 9109513 r $1.rate;
#P hidden newex 256 64 37 9109513 r $1.on;
#P window setfont "Sans Serif" 10.;
#P comment 122 87 50 9109514 disp len;
#P window setfont "Sans Serif" 9.;
#P flonum 190 87 49 9 0 0 32 139 0 0 0 221 221 221 222 222 222 0 0 0;
#P objectname flonum[1];
#P flonum 66 87 49 9 0 0 32 139 0 0 0 221 221 221 222 222 222 0 0 0;
#P objectname flonum;
#P window setfont "Sans Serif" 10.;
#P comment 6 87 50 9109514 disp start;
#P window setfont "Sans Serif" 9.;
#P hidden newex 536 62 76 9109513 loadmess loop 1;
#P hidden newex 536 84 58 9109513 s $0.gv.in.0;
#P hidden newex 536 106 99 9109513 loadmess loopinterp 1;
#P hidden newex 536 129 58 9109513 s $0.gv.in.0;
#P bpatcher 6 123 19 38 0 0 scrlt.util.wfmodesel.mxt 4;
#P hidden newex 256 199 71 9109513 s~ $0.gv.in.0.s;
#P hidden newex 109 275 69 9109513 r~ $0.gv.in.0.s;
#P hidden newex 256 149 27 9109513 + 1;
#P hidden newex 293 149 33 9109513 sig~ 0;
#P window setfont "Sans Serif" 10.;
#P comment 6 68 50 9109514 1: rate;
#P window setfont "Sans Serif" 9.;
#P hidden newex 256 174 85 9109513 selector~ 2;
#P hidden newex 256 125 40 9109513 pattr on;
#X prestore 1 0 0;
#P objectname on;
#P toggle 66 50 15 0;
#P objectname toggle[3];
#P window setfont "Sans Serif" 10.;
#P comment 6 50 50 9109514 0: on/off;
#P window setfont "Sans Serif" 9.;
#P hidden newex 330 125 46 9109513 pattr rate;
#X prestore 1 0 0.;
#P objectname rate;
#P flonum 66 68 49 9 0 0 32 139 0 0 0 221 221 221 222 222 222 0 0 0;
#P objectname flonum[4];
#P hidden newex 396 122 58 9109513 s $0.gv.in.2;
#P hidden newex 467 121 58 9109513 s $0.gv.in.1;
#P hidden newex 396 94 60 9109513 pattr sel.end;
#X prestore 1 0 1620.04541;
#P objectname sel.end;
#P hidden newex 467 89 64 9109513 pattr sel.start;
#X prestore 1 0 0.;
#P objectname sel.start;
#P hidden newex 491 32 69 9109513 s $0.load.done;
#P hidden newex 7 278 67 9109513 r $0.load.done;
#P hidden newex 7 300 45 9109513 loadbang;
#P window setfont "Sans Serif" 10.;
#P comment 122 69 66 9109514 3: sel end ms;
#P comment 122 50 68 9109514 2: sel start ms;
#P window setfont "Sans Serif" 9.;
#P flonum 190 69 49 9 0 0 32 139 0 0 0 221 221 221 222 222 222 0 0 0;
#P objectname flonum[2];
#P flonum 190 50 49 9 0 0 32 139 0 0 0 221 221 221 222 222 222 0 0 0;
#P objectname flonum[3];
#P hidden newex 330 149 33 9109513 sig~ 1;
#P user waveform~ 24 123 213 38 139 9;
#W mode loop;
#W mouseoutput continuous;
#W clipdraw 1;
#W unit ms;
#W grid 500.;
#W ticks 8;
#W labels 1;
#W vlabels 1;
#W vticks 1;
#W bpm 120. 4.;
#W frgb 16 0 0;
#W brgb 94 166 169;
#W rgb2 63 112 185;
#W rgb3 0 0 0;
#W rgb4 0 0 0;
#W rgb5 169 165 207;
#W rgb6 108 108 108;
#W rgb7 78 74 220;
#P hidden outlet 109 323 15 0;
#P hidden newex 229 251 56 9109513 r $0.gv.in.2;
#P hidden newex 169 251 56 9109513 r $0.gv.in.1;
#P hidden newex 109 251 56 9109513 r $0.gv.in.0;
#P hidden newex 109 299 131 9109513 groove~ $0.sample;
#P window setfont "Arial Black" 12.;
#P comment 6 7 141 10682380 gen.groove.single;
#P window setfont "Sans Serif" 10.;
#P comment 6 32 51 9109514 sample;
#P window setfont "Sans Serif" 9.;
#P hidden newex 362 33 85 9109513 buffer~ $0.sample;
#P hidden message 7 324 75 9109513 set $0.sample 1;
#P user panel 0 0 250 184;
#X brgb 191 191 191;
#X frgb 0 0 0;
#X border 1;
#X rounded 0;
#X shadow 0;
#X done;
#P background;
#P hidden newex 10 248 62 9109513 pattr disp.len;
#X prestore 1 0 22.675737;
#P objectname disp.len;
#P hidden newex 10 223 69 9109513 pattr disp.start;
#X prestore 1 0 0.;
#P objectname disp.start;
#P hidden message 74 196 35 9109513 set \$1;
#P hidden message 31 196 35 9109513 set \$1;
#P hidden toggle 256 93 15 0;
#P hidden connect 21 0 6 0;
#P hidden connect 22 0 6 0;
#P hidden connect 45 0 15 0;
#P hidden connect 6 0 15 0;
#P hidden connect 39 0 15 0;
#P hidden connect 15 0 1 0;
#P hidden connect 32 1 31 0;
#P hidden connect 29 1 28 0;
#P hidden connect 1 0 45 0;
#P hidden connect 3 1 45 0;
#P hidden connect 46 0 15 1;
#P hidden connect 15 1 2 0;
#P hidden connect 37 0 10 0;
#P hidden connect 11 0 10 0;
#P hidden connect 10 0 14 0;
#P hidden connect 52 0 15 2;
#P hidden connect 12 0 10 1;
#P hidden connect 55 0 15 3;
#P hidden connect 15 2 51 0;
#P hidden connect 15 3 54 0;
#P hidden connect 24 1 17 0;
#P hidden connect 25 1 18 0;
#P hidden connect 2 0 46 0;
#P hidden connect 4 1 46 0;
#P hidden connect 13 0 10 2;
#P hidden connect 48 0 0 0;
#P hidden connect 0 0 32 0;
#P hidden connect 32 0 36 0;
#P hidden connect 36 0 33 0;
#P hidden connect 33 0 38 0;
#P hidden connect 35 0 33 1;
#P hidden connect 49 0 29 0;
#P hidden connect 29 0 16 0;
#P hidden connect 16 0 33 2;
#P hidden connect 62 0 7 0;
#P hidden connect 61 0 59 0;
#P hidden connect 32 0 61 0;
#P hidden connect 53 0 25 0;
#P hidden connect 25 0 27 0;
#P hidden connect 29 0 58 0;
#P hidden connect 24 0 60 0;
#P hidden connect 25 0 57 0;
#P hidden connect 50 0 24 0;
#P hidden connect 24 0 26 0;
#P hidden connect 7 1 23 0;
#P hidden connect 43 0 42 0;
#P hidden connect 41 0 40 0;
#P pop;
