max v2;
#N vpatcher 359 124 1212 791;
#P window setfont "Sans Serif" 9.;
#P window linecount 1;
#P hidden newex 732 244 63 9109513 route $1.mon;
#P hidden newex 732 221 69 9109513 r scrlt.bcr.map;
#N vpatcher 15 55 615 455;
#N comlet recv;
#P inlet 50 27 15 0;
#P window setfont "Sans Serif" 9.;
#P hidden newex 50 127 27 9109513 V;
#P hidden newex 91 73 40 9109513 t b b i;
#P hidden newex 91 127 40 9109513 pack;
#P hidden newex 50 202 76 9109513 s scrlt.bcr.ctlout;
#P message 67 102 14 9109513 1;
#P hidden newex 50 177 51 9109513 gate;
#P toggle 50 152 15 0;
#P hidden newex 50 50 51 9109513 sel none;
#P message 50 102 14 9109513 0;
#P newex 91 102 27 9109513 int;
#N comlet val;
#P inlet 18 54 15 0;
#P connect 11 0 3 0;
#P connect 3 0 2 0;
#P connect 2 0 10 0;
#P connect 10 0 4 0;
#P connect 4 0 5 0;
#P connect 5 0 7 0;
#P connect 9 1 6 0;
#P connect 6 0 10 1;
#P connect 3 1 9 0;
#P connect 9 0 1 0;
#P connect 0 0 1 0;
#P connect 1 0 8 0;
#P connect 8 0 5 1;
#P connect 9 2 8 1;
#P pop;
#P hidden newobj 715 267 27 9109513 p;
#P hidden newex 725 167 55 9109513 route $1.lvl;
#P hidden newex 725 144 69 9109513 r scrlt.bcr.map;
#N vpatcher 15 55 615 455;
#N comlet recv;
#P inlet 50 27 15 0;
#P window setfont "Sans Serif" 9.;
#P hidden newex 50 127 27 9109513 V;
#P hidden newex 91 73 40 9109513 t b b i;
#P hidden newex 91 127 40 9109513 pack;
#P hidden newex 50 202 76 9109513 s scrlt.bcr.ctlout;
#P message 67 102 14 9109513 1;
#P hidden newex 50 177 51 9109513 gate;
#P toggle 50 152 15 0;
#P hidden newex 50 50 51 9109513 sel none;
#P message 50 102 14 9109513 0;
#P newex 91 102 27 9109513 int;
#N comlet val;
#P inlet 18 54 15 0;
#P connect 11 0 3 0;
#P connect 3 0 2 0;
#P connect 2 0 10 0;
#P connect 10 0 4 0;
#P connect 4 0 5 0;
#P connect 5 0 7 0;
#P connect 9 1 6 0;
#P connect 6 0 10 1;
#P connect 3 1 9 0;
#P connect 0 0 1 0;
#P connect 9 0 1 0;
#P connect 1 0 8 0;
#P connect 8 0 5 1;
#P connect 9 2 8 1;
#P pop;
#P hidden newobj 708 190 27 9109513 p;
#P hidden newex 720 90 66 9109513 route $1.mute;
#P hidden newex 720 67 69 9109513 r scrlt.bcr.map;
#N vpatcher 15 55 615 455;
#N comlet recv;
#P inlet 50 27 15 0;
#P window setfont "Sans Serif" 9.;
#P hidden newex 50 127 27 9109513 V;
#P hidden newex 91 73 40 9109513 t b b i;
#P hidden newex 91 127 40 9109513 pack;
#P hidden newex 50 202 76 9109513 s scrlt.bcr.ctlout;
#P message 67 102 14 9109513 1;
#P hidden newex 50 177 51 9109513 gate;
#P toggle 50 152 15 0;
#P hidden newex 50 50 51 9109513 sel none;
#P message 50 102 14 9109513 0;
#P newex 91 102 27 9109513 int;
#N comlet val;
#P inlet 18 54 15 0;
#P connect 11 0 3 0;
#P connect 3 0 2 0;
#P connect 2 0 10 0;
#P connect 10 0 4 0;
#P connect 4 0 5 0;
#P connect 5 0 7 0;
#P connect 9 1 6 0;
#P connect 6 0 10 1;
#P connect 3 1 9 0;
#P connect 9 0 1 0;
#P connect 0 0 1 0;
#P connect 1 0 8 0;
#P connect 8 0 5 1;
#P connect 9 2 8 1;
#P pop;
#P hidden newobj 703 113 27 9109513 p;
#P hidden newex 584 91 95 9109513 route $1.aux.prefade;
#P hidden newex 584 68 69 9109513 r scrlt.bcr.map;
#N vpatcher 15 55 615 455;
#N comlet recv;
#P inlet 50 27 15 0;
#P window setfont "Sans Serif" 9.;
#P hidden newex 50 127 27 9109513 V;
#P hidden newex 91 73 40 9109513 t b b i;
#P hidden newex 91 127 40 9109513 pack;
#P hidden newex 50 202 76 9109513 s scrlt.bcr.ctlout;
#P message 67 102 14 9109513 1;
#P hidden newex 50 177 51 9109513 gate;
#P toggle 50 152 15 0;
#P hidden newex 50 50 51 9109513 sel none;
#P message 50 102 14 9109513 0;
#P newex 91 102 27 9109513 int;
#N comlet val;
#P inlet 18 54 15 0;
#P connect 11 0 3 0;
#P connect 3 0 2 0;
#P connect 2 0 10 0;
#P connect 10 0 4 0;
#P connect 4 0 5 0;
#P connect 5 0 7 0;
#P connect 9 1 6 0;
#P connect 6 0 10 1;
#P connect 3 1 9 0;
#P connect 9 0 1 0;
#P connect 0 0 1 0;
#P connect 1 0 8 0;
#P connect 8 0 5 1;
#P connect 9 2 8 1;
#P pop;
#P hidden newobj 567 114 27 9109513 p;
#P hidden newex 598 242 68 9109513 route $1.aux.1;
#P hidden newex 598 219 69 9109513 r scrlt.bcr.map;
#N vpatcher 15 55 615 455;
#N comlet recv;
#P inlet 50 27 15 0;
#P window setfont "Sans Serif" 9.;
#P hidden newex 50 127 27 9109513 V;
#P hidden newex 91 73 40 9109513 t b b i;
#P hidden newex 91 127 40 9109513 pack;
#P hidden newex 50 202 76 9109513 s scrlt.bcr.ctlout;
#P message 67 102 14 9109513 1;
#P hidden newex 50 177 51 9109513 gate;
#P toggle 50 152 15 0;
#P hidden newex 50 50 51 9109513 sel none;
#P message 50 102 14 9109513 0;
#P newex 91 102 27 9109513 int;
#N comlet val;
#P inlet 18 54 15 0;
#P connect 11 0 3 0;
#P connect 3 0 2 0;
#P connect 2 0 10 0;
#P connect 10 0 4 0;
#P connect 4 0 5 0;
#P connect 5 0 7 0;
#P connect 9 1 6 0;
#P connect 6 0 10 1;
#P connect 3 1 9 0;
#P connect 0 0 1 0;
#P connect 9 0 1 0;
#P connect 1 0 8 0;
#P connect 8 0 5 1;
#P connect 9 2 8 1;
#P pop;
#P hidden newobj 581 265 27 9109513 p;
#P hidden newex 591 164 68 9109513 route $1.aux.0;
#P hidden newex 591 141 69 9109513 r scrlt.bcr.map;
#N vpatcher 15 55 615 455;
#N comlet recv;
#P inlet 50 27 15 0;
#P window setfont "Sans Serif" 9.;
#P hidden newex 50 127 27 9109513 V;
#P hidden newex 91 73 40 9109513 t b b i;
#P hidden newex 91 127 40 9109513 pack;
#P hidden newex 50 202 76 9109513 s scrlt.bcr.ctlout;
#P message 67 102 14 9109513 1;
#P hidden newex 50 177 51 9109513 gate;
#P toggle 50 152 15 0;
#P hidden newex 50 50 51 9109513 sel none;
#P message 50 102 14 9109513 0;
#P newex 91 102 27 9109513 int;
#N comlet val;
#P inlet 18 54 15 0;
#P connect 11 0 3 0;
#P connect 3 0 2 0;
#P connect 2 0 10 0;
#P connect 10 0 4 0;
#P connect 4 0 5 0;
#P connect 5 0 7 0;
#P connect 9 1 6 0;
#P connect 6 0 10 1;
#P connect 3 1 9 0;
#P connect 9 0 1 0;
#P connect 0 0 1 0;
#P connect 1 0 8 0;
#P connect 8 0 5 1;
#P connect 9 2 8 1;
#P pop;
#P hidden newobj 574 187 27 9109513 p;
#P hidden newex 270 125 48 9109513 r $2.mute;
#P objectname aux.prefade[4];
#P hidden newex 270 156 51 9109513 pattr mute;
#X prestore 1 0 0;
#P objectname mute;
#P hidden newex 205 151 37 9109513 r $2.lvl;
#P objectname aux.prefade[3];
#P hidden newex 205 182 40 9109513 pattr lvl;
#X prestore 1 0 0;
#P objectname lvl;
#P hidden newex 261 234 45 9109513 r $2.mon;
#P objectname aux.prefade[2];
#P hidden newex 261 265 48 9109513 pattr mon;
#X prestore 1 0 0;
#P objectname mon;
#P hidden newex 213 19 77 9109513 r $2.aux.prefade;
#P objectname aux.prefade[1];
#P hidden newex 213 50 80 9109513 pattr aux.prefade;
#X prestore 1 0 0;
#P objectname aux.prefade;
#P hidden newex 463 98 50 9109513 r $2.aux.1;
#P hidden newex 463 124 53 9109513 pattr aux.1;
#X prestore 1 0 0;
#P objectname aux.1;
#P hidden newex 351 94 50 9109513 r $2.aux.0;
#P hidden newex 351 120 53 9109513 pattr aux.0;
#X prestore 1 0 0;
#P objectname aux.0;
#P hidden comment 313 57 171 9109513 arg 2: s/r prefix (ex: scrlt.mixer.chan.0);
#P user pictctrl 481 169 50 50 scrlt.knob.png 0 0 0 2 90 0 0 0 50 50 128 0 1 33 2 1 1 270;
#P hidden newex 66 258 45 9109513 loadbang;
#P hidden message 66 283 156 9109513 script send ch_num_lbl set chan $1;
#N thispatcher;
#Q end;
#P hidden newobj 66 308 54 9109513 thispatcher;
#P window setfont "Sans Serif" 14.;
#P comment 1 0 65 9109518 chan $1;
#P objectname ch_num_lbl;
#P window setfont "Sans Serif" 9.;
#P hidden newex 67 208 23 9109513 Not;
#P hidden newex 97 208 31 9109513 gate~;
#P comment 0 105 25 9109513 mute;
#P toggle 35 106 14 0;
#P objectname toggle[1];
#P hidden newex 67 46 27 9109513 + 1;
#P hidden newex 97 46 54 9109513 selector~ 2;
#P toggle 36 24 13 0;
#P objectname toggle;
#P comment 24 62 29 9109513 aux 1;
#P hidden user gain~ 470 281 40 44 158 0 1.071519 7.94321 10.;
#P hidden newex 470 355 99 9109513 s~ scrlt.mixer.aux.1.out;
#P user dial 0 58 22 22 128 1 0 0 240 270 1 1. 170 170 170 221 221 221 120 120 120 225 225 225 0 0 0 0 0 0;
#P objectname dial[1];
#P comment 0 43 29 9109513 aux 0;
#P hidden user gain~ 355 262 40 44 158 0 1.071519 7.94321 10.;
#P hidden newex 356 351 99 9109513 s~ scrlt.mixer.aux.0.out;
#P user dial 30 39 22 22 128 1 0 0 240 270 1 1. 170 170 170 221 221 221 120 120 120 225 225 225 0 0 0 0 0 0;
#P objectname dial;
#P hidden newex 67 235 99 9109513 s~ scrlt.mixer.master.in;
#P hidden user gain~ 259 324 41 56 158 0 1.071519 7.94321 10.;
#P hidden newex 264 419 88 9109513 s~ scrlt.mixer.mon.in;
#P hidden newex 67 19 39 9109513 r~ $2.in;
#P user dial 30 81 22 22 128 1 0 0 240 270 1 1. 170 170 170 221 221 221 120 120 120 225 225 225 0 0 0 0 0 0;
#P objectname dial[2];
#P user meter~ 36 122 51 242 50 0 168 0 103 103 103 255 153 0 255 0 0 217 217 0 153 186 0 12 3 3 3 3;
#P user gain~ 0 122 37 98 158 0 1.071519 7.94321 10.;
#P objectname gain~;
#P comment 0 85 24 9109513 mon;
#P comment 0 23 36 9109513 prefade;
#P hidden comment 102 21 83 9109513 scrlt.mixer.chan.0.in;
#P hidden comment 314 38 100 9109513 arg 1: channel number;
#P user panel 0 0 51 20;
#X brgb 191 191 191;
#X frgb 0 0 0;
#X border 1;
#X rounded 0;
#X shadow 0;
#X done;
#P background;
#P user panel 0 19 51 104;
#X brgb 191 191 191;
#X frgb 0 0 0;
#X border 1;
#X rounded 0;
#X shadow 0;
#X done;
#P background;
#P hidden connect 36 1 17 0;
#P hidden connect 9 0 6 0;
#P hidden connect 42 1 6 0;
#P hidden connect 34 1 13 0;
#P hidden connect 40 1 8 0;
#P hidden connect 44 1 24 0;
#P hidden connect 38 1 21 0;
#P hidden connect 26 0 7 0;
#P hidden connect 31 0 30 0;
#P hidden connect 30 0 29 0;
#P hidden connect 38 0 23 0;
#P hidden connect 44 0 27 0;
#P hidden connect 26 0 12 0;
#P hidden connect 23 0 22 0;
#P hidden connect 27 0 26 0;
#P hidden connect 6 0 26 1;
#P hidden connect 9 0 22 1;
#P hidden connect 26 0 22 2;
#P hidden connect 43 0 42 0;
#P hidden connect 39 0 38 0;
#P hidden connect 40 0 11 0;
#P hidden connect 9 0 11 0;
#P hidden connect 41 0 40 0;
#P hidden connect 11 0 10 0;
#P hidden connect 45 0 44 0;
#P hidden connect 35 0 34 0;
#P hidden connect 34 0 15 0;
#P hidden connect 22 0 15 0;
#P hidden connect 15 0 14 0;
#P hidden connect 37 0 36 0;
#P hidden connect 36 0 19 0;
#P hidden connect 22 0 19 0;
#P hidden connect 19 0 18 0;
#P hidden connect 38 0 52 0;
#P hidden connect 34 0 46 0;
#P hidden connect 36 0 49 0;
#P hidden connect 53 0 54 0;
#P hidden connect 54 0 52 1;
#P hidden connect 47 0 48 0;
#P hidden connect 48 0 46 1;
#P hidden connect 50 0 51 0;
#P hidden connect 51 0 49 1;
#P hidden connect 44 0 55 0;
#P hidden connect 42 0 58 0;
#P hidden connect 40 0 61 0;
#P hidden connect 56 0 57 0;
#P hidden connect 57 0 55 1;
#P hidden connect 59 0 60 0;
#P hidden connect 60 0 58 1;
#P hidden connect 62 0 63 0;
#P hidden connect 63 0 61 1;
#P pop;
