max v2;
#N vpatcher 39 41 930 592;
#P origin 31 9;
#P window setfont "Sans Serif" 9.;
#P window linecount 1;
#P hidden newex 497 367 40 9109513 change;
#P hidden message 462 345 14 9109513 1;
#P hidden newex 462 320 28 9109513 sel 1;
#P hidden newex 462 295 34 9109513 active;
#P hidden message 500 320 14 9109513 0;
#P hidden newex 500 295 50 9109513 closebang;
#N comlet 0: closing 1: opening;
#P hidden outlet 463 410 15 0;
#N comlet dummy;
#P hidden inlet 527 328 15 0;
#P window setfont "Arial Black" 14.;
#P comment 6 7 93 10682382 bcr mapper;
#P bpatcher 6 140 213 16 0 0 scrlt.targets.chooser.knob.mxt 4 8 E8;
#P objectname map.8;
#P bpatcher 6 125 213 16 0 0 scrlt.targets.chooser.knob.mxt 4 7 E7;
#P objectname map.7;
#P bpatcher 6 110 213 16 0 0 scrlt.targets.chooser.knob.mxt 4 6 E6;
#P objectname map.6;
#P bpatcher 6 95 213 16 0 0 scrlt.targets.chooser.knob.mxt 4 5 E5;
#P objectname map.5;
#P bpatcher 6 80 213 16 0 0 scrlt.targets.chooser.knob.mxt 4 4 E4;
#P objectname map.4;
#P bpatcher 6 65 213 16 0 0 scrlt.targets.chooser.knob.mxt 4 3 E3;
#P objectname map.3;
#P bpatcher 6 50 213 16 0 0 scrlt.targets.chooser.knob.mxt 4 2 E2;
#P objectname map.2;
#P bpatcher 6 35 213 16 0 0 scrlt.targets.chooser.knob.mxt 4 1 E1;
#P objectname map.1;
#P bpatcher 6 159 213 16 0 0 scrlt.targets.chooser.knob.mxt 4 9 E9;
#P objectname map.9;
#P bpatcher 6 174 213 16 0 0 scrlt.targets.chooser.knob.mxt 4 10 E10;
#P objectname map.10;
#P bpatcher 6 189 213 16 0 0 scrlt.targets.chooser.knob.mxt 4 11 E11;
#P objectname map.11;
#P bpatcher 6 204 213 16 0 0 scrlt.targets.chooser.knob.mxt 4 12 E12;
#P objectname map.12;
#P bpatcher 6 219 213 16 0 0 scrlt.targets.chooser.knob.mxt 4 13 E13;
#P objectname map.13;
#P bpatcher 6 234 213 16 0 0 scrlt.targets.chooser.knob.mxt 4 14 E14;
#P objectname map.14;
#P bpatcher 6 249 213 16 0 0 scrlt.targets.chooser.knob.mxt 4 15 E15;
#P objectname map.15;
#P bpatcher 6 264 213 16 0 0 scrlt.targets.chooser.knob.mxt 4 16 E16;
#P objectname map.16;
#P bpatcher 6 283 213 16 0 0 scrlt.targets.chooser.knob.mxt 4 17 E17;
#P objectname map.17;
#P bpatcher 6 298 213 16 0 0 scrlt.targets.chooser.knob.mxt 4 18 E18;
#P objectname map.18;
#P bpatcher 6 313 213 16 0 0 scrlt.targets.chooser.knob.mxt 4 19 E19;
#P objectname map.19;
#P bpatcher 6 328 213 16 0 0 scrlt.targets.chooser.knob.mxt 4 20 E20;
#P objectname map.20;
#P bpatcher 6 343 213 16 0 0 scrlt.targets.chooser.knob.mxt 4 21 E21;
#P objectname map.21;
#P bpatcher 6 358 213 16 0 0 scrlt.targets.chooser.knob.mxt 4 22 E22;
#P objectname map.22;
#P bpatcher 6 373 213 16 0 0 scrlt.targets.chooser.knob.mxt 4 23 E23;
#P objectname map.23;
#P bpatcher 6 388 213 16 0 0 scrlt.targets.chooser.knob.mxt 4 24 E24;
#P objectname map.24;
#P bpatcher 6 407 213 16 0 0 scrlt.targets.chooser.knob.mxt 4 25 E25;
#P objectname map.25;
#P bpatcher 6 422 213 16 0 0 scrlt.targets.chooser.knob.mxt 4 26 E26;
#P objectname map.26;
#P bpatcher 6 437 213 16 0 0 scrlt.targets.chooser.knob.mxt 4 27 E27;
#P objectname map.27;
#P bpatcher 6 452 213 16 0 0 scrlt.targets.chooser.knob.mxt 4 28 E28;
#P objectname map.28;
#P bpatcher 6 467 213 16 0 0 scrlt.targets.chooser.knob.mxt 4 29 E29;
#P objectname map.29;
#P bpatcher 6 482 213 16 0 0 scrlt.targets.chooser.knob.mxt 4 30 E30;
#P objectname map.30;
#P bpatcher 6 497 213 16 0 0 scrlt.targets.chooser.knob.mxt 4 31 E31;
#P objectname map.31;
#P bpatcher 6 512 213 16 0 0 scrlt.targets.chooser.knob.mxt 4 32 E32;
#P objectname map.32;
#P bpatcher 222 35 213 16 0 0 scrlt.targets.chooser.toggle.mxt 4 33 B1;
#P objectname map.33;
#P bpatcher 222 50 213 16 0 0 scrlt.targets.chooser.toggle.mxt 4 34 B2;
#P objectname map.34;
#P bpatcher 222 65 213 16 0 0 scrlt.targets.chooser.toggle.mxt 4 35 B3;
#P objectname map.35;
#P bpatcher 222 80 213 16 0 0 scrlt.targets.chooser.toggle.mxt 4 36 B4;
#P objectname map.36;
#P bpatcher 222 95 213 16 0 0 scrlt.targets.chooser.toggle.mxt 4 37 B5;
#P objectname map.37;
#P bpatcher 222 110 213 16 0 0 scrlt.targets.chooser.toggle.mxt 4 38 B6;
#P objectname map.38;
#P bpatcher 222 125 213 16 0 0 scrlt.targets.chooser.toggle.mxt 4 39 B7;
#P objectname map.39;
#P bpatcher 222 140 213 16 0 0 scrlt.targets.chooser.toggle.mxt 4 40 B8;
#P objectname map.40;
#P bpatcher 222 159 213 16 0 0 scrlt.targets.chooser.toggle.mxt 4 41 B9;
#P objectname map.41;
#P bpatcher 222 174 213 16 0 0 scrlt.targets.chooser.toggle.mxt 4 42 B10;
#P objectname map.42;
#P bpatcher 222 189 213 16 0 0 scrlt.targets.chooser.toggle.mxt 4 43 B11;
#P objectname map.43;
#P bpatcher 222 204 213 16 0 0 scrlt.targets.chooser.toggle.mxt 4 44 B12;
#P objectname map.44;
#P bpatcher 222 219 213 16 0 0 scrlt.targets.chooser.toggle.mxt 4 45 B13;
#P objectname map.45;
#P bpatcher 222 234 213 16 0 0 scrlt.targets.chooser.toggle.mxt 4 46 B14;
#P objectname map.46;
#P bpatcher 222 249 213 16 0 0 scrlt.targets.chooser.toggle.mxt 4 47 B15;
#P objectname map.47;
#P bpatcher 222 264 213 16 0 0 scrlt.targets.chooser.toggle.mxt 4 48 B16;
#P objectname map.48;
#P bpatcher 222 283 213 16 0 0 scrlt.targets.chooser.toggle.mxt 4 49 B17;
#P objectname map.49;
#P bpatcher 222 298 213 16 0 0 scrlt.targets.chooser.toggle.mxt 4 50 B18;
#P objectname map.50;
#P bpatcher 222 313 213 16 0 0 scrlt.targets.chooser.toggle.mxt 4 51 B19;
#P objectname map.51;
#P bpatcher 222 328 213 16 0 0 scrlt.targets.chooser.toggle.mxt 4 52 B20;
#P objectname map.52;
#P bpatcher 222 343 213 16 0 0 scrlt.targets.chooser.toggle.mxt 4 53 B21;
#P objectname map.53;
#P bpatcher 222 358 213 16 0 0 scrlt.targets.chooser.toggle.mxt 4 54 B22;
#P objectname map.54;
#P bpatcher 222 373 213 16 0 0 scrlt.targets.chooser.toggle.mxt 4 55 B23;
#P objectname map.55;
#P bpatcher 222 388 213 16 0 0 scrlt.targets.chooser.toggle.mxt 4 56 B24;
#P objectname map.56;
#P bpatcher 222 407 213 16 0 0 scrlt.targets.chooser.toggle.mxt 4 57 B25;
#P objectname map.57;
#P bpatcher 222 422 213 16 0 0 scrlt.targets.chooser.toggle.mxt 4 58 B26;
#P objectname map.58;
#P bpatcher 222 437 213 16 0 0 scrlt.targets.chooser.toggle.mxt 4 59 B27;
#P objectname map.59;
#P bpatcher 222 452 213 16 0 0 scrlt.targets.chooser.toggle.mxt 4 60 B28;
#P objectname map.60;
#P bpatcher 222 467 213 16 0 0 scrlt.targets.chooser.toggle.mxt 4 61 B29;
#P objectname map.61;
#P bpatcher 222 482 213 16 0 0 scrlt.targets.chooser.toggle.mxt 4 62 B30;
#P objectname map.62;
#P bpatcher 222 497 213 16 0 0 scrlt.targets.chooser.toggle.mxt 4 63 B31;
#P objectname map.63;
#P bpatcher 222 512 213 16 0 0 scrlt.targets.chooser.toggle.mxt 4 64 B32;
#P objectname map.64;
#P bpatcher 438 35 213 16 0 0 scrlt.targets.chooser.toggle.mxt 4 65 B33;
#P objectname map.65;
#P bpatcher 438 50 213 16 0 0 scrlt.targets.chooser.toggle.mxt 4 66 B34;
#P objectname map.66;
#P bpatcher 438 65 213 16 0 0 scrlt.targets.chooser.toggle.mxt 4 67 B35;
#P objectname map.67;
#P bpatcher 438 80 213 16 0 0 scrlt.targets.chooser.toggle.mxt 4 68 B36;
#P objectname map.68;
#P bpatcher 438 95 213 16 0 0 scrlt.targets.chooser.toggle.mxt 4 69 B37;
#P objectname map.69;
#P bpatcher 438 110 213 16 0 0 scrlt.targets.chooser.toggle.mxt 4 70 B38;
#P objectname map.70;
#P bpatcher 438 125 213 16 0 0 scrlt.targets.chooser.toggle.mxt 4 71 B39;
#P objectname map.71;
#P bpatcher 438 140 213 16 0 0 scrlt.targets.chooser.toggle.mxt 4 72 B40;
#P objectname map.72;
#P bpatcher 438 159 213 16 0 0 scrlt.targets.chooser.toggle.mxt 4 73 B41;
#P objectname map.73;
#P bpatcher 438 174 213 16 0 0 scrlt.targets.chooser.toggle.mxt 4 74 B42;
#P objectname map.74;
#P bpatcher 438 189 213 16 0 0 scrlt.targets.chooser.toggle.mxt 4 75 B43;
#P objectname map.75;
#P bpatcher 438 204 213 16 0 0 scrlt.targets.chooser.toggle.mxt 4 76 B44;
#P objectname map.76;
#P bpatcher 438 219 213 16 0 0 scrlt.targets.chooser.toggle.mxt 4 77 B45;
#P objectname map.77;
#P bpatcher 438 234 213 16 0 0 scrlt.targets.chooser.toggle.mxt 4 78 B46;
#P objectname map.78;
#P bpatcher 438 249 213 16 0 0 scrlt.targets.chooser.toggle.mxt 4 79 B47;
#P objectname map.79;
#P bpatcher 438 264 213 16 0 0 scrlt.targets.chooser.toggle.mxt 4 80 B48;
#P objectname map.80;
#P bpatcher 654 35 213 16 0 0 scrlt.targets.chooser.knob.mxt 4 81 E33;
#P objectname map.81;
#P bpatcher 654 50 213 16 0 0 scrlt.targets.chooser.knob.mxt 4 82 E34;
#P objectname map.82;
#P bpatcher 654 65 213 16 0 0 scrlt.targets.chooser.knob.mxt 4 83 E35;
#P objectname map.83;
#P bpatcher 654 80 213 16 0 0 scrlt.targets.chooser.knob.mxt 4 84 E36;
#P objectname map.84;
#P bpatcher 654 95 213 16 0 0 scrlt.targets.chooser.knob.mxt 4 85 E37;
#P objectname map.85;
#P bpatcher 654 110 213 16 0 0 scrlt.targets.chooser.knob.mxt 4 86 E38;
#P objectname map.86;
#P bpatcher 654 125 213 16 0 0 scrlt.targets.chooser.knob.mxt 4 87 E39;
#P objectname map.87;
#P bpatcher 654 140 213 16 0 0 scrlt.targets.chooser.knob.mxt 4 88 E40;
#P objectname map.88;
#P bpatcher 654 159 213 16 0 0 scrlt.targets.chooser.knob.mxt 4 89 E41;
#P objectname map.89;
#P bpatcher 654 174 213 16 0 0 scrlt.targets.chooser.knob.mxt 4 90 E42;
#P objectname map.90;
#P bpatcher 654 189 213 16 0 0 scrlt.targets.chooser.knob.mxt 4 91 E43;
#P objectname map.91;
#P bpatcher 654 204 213 16 0 0 scrlt.targets.chooser.knob.mxt 4 92 E44;
#P objectname map.92;
#P bpatcher 654 219 213 16 0 0 scrlt.targets.chooser.knob.mxt 4 93 E45;
#P objectname map.93;
#P bpatcher 654 234 213 16 0 0 scrlt.targets.chooser.knob.mxt 4 94 E46;
#P objectname map.94;
#P bpatcher 654 249 213 16 0 0 scrlt.targets.chooser.knob.mxt 4 95 E47;
#P objectname map.95;
#P bpatcher 654 264 213 16 0 0 scrlt.targets.chooser.knob.mxt 4 96 E48;
#P objectname map.96;
#P bpatcher 654 283 213 16 0 0 scrlt.targets.chooser.knob.mxt 4 97 E49;
#P objectname map.97;
#P bpatcher 654 298 213 16 0 0 scrlt.targets.chooser.knob.mxt 4 98 E50;
#P objectname map.98;
#P bpatcher 654 313 213 16 0 0 scrlt.targets.chooser.knob.mxt 4 99 E51;
#P objectname map.99;
#P bpatcher 654 328 213 16 0 0 scrlt.targets.chooser.knob.mxt 4 100 E52;
#P objectname map.100;
#P bpatcher 654 343 213 16 0 0 scrlt.targets.chooser.knob.mxt 4 101 E53;
#P objectname map.101;
#P bpatcher 654 358 213 16 0 0 scrlt.targets.chooser.knob.mxt 4 102 E54;
#P objectname map.102;
#P bpatcher 654 373 213 16 0 0 scrlt.targets.chooser.knob.mxt 4 103 E55;
#P objectname map.103;
#P bpatcher 654 388 213 16 0 0 scrlt.targets.chooser.knob.mxt 4 104 E56;
#P objectname map.104;
#P bpatcher 654 467 213 16 0 0 scrlt.targets.chooser.toggle.mxt 4 105 B49;
#P objectname map.105;
#P bpatcher 654 482 213 16 0 0 scrlt.targets.chooser.toggle.mxt 4 106 B50;
#P objectname map.106;
#P bpatcher 654 497 213 16 0 0 scrlt.targets.chooser.toggle.mxt 4 107 B51;
#P objectname map.107;
#P bpatcher 654 512 213 16 0 0 scrlt.targets.chooser.toggle.mxt 4 108 B52;
#P objectname map.108;
#P user panel 653 282 216 125;
#X brgb 159 159 159;
#X frgb 0 0 0;
#X border 0;
#X rounded 0;
#X shadow 0;
#X done;
#P background;
#P user panel 653 158 216 125;
#X brgb 191 191 191;
#X frgb 0 0 0;
#X border 0;
#X rounded 0;
#X shadow 0;
#X done;
#P background;
#P user panel 653 34 216 125;
#X brgb 159 159 159;
#X frgb 0 0 0;
#X border 0;
#X rounded 0;
#X shadow 0;
#X done;
#P background;
#P user panel 438 158 214 125;
#X brgb 191 191 191;
#X frgb 0 0 0;
#X border 0;
#X rounded 0;
#X shadow 0;
#X done;
#P background;
#P user panel 438 34 214 125;
#X brgb 159 159 159;
#X frgb 0 0 0;
#X border 0;
#X rounded 0;
#X shadow 0;
#X done;
#P background;
#P user panel 221 158 215 125;
#X brgb 191 191 191;
#X frgb 0 0 0;
#X border 0;
#X rounded 0;
#X shadow 0;
#X done;
#P background;
#P user panel 221 34 215 125;
#X brgb 159 159 159;
#X frgb 0 0 0;
#X border 0;
#X rounded 0;
#X shadow 0;
#X done;
#P background;
#P user panel 6 34 215 124;
#X brgb 159 159 159;
#X frgb 0 0 0;
#X border 0;
#X rounded 0;
#X shadow 0;
#X done;
#P background;
#P user panel 6 158 215 124;
#X brgb 191 191 191;
#X frgb 0 0 0;
#X border 0;
#X rounded 0;
#X shadow 0;
#X done;
#P background;
#P user panel 6 406 215 124;
#X brgb 191 191 191;
#X frgb 0 0 0;
#X border 0;
#X rounded 0;
#X shadow 0;
#X done;
#P background;
#P user panel 221 406 215 125;
#X brgb 191 191 191;
#X frgb 0 0 0;
#X border 0;
#X rounded 0;
#X shadow 0;
#X done;
#P background;
#P user panel 6 282 215 124;
#X brgb 159 159 159;
#X frgb 0 0 0;
#X border 0;
#X rounded 0;
#X shadow 0;
#X done;
#P background;
#P user panel 221 282 215 125;
#X brgb 159 159 159;
#X frgb 0 0 0;
#X border 0;
#X rounded 0;
#X shadow 0;
#X done;
#P background;
#P user panel 653 466 216 65;
#X brgb 191 191 191;
#X frgb 0 0 0;
#X border 0;
#X rounded 0;
#X shadow 0;
#X done;
#P background;
#P hidden connect 127 0 128 0;
#P hidden connect 128 0 129 0;
#P hidden connect 130 0 124 0;
#P hidden connect 129 0 130 0;
#P hidden connect 126 0 130 0;
#P hidden connect 125 0 126 0;
#P pop;
