max v2;
#N vpatcher 60 56 835 802;
#P window setfont "Sans Serif" 9.;
#P hidden message 445 135 14 9109513 1;
#P hidden newex 445 110 28 9109513 sel 1;
#P hidden newex 445 85 34 9109513 active;
#P hidden message 483 110 14 9109513 0;
#P hidden newex 483 85 50 9109513 closebang;
#N comlet 0: closing 1: opening;
#P hidden outlet 445 160 15 0;
#N comlet dummy;
#P hidden inlet 407 52 15 0;
#P bpatcher 274 91 30 33 0 0 scrlt.midi.bcr.node.toggle.mxt 4 40;
#P objectname node.81[32];
#P bpatcher 243 91 30 33 0 0 scrlt.midi.bcr.node.toggle.mxt 4 39;
#P objectname node.81[31];
#P bpatcher 212 91 30 33 0 0 scrlt.midi.bcr.node.toggle.mxt 4 38;
#P objectname node.81[30];
#P bpatcher 181 91 30 33 0 0 scrlt.midi.bcr.node.toggle.mxt 4 37;
#P objectname node.81[29];
#P bpatcher 150 91 30 33 0 0 scrlt.midi.bcr.node.toggle.mxt 4 36;
#P objectname node.81[28];
#P bpatcher 119 91 30 33 0 0 scrlt.midi.bcr.node.toggle.mxt 4 35;
#P objectname node.81[27];
#P bpatcher 88 91 30 33 0 0 scrlt.midi.bcr.node.toggle.mxt 4 34;
#P objectname node.81[26];
#P bpatcher 57 91 30 33 0 0 scrlt.midi.bcr.node.toggle.mxt 4 33;
#P objectname node.81[25];
#P bpatcher 274 322 30 33 0 0 scrlt.midi.bcr.node.toggle.mxt 4 80;
#P objectname node.81[24];
#P bpatcher 243 322 30 33 0 0 scrlt.midi.bcr.node.toggle.mxt 4 79;
#P objectname node.81[23];
#P bpatcher 212 322 30 33 0 0 scrlt.midi.bcr.node.toggle.mxt 4 78;
#P objectname node.81[22];
#P bpatcher 181 322 30 33 0 0 scrlt.midi.bcr.node.toggle.mxt 4 77;
#P objectname node.81[21];
#P bpatcher 150 322 30 33 0 0 scrlt.midi.bcr.node.toggle.mxt 4 76;
#P objectname node.81[20];
#P bpatcher 119 322 30 33 0 0 scrlt.midi.bcr.node.toggle.mxt 4 75;
#P objectname node.81[19];
#P bpatcher 88 322 30 33 0 0 scrlt.midi.bcr.node.toggle.mxt 4 74;
#P objectname node.81[18];
#P bpatcher 57 322 30 33 0 0 scrlt.midi.bcr.node.toggle.mxt 4 73;
#P objectname node.81[17];
#P button 625 305 15 0;
#P button 627 97 15 0;
#P toggle 520 365 16 0;
#P toggle 425 365 16 0;
#P newex 520 413 83 9109513 print scrlt.bcr.ctlin;
#P newex 520 389 27 9109513 gate;
#P newex 425 413 89 9109513 print scrlt.bcr.ctlout;
#P newex 425 389 27 9109513 gate;
#P toggle 473 312 33 0;
#P newex 442 365 74 9109513 r scrlt.bcr.ctlout;
#P newex 537 365 68 9109513 r scrlt.bcr.ctlin;
#P bpatcher 274 287 30 33 0 0 scrlt.midi.bcr.node.toggle.mxt 4 72;
#P objectname node.81[16];
#P bpatcher 243 287 30 33 0 0 scrlt.midi.bcr.node.toggle.mxt 4 71;
#P objectname node.81[15];
#P bpatcher 212 287 30 33 0 0 scrlt.midi.bcr.node.toggle.mxt 4 70;
#P objectname node.81[14];
#P bpatcher 181 287 30 33 0 0 scrlt.midi.bcr.node.toggle.mxt 4 69;
#P objectname node.81[13];
#P bpatcher 150 287 30 33 0 0 scrlt.midi.bcr.node.toggle.mxt 4 68;
#P objectname node.81[12];
#P bpatcher 119 287 30 33 0 0 scrlt.midi.bcr.node.toggle.mxt 4 67;
#P objectname node.81[11];
#P bpatcher 88 287 30 33 0 0 scrlt.midi.bcr.node.toggle.mxt 4 66;
#P objectname node.81[10];
#P bpatcher 57 287 30 33 0 0 scrlt.midi.bcr.node.toggle.mxt 4 65;
#P objectname node.81[9];
#P bpatcher 274 45 30 45 0 0 scrlt.midi.bcr.node.knob.mxt 4 8;
#P objectname node.81[8];
#P bpatcher 243 45 30 45 0 0 scrlt.midi.bcr.node.knob.mxt 4 7;
#P objectname node.81[7];
#P bpatcher 212 45 30 45 0 0 scrlt.midi.bcr.node.knob.mxt 4 6;
#P objectname node.81[6];
#P bpatcher 181 45 30 45 0 0 scrlt.midi.bcr.node.knob.mxt 4 5;
#P objectname node.81[5];
#P bpatcher 150 45 30 45 0 0 scrlt.midi.bcr.node.knob.mxt 4 4;
#P objectname node.81[4];
#P bpatcher 119 45 30 45 0 0 scrlt.midi.bcr.node.knob.mxt 4 3;
#P objectname node.81[3];
#P bpatcher 88 45 30 45 0 0 scrlt.midi.bcr.node.knob.mxt 4 2;
#P objectname node.81[2];
#P bpatcher 57 45 30 45 0 0 scrlt.midi.bcr.node.knob.mxt 4 1;
#P objectname node.81[1];
#P number 713 109 35 9 0 0 0 139 0 0 0 221 221 221 222 222 222 0 0 0;
#P newex 548 254 38 9109513 swap;
#P newex 548 219 38 9109513 unpack;
#P newex 530 165 74 9109513 r scrlt.bcr.ctlout;
#P newex 618 155 45 9109513 loadbang;
#P message 648 215 14 9109513 1;
#P message 604 188 59 9109513 BCR2000[1];
#P number 705 87 35 9 0 0 0 139 0 0 0 221 221 221 222 222 222 0 0 0;
#P newex 551 297 47 9109513 ctlout 2 1;
#P bpatcher 274 475 30 45 0 0 scrlt.midi.bcr.node.knob.mxt 4 104;
#P objectname node.104;
#P bpatcher 243 475 30 45 0 0 scrlt.midi.bcr.node.knob.mxt 4 103;
#P objectname node.103;
#P bpatcher 212 475 30 45 0 0 scrlt.midi.bcr.node.knob.mxt 4 102;
#P objectname node.102;
#P bpatcher 181 475 30 45 0 0 scrlt.midi.bcr.node.knob.mxt 4 101;
#P objectname node.101;
#P bpatcher 150 475 30 45 0 0 scrlt.midi.bcr.node.knob.mxt 4 100;
#P objectname node.100;
#P bpatcher 119 475 30 45 0 0 scrlt.midi.bcr.node.knob.mxt 4 99;
#P objectname node.99;
#P bpatcher 88 475 30 45 0 0 scrlt.midi.bcr.node.knob.mxt 4 98;
#P objectname node.98;
#P bpatcher 57 475 30 45 0 0 scrlt.midi.bcr.node.knob.mxt 4 97;
#P objectname node.97;
#P bpatcher 274 379 30 45 0 0 scrlt.midi.bcr.node.knob.mxt 4 88;
#P objectname node.88;
#P bpatcher 243 379 30 45 0 0 scrlt.midi.bcr.node.knob.mxt 4 87;
#P objectname node.87;
#P bpatcher 212 379 30 45 0 0 scrlt.midi.bcr.node.knob.mxt 4 86;
#P objectname node.86;
#P bpatcher 181 379 30 45 0 0 scrlt.midi.bcr.node.knob.mxt 4 85;
#P objectname node.85;
#P bpatcher 150 379 30 45 0 0 scrlt.midi.bcr.node.knob.mxt 4 84;
#P objectname node.84;
#P bpatcher 119 379 30 45 0 0 scrlt.midi.bcr.node.knob.mxt 4 83;
#P objectname node.83;
#P bpatcher 88 379 30 45 0 0 scrlt.midi.bcr.node.knob.mxt 4 82;
#P objectname node.82;
#P bpatcher 57 379 30 45 0 0 scrlt.midi.bcr.node.knob.mxt 4 81;
#P objectname node.81;
#P bpatcher 274 427 30 45 0 0 scrlt.midi.bcr.node.knob.mxt 4 96;
#P objectname node.96;
#P bpatcher 243 427 30 45 0 0 scrlt.midi.bcr.node.knob.mxt 4 95;
#P objectname node.95;
#P bpatcher 212 427 30 45 0 0 scrlt.midi.bcr.node.knob.mxt 4 94;
#P objectname node.94;
#P bpatcher 181 427 30 45 0 0 scrlt.midi.bcr.node.knob.mxt 4 93;
#P objectname node.93;
#P bpatcher 150 427 30 45 0 0 scrlt.midi.bcr.node.knob.mxt 4 92;
#P objectname node.92;
#P bpatcher 119 427 30 45 0 0 scrlt.midi.bcr.node.knob.mxt 4 91;
#P objectname node.91;
#P bpatcher 88 427 30 45 0 0 scrlt.midi.bcr.node.knob.mxt 4 90;
#P objectname node.90;
#P bpatcher 57 427 30 45 0 0 scrlt.midi.bcr.node.knob.mxt 4 89;
#P objectname node.89;
#P newex 655 76 29 9109513 swap;
#P newex 655 101 29 9109513 pack;
#P newex 655 126 70 9109513 s scrlt.bcr.ctlin;
#P newex 655 51 48 9109513 ctlin;
#P fasten 55 0 60 0 478 355 430 355;
#P connect 60 0 56 0;
#P connect 56 0 57 0;
#P connect 54 0 56 1;
#P hidden connect 84 0 85 0;
#P hidden connect 85 0 86 0;
#P hidden connect 86 0 81 0;
#P hidden connect 83 0 81 0;
#P hidden connect 82 0 83 0;
#P fasten 55 0 61 0 478 355 525 355;
#P connect 61 0 58 0;
#P connect 58 0 59 0;
#P connect 53 0 58 1;
#P connect 33 0 34 0;
#P connect 34 0 35 0;
#P connect 35 0 28 0;
#P connect 30 0 28 0;
#P connect 35 1 28 1;
#P connect 34 1 35 1;
#P connect 31 0 28 2;
#P connect 32 0 30 0;
#P connect 35 0 63 0;
#P connect 0 0 62 0;
#P connect 32 0 31 0;
#P connect 0 0 3 0;
#P connect 3 0 2 0;
#P connect 2 0 1 0;
#P connect 0 1 3 1;
#P connect 3 1 2 1;
#P connect 0 2 29 0;
#P connect 0 1 36 0;
#P pop;
