max v2;
#N vpatcher 106 76 762 433;
#P origin 0 -21;
#P window setfont "Sans Serif" 9.;
#P window linecount 1;
#P hidden newex 455 221 109 9109513 scrlt.util.bcrfwd $1.par.2;
#P hidden newex 455 171 109 9109513 scrlt.util.bcrfwd $1.par.0;
#P hidden newex 455 196 109 9109513 scrlt.util.bcrfwd $1.par.1;
#P hidden newex 455 246 109 9109513 scrlt.util.bcrfwd $1.par.3;
#P window setfont "Sans Serif" 20.;
#P comment 308 274 214 9109524 todo: param ranges;
#B color 3;
#P window setfont "Sans Serif" 9.;
#P hidden newex 114 223 61 9109513 rset $1.par.3;
#P hidden newex 189 223 50 9109513 s $1.par.3;
#P hidden newex 396 64 48 9109513 r $1.par.3;
#P hidden newex 114 200 61 9109513 rset $1.par.2;
#P hidden newex 189 200 50 9109513 s $1.par.2;
#P hidden newex 467 62 48 9109513 r $1.par.2;
#P hidden newex 330 64 48 9109513 r $1.par.1;
#P hidden newex 256 64 48 9109513 r $1.par.0;
#P window setfont "Sans Serif" 10.;
#P comment 122 87 50 9109514 disp len;
#P window setfont "Sans Serif" 9.;
#P flonum 190 87 49 9 0 0 32 139 0 0 0 221 221 221 222 222 222 0 0 0;
#P objectname flonum[1];
#P flonum 66 87 49 9 0 0 32 139 0 0 0 221 221 221 222 222 222 0 0 0;
#P objectname flonum;
#P window setfont "Sans Serif" 10.;
#P comment 6 87 50 9109514 disp start;
#P window setfont "Sans Serif" 9.;
#P hidden newex 536 62 76 9109513 loadmess loop 1;
#P hidden newex 536 84 58 9109513 s $0.gv.in.0;
#P hidden newex 536 106 99 9109513 loadmess loopinterp 1;
#P hidden newex 536 128 58 9109513 s $0.gv.in.0;
#P bpatcher 6 123 19 38 0 0 scrlt.wfmodesel.mxt 4;
#P hidden newex 256 199 71 9109513 s~ $0.gv.in.0.s;
#P hidden newex 109 275 69 9109513 r~ $0.gv.in.0.s;
#P hidden newex 256 149 27 9109513 + 1;
#P hidden newex 293 149 33 9109513 sig~ 0;
#P window setfont "Sans Serif" 10.;
#P comment 6 68 50 9109514 1: rate;
#P window setfont "Sans Serif" 9.;
#P hidden newex 256 174 85 9109513 selector~ 2;
#P hidden newex 256 125 51 9109513 pattr par.0;
#X prestore 1 0 0;
#P objectname par.0;
#P toggle 66 50 15 0;
#P objectname toggle[3];
#P window setfont "Sans Serif" 10.;
#P comment 6 50 50 9109514 0: on/off;
#P window setfont "Sans Serif" 9.;
#P hidden newex 330 125 51 9109513 pattr par.1;
#X prestore 1 0 0.;
#P objectname par.1;
#P flonum 66 68 49 9 0 0 32 139 0 0 0 221 221 221 222 222 222 0 0 0;
#P objectname flonum[4];
#P hidden newex 396 122 58 9109513 s $0.gv.in.2;
#P hidden newex 467 121 58 9109513 s $0.gv.in.1;
#P hidden newex 396 94 51 9109513 pattr par.3;
#X prestore 1 0 11777.551758;
#P objectname par.3;
#P hidden newex 467 89 51 9109513 pattr par.2;
#X prestore 1 0 0.;
#P objectname par.2;
#P hidden newex 491 32 69 9109513 s $0.load.done;
#P hidden newex 7 278 67 9109513 r $0.load.done;
#P hidden newex 7 300 45 9109513 loadbang;
#P window setfont "Sans Serif" 10.;
#P comment 122 69 66 9109514 3: sel end ms;
#P comment 122 50 68 9109514 2: sel start ms;
#P window setfont "Sans Serif" 9.;
#P flonum 190 69 49 9 0 0 32 139 0 0 0 221 221 221 222 222 222 0 0 0;
#P objectname flonum[2];
#P flonum 190 50 49 9 0 0 32 139 0 0 0 221 221 221 222 222 222 0 0 0;
#P objectname flonum[3];
#P hidden newex 330 149 33 9109513 sig~ 1;
#P user waveform~ 24 123 213 38 139 9;
#W mode loop;
#W mouseoutput continuous;
#W clipdraw 1;
#W unit ms;
#W grid 500.;
#W ticks 8;
#W labels 1;
#W vlabels 1;
#W vticks 1;
#W bpm 120. 4.;
#W frgb 16 0 0;
#W brgb 94 166 169;
#W rgb2 63 112 185;
#W rgb3 0 0 0;
#W rgb4 0 0 0;
#W rgb5 169 165 207;
#W rgb6 108 108 108;
#W rgb7 78 74 220;
#P hidden outlet 109 323 15 0;
#P hidden newex 229 251 56 9109513 r $0.gv.in.2;
#P hidden newex 169 251 56 9109513 r $0.gv.in.1;
#P hidden newex 109 251 56 9109513 r $0.gv.in.0;
#P hidden newex 109 299 131 9109513 groove~ $0.sample;
#P window setfont "Arial Black" 12.;
#P comment 6 7 141 10682380 gen.groove.single;
#P button 224 32 15 0;
#P window setfont "Sans Serif" 10.;
#P comment 6 32 51 9109514 sample;
#P window setfont "Sans Serif" 9.;
#P user textedit 66 32 222 47 98460 139 9 M:/maxmsp/scrlt/scrlt.main/dbbl11.wav;
#P objectname textedit;
#P hidden newex 404 31 85 9109513 buffer~ $0.sample;
#P hidden message 7 324 75 9109513 set $0.sample 1;
#P hidden newex 256 29 60 9109513 pattr sample;
#X prestore 1 0 M:/maxmsp/scrlt/scrlt.main/dbbl11.wav;
#P objectname sample;
#P user panel 0 0 250 184;
#X brgb 191 191 191;
#X frgb 0 0 0;
#X border 1;
#X rounded 0;
#X shadow 0;
#X done;
#P background;
#P hidden newex 10 248 62 9109513 pattr disp.len;
#X prestore 1 0 11777.574219;
#P objectname disp.len;
#P hidden newex 10 223 69 9109513 pattr disp.start;
#X prestore 1 0 0.;
#P objectname disp.start;
#P hidden message 74 196 35 9109513 set \$1;
#P hidden message 31 196 35 9109513 set \$1;
#N vpatcher 15 55 615 455;
#P window setfont "Sans Serif" 9.;
#P hidden newex 50 50 48 9109513 route text;
#P hidden newex 50 74 74 9109513 prepend replace;
#P inlet 50 30 15 0;
#P outlet 50 98 15 0;
#P connect 1 0 3 0;
#P hidden connect 3 0 2 0;
#P connect 2 0 0 0;
#P pop;
#P hidden newobj 372 30 30 9109513 p;
#N vpatcher 15 55 615 455;
#P window setfont "Sans Serif" 9.;
#P hidden message 50 50 33 9109513 sound;
#P hidden newex 50 74 54 9109513 opendialog;
#B color 5;
#P hidden newex 67 122 60 9109513 prepend set;
#P hidden newex 50 98 27 9109513 t b s;
#P inlet 50 30 15 0;
#P outlet 50 122 15 0;
#P outlet 67 146 15 0;
#P connect 2 0 6 0;
#P hidden connect 6 0 5 0;
#P hidden connect 5 0 3 0;
#P connect 3 0 1 0;
#P hidden connect 3 1 4 0;
#P connect 4 0 0 0;
#P pop;
#P hidden newobj 331 33 26 9109513 p;
#P hidden toggle 256 93 15 0;
#P hidden connect 27 0 9 0;
#P hidden connect 26 0 9 0;
#P hidden connect 44 0 20 0;
#P hidden connect 9 0 20 0;
#P hidden connect 50 0 20 0;
#P hidden connect 20 0 3 0;
#P hidden connect 1 0 11 0;
#P hidden connect 1 1 11 0;
#P hidden connect 8 1 11 0;
#P hidden connect 37 1 36 0;
#P hidden connect 34 1 33 0;
#P hidden connect 5 1 50 0;
#P hidden connect 3 0 50 0;
#P hidden connect 51 0 20 1;
#P hidden connect 20 1 4 0;
#P hidden connect 16 0 15 0;
#P hidden connect 42 0 15 0;
#P hidden connect 15 0 19 0;
#P hidden connect 57 0 20 2;
#P hidden connect 17 0 15 1;
#P hidden connect 60 0 20 3;
#P hidden connect 20 2 56 0;
#P hidden connect 20 3 59 0;
#P hidden connect 29 1 22 0;
#P hidden connect 30 1 23 0;
#P hidden connect 6 1 51 0;
#P hidden connect 4 0 51 0;
#P hidden connect 18 0 15 2;
#P hidden connect 53 0 0 0;
#P hidden connect 0 0 37 0;
#P hidden connect 37 0 41 0;
#P hidden connect 41 0 38 0;
#P hidden connect 38 0 43 0;
#P hidden connect 40 0 38 1;
#P hidden connect 54 0 34 0;
#P hidden connect 34 0 21 0;
#P hidden connect 21 0 38 2;
#P hidden connect 13 0 1 0;
#P hidden connect 11 0 2 0;
#P hidden connect 58 0 30 0;
#P hidden connect 30 0 32 0;
#P hidden connect 2 0 10 0;
#P hidden connect 37 0 64 0;
#P hidden connect 34 0 63 0;
#P hidden connect 29 0 65 0;
#P hidden connect 30 0 62 0;
#P hidden connect 55 0 29 0;
#P hidden connect 29 0 31 0;
#P hidden connect 10 1 28 0;
#P hidden connect 48 0 47 0;
#P hidden connect 46 0 45 0;
#P pop;
