max v2;
#N vpatcher 41 21 1077 960;
#P origin 7 29;
#P window setfont "Sans Serif" 9.;
#P window linecount 1;
#P hidden message 850 626 14 9109513 1;
#P hidden newex 850 601 28 9109513 sel 1;
#P hidden newex 850 576 34 9109513 active;
#P hidden message 888 601 14 9109513 0;
#P hidden newex 888 576 50 9109513 closebang;
#N comlet 0: closing 1: opening;
#P hidden outlet 850 651 15 0;
#N comlet dummy;
#P hidden inlet 790 585 15 0;
#P hidden newex 580 678 105 9109513 r~ scrlt.mixer.aux.1.out;
#P hidden newex 580 653 105 9109513 r~ scrlt.mixer.aux.0.out;
#P hidden newex 580 728 101 9109513 s~ scrlt.mixer.aux.1.in;
#P hidden newex 580 703 101 9109513 s~ scrlt.mixer.aux.0.in;
#P hidden newex 580 628 106 9109513 s~ scrlt.mixer.chan.3.in;
#P hidden newex 580 603 106 9109513 s~ scrlt.mixer.chan.2.in;
#P hidden newex 580 578 106 9109513 s~ scrlt.mixer.chan.1.in;
#P hidden newex 580 553 106 9109513 s~ scrlt.mixer.chan.0.in;
#P bpatcher 258 501 250 439 0 0 scrlt.rack.aux.1.mxt 4;
#P objectname aux.1;
#P bpatcher 6 501 250 439 0 0 scrlt.rack.aux.0.mxt 4;
#P objectname aux.0;
#P bpatcher 762 10 250 489 0 0 scrlt.rack.track.3.mxt 4;
#P objectname track.3;
#P bpatcher 510 10 250 489 0 0 scrlt.rack.track.2.mxt 4;
#P objectname track.2;
#P bpatcher 258 10 250 489 0 0 scrlt.rack.track.1.mxt 4;
#P objectname track.1;
#P bpatcher 6 10 250 489 0 0 scrlt.rack.track.0.mxt 4;
#P objectname track.0;
#P hidden connect 12 0 4 0;
#P hidden connect 13 0 5 0;
#P hidden connect 0 0 6 0;
#P hidden connect 1 0 7 0;
#P hidden connect 2 0 8 0;
#P hidden connect 3 0 9 0;
#P hidden connect 4 0 10 0;
#P hidden connect 5 0 11 0;
#P hidden connect 18 0 19 0;
#P hidden connect 19 0 20 0;
#P hidden connect 17 0 15 0;
#P hidden connect 20 0 15 0;
#P hidden connect 16 0 17 0;
#P pop;
