max v2;
#N vpatcher 602 253 1202 653;
#P outlet 160 347 15 0;
#P window setfont "Sans Serif" 9.;
#P newex 293 269 27 9109513 %~;
#P newex 263 269 27 9109513 *~;
#P newex 233 269 27 9109513 /~;
#P newex 203 269 27 9109513 -~;
#P newex 173 269 27 9109513 +~;
#P inlet 263 35 15 0;
#P newex 277 213 66 9109513 gate~ 5;
#P newex 168 140 19 9109513 t b;
#P message 168 172 14 9109513 0;
#P message 138 172 14 9109513 5;
#P message 108 172 14 9109513 4;
#P message 78 172 14 9109513 3;
#P message 48 172 14 9109513 2;
#P inlet 164 34 15 0;
#P newex 178 212 66 9109513 gate~ 5;
#P newex 168 313 79 9109513 selector~ 5;
#P inlet 57 32 15 0;
#P newex 57 83 79 9109513 sel + - / * %;
#P message 18 172 14 9109513 1;
#P connect 1 0 0 0;
#P connect 1 1 6 0;
#P connect 2 0 1 0;
#P connect 1 2 7 0;
#P connect 1 3 8 0;
#P connect 1 4 9 0;
#P connect 3 0 19 0;
#P connect 1 5 11 0;
#P connect 11 0 10 0;
#P connect 0 0 3 0;
#P connect 6 0 3 0;
#P connect 7 0 3 0;
#P connect 8 0 3 0;
#P connect 9 0 3 0;
#P connect 10 0 3 0;
#P connect 4 0 14 0;
#P connect 0 0 4 0;
#P connect 6 0 4 0;
#P connect 7 0 4 0;
#P connect 8 0 4 0;
#P connect 9 0 4 0;
#P connect 10 0 4 0;
#P connect 14 0 3 1;
#P connect 12 0 14 1;
#P connect 15 0 3 2;
#P connect 4 1 15 0;
#P connect 16 0 3 3;
#P connect 12 1 15 1;
#P connect 17 0 3 4;
#P connect 4 2 16 0;
#P connect 18 0 3 5;
#P connect 5 0 4 1;
#P connect 12 2 16 1;
#P connect 4 3 17 0;
#P connect 0 0 12 0;
#P connect 6 0 12 0;
#P connect 7 0 12 0;
#P connect 8 0 12 0;
#P connect 9 0 12 0;
#P connect 10 0 12 0;
#P connect 12 3 17 1;
#P connect 4 4 18 0;
#P connect 12 4 18 1;
#P connect 13 0 12 1;
#P pop;
