max v2;
#N vpatcher 162 184 1093 848;
#P window setfont "Sans Serif" 9.;
#P window linecount 1;
#P hidden newex 564 539 66 9109513 route $1.par.8;
#P hidden newex 564 516 69 9109513 r scrlt.bcr.map;
#N vpatcher 15 55 615 455;
#N comlet recv;
#P inlet 50 27 15 0;
#P window setfont "Sans Serif" 9.;
#P hidden newex 50 127 27 9109513 V;
#P hidden newex 91 73 40 9109513 t b b i;
#P hidden newex 91 127 40 9109513 pack;
#P hidden newex 50 202 76 9109513 s scrlt.bcr.ctlout;
#P message 67 102 14 9109513 1;
#P hidden newex 50 177 51 9109513 gate;
#P toggle 50 152 15 0;
#P hidden newex 50 50 51 9109513 sel none;
#P message 50 102 14 9109513 0;
#P newex 91 102 27 9109513 int;
#N comlet val;
#P inlet 18 54 15 0;
#P connect 11 0 3 0;
#P connect 3 0 2 0;
#P connect 2 0 10 0;
#P connect 10 0 4 0;
#P connect 4 0 5 0;
#P connect 5 0 7 0;
#P connect 9 1 6 0;
#P connect 6 0 10 1;
#P connect 3 1 9 0;
#P connect 9 0 1 0;
#P connect 0 0 1 0;
#P connect 1 0 8 0;
#P connect 8 0 5 1;
#P connect 9 2 8 1;
#P pop;
#P hidden newobj 547 562 27 9109513 p;
#P hidden newex 788 459 66 9109513 route $1.par.7;
#P hidden newex 788 436 69 9109513 r scrlt.bcr.map;
#N vpatcher 15 55 615 455;
#N comlet recv;
#P inlet 50 27 15 0;
#P window setfont "Sans Serif" 9.;
#P hidden newex 50 127 27 9109513 V;
#P hidden newex 91 73 40 9109513 t b b i;
#P hidden newex 91 127 40 9109513 pack;
#P hidden newex 50 202 76 9109513 s scrlt.bcr.ctlout;
#P message 67 102 14 9109513 1;
#P hidden newex 50 177 51 9109513 gate;
#P toggle 50 152 15 0;
#P hidden newex 50 50 51 9109513 sel none;
#P message 50 102 14 9109513 0;
#P newex 91 102 27 9109513 int;
#N comlet val;
#P inlet 18 54 15 0;
#P connect 11 0 3 0;
#P connect 3 0 2 0;
#P connect 2 0 10 0;
#P connect 10 0 4 0;
#P connect 4 0 5 0;
#P connect 5 0 7 0;
#P connect 9 1 6 0;
#P connect 6 0 10 1;
#P connect 3 1 9 0;
#P connect 0 0 1 0;
#P connect 9 0 1 0;
#P connect 1 0 8 0;
#P connect 8 0 5 1;
#P connect 9 2 8 1;
#P pop;
#P hidden newobj 771 482 27 9109513 p;
#P hidden newex 788 390 66 9109513 route $1.par.6;
#P hidden newex 788 367 69 9109513 r scrlt.bcr.map;
#N vpatcher 15 55 615 455;
#N comlet recv;
#P inlet 50 27 15 0;
#P window setfont "Sans Serif" 9.;
#P hidden newex 50 127 27 9109513 V;
#P hidden newex 91 73 40 9109513 t b b i;
#P hidden newex 91 127 40 9109513 pack;
#P hidden newex 50 202 76 9109513 s scrlt.bcr.ctlout;
#P message 67 102 14 9109513 1;
#P hidden newex 50 177 51 9109513 gate;
#P toggle 50 152 15 0;
#P hidden newex 50 50 51 9109513 sel none;
#P message 50 102 14 9109513 0;
#P newex 91 102 27 9109513 int;
#N comlet val;
#P inlet 18 54 15 0;
#P connect 11 0 3 0;
#P connect 3 0 2 0;
#P connect 2 0 10 0;
#P connect 10 0 4 0;
#P connect 4 0 5 0;
#P connect 5 0 7 0;
#P connect 9 1 6 0;
#P connect 6 0 10 1;
#P connect 3 1 9 0;
#P connect 9 0 1 0;
#P connect 0 0 1 0;
#P connect 1 0 8 0;
#P connect 8 0 5 1;
#P connect 9 2 8 1;
#P pop;
#P hidden newobj 771 413 27 9109513 p;
#P hidden newex 660 419 66 9109513 route $1.par.5;
#P hidden newex 660 396 69 9109513 r scrlt.bcr.map;
#N vpatcher 15 55 615 455;
#N comlet recv;
#P inlet 50 27 15 0;
#P window setfont "Sans Serif" 9.;
#P hidden newex 50 127 27 9109513 V;
#P hidden newex 91 73 40 9109513 t b b i;
#P hidden newex 91 127 40 9109513 pack;
#P hidden newex 50 202 76 9109513 s scrlt.bcr.ctlout;
#P message 67 102 14 9109513 1;
#P hidden newex 50 177 51 9109513 gate;
#P toggle 50 152 15 0;
#P hidden newex 50 50 51 9109513 sel none;
#P message 50 102 14 9109513 0;
#P newex 91 102 27 9109513 int;
#N comlet val;
#P inlet 18 54 15 0;
#P connect 11 0 3 0;
#P connect 3 0 2 0;
#P connect 2 0 10 0;
#P connect 10 0 4 0;
#P connect 4 0 5 0;
#P connect 5 0 7 0;
#P connect 9 1 6 0;
#P connect 6 0 10 1;
#P connect 3 1 9 0;
#P connect 9 0 1 0;
#P connect 0 0 1 0;
#P connect 1 0 8 0;
#P connect 8 0 5 1;
#P connect 9 2 8 1;
#P pop;
#P hidden newobj 643 442 27 9109513 p;
#P hidden newex 660 350 66 9109513 route $1.par.4;
#P hidden newex 660 327 69 9109513 r scrlt.bcr.map;
#N vpatcher 15 55 615 455;
#N comlet recv;
#P inlet 50 27 15 0;
#P window setfont "Sans Serif" 9.;
#P hidden newex 50 127 27 9109513 V;
#P hidden newex 91 73 40 9109513 t b b i;
#P hidden newex 91 127 40 9109513 pack;
#P hidden newex 50 202 76 9109513 s scrlt.bcr.ctlout;
#P message 67 102 14 9109513 1;
#P hidden newex 50 177 51 9109513 gate;
#P toggle 50 152 15 0;
#P hidden newex 50 50 51 9109513 sel none;
#P message 50 102 14 9109513 0;
#P newex 91 102 27 9109513 int;
#N comlet val;
#P inlet 18 54 15 0;
#P connect 11 0 3 0;
#P connect 3 0 2 0;
#P connect 2 0 10 0;
#P connect 10 0 4 0;
#P connect 4 0 5 0;
#P connect 5 0 7 0;
#P connect 9 1 6 0;
#P connect 6 0 10 1;
#P connect 3 1 9 0;
#P connect 0 0 1 0;
#P connect 9 0 1 0;
#P connect 1 0 8 0;
#P connect 8 0 5 1;
#P connect 9 2 8 1;
#P pop;
#P hidden newobj 643 373 27 9109513 p;
#P hidden newex 513 418 66 9109513 route $1.par.3;
#P hidden newex 513 395 69 9109513 r scrlt.bcr.map;
#N vpatcher 15 55 615 455;
#N comlet recv;
#P inlet 50 27 15 0;
#P window setfont "Sans Serif" 9.;
#P hidden newex 50 127 27 9109513 V;
#P hidden newex 91 73 40 9109513 t b b i;
#P hidden newex 91 127 40 9109513 pack;
#P hidden newex 50 202 76 9109513 s scrlt.bcr.ctlout;
#P message 67 102 14 9109513 1;
#P hidden newex 50 177 51 9109513 gate;
#P toggle 50 152 15 0;
#P hidden newex 50 50 51 9109513 sel none;
#P message 50 102 14 9109513 0;
#P newex 91 102 27 9109513 int;
#N comlet val;
#P inlet 18 54 15 0;
#P connect 11 0 3 0;
#P connect 3 0 2 0;
#P connect 2 0 10 0;
#P connect 10 0 4 0;
#P connect 4 0 5 0;
#P connect 5 0 7 0;
#P connect 9 1 6 0;
#P connect 6 0 10 1;
#P connect 3 1 9 0;
#P connect 0 0 1 0;
#P connect 9 0 1 0;
#P connect 1 0 8 0;
#P connect 8 0 5 1;
#P connect 9 2 8 1;
#P pop;
#P hidden newobj 496 441 27 9109513 p;
#P hidden newex 513 349 66 9109513 route $1.par.2;
#P hidden newex 513 326 69 9109513 r scrlt.bcr.map;
#N vpatcher 15 55 615 455;
#N comlet recv;
#P inlet 50 27 15 0;
#P window setfont "Sans Serif" 9.;
#P hidden newex 50 127 27 9109513 V;
#P hidden newex 91 73 40 9109513 t b b i;
#P hidden newex 91 127 40 9109513 pack;
#P hidden newex 50 202 76 9109513 s scrlt.bcr.ctlout;
#P message 67 102 14 9109513 1;
#P hidden newex 50 177 51 9109513 gate;
#P toggle 50 152 15 0;
#P hidden newex 50 50 51 9109513 sel none;
#P message 50 102 14 9109513 0;
#P newex 91 102 27 9109513 int;
#N comlet val;
#P inlet 18 54 15 0;
#P connect 11 0 3 0;
#P connect 3 0 2 0;
#P connect 2 0 10 0;
#P connect 10 0 4 0;
#P connect 4 0 5 0;
#P connect 5 0 7 0;
#P connect 9 1 6 0;
#P connect 6 0 10 1;
#P connect 3 1 9 0;
#P connect 9 0 1 0;
#P connect 0 0 1 0;
#P connect 1 0 8 0;
#P connect 8 0 5 1;
#P connect 9 2 8 1;
#P pop;
#P hidden newobj 496 372 27 9109513 p;
#P hidden newex 338 551 66 9109513 route $1.par.1;
#P hidden newex 338 528 69 9109513 r scrlt.bcr.map;
#N vpatcher 15 55 615 455;
#N comlet recv;
#P inlet 50 27 15 0;
#P window setfont "Sans Serif" 9.;
#P hidden newex 50 127 27 9109513 V;
#P hidden newex 91 73 40 9109513 t b b i;
#P hidden newex 91 127 40 9109513 pack;
#P hidden newex 50 202 76 9109513 s scrlt.bcr.ctlout;
#P message 67 102 14 9109513 1;
#P hidden newex 50 177 51 9109513 gate;
#P toggle 50 152 15 0;
#P hidden newex 50 50 51 9109513 sel none;
#P message 50 102 14 9109513 0;
#P newex 91 102 27 9109513 int;
#N comlet val;
#P inlet 18 54 15 0;
#P connect 11 0 3 0;
#P connect 3 0 2 0;
#P connect 2 0 10 0;
#P connect 10 0 4 0;
#P connect 4 0 5 0;
#P connect 5 0 7 0;
#P connect 9 1 6 0;
#P connect 6 0 10 1;
#P connect 3 1 9 0;
#P connect 9 0 1 0;
#P connect 0 0 1 0;
#P connect 1 0 8 0;
#P connect 8 0 5 1;
#P connect 9 2 8 1;
#P pop;
#P hidden newobj 321 574 27 9109513 p;
#P hidden newex 338 482 66 9109513 route $1.par.0;
#P hidden newex 338 459 69 9109513 r scrlt.bcr.map;
#N vpatcher 15 55 615 455;
#N comlet recv;
#P inlet 50 27 15 0;
#P window setfont "Sans Serif" 9.;
#P hidden newex 50 127 27 9109513 V;
#P hidden newex 91 73 40 9109513 t b b i;
#P hidden newex 91 127 40 9109513 pack;
#P hidden newex 50 202 76 9109513 s scrlt.bcr.ctlout;
#P message 67 102 14 9109513 1;
#P hidden newex 50 177 51 9109513 gate;
#P toggle 50 152 15 0;
#P hidden newex 50 50 51 9109513 sel none;
#P message 50 102 14 9109513 0;
#P newex 91 102 27 9109513 int;
#N comlet val;
#P inlet 18 54 15 0;
#P connect 11 0 3 0;
#P connect 3 0 2 0;
#P connect 2 0 10 0;
#P connect 10 0 4 0;
#P connect 4 0 5 0;
#P connect 5 0 7 0;
#P connect 9 1 6 0;
#P connect 6 0 10 1;
#P connect 3 1 9 0;
#P connect 0 0 1 0;
#P connect 9 0 1 0;
#P connect 1 0 8 0;
#P connect 8 0 5 1;
#P connect 9 2 8 1;
#P pop;
#P hidden newobj 321 505 27 9109513 p;
#P hidden newex 338 413 73 9109513 route $1.drywet;
#P hidden newex 338 390 69 9109513 r scrlt.bcr.map;
#N vpatcher 15 55 615 455;
#N comlet recv;
#P inlet 50 27 15 0;
#P window setfont "Sans Serif" 9.;
#P hidden newex 50 127 27 9109513 V;
#P hidden newex 91 73 40 9109513 t b b i;
#P hidden newex 91 127 40 9109513 pack;
#P hidden newex 50 202 76 9109513 s scrlt.bcr.ctlout;
#P message 67 102 14 9109513 1;
#P hidden newex 50 177 51 9109513 gate;
#P toggle 50 152 15 0;
#P hidden newex 50 50 51 9109513 sel none;
#P message 50 102 14 9109513 0;
#P newex 91 102 27 9109513 int;
#N comlet val;
#P inlet 18 54 15 0;
#P connect 11 0 3 0;
#P connect 3 0 2 0;
#P connect 2 0 10 0;
#P connect 10 0 4 0;
#P connect 4 0 5 0;
#P connect 5 0 7 0;
#P connect 9 1 6 0;
#P connect 6 0 10 1;
#P connect 3 1 9 0;
#P connect 9 0 1 0;
#P connect 0 0 1 0;
#P connect 1 0 8 0;
#P connect 8 0 5 1;
#P connect 9 2 8 1;
#P pop;
#P hidden newobj 321 436 27 9109513 p;
#P hidden newex 338 344 76 9109513 route $1.bypass;
#P hidden newex 338 321 69 9109513 r scrlt.bcr.map;
#N vpatcher 15 55 615 455;
#N comlet recv;
#P inlet 50 27 15 0;
#P window setfont "Sans Serif" 9.;
#P hidden newex 50 127 27 9109513 V;
#P hidden newex 91 73 40 9109513 t b b i;
#P hidden newex 91 127 40 9109513 pack;
#P hidden newex 50 202 76 9109513 s scrlt.bcr.ctlout;
#P message 67 102 14 9109513 1;
#P hidden newex 50 177 51 9109513 gate;
#P toggle 50 152 15 0;
#P hidden newex 50 50 51 9109513 sel none;
#P message 50 102 14 9109513 0;
#P newex 91 102 27 9109513 int;
#N comlet val;
#P inlet 18 54 15 0;
#P connect 11 0 3 0;
#P connect 3 0 2 0;
#P connect 2 0 10 0;
#P connect 10 0 4 0;
#P connect 4 0 5 0;
#P connect 5 0 7 0;
#P connect 9 1 6 0;
#P connect 6 0 10 1;
#P connect 3 1 9 0;
#P connect 0 0 1 0;
#P connect 9 0 1 0;
#P connect 1 0 8 0;
#P connect 8 0 5 1;
#P connect 9 2 8 1;
#P pop;
#P hidden newobj 321 367 27 9109513 p;
#P hidden newex 16 465 65 9109513 scrlt.util.dwbp;
#P hidden newex 590 230 51 9109513 pattr par.8;
#X prestore 1 0 0;
#P objectname par.8;
#P hidden newex 590 208 48 9109513 r $1.par.8;
#P hidden newex 590 138 51 9109513 pattr par.7;
#X prestore 1 0 0;
#P objectname par.7;
#P hidden newex 590 115 48 9109513 r $1.par.7;
#P hidden newex 319 48 51 9109513 pattr par.6;
#X prestore 1 0 0;
#P objectname par.6;
#P hidden newex 319 25 48 9109513 r $1.par.6;
#P hidden newex 214 184 51 9109513 pattr par.5;
#X prestore 1 0 0;
#P objectname par.5;
#P hidden newex 214 158 48 9109513 r $1.par.5;
#P hidden newex 95 184 51 9109513 pattr par.4;
#X prestore 1 0 0;
#P objectname par.4;
#P hidden newex 95 158 48 9109513 r $1.par.4;
#P hidden newex 403 230 51 9109513 pattr par.3;
#X prestore 1 0 0;
#P objectname par.3;
#P hidden newex 403 207 48 9109513 r $1.par.3;
#P hidden newex 402 138 51 9109513 pattr par.2;
#X prestore 1 0 0;
#P objectname par.2;
#P hidden newex 402 115 48 9109513 r $1.par.2;
#P hidden newex 590 48 51 9109513 pattr par.1;
#X prestore 1 0 0;
#P objectname par.1;
#P hidden newex 590 26 48 9109513 r $1.par.1;
#P hidden newex 402 46 51 9109513 pattr par.0;
#X prestore 1 0 0;
#P objectname par.0;
#P hidden newex 402 24 48 9109513 r $1.par.0;
#P hidden newex 402 68 184 9109513 scrlt.util.scaleprepend 100. 1000. buf_size;
#P user dial 126 35 21 21 128 1 0 0 255 270 1 1. 170 170 170 221 221 221 120 120 120 225 225 225 0 0 0 0 0 0;
#P objectname dial[1];
#P hidden newex 34 369 58 9109513 pattr drywet;
#X prestore 1 0 0;
#P objectname drywet;
#P hidden newex 34 345 55 9109513 r $1.drywet;
#P hidden newex 16 321 61 9109513 pattr bypass;
#X prestore 1 0 0;
#P objectname bypass;
#P hidden newex 16 297 58 9109513 r $1.bypass;
#P user dial 5 80 40 40 128 1 0 0 255 270 1 1. 170 170 170 221 221 221 120 120 120 225 225 225 0 0 0 0 0 0;
#P objectname dial;
#P comment 5 25 39 9109513 bypass;
#P toggle 16 42 15 0;
#P objectname toggle;
#P hidden outlet 16 489 15 0;
#P hidden inlet 52 393 15 0;
#P comment 5 63 39 9109513 dry/wet;
#P hidden message 314 221 57 9109513 pan_max 0.;
#P hidden message 329 198 54 9109513 pan_min 0.;
#P hidden message 344 175 36 9109513 gain 0.;
#P hidden newex 314 152 40 9109513 b 3;
#P hidden newex 314 129 45 9109513 loadbang;
#P hidden newex 314 244 59 9109513 s $0.gcl.in.2;
#P hidden newex 590 274 59 9109513 s $0.gcl.in.2;
#P hidden newex 590 252 162 9109513 scrlt.util.scaleprepend 0. 50. gain_bw;
#P comment 151 104 52 9109513 8: gain bw;
#P user dial 216 104 21 21 128 1 0 0 255 270 1 1. 170 170 170 221 221 221 120 120 120 225 225 225 0 0 0 0 0 0;
#P objectname dial[9];
#P hidden newex 590 184 59 9109513 s $0.gcl.in.2;
#P hidden newex 590 161 170 9109513 scrlt.util.scaleprepend 0. 100. pitch_bw;
#P comment 151 81 52 9109513 7: pitch bw;
#P user dial 216 81 21 21 128 1 0 0 255 270 1 1. 170 170 170 221 221 221 120 120 120 225 225 225 0 0 0 0 0 0;
#P objectname dial[8];
#P hidden newex 319 94 59 9109513 s $0.gcl.in.2;
#P hidden newex 95 267 27 9109513 t f f;
#P hidden newex 214 262 27 9109513 t f f;
#P hidden newex 214 319 64 9109513 _ length_max;
#P hidden newex 95 316 61 9109513 _ length_min;
#P hidden newex 150 371 59 9109513 s $0.gcl.in.2;
#P hidden newex 231 295 34 9109513 _ max;
#P hidden newex 112 294 31 9109513 _ min;
#P hidden flonum 214 239 38 9 0. 400. 35 139 0 0 0 221 221 221 222 222 222 0 0 0;
#P hidden newex 214 209 88 9109513 scale 0 127 0. 400.;
#P comment 151 35 62 9109513 5: length max;
#P user dial 216 35 21 21 128 1 0 0 255 270 1 1. 170 170 170 221 221 221 120 120 120 225 225 225 0 0 0 0 0 0;
#P objectname dial[6];
#P hidden newex 95 211 88 9109513 scale 0 127 0. 400.;
#P comment 151 12 62 9109513 4: length min;
#P hidden flonum 95 239 38 9 0. 0. 35 139 0 0 0 221 221 221 222 222 222 0 0 0;
#P user dial 216 12 21 21 128 1 0 0 255 270 1 1. 170 170 170 221 221 221 120 120 120 225 225 225 0 0 0 0 0 0;
#P objectname dial[5];
#P hidden newex 590 92 59 9109513 s $0.gcl.in.2;
#P hidden newex 590 70 176 9109513 scrlt.util.scaleprepend 0. 225. offset_bw;
#P hidden newex 403 276 59 9109513 s $0.gcl.in.2;
#P hidden newex 403 253 162 9109513 scrlt.util.scaleprepend 0. 50. freq_bw;
#P hidden newex 402 184 59 9109513 s $0.gcl.in.2;
#P hidden newex 402 161 151 9109513 scrlt.util.scaleprepend 5. 600. freq;
#P hidden newex 402 90 59 9109513 s $0.gcl.in.2;
#P hidden newex 135 417 57 9109513 r $0.gcl.in.2;
#P comment 61 104 46 9109513 3: freq bw;
#P user dial 126 104 21 21 128 1 0 0 255 270 1 1. 170 170 170 221 221 221 120 120 120 225 225 225 0 0 0 0 0 0;
#P objectname dial[4];
#P comment 61 35 54 9109513 0: buf size;
#P comment 61 81 38 9109513 2: freq;
#P user dial 126 81 21 21 128 1 0 0 255 270 1 1. 170 170 170 221 221 221 120 120 120 225 225 225 0 0 0 0 0 0;
#P objectname dial[3];
#P comment 61 58 58 9109513 1: offset bw;
#P user dial 126 58 21 21 128 1 0 0 255 270 1 1. 170 170 170 221 221 221 120 120 120 225 225 225 0 0 0 0 0 0;
#P objectname dial[2];
#P user dial 216 58 21 21 128 1 0 0 255 270 1 1. 170 170 170 221 221 221 120 120 120 225 225 225 0 0 0 0 0 0;
#P objectname dial[7];
#P hidden newex 71 441 74 9109513 gran.cloud.live~;
#P comment 151 58 58 9109513 6: pitch mult;
#P window setfont "Arial Black" 12.;
#P comment 5 3 135 10551308 fx.cloud;
#P background;
#P user panel 0 0 250 134;
#X brgb 191 191 191;
#X frgb 0 0 0;
#X border 1;
#X rounded 0;
#X shadow 0;
#X done;
#P background;
#P window setfont "Sans Serif" 9.;
#N vpatcher 15 55 615 455;
#P window setfont "Sans Serif" 9.;
#P hidden newex 50 108 59 9109513 _ pitch_mult;
#P hidden flonum 113 107 35 9 0 0 0 139 0 0 0 221 221 221 222 222 222 0 0 0;
#P hidden flonum 113 80 35 9 0 0 0 139 0 0 0 221 221 221 222 222 222 0 0 0;
#P hidden newex 50 79 46 9109513 HStoMult;
#P hidden newex 50 50 91 9109513 scale 0 127 -24. 24.;
#P inlet 50 30 15 0;
#P outlet 50 132 15 0;
#P connect 1 0 2 0;
#P hidden connect 2 0 3 0;
#P hidden connect 3 0 6 0;
#P connect 6 0 0 0;
#P hidden connect 2 0 4 0;
#P hidden connect 3 0 5 0;
#P pop;
#P hidden newobj 319 71 61 9109513 p scaling etc;
#P hidden connect 60 1 56 0;
#P hidden connect 58 1 54 0;
#P hidden connect 57 0 58 0;
#P hidden connect 58 0 81 0;
#P hidden connect 81 0 53 0;
#P hidden connect 59 0 60 0;
#P hidden connect 60 0 81 1;
#P hidden connect 52 0 81 2;
#P hidden connect 4 0 81 3;
#P hidden connect 52 0 4 0;
#P hidden connect 71 0 72 0;
#P hidden connect 72 0 24 0;
#P hidden connect 24 0 22 0;
#P hidden connect 30 0 22 0;
#P hidden connect 22 0 35 0;
#P hidden connect 35 0 32 0;
#P hidden connect 35 1 29 0;
#P hidden connect 64 1 61 0;
#P hidden connect 66 1 6 0;
#P hidden connect 68 1 8 0;
#P hidden connect 70 1 11 0;
#P hidden connect 13 0 4 2;
#P hidden connect 32 0 31 0;
#P hidden connect 33 0 31 0;
#P hidden connect 73 0 74 0;
#P hidden connect 74 0 27 0;
#P hidden connect 27 0 28 0;
#P hidden connect 29 0 28 0;
#P hidden connect 28 0 34 0;
#P hidden connect 34 0 33 0;
#P hidden connect 72 1 21 0;
#P hidden connect 74 1 25 0;
#P hidden connect 76 1 5 0;
#P hidden connect 78 1 37 0;
#P hidden connect 80 1 41 0;
#P hidden connect 34 1 30 0;
#P hidden connect 46 0 47 0;
#P hidden connect 47 0 50 0;
#P hidden connect 48 0 45 0;
#P hidden connect 49 0 45 0;
#P hidden connect 50 0 45 0;
#P hidden connect 75 0 76 0;
#P hidden connect 76 0 0 0;
#P hidden connect 0 0 36 0;
#P hidden connect 58 0 82 0;
#P hidden connect 60 0 85 0;
#P hidden connect 64 0 88 0;
#P hidden connect 66 0 91 0;
#P hidden connect 47 1 49 0;
#P hidden connect 83 0 84 0;
#P hidden connect 84 0 82 1;
#P hidden connect 86 0 87 0;
#P hidden connect 87 0 85 1;
#P hidden connect 89 0 90 0;
#P hidden connect 90 0 88 1;
#P hidden connect 92 0 93 0;
#P hidden connect 93 0 91 1;
#P hidden connect 47 2 48 0;
#P hidden connect 63 0 64 0;
#P hidden connect 64 0 62 0;
#P hidden connect 62 0 14 0;
#P hidden connect 67 0 68 0;
#P hidden connect 68 0 15 0;
#P hidden connect 15 0 16 0;
#P hidden connect 69 0 70 0;
#P hidden connect 70 0 17 0;
#P hidden connect 17 0 18 0;
#P hidden connect 68 0 94 0;
#P hidden connect 70 0 97 0;
#P hidden connect 95 0 96 0;
#P hidden connect 96 0 94 1;
#P hidden connect 98 0 99 0;
#P hidden connect 99 0 97 1;
#P hidden connect 80 0 112 0;
#P hidden connect 113 0 114 0;
#P hidden connect 114 0 112 1;
#P hidden connect 65 0 66 0;
#P hidden connect 66 0 19 0;
#P hidden connect 19 0 20 0;
#P hidden connect 77 0 78 0;
#P hidden connect 78 0 39 0;
#P hidden connect 39 0 40 0;
#P hidden connect 79 0 80 0;
#P hidden connect 80 0 43 0;
#P hidden connect 43 0 44 0;
#P hidden connect 72 0 100 0;
#P hidden connect 74 0 103 0;
#P hidden connect 101 0 102 0;
#P hidden connect 102 0 100 1;
#P hidden connect 104 0 105 0;
#P hidden connect 105 0 103 1;
#P hidden connect 76 0 106 0;
#P hidden connect 78 0 109 0;
#P hidden connect 107 0 108 0;
#P hidden connect 108 0 106 1;
#P hidden connect 110 0 111 0;
#P hidden connect 111 0 109 1;
#P pop;
