max v2;
#N vpatcher 15 55 670 502;
#P user ezdac~ 409 213 453 246 0;
#P user gain~ 335 90 26 162 158 0 1.071519 7.94321 10.;
#P user meter~ 360 90 373 274 50 0 168 0 103 103 103 255 153 0 255 0 0 217 217 0 153 186 0 12 3 3 3 3;
#P user meter~ 323 90 336 274 50 0 168 0 103 103 103 255 153 0 255 0 0 217 217 0 153 186 0 12 3 3 3 3;
#P bpatcher 74 90 250 184 0 0 scrlt.gen.gbang.single.mxt 4;
#P objectname gen;
#P fasten 0 0 1 0 79 291 61 291 61 75 328 75;
#P fasten 0 0 3 0 79 291 61 291 61 75 340 75;
#P fasten 3 0 2 0 340 285 381 285 381 75 365 75;
#P fasten 3 0 4 0 340 285 395 285 395 188 414 188;
#P fasten 3 0 4 1 340 285 395 285 395 188 448 188;
#P pop;
