max v2;
#N vpatcher 162 184 1093 848;
#P window setfont "Sans Serif" 9.;
#P hidden newex 251 355 119 9109513 scrlt.util.bcrfwd $1.bypass;
#P hidden newex 247 418 116 9109513 scrlt.util.bcrfwd $1.drywet;
#P hidden newex 207 462 118 9109513 scrlt.util.bcrfwd $1.bufsize;
#P hidden newex 354 431 112 9109513 scrlt.util.bcrfwd $1.offbw;
#P hidden newex 466 369 116 9109513 scrlt.util.bcrfwd $1.gainbw;
#P hidden newex 356 407 105 9109513 scrlt.util.bcrfwd $1.freq;
#P hidden newex 392 465 116 9109513 scrlt.util.bcrfwd $1.freqbw;
#P hidden newex 480 329 115 9109513 scrlt.util.bcrfwd $1.lenmin;
#P hidden newex 481 417 118 9109513 scrlt.util.bcrfwd $1.lenmax;
#P hidden newex 663 320 119 9109513 scrlt.util.bcrfwd $1.pitchbw;
#P hidden newex 587 397 116 9109513 scrlt.util.bcrfwd $1.pitchm;
#P hidden newex 16 465 65 9109513 scrlt.util.dwbp;
#P hidden newex 590 230 58 9109513 pattr gainbw;
#X prestore 1 0 0;
#P objectname gainbw;
#P hidden newex 590 208 55 9109513 r $1.gainbw;
#P hidden newex 590 138 61 9109513 pattr pitchbw;
#X prestore 1 0 0;
#P objectname pitchbw;
#P hidden newex 590 115 58 9109513 r $1.pitchbw;
#P hidden newex 319 48 58 9109513 pattr pitchm;
#X prestore 1 0 0;
#P objectname pitchm;
#P hidden newex 319 25 55 9109513 r $1.pitchm;
#P hidden newex 214 184 60 9109513 pattr lenmax;
#X prestore 1 0 0;
#P objectname lenmax;
#P hidden newex 214 158 57 9109513 r $1.lenmax;
#P hidden newex 95 184 57 9109513 pattr lenmin;
#X prestore 1 0 0;
#P objectname lenmin;
#P hidden newex 95 158 54 9109513 r $1.lenmin;
#P hidden newex 403 230 58 9109513 pattr freqbw;
#X prestore 1 0 0;
#P objectname freqbw;
#P hidden newex 403 207 55 9109513 r $1.freqbw;
#P hidden newex 402 138 47 9109513 pattr freq;
#X prestore 1 0 0;
#P objectname freq;
#P hidden newex 402 115 44 9109513 r $1.freq;
#P hidden newex 590 48 54 9109513 pattr offbw;
#X prestore 1 0 0;
#P objectname offbw;
#P hidden newex 590 26 51 9109513 r $1.offbw;
#P hidden newex 402 46 60 9109513 pattr bufsize;
#X prestore 1 0 0;
#P objectname bufsize;
#P hidden newex 402 24 57 9109513 r $1.bufsize;
#P hidden newex 402 68 184 9109513 scrlt.util.scaleprepend 100. 1000. buf_size;
#P user dial 126 35 21 21 128 1 0 0 255 270 1 1. 170 170 170 221 221 221 120 120 120 225 225 225 0 0 0 0 0 0;
#P objectname dial[1];
#P hidden newex 34 369 58 9109513 pattr drywet;
#X prestore 1 0 0;
#P objectname drywet;
#P hidden newex 34 345 55 9109513 r $1.drywet;
#P hidden newex 16 321 61 9109513 pattr bypass;
#X prestore 1 0 0;
#P objectname bypass;
#P hidden newex 16 297 58 9109513 r $1.bypass;
#P user dial 5 80 40 40 128 1 0 0 255 270 1 1. 170 170 170 221 221 221 120 120 120 225 225 225 0 0 0 0 0 0;
#P objectname dial;
#P comment 5 25 39 9109513 bypass;
#P toggle 16 42 15 0;
#P objectname toggle;
#P hidden outlet 16 489 15 0;
#P hidden inlet 52 393 15 0;
#P comment 5 63 39 9109513 dry/wet;
#P hidden message 314 221 57 9109513 pan_max 0.;
#P hidden message 329 198 54 9109513 pan_min 0.;
#P hidden message 344 175 36 9109513 gain 0.;
#P hidden newex 314 152 40 9109513 b 3;
#P hidden newex 314 129 45 9109513 loadbang;
#P hidden newex 314 244 59 9109513 s $0.gcl.in.2;
#P hidden newex 590 274 59 9109513 s $0.gcl.in.2;
#P hidden newex 590 252 162 9109513 scrlt.util.scaleprepend 0. 50. gain_bw;
#P comment 151 104 52 9109513 8: gain bw;
#P user dial 216 104 21 21 128 1 0 0 255 270 1 1. 170 170 170 221 221 221 120 120 120 225 225 225 0 0 0 0 0 0;
#P objectname dial[9];
#P hidden newex 590 184 59 9109513 s $0.gcl.in.2;
#P hidden newex 590 161 170 9109513 scrlt.util.scaleprepend 0. 100. pitch_bw;
#P comment 151 81 52 9109513 7: pitch bw;
#P user dial 216 81 21 21 128 1 0 0 255 270 1 1. 170 170 170 221 221 221 120 120 120 225 225 225 0 0 0 0 0 0;
#P objectname dial[8];
#P hidden newex 319 94 59 9109513 s $0.gcl.in.2;
#P hidden newex 95 267 27 9109513 t f f;
#P hidden newex 214 262 27 9109513 t f f;
#P hidden newex 214 319 64 9109513 _ length_max;
#P hidden newex 95 316 61 9109513 _ length_min;
#P hidden newex 150 371 59 9109513 s $0.gcl.in.2;
#P hidden newex 231 295 34 9109513 _ max;
#P hidden newex 112 294 31 9109513 _ min;
#P hidden flonum 214 239 38 9 0. 400. 35 139 0 0 0 221 221 221 222 222 222 0 0 0;
#P hidden newex 214 209 88 9109513 scale 0 127 0. 400.;
#P comment 151 35 62 9109513 5: length max;
#P user dial 216 35 21 21 128 1 0 0 255 270 1 1. 170 170 170 221 221 221 120 120 120 225 225 225 0 0 0 0 0 0;
#P objectname dial[6];
#P hidden newex 95 211 88 9109513 scale 0 127 0. 400.;
#P comment 151 12 62 9109513 4: length min;
#P hidden flonum 95 239 38 9 0. 0. 35 139 0 0 0 221 221 221 222 222 222 0 0 0;
#P user dial 216 12 21 21 128 1 0 0 255 270 1 1. 170 170 170 221 221 221 120 120 120 225 225 225 0 0 0 0 0 0;
#P objectname dial[5];
#P hidden newex 590 92 59 9109513 s $0.gcl.in.2;
#P hidden newex 590 70 176 9109513 scrlt.util.scaleprepend 0. 225. offset_bw;
#P hidden newex 403 276 59 9109513 s $0.gcl.in.2;
#P hidden newex 403 253 162 9109513 scrlt.util.scaleprepend 0. 50. freq_bw;
#P hidden newex 402 184 59 9109513 s $0.gcl.in.2;
#P hidden newex 402 161 151 9109513 scrlt.util.scaleprepend 5. 600. freq;
#P hidden newex 402 90 59 9109513 s $0.gcl.in.2;
#P hidden newex 135 417 57 9109513 r $0.gcl.in.2;
#P comment 61 104 46 9109513 3: freq bw;
#P user dial 126 104 21 21 128 1 0 0 255 270 1 1. 170 170 170 221 221 221 120 120 120 225 225 225 0 0 0 0 0 0;
#P objectname dial[4];
#P comment 61 35 54 9109513 0: buf size;
#P comment 61 81 38 9109513 2: freq;
#P user dial 126 81 21 21 128 1 0 0 255 270 1 1. 170 170 170 221 221 221 120 120 120 225 225 225 0 0 0 0 0 0;
#P objectname dial[3];
#P comment 61 58 58 9109513 1: offset bw;
#P user dial 126 58 21 21 128 1 0 0 255 270 1 1. 170 170 170 221 221 221 120 120 120 225 225 225 0 0 0 0 0 0;
#P objectname dial[2];
#P user dial 216 58 21 21 128 1 0 0 255 270 1 1. 170 170 170 221 221 221 120 120 120 225 225 225 0 0 0 0 0 0;
#P objectname dial[7];
#P hidden newex 71 441 74 9109513 gran.cloud.live~;
#P comment 151 58 58 9109513 6: pitch mult;
#P window setfont "Arial Black" 12.;
#P comment 5 3 135 10682380 fx.cloud;
#P background;
#P user panel 0 0 250 134;
#X brgb 191 191 191;
#X frgb 0 0 0;
#X border 1;
#X rounded 0;
#X shadow 0;
#X done;
#P background;
#P window setfont "Sans Serif" 9.;
#N vpatcher 15 55 615 455;
#P window setfont "Sans Serif" 9.;
#P hidden newex 50 108 59 9109513 _ pitch_mult;
#P hidden flonum 113 107 35 9 0 0 0 139 0 0 0 221 221 221 222 222 222 0 0 0;
#P hidden flonum 113 80 35 9 0 0 0 139 0 0 0 221 221 221 222 222 222 0 0 0;
#P hidden newex 50 79 46 9109513 HStoMult;
#P hidden newex 50 50 91 9109513 scale 0 127 -24. 24.;
#P inlet 50 30 15 0;
#P outlet 50 132 15 0;
#P connect 1 0 2 0;
#P hidden connect 2 0 3 0;
#P hidden connect 3 0 6 0;
#P connect 6 0 0 0;
#P hidden connect 2 0 4 0;
#P hidden connect 3 0 5 0;
#P pop;
#P hidden newobj 319 71 61 9109513 p scaling etc;
#P hidden connect 60 1 56 0;
#P hidden connect 58 1 54 0;
#P hidden connect 57 0 58 0;
#P hidden connect 58 0 81 0;
#P hidden connect 81 0 53 0;
#P hidden connect 59 0 60 0;
#P hidden connect 60 0 81 1;
#P hidden connect 52 0 81 2;
#P hidden connect 4 0 81 3;
#P hidden connect 52 0 4 0;
#P hidden connect 71 0 72 0;
#P hidden connect 72 0 24 0;
#P hidden connect 30 0 22 0;
#P hidden connect 24 0 22 0;
#P hidden connect 22 0 35 0;
#P hidden connect 35 0 32 0;
#P hidden connect 35 1 29 0;
#P hidden connect 64 1 61 0;
#P hidden connect 66 1 6 0;
#P hidden connect 68 1 8 0;
#P hidden connect 70 1 11 0;
#P hidden connect 13 0 4 2;
#P hidden connect 33 0 31 0;
#P hidden connect 32 0 31 0;
#P hidden connect 64 0 90 0;
#P hidden connect 73 0 74 0;
#P hidden connect 74 0 27 0;
#P hidden connect 29 0 28 0;
#P hidden connect 27 0 28 0;
#P hidden connect 28 0 34 0;
#P hidden connect 34 0 33 0;
#P hidden connect 72 1 21 0;
#P hidden connect 74 1 25 0;
#P hidden connect 76 1 5 0;
#P hidden connect 78 1 37 0;
#P hidden connect 80 1 41 0;
#P hidden connect 34 1 30 0;
#P hidden connect 60 0 91 0;
#P hidden connect 58 0 92 0;
#P hidden connect 46 0 47 0;
#P hidden connect 47 0 50 0;
#P hidden connect 50 0 45 0;
#P hidden connect 49 0 45 0;
#P hidden connect 48 0 45 0;
#P hidden connect 75 0 76 0;
#P hidden connect 76 0 0 0;
#P hidden connect 0 0 36 0;
#P hidden connect 47 1 49 0;
#P hidden connect 47 2 48 0;
#P hidden connect 66 0 89 0;
#P hidden connect 68 0 87 0;
#P hidden connect 70 0 86 0;
#P hidden connect 63 0 64 0;
#P hidden connect 64 0 62 0;
#P hidden connect 62 0 14 0;
#P hidden connect 67 0 68 0;
#P hidden connect 68 0 15 0;
#P hidden connect 15 0 16 0;
#P hidden connect 69 0 70 0;
#P hidden connect 70 0 17 0;
#P hidden connect 17 0 18 0;
#P hidden connect 80 0 88 0;
#P hidden connect 72 0 85 0;
#P hidden connect 74 0 84 0;
#P hidden connect 76 0 82 0;
#P hidden connect 65 0 66 0;
#P hidden connect 66 0 19 0;
#P hidden connect 19 0 20 0;
#P hidden connect 77 0 78 0;
#P hidden connect 78 0 39 0;
#P hidden connect 39 0 40 0;
#P hidden connect 79 0 80 0;
#P hidden connect 80 0 43 0;
#P hidden connect 43 0 44 0;
#P hidden connect 78 0 83 0;
#P pop;
