max v2;
#N vpatcher 41 23 523 219;
#P origin 7 29;
#P window setfont "Sans Serif" 12.;
#P window linecount 1;
#P comment 9 134 52 9109516 aux.1;
#P comment 9 113 52 9109516 aux.0;
#P comment 9 92 52 9109516 track.3;
#P comment 9 71 52 9109516 track.2;
#P comment 9 29 52 9109516 track.0;
#P comment 9 50 52 9109516 track.1;
#P toggle 63 113 17 0;
#P window setfont "Sans Serif" 9.;
#P hidden newex 137 114 41 9109513 pcontrol;
#N vpatcher 15 55 615 455;
#P window setfont "Sans Serif" 9.;
#P message 50 73 30 9109513 close;
#P message 81 73 28 9109513 open;
#P newex 50 50 72 9109513 sel 0 1;
#P message 92 96 34 9109513 set \$1;
#P inlet 92 76 15 0;
#P inlet 50 30 15 0;
#P outlet 50 95 15 0;
#P outlet 92 118 15 0;
#P connect 2 0 5 0;
#P connect 5 0 7 0;
#P connect 7 0 1 0;
#P connect 6 0 1 0;
#P connect 5 1 6 0;
#P connect 3 0 4 0;
#P connect 4 0 0 0;
#P pop;
#P hidden newobj 108 114 27 9109513 p;
#P toggle 63 134 17 0;
#P hidden newex 137 136 41 9109513 pcontrol;
#N vpatcher 15 55 615 455;
#P window setfont "Sans Serif" 9.;
#P message 50 73 30 9109513 close;
#P message 81 73 28 9109513 open;
#P newex 50 50 72 9109513 sel 0 1;
#P message 92 96 34 9109513 set \$1;
#P inlet 92 76 15 0;
#P inlet 50 30 15 0;
#P outlet 50 95 15 0;
#P outlet 92 118 15 0;
#P connect 2 0 5 0;
#P connect 5 0 7 0;
#P connect 6 0 1 0;
#P connect 7 0 1 0;
#P connect 5 1 6 0;
#P connect 3 0 4 0;
#P connect 4 0 0 0;
#P pop;
#P hidden newobj 108 136 27 9109513 p;
#P toggle 63 92 17 0;
#P hidden newex 137 92 41 9109513 pcontrol;
#N vpatcher 15 55 615 455;
#P window setfont "Sans Serif" 9.;
#P message 50 73 30 9109513 close;
#P message 81 73 28 9109513 open;
#P newex 50 50 72 9109513 sel 0 1;
#P message 92 96 34 9109513 set \$1;
#P inlet 92 76 15 0;
#P inlet 50 30 15 0;
#P outlet 50 95 15 0;
#P outlet 92 118 15 0;
#P connect 2 0 5 0;
#P connect 5 0 7 0;
#P connect 7 0 1 0;
#P connect 6 0 1 0;
#P connect 5 1 6 0;
#P connect 3 0 4 0;
#P connect 4 0 0 0;
#P pop;
#P hidden newobj 108 92 27 9109513 p;
#P toggle 63 71 17 0;
#P hidden newex 137 70 41 9109513 pcontrol;
#N vpatcher 15 55 615 455;
#P window setfont "Sans Serif" 9.;
#P message 50 73 30 9109513 close;
#P message 81 73 28 9109513 open;
#P newex 50 50 72 9109513 sel 0 1;
#P message 92 96 34 9109513 set \$1;
#P inlet 92 76 15 0;
#P inlet 50 30 15 0;
#P outlet 50 95 15 0;
#P outlet 92 118 15 0;
#P connect 2 0 5 0;
#P connect 5 0 7 0;
#P connect 6 0 1 0;
#P connect 7 0 1 0;
#P connect 5 1 6 0;
#P connect 3 0 4 0;
#P connect 4 0 0 0;
#P pop;
#P hidden newobj 108 70 27 9109513 p;
#P toggle 63 50 17 0;
#P hidden newex 137 48 41 9109513 pcontrol;
#N vpatcher 15 55 615 455;
#P window setfont "Sans Serif" 9.;
#P message 50 73 30 9109513 close;
#P message 81 73 28 9109513 open;
#P newex 50 50 72 9109513 sel 0 1;
#P message 92 96 34 9109513 set \$1;
#P inlet 92 76 15 0;
#P inlet 50 30 15 0;
#P outlet 50 95 15 0;
#P outlet 92 118 15 0;
#P connect 2 0 5 0;
#P connect 5 0 7 0;
#P connect 7 0 1 0;
#P connect 6 0 1 0;
#P connect 5 1 6 0;
#P connect 3 0 4 0;
#P connect 4 0 0 0;
#P pop;
#P hidden newobj 108 48 27 9109513 p;
#P toggle 63 29 17 0;
#P hidden newex 137 26 41 9109513 pcontrol;
#N vpatcher 15 55 615 455;
#P window setfont "Sans Serif" 9.;
#P message 50 73 30 9109513 close;
#P message 81 73 28 9109513 open;
#P newex 50 50 72 9109513 sel 0 1;
#P message 92 96 34 9109513 set \$1;
#P inlet 92 76 15 0;
#P inlet 50 30 15 0;
#P outlet 50 95 15 0;
#P outlet 92 118 15 0;
#P connect 2 0 5 0;
#P connect 5 0 7 0;
#P connect 6 0 1 0;
#P connect 7 0 1 0;
#P connect 5 1 6 0;
#P connect 3 0 4 0;
#P connect 4 0 0 0;
#P pop;
#P hidden newobj 108 26 27 9109513 p;
#P hidden newex 275 136 73 9109513 scrlt.rack.aux.1;
#P objectname aux.1;
#P hidden newex 275 114 73 9109513 scrlt.rack.aux.0;
#P objectname aux.0;
#P hidden newex 180 92 79 9109513 scrlt.rack.track.3;
#P objectname track.3;
#P hidden newex 180 70 79 9109513 scrlt.rack.track.2;
#P objectname track.2;
#P hidden newex 180 48 79 9109513 scrlt.rack.track.1;
#P objectname track.1;
#P hidden newex 180 26 79 9109513 scrlt.rack.track.0;
#P objectname track.0;
#P hidden message 378 70 14 9109513 1;
#P hidden newex 378 49 28 9109513 sel 1;
#P hidden newex 378 28 34 9109513 active;
#P hidden message 414 49 14 9109513 0;
#P hidden newex 414 28 50 9109513 closebang;
#N comlet 0: closing 1: opening;
#P hidden outlet 378 93 15 0;
#N comlet dummy;
#P hidden inlet 434 52 15 0;
#P hidden newex 180 136 94 9109513 r~ scrlt.rack.aux.1.in;
#P hidden newex 180 114 94 9109513 r~ scrlt.rack.aux.0.in;
#P hidden newex 350 136 101 9109513 s~ scrlt.mixer.aux.1.in;
#P hidden newex 350 114 101 9109513 s~ scrlt.mixer.aux.0.in;
#P hidden newex 261 92 106 9109513 s~ scrlt.mixer.chan.3.in;
#P hidden newex 261 70 106 9109513 s~ scrlt.mixer.chan.2.in;
#P hidden newex 261 48 106 9109513 s~ scrlt.mixer.chan.1.in;
#P hidden newex 261 26 106 9109513 s~ scrlt.mixer.chan.0.in;
#P hidden connect 21 1 23 0;
#P hidden connect 24 1 26 0;
#P hidden connect 27 1 29 0;
#P hidden connect 30 1 32 0;
#P hidden connect 36 1 38 0;
#P hidden connect 33 1 35 0;
#P hidden connect 23 0 21 0;
#P hidden connect 26 0 24 0;
#P hidden connect 29 0 27 0;
#P hidden connect 32 0 30 0;
#P hidden connect 38 0 36 0;
#P hidden connect 35 0 33 0;
#P hidden connect 15 1 21 1;
#P hidden connect 16 1 24 1;
#P hidden connect 17 1 27 1;
#P hidden connect 18 1 30 1;
#P hidden connect 19 1 36 1;
#P hidden connect 20 1 33 1;
#P hidden connect 21 0 22 0;
#P hidden connect 24 0 25 0;
#P hidden connect 27 0 28 0;
#P hidden connect 30 0 31 0;
#P hidden connect 36 0 37 0;
#P hidden connect 33 0 34 0;
#P hidden connect 22 0 15 0;
#P hidden connect 25 0 16 0;
#P hidden connect 28 0 17 0;
#P hidden connect 31 0 18 0;
#P hidden connect 15 0 0 0;
#P hidden connect 16 0 1 0;
#P hidden connect 17 0 2 0;
#P hidden connect 18 0 3 0;
#P hidden connect 6 0 19 0;
#P hidden connect 7 0 20 0;
#P hidden connect 37 0 19 1;
#P hidden connect 34 0 20 1;
#P hidden connect 19 0 4 0;
#P hidden connect 20 0 5 0;
#P hidden connect 12 0 13 0;
#P hidden connect 13 0 14 0;
#P hidden connect 11 0 9 0;
#P hidden connect 14 0 9 0;
#P hidden connect 10 0 11 0;
#P pop;
