max v2;
#N vpatcher 425 262 777 532;
#P window setfont "Sans Serif" 9.;
#P hidden newex 13 146 49 9109513 pattr func;
#X prestore 127 0 45 45 45 45 56 45 45 45 45 45 45 77 77 77 77 77 77 77 77 77 77 77 77 77 77 77 74 71 65 59 56 53 53 46 43 36 31 25 24 22 21;
#X prestore 127 41 19 14 12 9 6 6 6 6 6 6 6 6 6 68 6 6 6 6 6 6 6 6 6 6 6 6 6 6 6 6 6 6 6 6 6 8 9 9 11 13 15;
#X prestore 127 82 17 19 20 20 21 21 22 24 25 27 28 30 31 33 35 37 41 46 50 52 53 56 59 65 68 71 74 87 89 91 93 115 118 118 118 45 45 45 45 45 45;
#X prestore 127 123 45 45 45 45;
#P objectname func;
#P hidden newex 6 93 38 9109513 _ fetch;
#P user uslider 128 24 13 27 128 1 0 0;
#P noclick;
#P user hslider 0 15 10 125 128 1 0 0;
#P noclick;
#P user multiSlider 0 24 129 43 0. 127. 127 2921 15 0 0 2 0 0 0;
#M frgb 51 102 153;
#M brgb 0 17 51;
#M rgb2 127 127 127;
#M rgb3 0 0 0;
#M rgb4 37 52 91;
#M rgb5 74 105 182;
#M rgb6 112 158 18;
#M rgb7 149 211 110;
#M rgb8 187 9 201;
#M rgb9 224 62 37;
#M rgb10 7 114 128;
#P objectname multiSlider;
#P hidden newex 94 114 36 9109513 _ send;
#P hidden newex 93 150 39 9109513 forward;
#P hidden newex 62 120 14 9109513 r;
#P hidden newex 64 86 98 9109513 sprintf set %s.vf.pos;
#P hidden newex 154 186 29 9109513 _ set;
#P hidden newex 138 160 26 9109513 t b l;
#P hidden newex 71 186 43 9109513 pattr par;
#X prestore 1 0 0;
#P objectname par;
#P hidden newex 21 186 46 9109513 pattr dev;
#X prestore 1 0 0;
#P objectname dev;
#P user umenu 86 0 55 9109543 1 50 16 1;
#X add ----;
#P objectname umenu;
#P user umenu 0 0 87 9109543 1 100 16 1;
#X add ----;
#X add trans;
#X add mixer.chan.0;
#X add mixer.chan.1;
#X add mixer.chan.2;
#X add mixer.chan.3;
#X add mixer.aux.0;
#X add mixer.aux.1;
#X add mixer.master;
#X add rack.track.0.gen;
#X add rack.track.0.fx.0;
#X add rack.track.0.fx.1;
#X add rack.track.1.gen;
#X add rack.track.1.fx.0;
#X add rack.track.1.fx.1;
#X add rack.track.2.gen;
#X add rack.track.2.fx.0;
#X add rack.track.2.fx.1;
#X add rack.track.3.gen;
#X add rack.track.3.fx.0;
#X add rack.track.3.fx.1;
#X add rack.aux.0;
#X add rack.aux.0.fx.0;
#X add rack.aux.0.fx.1;
#X add rack.aux.0.fx.2;
#X add rack.aux.1;
#X add rack.aux.1.fx.0;
#X add rack.aux.1.fx.1;
#X add rack.aux.1.fx.2;
#P objectname umenu[1];
#N vpatcher 15 55 615 455;
#P window setfont "Sans Serif" 9.;
#N vpatcher 15 55 615 455;
#P outlet 108 80 15 0;
#P inlet 103 31 15 0;
#P inlet 81 28 15 0;
#P connect 1 0 2 0;
#P connect 0 0 2 0;
#P pop;
#P newobj 50 119 63 9109513 p;
#N vpatcher 15 55 615 455;
#P window setfont "Sans Serif" 9.;
#P newex 119 52 35 9109513 sel ----;
#P outlet 175 92 15 0;
#P outlet 112 105 15 0;
#P inlet 81 28 15 0;
#P connect 3 1 1 0;
#P connect 0 0 3 0;
#P connect 3 0 2 0;
#P pop;
#P newobj 50 50 134 9109513 p sel ----;
#N vpatcher 15 55 615 455;
#P outlet 108 80 15 0;
#P inlet 103 31 15 0;
#P inlet 81 28 15 0;
#P connect 0 0 2 0;
#P connect 1 0 2 0;
#P pop;
#P newobj 76 168 108 9109513 p;
#N vpatcher 15 55 615 455;
#P outlet 108 80 15 0;
#P inlet 103 31 15 0;
#P inlet 81 28 15 0;
#P connect 1 0 2 0;
#P connect 0 0 2 0;
#P pop;
#P newobj 50 286 59 9109513 p;
#N vpatcher 15 55 615 455;
#P outlet 108 80 15 0;
#P inlet 103 31 15 0;
#P inlet 81 28 15 0;
#P connect 0 0 2 0;
#P connect 1 0 2 0;
#P pop;
#P newobj 50 238 36 9109513 p;
#P newex 50 96 63 9109513 route symbol;
#P newex 76 191 33 9109513 b;
#P message 76 215 20 9109513 ----;
#P newex 50 262 46 9109513 _ append;
#P message 99 262 28 9109513 clear;
#P newex 50 142 36 9109513 t l b;
#P newex 50 191 21 9109513 iter;
#N coll scrlt.targets.subs.knob;
#P newobj 50 73 121 9109513 coll scrlt.targets.subs.knob;
#P inlet 50 30 15 0;
#P outlet 50 310 15 0;
#P connect 1 0 13 0;
#P connect 13 0 2 0;
#P connect 2 0 9 0;
#P connect 9 0 14 0;
#P connect 14 0 4 0;
#P connect 4 0 3 0;
#P connect 3 0 10 0;
#P connect 10 0 6 0;
#P connect 6 0 11 0;
#P connect 11 0 0 0;
#P connect 4 1 12 0;
#P connect 12 0 8 0;
#P connect 8 0 7 0;
#P connect 7 0 10 1;
#P connect 8 1 5 0;
#P connect 5 0 11 1;
#P connect 9 1 14 1;
#P connect 13 1 12 1;
#P pop;
#P hidden newobj 231 94 100 9109513 p submenu generation;
#N vpatcher 15 55 615 455;
#P outlet 176 69 15 0;
#P outlet 125 69 15 0;
#P inlet 171 24 15 0;
#P inlet 128 24 15 0;
#P connect 1 0 2 0;
#P connect 0 0 3 0;
#P pop;
#P hidden newobj 172 27 64 9109513 p X;
#P hidden newex 172 75 40 9109513 rotate 1;
#P hidden newex 172 123 88 9109513 unpack ---- ----;
#P hidden newex 172 148 88 9109513 sprintf scrlt.%s.%s;
#P hidden newex 172 99 40 9109513 t l l;
#P hidden newex 172 51 64 9109513 pak ---- ----;
#P hidden message 154 211 111 9109513 ---- ----;
#P hidden button 138 211 15 0;
#P hidden connect 11 1 9 0;
#P hidden connect 16 0 20 0;
#P hidden connect 22 0 19 0;
#P hidden connect 23 1 19 0;
#P hidden connect 20 0 22 0;
#P hidden connect 15 0 16 0;
#P hidden connect 4 0 15 0;
#P hidden connect 12 1 10 0;
#P hidden connect 8 0 10 0;
#P hidden connect 19 1 17 0;
#P hidden connect 18 0 17 0;
#P hidden connect 4 0 18 0;
#P hidden connect 19 1 21 0;
#P hidden connect 2 0 13 0;
#P hidden connect 13 0 0 0;
#P hidden connect 13 1 14 0;
#P hidden connect 14 0 1 0;
#P hidden connect 9 1 7 0;
#P hidden connect 7 0 2 0;
#P hidden connect 2 0 6 0;
#P hidden connect 6 0 3 0;
#P hidden connect 3 0 5 0;
#P hidden connect 5 0 4 0;
#P hidden connect 10 1 7 1;
#P hidden connect 7 1 2 1;
#P hidden connect 9 1 8 0;
#P hidden connect 5 1 4 1;
#P pop;
