max v2;
#N vpatcher 25 70 207 295;
#N comlet pitch vel;
#P outlet 40 180 15 0;
#N comlet octave;
#P inlet 85 29 15 0;
#N comlet pitch vel;
#P inlet 40 29 15 0;
#P window setfont "Sans Serif" 9.;
#P newex 40 129 38 9109513 pack;
#P newex 40 152 40 9109513 rotate 1;
#P newex 40 60 40 9109513 rotate 1;
#P newex 85 83 26 9109513 * 12;
#P newex 85 60 26 9109513 + 2;
#P newex 68 106 27 9109513 + 0;
#P newex 40 83 38 9109513 unpack;
#P connect 7 0 4 0;
#P connect 4 0 0 0;
#P connect 0 0 6 0;
#P connect 6 0 5 0;
#P connect 5 0 9 0;
#P connect 0 1 1 0;
#P connect 1 0 6 1;
#P connect 8 0 2 0;
#P connect 2 0 3 0;
#P connect 3 0 1 1;
#P pop;
