max v2;
#N vpatcher 96 159 793 691;
#P window setfont "Sans Serif" 9.;
#P window linecount 1;
#P hidden newex 315 89 50 9109513 r $2.aux.0;
#P hidden newex 465 219 111 9109513 scrlt.util.bcrfwd $1.aux.1;
#P hidden newex 522 193 111 9109513 scrlt.util.bcrfwd $1.aux.0;
#P hidden newex 528 137 98 9109513 scrlt.util.bcrfwd $1.lvl;
#P hidden newex 546 103 109 9109513 scrlt.util.bcrfwd $1.mute;
#P hidden newex 449 53 106 9109513 scrlt.util.bcrfwd $1.mon;
#P hidden newex 262 453 137 9109513 sprintf set scrlt.rack.aux.%d.in;
#P hidden message 29 394 14 9109513 1;
#P hidden message 44 394 14 9109513 0;
#P hidden newex 29 368 40 9109513 sel 0 1;
#P hidden message 29 418 138 9109513 script send auxlabel set aux \$1;
#P hidden newex 29 345 61 9109513 loadmess $1;
#P hidden newex 373 98 50 9109513 r $2.aux.1;
#P hidden newex 373 124 53 9109513 pattr aux.1;
#X prestore 1 0 0;
#P objectname aux.1;
#P comment 24 25 29 9109513 aux 1;
#P objectname auxlabel;
#P hidden user gain~ 374 167 40 44 158 0 1.071519 7.94321 10.;
#P hidden newex 398 273 96 9109513 s~ scrlt.rack.aux.1.in;
#P user dial 0 21 22 22 128 1 0 0 240 270 1 1. 170 170 170 221 221 221 120 120 120 225 225 225 0 0 0 0 0 0;
#P objectname dial[1];
#P hidden newex 187 127 37 9109513 r $2.lvl;
#P objectname aux.prefade[3];
#P hidden newex 187 158 40 9109513 pattr lvl;
#X prestore 1 0 0;
#P objectname lvl;
#P hidden newex 278 256 51 9109513 pattr mute;
#X prestore 1 0 0;
#P objectname mute;
#P hidden newex 278 228 48 9109513 r $2.mute;
#P hidden newex 288 162 48 9109513 pattr mon;
#X prestore 1 0 0;
#P objectname mon;
#P hidden newex 288 134 45 9109513 r $2.mon;
#P hidden comment 233 53 171 9109513 arg 2: s/r prefix (ex: scrlt.mixer.aux.0);
#P hidden comment 234 34 100 9109513 arg 1: aux number;
#P hidden newex 111 339 45 9109513 loadbang;
#P hidden message 111 364 151 9109513 script send ch_num_lbl set aux $1;
#N thispatcher;
#Q end;
#P hidden newobj 111 389 54 9109513 thispatcher;
#P window setfont "Sans Serif" 14.;
#P comment 1 0 47 9109518 aux $1;
#P objectname ch_num_lbl;
#P window setfont "Sans Serif" 9.;
#P hidden newex 75 283 23 9109513 Not;
#P hidden newex 108 271 31 9109513 gate~;
#P comment 0 64 25 9109513 mute;
#P toggle 35 65 14 0;
#P objectname toggle;
#P hidden newex 108 301 112 9109513 s~ scrlt.mixer.master.in;
#P hidden user gain~ 127 138 32 31 158 0 1.071519 7.94321 10.;
#P hidden newex 146 242 101 9109513 s~ scrlt.mixer.mon.in;
#P hidden newex 102 29 39 9109513 r~ $2.in;
#P user dial 30 40 22 22 128 1 0 0 240 270 1 1. 170 170 170 221 221 221 120 120 120 225 225 225 0 0 0 0 0 0;
#P objectname dial;
#P user meter~ 36 82 51 157 50 0 168 0 103 103 103 255 153 0 255 0 0 217 217 0 153 186 0 12 3 3 3 3;
#P user gain~ 0 82 37 53 158 0 1.071519 7.94321 10.;
#P objectname gain~;
#P comment 0 44 24 9109513 mon;
#P hidden comment 129 93 96 9109513 scrlt.mixer.aux.0.in;
#P user panel 0 0 51 20;
#X brgb 191 191 191;
#X frgb 0 0 0;
#X border 1;
#X rounded 0;
#X shadow 0;
#X done;
#P background;
#P user panel 0 19 51 64;
#X brgb 191 191 191;
#X frgb 0 0 0;
#X border 1;
#X rounded 0;
#X shadow 0;
#X done;
#P background;
#P hidden connect 31 1 27 0;
#P hidden connect 7 0 4 0;
#P hidden connect 25 1 4 0;
#P hidden connect 33 0 35 0;
#P hidden connect 35 0 37 0;
#P hidden connect 37 0 34 0;
#P hidden connect 36 0 34 0;
#P hidden connect 22 1 6 0;
#P hidden connect 24 1 11 0;
#P hidden connect 13 0 5 0;
#P hidden connect 35 1 36 0;
#P hidden connect 24 0 14 0;
#P hidden connect 14 0 13 0;
#P hidden connect 13 0 10 0;
#P hidden connect 18 0 17 0;
#P hidden connect 17 0 16 0;
#P hidden connect 34 0 16 0;
#P hidden connect 22 0 9 0;
#P hidden connect 7 0 9 0;
#P hidden connect 4 0 13 1;
#P hidden connect 9 0 8 0;
#P hidden connect 26 0 25 0;
#P hidden connect 36 0 38 0;
#P hidden connect 37 0 38 0;
#P hidden connect 23 0 24 0;
#P hidden connect 21 0 22 0;
#P hidden connect 44 0 31 0;
#P hidden connect 32 0 31 0;
#P hidden connect 31 0 29 0;
#P hidden connect 38 0 28 0;
#P hidden connect 29 0 28 0;
#P hidden connect 22 0 39 0;
#P hidden connect 31 0 43 0;
#P hidden connect 31 0 42 0;
#P hidden connect 25 0 41 0;
#P hidden connect 24 0 40 0;
#P pop;
