max v2;
#N vpatcher 728 450 860 775;
#P window setfont "Sans Serif" 9.;
#P window linecount 1;
#P newex 59 222 40 9109513 rotate 1;
#P newex 59 197 40 9109513 pack;
#P newex 59 169 27 9109513 int;
#P newex 59 112 40 9109513 t b b i;
#P newex 26 280 76 9109513 s scrlt.bcr.ctlout;
#P newex 26 254 43 9109513 gate;
#P toggle 26 206 15 0;
#P message 41 157 14 9109513 1;
#P message 26 157 14 9109513 0;
#P newex 26 84 43 9109513 sel none;
#P newex 26 58 42 9109513 route $1;
#P newex 26 33 69 9109513 r scrlt.bcr.map;
#P inlet 69 146 15 0;
#P connect 1 0 2 0;
#P connect 2 0 3 0;
#P connect 3 0 4 0;
#P connect 5 0 6 0;
#P connect 4 0 6 0;
#P connect 6 0 7 0;
#P connect 7 0 8 0;
#P connect 9 1 5 0;
#P connect 3 1 9 0;
#P connect 0 0 10 0;
#P connect 9 0 10 0;
#P connect 10 0 11 0;
#P connect 11 0 12 0;
#P connect 12 0 7 1;
#P connect 9 2 11 1;
#P pop;
