max v2;
#N vpatcher 251 201 946 780;
#P window setfont "Sans Serif" 9.;
#P window linecount 1;
#P hidden message 473 216 60 9109513 window exec;
#P hidden newex 473 111 66 9109513 b 5;
#P hidden message 487 195 118 9109513 window size 50 50 300 540;
#P hidden message 501 174 93 9109513 window flags nogrow;
#P hidden message 515 153 96 9109513 window flags nozoom;
#P hidden newex 473 90 95 9109513 sel setdisplaywindow;
#N thispatcher;
#Q end;
#P hidden newobj 473 237 54 9109513 thispatcher;
#P hidden newex 264 491 128 9109513 s~ scrlt.rack.track.4.fx.1.out;
#P hidden newex 290 267 128 9109513 s~ scrlt.rack.track.4.fx.0.out;
#P hidden newex 295 201 126 9109513 s~ scrlt.rack.track.4.gen.out;
#P hidden message 267 112 14 9109513 1;
#P hidden newex 267 87 28 9109513 sel 1;
#P hidden newex 267 62 34 9109513 active;
#P hidden message 267 162 14 9109513 0;
#P hidden newex 267 137 50 9109513 closebang;
#N comlet 0: closing 1: opening;
#P hidden outlet 267 187 15 0;
#N comlet dummy;
#P hidden inlet 473 69 15 0;
#P hidden outlet 0 495 15 0;
#P bpatcher 0 355 250 134 0 0 scrlt.fx.filter.mxt 4 scrlt.rack.track.4.fx.1;
#P objectname fx.1;
#P bpatcher 0 222 250 134 0 0 scrlt.fx.degrade.mxt 4 scrlt.rack.track.4.fx.0;
#P objectname fx.0;
#P bpatcher 0 39 250 184 0 0 scrlt.gen.merge.mxt 4 scrlt.rack.track.4.gen;
#P objectname gen;
#P window setfont "Arial Black" 18.;
#P comment 5 3 135 10682386 track.4;
#P background;
#P user panel 0 0 250 40;
#X brgb 191 191 191;
#X frgb 0 0 0;
#X border 1;
#X rounded 0;
#X shadow 0;
#X done;
#P background;
#P hidden connect 2 0 3 0;
#P hidden connect 3 0 4 0;
#P hidden connect 4 0 5 0;
#P hidden connect 4 0 15 0;
#P hidden connect 10 0 11 0;
#P hidden connect 11 0 12 0;
#P hidden connect 8 0 9 0;
#P hidden connect 12 0 7 0;
#P hidden connect 9 0 7 0;
#P hidden connect 3 0 14 0;
#P hidden connect 2 0 13 0;
#P hidden connect 6 0 17 0;
#P hidden connect 17 0 21 0;
#P hidden connect 21 0 22 0;
#P hidden connect 18 0 16 0;
#P hidden connect 19 0 16 0;
#P hidden connect 20 0 16 0;
#P hidden connect 22 0 16 0;
#P hidden connect 21 1 20 0;
#P hidden connect 21 2 19 0;
#P hidden connect 21 3 18 0;
#P pop;
