max v2;
#N vpatcher 25 70 615 837;
#P user ezdac~ 416 220 460 253 0;
#P user gain~ 342 97 26 162 158 0 1.071519 7.94321 10.;
#P user meter~ 367 97 380 281 50 0 168 0 103 103 103 255 153 0 255 0 0 217 217 0 153 186 0 12 3 3 3 3;
#P user meter~ 330 97 343 281 50 0 168 0 103 103 103 255 153 0 255 0 0 217 217 0 153 186 0 12 3 3 3 3;
#P bpatcher 81 97 250 489 0 0 scrlt.rack.track.4.mxt 4;
#P objectname gen;
#P fasten 0 0 1 0 86 598 68 598 68 82 335 82;
#P fasten 0 0 3 0 86 598 68 598 68 82 347 82;
#P fasten 3 0 2 0 347 292 388 292 388 82 372 82;
#P fasten 3 0 4 0 347 292 402 292 402 195 421 195;
#P fasten 3 0 4 1 347 292 402 292 402 195 455 195;
#P pop;
