max v2;
#N vpatcher 63 49 956 753;
#P window setfont "Sans Serif" 9.;
#P newex 540 370 36 9109513 _ send;
#P newex 456 424 39 9109513 forward;
#P newex 352 428 14 9109513 r;
#P newex 348 366 82 9109513 sprintf %s.vf.pos;
#P hidden newex 318 261 29 9109513 _ set;
#P hidden newex 302 235 26 9109513 t b l;
#P hidden newex 353 134 43 9109513 pattr par;
#X prestore 1 0 0;
#P objectname par;
#P hidden newex 303 134 46 9109513 pattr dev;
#X prestore 1 0 0;
#P objectname dev;
#P user umenu 437 85 55 9109543 1 50 101 1;
#X add ----;
#P objectname umenu;
#P user umenu 351 85 87 9109543 1 100 101 1;
#X add ----;
#X add trans;
#X add mixer.chan.0;
#X add mixer.chan.1;
#X add mixer.chan.2;
#X add mixer.chan.3;
#X add mixer.aux.0;
#X add mixer.aux.1;
#X add mixer.master;
#X add rack.track.0.gen;
#X add rack.track.0.fx.0;
#X add rack.track.0.fx.1;
#X add rack.track.1.gen;
#X add rack.track.1.fx.0;
#X add rack.track.1.fx.1;
#X add rack.track.2.gen;
#X add rack.track.2.fx.0;
#X add rack.track.2.fx.1;
#X add rack.track.3.gen;
#X add rack.track.3.fx.0;
#X add rack.track.3.fx.1;
#X add rack.aux.0;
#X add rack.aux.0.fx.0;
#X add rack.aux.0.fx.1;
#X add rack.aux.0.fx.2;
#X add rack.aux.1;
#X add rack.aux.1.fx.0;
#X add rack.aux.1.fx.1;
#X add rack.aux.1.fx.2;
#P objectname umenu[1];
#N vpatcher 15 55 615 455;
#P window setfont "Sans Serif" 9.;
#N vpatcher 15 55 615 455;
#P outlet 108 80 15 0;
#P inlet 103 31 15 0;
#P inlet 81 28 15 0;
#P connect 1 0 2 0;
#P connect 0 0 2 0;
#P pop;
#P newobj 50 119 63 9109513 p;
#N vpatcher 15 55 615 455;
#P window setfont "Sans Serif" 9.;
#P newex 119 52 35 9109513 sel ----;
#P outlet 175 92 15 0;
#P outlet 112 105 15 0;
#P inlet 81 28 15 0;
#P connect 3 1 1 0;
#P connect 0 0 3 0;
#P connect 3 0 2 0;
#P pop;
#P newobj 50 50 134 9109513 p sel ----;
#N vpatcher 15 55 615 455;
#P outlet 108 80 15 0;
#P inlet 103 31 15 0;
#P inlet 81 28 15 0;
#P connect 0 0 2 0;
#P connect 1 0 2 0;
#P pop;
#P newobj 76 168 108 9109513 p;
#N vpatcher 15 55 615 455;
#P outlet 108 80 15 0;
#P inlet 103 31 15 0;
#P inlet 81 28 15 0;
#P connect 1 0 2 0;
#P connect 0 0 2 0;
#P pop;
#P newobj 50 286 59 9109513 p;
#N vpatcher 15 55 615 455;
#P outlet 108 80 15 0;
#P inlet 103 31 15 0;
#P inlet 81 28 15 0;
#P connect 0 0 2 0;
#P connect 1 0 2 0;
#P pop;
#P newobj 50 238 36 9109513 p;
#P newex 50 96 63 9109513 route symbol;
#P newex 76 191 33 9109513 b;
#P message 76 215 20 9109513 ----;
#P newex 50 262 46 9109513 _ append;
#P message 99 262 28 9109513 clear;
#P newex 50 142 36 9109513 t l b;
#P newex 50 191 21 9109513 iter;
#N coll scrlt.targets.subs.knob;
#P newobj 50 73 121 9109513 coll scrlt.targets.subs.knob;
#P inlet 50 30 15 0;
#P outlet 50 310 15 0;
#P connect 1 0 13 0;
#P connect 13 0 2 0;
#P connect 2 0 9 0;
#P connect 9 0 14 0;
#P connect 14 0 4 0;
#P connect 4 0 3 0;
#P connect 3 0 10 0;
#P connect 10 0 6 0;
#P connect 6 0 11 0;
#P connect 11 0 0 0;
#P connect 4 1 12 0;
#P connect 12 0 8 0;
#P connect 8 0 7 0;
#P connect 7 0 10 1;
#P connect 8 1 5 0;
#P connect 5 0 11 1;
#P connect 9 1 14 1;
#P connect 13 1 12 1;
#P pop;
#P hidden newobj 487 181 100 9109513 p submenu generation;
#N vpatcher 15 55 615 455;
#P outlet 176 69 15 0;
#P outlet 125 69 15 0;
#P inlet 171 24 15 0;
#P inlet 128 24 15 0;
#P connect 1 0 2 0;
#P connect 0 0 3 0;
#P pop;
#P hidden newobj 428 114 64 9109513 p X;
#P hidden newex 428 162 40 9109513 rotate 1;
#P hidden newex 428 210 88 9109513 unpack ---- ----;
#P hidden newex 428 235 88 9109513 sprintf scrlt.%s.%s;
#P hidden newex 428 186 40 9109513 t l l;
#P hidden newex 428 138 64 9109513 pak ---- ----;
#P hidden message 318 286 111 9109513 ---- ----;
#P hidden button 302 286 15 0;
#P newex 76 266 66 9109513 route function;
#P user uslider 236 154 13 84 128 1 0 0;
#P user hslider 37 145 10 184 128 1 0 0;
#P user jsui 37 154 200 100 1 0 0 ej.function.js;
#J statemessage CreateNFunctions 1 function 0. 127. 0. 127.;
#J statemessage legend 0;
#J statemessage grid 1;
#J statemessage snap2grid 1;
#J statemessage hiddenpoint 0;
#J statemessage clickadd 1;
#J statemessage clickmove 1;
#J statemessage autosustain 0;
#J statemessage timedisplay 0;
#J statemessage autocursor 1;
#J statemessage bordersync 0;
#J statemessage ghost 20;
#J statemessage notifyrecalled 0;
#J statemessage mousereport 0;
#J statemessage SetColor 0 brgb 204 204 204;
#J statemessage SetColor 0 frgb 82 82 82;
#J statemessage SetColor 0 rgb2 107 107 107;
#J statemessage SetColor 0 rgb3 255 0 0;
#J statemessage SetColor 0 rgb4 51 51 51;
#J statemessage SetColor 0 rgb5 128 128 128;
#J statemessage fsaa 0;
#J statemessage redrawon;
#P objectname ej.function;
#P connect 20 0 1 0;
#P hidden connect 1 0 0 0;
#P hidden connect 0 0 3 0;
#P hidden connect 3 0 2 0;
#P hidden connect 6 0 17 0;
#P hidden connect 17 0 4 0;
#P hidden connect 17 1 18 0;
#P hidden connect 18 0 5 0;
#P connect 8 0 19 0;
#P hidden connect 15 1 13 0;
#P connect 19 0 20 0;
#P hidden connect 13 1 11 0;
#P hidden connect 11 0 6 0;
#P hidden connect 6 0 10 0;
#P hidden connect 10 0 7 0;
#P hidden connect 7 0 9 0;
#P hidden connect 9 0 8 0;
#P hidden connect 16 1 14 0;
#P hidden connect 12 0 14 0;
#P connect 3 0 21 0;
#P connect 22 0 21 0;
#P hidden connect 14 1 11 1;
#P hidden connect 11 1 6 1;
#P hidden connect 13 1 12 0;
#P hidden connect 9 1 8 1;
#P connect 8 0 22 0;
#P pop;
