max v2;
#N vpatcher 96 102 861 580;
#P window setfont "Sans Serif" 9.;
#P window linecount 1;
#P message 566 122 19 9109513 -1.;
#P message 500 131 16 9109513 1.;
#P newex 545 90 40 9109513 sel 0 1;
#P newex 427 197 27 9109513 *~;
#P toggle 552 53 15 0;
#P message 93 121 19 9109513 -1.;
#P message 27 130 16 9109513 1.;
#P newex 72 89 40 9109513 sel 0 1;
#P newex 163 208 27 9109513 *~;
#P toggle 79 52 15 0;
#P newex 394 227 28 9109513 *~ 1.;
#P newex 212 217 28 9109513 *~ 1.;
#P newex 385 177 32 9109513 / 127.;
#P user dial 377 127 26 26 128 1 0 0 254 270 1 1. 170 170 170 221 221 221 120 120 120 225 225 225 0 0 0 0 0 0;
#P newex 193 166 32 9109513 / 127.;
#P user dial 189 120 26 26 128 1 0 0 254 270 1 1. 170 170 170 221 221 221 120 120 120 225 225 225 0 0 0 0 0 0;
#P user ubumenu 331 138 27 9109513 0 1 1 0;
#X add +;
#X add -;
#X add /;
#X add *;
#X add %;
#X add +;
#X add -;
#X add /;
#X add *;
#X add %;
#X prefix_set 0 0 <none> 0;
#P newex 270 278 59 9109513 scrlt.util.op~;
#P newex 436 158 29 9109513 r~ __;
#P newex 401 105 88 9109513 sprintf set scrlt.%s;
#P user ubumenu 356 86 100 9109513 0 1 1 0;
#X add rack.track.0.gen.out;
#X add rack.track.0.fx.0.out;
#X add rack.track.0.fx.1.out;
#X add rack.track.1.gen.out;
#X add rack.track.1.fx.0.out;
#X add rack.track.1.fx.1.out;
#X add rack.track.2.gen.out;
#X add rack.track.2.fx.0.out;
#X add rack.track.2.fx.1.out;
#X add rack.track.3.gen.out;
#X add rack.track.3.fx.0.out;
#X add rack.track.3.fx.1.out;
#X add rack.aux.0.fx.0.out;
#X add rack.aux.0.fx.1.out;
#X add rack.aux.0.fx.2.out;
#X add rack.aux.0.fx.0.out;
#X add rack.aux.0.fx.1.out;
#X add rack.aux.0.fx.2.out;
#X prefix_set 0 0 <none> 0;
#P newex 285 155 29 9109513 r~ __;
#P newex 250 102 88 9109513 sprintf set scrlt.%s;
#P user ubumenu 205 83 100 9109513 0 1 1 0;
#X add rack.track.0.gen.out;
#X add rack.track.0.fx.0.out;
#X add rack.track.0.fx.1.out;
#X add rack.track.1.gen.out;
#X add rack.track.1.fx.0.out;
#X add rack.track.1.fx.1.out;
#X add rack.track.2.gen.out;
#X add rack.track.2.fx.0.out;
#X add rack.track.2.fx.1.out;
#X add rack.track.3.gen.out;
#X add rack.track.3.fx.0.out;
#X add rack.track.3.fx.1.out;
#X add rack.aux.0.fx.0.out;
#X add rack.aux.0.fx.1.out;
#X add rack.aux.0.fx.2.out;
#X add rack.aux.0.fx.0.out;
#X add rack.aux.0.fx.1.out;
#X add rack.aux.0.fx.2.out;
#X prefix_set 0 0 <none> 0;
#P connect 16 0 17 0;
#P connect 14 0 16 0;
#P connect 16 1 18 0;
#P connect 18 0 15 0;
#P connect 17 0 15 0;
#P connect 2 0 15 1;
#P connect 8 0 9 0;
#P connect 15 0 12 0;
#P connect 9 0 12 1;
#P connect 0 1 1 0;
#P connect 7 1 6 0;
#P connect 1 0 2 0;
#P connect 12 0 6 1;
#P connect 13 0 6 2;
#P connect 10 0 11 0;
#P connect 20 0 13 0;
#P connect 3 1 4 0;
#P connect 11 0 13 1;
#P connect 22 0 20 0;
#P connect 23 0 20 0;
#P connect 4 0 5 0;
#P connect 5 0 20 1;
#P connect 21 0 22 0;
#P connect 19 0 21 0;
#P connect 21 1 23 0;
#P pop;
