max v2;
#N vpatcher 362 141 1166 732;
#P origin 0 -21;
#P window setfont "Sans Serif" 9.;
#P window linecount 1;
#P hidden newex 22 389 19 9109513 t b;
#P hidden newex 22 366 71 9109513 r scrlt.bcr.send;
#P hidden newex 603 168 27 9109513 - 5.;
#P hidden newex 647 124 27 9109513 + 5.;
#P hidden newex 377 168 103 9109513 scrlt.util.gvrateunscale;
#P hidden newex 622 59 93 9109513 scrlt.util.gvratescale;
#P hidden newex 440 165 84 9109513 scale 0. 1. 0. 127.;
#P hidden newex 479 102 84 9109513 scale 0. 127. 0. 1.;
#P hidden newex 354 483 84 9109513 scale 0. 1. 0. 127.;
#P hidden newex 263 413 84 9109513 scale 0. 127. 0. 1.;
#P hidden newex 368 360 34 9109513 _ max;
#P hidden newex 429 423 105 9109513 info~ $0.sample;
#P hidden newex 472 311 67 9109513 r $0.load.done;
#P hidden newex 253 260 29 9109513 _ set;
#P hidden newex 204 264 29 9109513 _ set;
#P hidden newex 573 199 34 9109513 _ max;
#P hidden newex 643 300 31 9109513 _ min;
#P bpatcher 66 32 145 16 0 0 scrlt.util.samplechooser.mxt 4;
#P objectname sample[1];
#P hidden newex 341 213 72 9109513 scrlt.util.0or127;
#P hidden newex 317 524 122 9109513 scrlt.util.bcrfwd $1.sel.start;
#P hidden newex 341 236 98 9109513 scrlt.util.bcrfwd $1.on;
#P hidden newex 453 196 104 9109513 scrlt.util.bcrfwd $1.rate;
#P hidden newex 453 246 118 9109513 scrlt.util.bcrfwd $1.sel.end;
#P hidden newex 114 223 61 9109513 rset $1.par.3;
#P hidden newex 189 223 50 9109513 s $1.par.3;
#P hidden newex 396 64 57 9109513 r $1.sel.end;
#P hidden newex 116 198 61 9109513 rset $1.par.2;
#P hidden newex 189 200 50 9109513 s $1.par.2;
#P hidden newex 266 378 61 9109513 r $1.sel.start;
#P hidden newex 330 64 43 9109513 r $1.rate;
#P hidden newex 256 64 37 9109513 r $1.on;
#P window setfont "Sans Serif" 10.;
#P comment 122 87 50 9109514 disp len;
#P window setfont "Sans Serif" 9.;
#P flonum 190 87 49 9 0 0 32 139 0 0 0 221 221 221 222 222 222 0 0 0;
#P objectname flonum[1];
#P flonum 66 87 49 9 0 0 32 139 0 0 0 221 221 221 222 222 222 0 0 0;
#P objectname flonum;
#P window setfont "Sans Serif" 10.;
#P comment 6 87 50 9109514 disp start;
#P window setfont "Sans Serif" 9.;
#P hidden newex 356 265 76 9109513 loadmess loop 1;
#P hidden newex 356 287 58 9109513 s $0.gv.in.0;
#P hidden newex 356 309 99 9109513 loadmess loopinterp 1;
#P hidden newex 356 332 58 9109513 s $0.gv.in.0;
#P bpatcher 6 123 19 38 0 0 scrlt.util.wfmodesel.mxt 4;
#P hidden newex 256 199 71 9109513 s~ $0.gv.in.0.s;
#P hidden newex 120 330 69 9109513 r~ $0.gv.in.0.s;
#P hidden newex 256 149 27 9109513 + 1;
#P hidden newex 293 149 33 9109513 sig~ 0;
#P window setfont "Sans Serif" 10.;
#P comment 6 68 50 9109514 rate;
#P window setfont "Sans Serif" 9.;
#P hidden newex 256 174 85 9109513 selector~ 2;
#P hidden newex 256 125 40 9109513 pattr on;
#X prestore 1 0 0;
#P objectname on;
#P toggle 66 50 15 0;
#P objectname toggle[3];
#P window setfont "Sans Serif" 10.;
#P comment 6 50 50 9109514 on/off;
#P window setfont "Sans Serif" 9.;
#P hidden newex 330 125 46 9109513 pattr rate;
#X prestore 1 0 0.;
#P objectname rate;
#P flonum 66 68 49 9 0 0 32 139 0 0 0 221 221 221 222 222 222 0 0 0;
#P objectname flonum[4];
#P hidden newex 396 122 58 9109513 s $0.gv.in.2;
#P hidden newex 220 478 58 9109513 s $0.gv.in.1;
#P hidden newex 396 94 60 9109513 pattr sel.end;
#X prestore 1 0 6480.181641;
#P objectname sel.end;
#P hidden newex 220 446 64 9109513 pattr sel.start;
#X prestore 1 0 0.;
#P objectname sel.start;
#P hidden newex 491 32 69 9109513 s $0.load.done;
#P hidden newex 7 278 67 9109513 r $0.load.done;
#P hidden newex 7 300 45 9109513 loadbang;
#P window setfont "Sans Serif" 10.;
#P comment 122 69 66 9109514 sel end ms;
#P comment 122 50 68 9109514 sel start ms;
#P window setfont "Sans Serif" 9.;
#P flonum 190 69 49 9 5. 6480.271973 35 139 0 0 0 221 221 221 222 222 222 0 0 0;
#P objectname flonum[2];
#P flonum 190 50 49 9 0. 6475.181641 35 139 0 0 0 221 221 221 222 222 222 0 0 0;
#P objectname flonum[3];
#P hidden newex 330 149 33 9109513 sig~ 1;
#P user waveform~ 24 123 213 38 139 9;
#W mode loop;
#W mouseoutput continuous;
#W clipdraw 1;
#W unit ms;
#W grid 500.;
#W ticks 8;
#W labels 1;
#W vlabels 1;
#W vticks 1;
#W bpm 120. 4.;
#W frgb 16 0 0;
#W brgb 94 166 169;
#W rgb2 63 112 185;
#W rgb3 0 0 0;
#W rgb4 0 0 0;
#W rgb5 169 165 207;
#W rgb6 108 108 108;
#W rgb7 78 74 220;
#P hidden outlet 120 378 15 0;
#P hidden newex 240 306 56 9109513 r $0.gv.in.2;
#P hidden newex 180 306 56 9109513 r $0.gv.in.1;
#P hidden newex 120 306 56 9109513 r $0.gv.in.0;
#P hidden newex 120 354 131 9109513 groove~ $0.sample;
#P window setfont "Arial Black" 12.;
#P comment 6 7 141 10682380 gen.groove.single;
#P window setfont "Sans Serif" 10.;
#P comment 6 32 51 9109514 sample;
#P window setfont "Sans Serif" 9.;
#P hidden newex 362 33 85 9109513 buffer~ $0.sample;
#P hidden message 7 324 75 9109513 set $0.sample 1;
#P user panel 0 0 250 184;
#X brgb 191 191 191;
#X frgb 0 0 0;
#X border 1;
#X rounded 0;
#X shadow 0;
#X done;
#P background;
#P hidden newex 10 248 62 9109513 pattr disp.len;
#X prestore 1 0 6480.272461;
#P objectname disp.len;
#P hidden newex 10 223 69 9109513 pattr disp.start;
#X prestore 1 0 0.;
#P objectname disp.start;
#P hidden message 74 196 35 9109513 set \$1;
#P hidden message 31 196 35 9109513 set \$1;
#P hidden toggle 256 93 15 0;
#P hidden connect 22 0 6 0;
#P hidden connect 21 0 6 0;
#P hidden connect 77 0 78 0;
#P hidden connect 39 0 15 0;
#P hidden connect 6 0 15 0;
#P hidden connect 45 0 15 0;
#P hidden connect 15 0 1 0;
#P hidden connect 78 0 31 0;
#P hidden connect 32 1 31 0;
#P hidden connect 78 0 28 0;
#P hidden connect 29 1 28 0;
#P hidden connect 78 0 45 0;
#P hidden connect 3 1 45 0;
#P hidden connect 1 0 45 0;
#P hidden connect 46 0 15 1;
#P hidden connect 15 1 2 0;
#P hidden connect 11 0 10 0;
#P hidden connect 37 0 10 0;
#P hidden connect 10 0 14 0;
#P hidden connect 64 0 15 2;
#P hidden connect 52 0 15 2;
#P hidden connect 65 0 15 3;
#P hidden connect 55 0 15 3;
#P hidden connect 12 0 10 1;
#P hidden connect 15 2 51 0;
#P hidden connect 15 3 54 0;
#P hidden connect 78 0 17 0;
#P hidden connect 63 0 17 0;
#P hidden connect 24 1 17 0;
#P hidden connect 15 2 17 0;
#P hidden connect 78 0 18 0;
#P hidden connect 68 0 18 0;
#P hidden connect 62 0 18 0;
#P hidden connect 25 1 18 0;
#P hidden connect 15 3 18 0;
#P hidden connect 78 0 46 0;
#P hidden connect 4 1 46 0;
#P hidden connect 2 0 46 0;
#P hidden connect 17 0 64 0;
#P hidden connect 69 0 24 0;
#P hidden connect 24 0 26 0;
#P hidden connect 13 0 10 2;
#P hidden connect 18 0 65 0;
#P hidden connect 48 0 0 0;
#P hidden connect 0 0 32 0;
#P hidden connect 32 0 36 0;
#P hidden connect 36 0 33 0;
#P hidden connect 33 0 38 0;
#P hidden connect 50 0 69 0;
#P hidden connect 35 0 33 1;
#P hidden connect 70 0 59 0;
#P hidden connect 67 6 69 4;
#P hidden connect 73 0 29 0;
#P hidden connect 29 0 16 0;
#P hidden connect 16 0 33 2;
#P hidden connect 32 0 60 0;
#P hidden connect 60 0 58 0;
#P hidden connect 24 0 70 0;
#P hidden connect 43 0 42 0;
#P hidden connect 41 0 40 0;
#P hidden connect 61 0 7 0;
#P hidden connect 67 6 68 0;
#P hidden connect 29 0 74 0;
#P hidden connect 67 6 70 2;
#P hidden connect 71 0 25 0;
#P hidden connect 25 0 27 0;
#P hidden connect 66 0 67 0;
#P hidden connect 25 0 72 0;
#P hidden connect 74 0 57 0;
#P hidden connect 72 0 56 0;
#P hidden connect 67 6 72 2;
#P hidden connect 53 0 71 0;
#P hidden connect 7 1 23 0;
#P hidden connect 67 6 71 4;
#P hidden connect 76 0 63 0;
#P hidden connect 18 0 76 0;
#P hidden connect 49 0 73 0;
#P hidden connect 75 0 62 0;
#P hidden connect 17 0 75 0;
#P pop;
