max v2;
#N vpatcher 759 34 1342 511;
#P window setfont "Sans Serif" 9.;
#P window linecount 1;
#P hidden newex 270 125 48 9109513 r $2.mute;
#P objectname aux.prefade[4];
#P hidden newex 270 156 51 9109513 pattr mute;
#X prestore 1 0 0;
#P objectname mute;
#P hidden newex 205 151 37 9109513 r $2.lvl;
#P objectname aux.prefade[3];
#P hidden newex 205 182 40 9109513 pattr lvl;
#X prestore 1 0 0;
#P objectname lvl;
#P hidden newex 261 234 45 9109513 r $2.mon;
#P objectname aux.prefade[2];
#P hidden newex 261 265 48 9109513 pattr mon;
#X prestore 1 0 0;
#P objectname mon;
#P hidden newex 213 19 77 9109513 r $2.aux.prefade;
#P objectname aux.prefade[1];
#P hidden newex 213 50 80 9109513 pattr aux.prefade;
#X prestore 1 0 0;
#P objectname aux.prefade;
#P hidden newex 463 98 50 9109513 r $2.aux.1;
#P hidden newex 463 124 53 9109513 pattr aux.1;
#X prestore 1 0 0;
#P objectname aux.1;
#P hidden newex 351 94 50 9109513 r $2.aux.0;
#P hidden newex 351 120 53 9109513 pattr aux.0;
#X prestore 1 0 0;
#P objectname aux.0;
#P hidden comment 313 57 171 9109513 arg 2: s/r prefix (ex: scrlt.mix.chan.0);
#P user pictctrl 481 169 50 50 scrlt.knob.png 0 0 0 2 90 0 0 0 50 50 128 0 1 33 2 1 1 270;
#P hidden newex 66 258 45 9109513 loadbang;
#P hidden message 66 283 156 9109513 script send ch_num_lbl set chan $1;
#N thispatcher;
#Q end;
#P hidden newobj 66 308 54 9109513 thispatcher;
#P window setfont "Sans Serif" 14.;
#P comment 1 0 65 9109518 chan $1;
#P objectname ch_num_lbl;
#P window setfont "Sans Serif" 9.;
#P hidden newex 67 208 23 9109513 Not;
#P hidden newex 97 208 31 9109513 gate~;
#P comment 0 105 25 9109513 mute;
#P toggle 35 106 14 0;
#P objectname toggle[1];
#P hidden newex 67 46 27 9109513 + 1;
#P hidden newex 97 46 54 9109513 selector~ 2;
#P toggle 36 24 13 0;
#P objectname toggle;
#P comment 24 62 29 9109513 aux 1;
#P hidden user gain~ 470 281 40 44 158 0 1.071519 7.94321 10.;
#P hidden newex 470 355 99 9109513 s~ scrlt.mix.aux.1.out;
#P user dial 0 58 22 22 128 1 0 0 240 270 1 1. 170 170 170 221 221 221 120 120 120 225 225 225 0 0 0 0 0 0;
#P objectname dial[1];
#P comment 0 43 29 9109513 aux 0;
#P hidden user gain~ 355 262 40 44 158 0 1.071519 7.94321 10.;
#P hidden newex 356 351 99 9109513 s~ scrlt.mix.aux.0.out;
#P user dial 30 39 22 22 128 1 0 0 240 270 1 1. 170 170 170 221 221 221 120 120 120 225 225 225 0 0 0 0 0 0;
#P objectname dial;
#P hidden newex 67 235 99 9109513 s~ scrlt.mix.master.in;
#P hidden user gain~ 259 324 41 56 158 0 1.071519 7.94321 10.;
#P hidden newex 264 419 88 9109513 s~ scrlt.mix.mon.in;
#P hidden newex 67 19 39 9109513 r~ $2.in;
#P user dial 30 81 22 22 128 1 0 0 240 270 1 1. 170 170 170 221 221 221 120 120 120 225 225 225 0 0 0 0 0 0;
#P objectname dial[2];
#P user meter~ 36 122 51 242 50 0 168 0 103 103 103 255 153 0 255 0 0 217 217 0 153 186 0 12 3 3 3 3;
#P user gain~ 0 122 37 98 158 0 1.071519 7.94321 10.;
#P objectname gain~;
#P comment 0 85 24 9109513 mon;
#P comment 0 23 36 9109513 prefade;
#P hidden comment 102 21 83 9109513 scrlt.mix.chan.0.in;
#P hidden comment 314 38 100 9109513 arg 1: channel number;
#P window setfont "Sans Serif" 20.;
#P comment 21 352 214 9109524 todo: bcr forwarding!!!;
#B color 3;
#P user panel 0 0 51 20;
#X brgb 191 191 191;
#X frgb 0 0 0;
#X border 1;
#X rounded 0;
#X shadow 0;
#X done;
#P background;
#P user panel 0 19 51 104;
#X brgb 191 191 191;
#X frgb 0 0 0;
#X border 1;
#X rounded 0;
#X shadow 0;
#X done;
#P background;
#P hidden connect 37 1 18 0;
#P hidden connect 10 0 7 0;
#P hidden connect 43 1 7 0;
#P hidden connect 35 1 14 0;
#P hidden connect 41 1 9 0;
#P hidden connect 45 1 25 0;
#P hidden connect 39 1 22 0;
#P hidden connect 27 0 8 0;
#P hidden connect 32 0 31 0;
#P hidden connect 31 0 30 0;
#P hidden connect 39 0 24 0;
#P hidden connect 45 0 28 0;
#P hidden connect 27 0 13 0;
#P hidden connect 24 0 23 0;
#P hidden connect 28 0 27 0;
#P hidden connect 7 0 27 1;
#P hidden connect 10 0 23 1;
#P hidden connect 27 0 23 2;
#P hidden connect 44 0 43 0;
#P hidden connect 40 0 39 0;
#P hidden connect 10 0 12 0;
#P hidden connect 41 0 12 0;
#P hidden connect 42 0 41 0;
#P hidden connect 12 0 11 0;
#P hidden connect 46 0 45 0;
#P hidden connect 36 0 35 0;
#P hidden connect 23 0 16 0;
#P hidden connect 35 0 16 0;
#P hidden connect 16 0 15 0;
#P hidden connect 38 0 37 0;
#P hidden connect 23 0 20 0;
#P hidden connect 37 0 20 0;
#P hidden connect 20 0 19 0;
#P pop;
