max v2;
#N vpatcher 84 100 1148 841;
#P origin 2 0;
#P bpatcher 426 505 141 67 0 0 scrlt.midi.bcr.vfunc.node.knob.func.mxt 5;
#P objectname node.31;
#P bpatcher 284 505 141 67 0 0 scrlt.midi.bcr.vfunc.node.knob.func.mxt 5;
#P objectname node.30;
#P bpatcher 142 505 141 67 0 0 scrlt.midi.bcr.vfunc.node.knob.func.mxt 5;
#P objectname node.29;
#P bpatcher 0 505 141 67 0 0 scrlt.midi.bcr.vfunc.node.knob.func.mxt 5;
#P objectname node.28;
#P bpatcher 426 437 141 67 0 0 scrlt.midi.bcr.vfunc.node.knob.func.mxt 5;
#P objectname node.27;
#P bpatcher 284 437 141 67 0 0 scrlt.midi.bcr.vfunc.node.knob.func.mxt 5;
#P objectname node.26;
#P bpatcher 142 437 141 67 0 0 scrlt.midi.bcr.vfunc.node.knob.func.mxt 5;
#P objectname node.25;
#P bpatcher 0 437 141 67 0 0 scrlt.midi.bcr.vfunc.node.knob.func.mxt 5;
#P objectname node.24;
#P bpatcher 426 369 141 67 0 0 scrlt.midi.bcr.vfunc.node.knob.func.mxt 5;
#P objectname node.23;
#P bpatcher 284 369 141 67 0 0 scrlt.midi.bcr.vfunc.node.knob.func.mxt 5;
#P objectname node.22;
#P bpatcher 142 369 141 67 0 0 scrlt.midi.bcr.vfunc.node.knob.func.mxt 5;
#P objectname node.21;
#P bpatcher 0 369 141 67 0 0 scrlt.midi.bcr.vfunc.node.knob.func.mxt 5;
#P objectname node.20;
#P bpatcher 426 301 141 67 0 0 scrlt.midi.bcr.vfunc.node.knob.func.mxt 5;
#P objectname node.19;
#P bpatcher 284 301 141 67 0 0 scrlt.midi.bcr.vfunc.node.knob.func.mxt 5;
#P objectname node.18;
#P window setfont "Sans Serif" 9.;
#P hidden message 854 213 121 9109513 settitle midi.bcr.vfunc.rack;
#P hidden newex 854 236 92 9109513 js scrlt.util.settitle.js;
#P hidden message 781 205 60 9109513 window exec;
#P hidden newex 781 100 66 9109513 b 5;
#P hidden message 795 184 123 9109513 window size 300 50 867 622;
#P hidden message 809 163 93 9109513 window flags nogrow;
#P hidden message 823 142 96 9109513 window flags nozoom;
#P hidden newex 781 79 95 9109513 sel setdisplaywindow;
#N thispatcher;
#Q end;
#P hidden newobj 781 226 54 9109513 thispatcher;
#N comlet dummy;
#P hidden inlet 793 57 15 0;
#P hidden comment 880 108 41 9109513 567 572;
#P hidden newex 943 124 40 9109513 change;
#P hidden message 942 105 14 9109513 1;
#P hidden newex 942 83 28 9109513 sel 1;
#P hidden newex 942 61 34 9109513 active;
#P hidden message 980 83 14 9109513 0;
#P hidden newex 980 61 50 9109513 closebang;
#N comlet 0: closing 1: opening;
#P hidden outlet 944 154 15 0;
#P window setfont "Arial Black" 14.;
#P comment 0 3 161 10682382 midi.bcr.vfunc.rack;
#P bpatcher 426 233 141 67 0 0 scrlt.midi.bcr.vfunc.node.knob.draw.mxt 5;
#P objectname node.15;
#P bpatcher 284 233 141 67 0 0 scrlt.midi.bcr.vfunc.node.knob.draw.mxt 5;
#P objectname node.14;
#P bpatcher 142 233 141 67 0 0 scrlt.midi.bcr.vfunc.node.knob.draw.mxt 5;
#P objectname node.13;
#P bpatcher 0 233 141 67 0 0 scrlt.midi.bcr.vfunc.node.knob.draw.mxt 5;
#P objectname node.12;
#P bpatcher 426 165 141 67 0 0 scrlt.midi.bcr.vfunc.node.knob.draw.mxt 5;
#P objectname node.11;
#P bpatcher 284 165 141 67 0 0 scrlt.midi.bcr.vfunc.node.knob.draw.mxt 5;
#P objectname node.10;
#P bpatcher 142 165 141 67 0 0 scrlt.midi.bcr.vfunc.node.knob.draw.mxt 5;
#P objectname node.09;
#P bpatcher 0 165 141 67 0 0 scrlt.midi.bcr.vfunc.node.knob.draw.mxt 5;
#P objectname node.08;
#P bpatcher 426 97 141 67 0 0 scrlt.midi.bcr.vfunc.node.knob.draw.mxt 5;
#P objectname node.07;
#P bpatcher 284 97 141 67 0 0 scrlt.midi.bcr.vfunc.node.knob.draw.mxt 5;
#P objectname node.06;
#P bpatcher 142 97 141 67 0 0 scrlt.midi.bcr.vfunc.node.knob.draw.mxt 5;
#P objectname node.05;
#P bpatcher 0 97 141 67 0 0 scrlt.midi.bcr.vfunc.node.knob.draw.mxt 5;
#P objectname node.04;
#P bpatcher 426 29 141 67 0 0 scrlt.midi.bcr.vfunc.node.knob.draw.mxt 5;
#P objectname node.03;
#P bpatcher 284 29 141 67 0 0 scrlt.midi.bcr.vfunc.node.knob.draw.mxt 5;
#P objectname node.02;
#P bpatcher 142 29 141 67 0 0 scrlt.midi.bcr.vfunc.node.knob.draw.mxt 5;
#P objectname node.01;
#P bpatcher 0 29 141 67 0 0 scrlt.midi.bcr.vfunc.node.knob.draw.mxt 5;
#P objectname node.00;
#P bpatcher 142 301 141 67 0 0 scrlt.midi.bcr.vfunc.node.knob.func.mxt 5;
#P objectname node.17;
#P bpatcher 0 301 141 67 0 0 scrlt.midi.bcr.vfunc.node.knob.func.mxt 5;
#P objectname node.16;
#P hidden connect 27 0 29 0;
#P hidden connect 29 0 33 0;
#P hidden connect 33 0 34 0;
#P hidden connect 34 0 28 0;
#P hidden connect 32 0 28 0;
#P hidden connect 31 0 28 0;
#P hidden connect 30 0 28 0;
#P hidden connect 33 1 32 0;
#P hidden connect 33 2 31 0;
#P hidden connect 33 3 30 0;
#P hidden connect 33 4 36 0;
#P hidden connect 36 0 35 0;
#P hidden connect 22 0 23 0;
#P hidden connect 23 0 24 0;
#P hidden connect 21 0 25 0;
#P hidden connect 24 0 25 0;
#P hidden connect 25 0 19 0;
#P hidden connect 20 0 21 0;
#P pop;
