max v2;
#N vpatcher 580 375 1256 868;
#P window setfont "Sans Serif" 9.;
#P window linecount 1;
#P comment 278 335 28 9109513 grain;
#P comment 241 335 26 9109513 time;
#P window setfont "Sans Serif" 12.;
#P comment 250 314 32 9109516 fade;
#P window setfont "Sans Serif" 9.;
#P hidden newex 362 307 45 9109513 loadbang;
#P hidden newex 448 370 40 9109513 b 3;
#P button 316 357 15 0;
#P hidden newex 433 394 62 9109513 pattr fade.on;
#X prestore 1 0 0;
#P objectname fade.on;
#P toggle 223 357 15 0;
#P objectname toggle;
#P hidden newex 570 324 72 9109513 pattr fade.grain;
#X prestore 1 0 0.;
#P objectname fade.grain;
#P hidden newex 448 323 70 9109513 pattr fade.time;
#X prestore 1 0 0.;
#P objectname fade.time;
#P flonum 278 357 35 9 2. 0 1 139 0 0 0 221 221 221 222 222 222 0 0 0;
#P objectname flonum[1];
#P flonum 241 357 35 9 0 0 0 139 0 0 0 221 221 221 222 222 222 0 0 0;
#P objectname flonum;
#P hidden newex 433 419 69 9109513 s scrlt.fade.on;
#P hidden newex 463 358 79 9109513 s scrlt.fade.grain;
#P hidden newex 516 408 77 9109513 s scrlt.fade.time;
#P newex 481 252 50 9109513 scrlt.trans;
#P objectname scrlt.trans;
#P hidden newex 414 249 41 9109513 pcontrol;
#P hidden newex 104 205 79 9109513 s scrlt.wind.trans;
#P hidden newex 216 205 90 9109513 rset scrlt.wind.trans;
#P toggle 71 201 17 0;
#P window setfont "Sans Serif" 12.;
#P comment 17 201 52 9109516 trans;
#P window setfont "Sans Serif" 9.;
#P hidden message 171 356 26 9109513 read;
#P hidden message 139 364 14 9109513 1;
#P hidden newex 133 320 27 9109513 t b b;
#P hidden message 67 359 37 9109513 store 1;
#P hidden message 33 367 27 9109513 write;
#P hidden newex 27 323 27 9109513 t b b;
#P hidden newex 97 155 140 9109513 s scrlt.wind.midi.bcr.vfunc.rack;
#P hidden newex 245 155 151 9109513 rset scrlt.wind.midi.bcr.vfunc.rack;
#P toggle 71 155 17 0;
#P window setfont "Sans Serif" 12.;
#P comment 17 155 52 9109516 vfunc;
#P message 109 36 34 9109516 write;
#P message 73 36 33 9109516 read;
#P window setfont "Sans Serif" 9.;
#P hidden newex 268 66 33 9109513 sel 32;
#P hidden newex 224 66 40 9109513 key;
#P hidden newex 104 181 109 9109513 s scrlt.wind.midi.mapper;
#P hidden newex 216 181 120 9109513 rset scrlt.wind.midi.mapper;
#P hidden newex 105 242 83 9109513 s scrlt.wind.debug;
#P hidden newex 197 242 94 9109513 rset scrlt.wind.debug;
#P hidden newex 97 132 91 9109513 s scrlt.wind.midi.bcr;
#P hidden newex 190 132 102 9109513 rset scrlt.wind.midi.bcr;
#P hidden newex 159 109 76 9109513 s scrlt.wind.rack;
#P hidden newex 241 109 87 9109513 rset scrlt.wind.rack;
#P hidden newex 89 88 81 9109513 s scrlt.wind.mixer;
#P hidden newex 171 88 92 9109513 rset scrlt.wind.mixer;
#P window setfont "Sans Serif" 12.;
#P comment 17 276 52 9109516 pattr;
#P button 71 276 17 0;
#P comment 17 66 47 9109516 audio;
#P toggle 71 66 17 0;
#P window setfont "Sans Serif" 9.;
#P hidden newex 93 66 40 9109513 sel 1 0;
#P hidden message 166 66 26 9109513 stop;
#P hidden newex 194 66 28 9109513 dac~;
#P toggle 71 177 17 0;
#P window setfont "Sans Serif" 12.;
#P comment 17 177 52 9109516 mapper;
#P toggle 71 242 17 0;
#P comment 17 242 52 9109516 debug;
#P window setfont "Sans Serif" 9.;
#P hidden newex 116 280 258 9109513 pattrstorage @savemode 2 @flat 1 @clientlist_colwidth 220;
#X autorestore scrlt.config.a.xml;
#X client_rect 445 151 997 951;
#X clientlist_colwidth 220;
#X storage_rect 0 0 640 240;
#P objectname u434000002;
#P toggle 71 132 17 0;
#P toggle 71 110 17 0;
#P window setfont "Sans Serif" 12.;
#P comment 17 132 52 9109516 midi.bcr;
#P comment 17 110 47 9109516 rack;
#P toggle 71 88 17 0;
#P comment 17 88 47 9109516 mixer;
#P window setfont "Sans Serif" 9.;
#P hidden message 136 66 27 9109513 start;
#N vpatcher 5 40 605 440;
#P window setfont "Sans Serif" 9.;
#P newex 50 50 71 9109513 b 2;
#P message 111 78 87 9109513 client_size 550 800;
#P message 50 78 59 9109513 clientwindow;
#P inlet 50 30 15 0;
#P outlet 50 100 15 0;
#P connect 1 0 4 0;
#P connect 4 0 2 0;
#P connect 2 0 0 0;
#P connect 3 0 0 0;
#P connect 4 1 3 0;
#P pop;
#P hidden newobj 98 280 14 9109513 p;
#P hidden button 555 132 15 0;
#P hidden newex 411 207 41 9109513 pcontrol;
#P hidden newex 454 207 111 9109513 scrlt.midi.bcr.vfunc.rack;
#P objectname midi.bcr.vfunc.rack;
#P hidden newex 411 87 41 9109513 pcontrol;
#P hidden newex 411 183 41 9109513 pcontrol;
#P hidden newex 411 135 41 9109513 pcontrol;
#P hidden newex 411 159 41 9109513 pcontrol;
#P hidden newex 454 87 96 9109513 scrlt.midi.bcr.mapper;
#P objectname midi.bcr.mapper;
#P hidden newex 454 183 54 9109513 scrlt.debug;
#P objectname midi.bcr[1];
#P hidden newex 411 111 41 9109513 pcontrol;
#P hidden newex 454 135 62 9109513 scrlt.midi.bcr;
#P objectname midi.bcr;
#P hidden newex 454 111 52 9109513 scrlt.mixer;
#P objectname mixer;
#P hidden newex 454 159 47 9109513 scrlt.rack;
#P objectname rack;
#N vpatcher 330 459 1060 851;
#P inlet 436 31 15 0;
#P window setfont "Sans Serif" 9.;
#P window linecount 1;
#P hidden newex 574 82 138 9109513 r scrlt.wind.midi.bcr.vfunc.rack;
#P hidden message 574 132 30 9109513 close;
#P hidden message 605 132 28 9109513 open;
#P hidden newex 574 107 72 9109513 sel 0 1;
#N comlet midi.bcr.vfunc.rack open;
#P outlet 605 154 15 0;
#N comlet midi.bcr.vfunc.rack close;
#P outlet 574 154 15 0;
#P hidden newex 567 209 140 9109513 s scrlt.wind.midi.bcr.vfunc.rack;
#N comlet wind.midi.bcr.vfunc.rack;
#P inlet 567 189 15 0;
#P window linecount 0;
#P hidden newex 503 32 123 9109513 loadmess setdisplaywindow;
#P hidden newex 50 83 107 9109513 r scrlt.wind.midi.mapper;
#P hidden newex 50 208 109 9109513 s scrlt.wind.midi.mapper;
#P hidden message 50 133 30 9109513 close;
#P hidden message 81 133 28 9109513 open;
#P hidden newex 50 108 72 9109513 sel 0 1;
#P hidden newex 459 86 81 9109513 r scrlt.wind.debug;
#P hidden newex 459 211 83 9109513 s scrlt.wind.debug;
#P hidden message 459 136 30 9109513 close;
#P hidden message 490 136 28 9109513 open;
#P hidden newex 459 111 72 9109513 sel 0 1;
#P hidden newex 263 83 89 9109513 r scrlt.wind.midi.bcr;
#P hidden newex 263 208 91 9109513 s scrlt.wind.midi.bcr;
#P hidden message 263 133 30 9109513 close;
#P hidden message 294 133 28 9109513 open;
#P hidden newex 263 108 72 9109513 sel 0 1;
#P hidden newex 367 85 74 9109513 r scrlt.wind.rack;
#P hidden newex 367 210 76 9109513 s scrlt.wind.rack;
#P hidden message 367 135 30 9109513 close;
#P hidden message 398 135 28 9109513 open;
#P hidden newex 367 110 72 9109513 sel 0 1;
#P hidden newex 164 84 79 9109513 r scrlt.wind.mixer;
#P hidden newex 164 209 81 9109513 s scrlt.wind.mixer;
#P hidden message 164 134 30 9109513 close;
#P hidden message 195 134 28 9109513 open;
#P hidden newex 164 109 72 9109513 sel 0 1;
#P inlet 459 191 15 0;
#P inlet 367 190 15 0;
#P inlet 263 188 15 0;
#P inlet 164 189 15 0;
#P inlet 50 188 15 0;
#P outlet 490 158 15 0;
#P outlet 459 158 15 0;
#P outlet 367 157 15 0;
#P outlet 398 157 15 0;
#P outlet 263 155 15 0;
#P outlet 294 155 15 0;
#P outlet 195 156 15 0;
#P outlet 164 156 15 0;
#P outlet 50 155 15 0;
#P outlet 81 155 15 0;
#N comlet setdisplaywindow message;
#P outlet 503 56 15 0;
#P hidden connect 40 0 36 0;
#P hidden connect 36 0 38 0;
#P connect 38 0 2 0;
#P connect 11 0 39 0;
#P hidden connect 36 1 37 0;
#P connect 37 0 1 0;
#P hidden connect 20 0 16 0;
#P hidden connect 16 0 18 0;
#P connect 18 0 3 0;
#P connect 12 0 19 0;
#P hidden connect 16 1 17 0;
#P connect 17 0 4 0;
#P hidden connect 30 0 26 0;
#P hidden connect 26 0 28 0;
#P connect 28 0 6 0;
#P connect 13 0 29 0;
#P hidden connect 26 1 27 0;
#P connect 27 0 5 0;
#P hidden connect 25 0 21 0;
#P hidden connect 21 0 23 0;
#P connect 23 0 8 0;
#P connect 14 0 24 0;
#P hidden connect 21 1 22 0;
#P connect 22 0 7 0;
#P hidden connect 35 0 31 0;
#P hidden connect 31 0 33 0;
#P connect 33 0 9 0;
#P connect 15 0 34 0;
#P hidden connect 31 1 32 0;
#P connect 32 0 10 0;
#P connect 50 0 41 0;
#P connect 41 0 0 0;
#P connect 42 0 43 0;
#P hidden connect 49 0 46 0;
#P hidden connect 46 0 48 0;
#P connect 48 0 44 0;
#P hidden connect 46 1 47 0;
#P connect 47 0 45 0;
#P pop;
#P hidden newobj 431 58 213 9109513 p;
#P comment 222 335 18 9109513 on;
#P hidden connect 48 0 53 0;
#P hidden connect 53 0 54 0;
#P hidden connect 53 1 55 0;
#P hidden connect 46 0 31 0;
#P hidden connect 35 0 18 0;
#P hidden connect 37 0 21 0;
#P hidden connect 39 0 22 0;
#P hidden connect 51 0 50 0;
#P hidden connect 43 0 27 0;
#P hidden connect 61 0 60 0;
#P hidden connect 41 0 25 0;
#P hidden connect 18 0 36 0;
#P hidden connect 31 0 30 0;
#P hidden connect 22 0 40 0;
#P hidden connect 50 0 52 0;
#P hidden connect 33 0 15 0;
#P hidden connect 27 0 44 0;
#P hidden connect 60 0 62 0;
#P hidden connect 25 0 42 0;
#P hidden connect 15 0 23 0;
#P hidden connect 55 0 23 0;
#P hidden connect 54 0 23 0;
#P hidden connect 58 0 23 0;
#P hidden connect 57 0 23 0;
#P hidden connect 47 0 56 0;
#P hidden connect 30 0 16 0;
#P hidden connect 56 0 57 0;
#P hidden connect 21 0 38 0;
#P hidden connect 30 1 29 0;
#P hidden connect 56 1 58 0;
#P hidden connect 29 0 28 0;
#P hidden connect 16 0 28 0;
#P hidden connect 75 0 72 0;
#P hidden connect 73 1 72 0;
#P hidden connect 75 1 68 0;
#P hidden connect 70 1 68 0;
#P hidden connect 45 0 46 0;
#P hidden connect 75 2 69 0;
#P hidden connect 71 1 69 0;
#P hidden connect 76 0 74 0;
#P hidden connect 1 1 11 0;
#P hidden connect 1 0 11 0;
#P hidden connect 1 2 5 0;
#P hidden connect 1 3 5 0;
#P hidden connect 1 5 9 0;
#P hidden connect 1 4 9 0;
#P hidden connect 1 7 8 0;
#P hidden connect 1 6 8 0;
#P hidden connect 1 8 10 0;
#P hidden connect 1 9 10 0;
#P hidden connect 1 11 13 0;
#P hidden connect 1 12 13 0;
#P hidden connect 7 0 1 0;
#P hidden connect 73 0 67 0;
#P hidden connect 74 0 75 0;
#P hidden connect 11 0 7 0;
#P hidden connect 1 10 7 0;
#P hidden connect 5 0 3 0;
#P hidden connect 1 10 3 0;
#P hidden connect 9 0 4 0;
#P hidden connect 1 10 4 0;
#P hidden connect 8 0 2 0;
#P hidden connect 1 10 2 0;
#P hidden connect 10 0 6 0;
#P hidden connect 1 10 6 0;
#P hidden connect 13 0 12 0;
#P hidden connect 1 10 12 0;
#P hidden connect 71 0 66 0;
#P hidden connect 3 0 1 1;
#P hidden connect 4 0 1 2;
#P hidden connect 70 0 65 0;
#P hidden connect 2 0 1 3;
#P hidden connect 14 0 1 4;
#P hidden connect 6 0 1 5;
#P hidden connect 12 0 1 6;
#P pop;
