max v2;
#N vpatcher 297 271 897 671;
#P window setfont "Sans Serif" 9.;
#P newex 92 127 27 9109513 + 1;
#P newex 67 157 34 9109513 gate 2;
#P newex 51 247 40 9109513 switch;
#P newex 82 72 67 9109513 r scrlt.fade.on;
#P newex 181 33 77 9109513 r scrlt.fade.grain;
#P newex 105 33 75 9109513 r scrlt.fade.time;
#P newex 89 202 88 9109513 line 0.;
#P outlet 67 308 15 0;
#P inlet 32 33 15 0;
#P connect 8 0 6 0;
#P connect 7 0 6 1;
#P connect 8 0 7 0;
#P connect 6 0 1 0;
#P connect 2 0 6 2;
#P connect 7 1 2 0;
#P connect 0 0 7 1;
#P connect 5 0 8 0;
#P connect 3 0 2 1;
#P connect 4 0 2 2;
#P pop;
