max v2;
#N vpatcher 50 60 815 538;
#P setbglock 1;
#P window setfont "Sans Serif" 9.;
#P window linecount 1;
#P message 642 237 19 9109513 -1.;
#P message 576 246 16 9109513 1.;
#P newex 621 205 40 9109513 sel 0 1;
#P newex 503 312 27 9109513 *~;
#P toggle 628 168 15 0;
#P message 169 236 19 9109513 -1.;
#P message 103 245 16 9109513 1.;
#P newex 148 204 40 9109513 sel 0 1;
#P newex 239 323 27 9109513 *~;
#P toggle 155 167 15 0;
#P newex 470 342 28 9109513 *~ 1.;
#P newex 288 332 28 9109513 *~ 1.;
#P newex 461 292 32 9109513 / 127.;
#P user dial 453 242 26 26 128 1 0 0 254 270 1 1. 170 170 170 221 221 221 120 120 120 225 225 225 0 0 0 0 0 0;
#P newex 269 281 32 9109513 / 127.;
#P user dial 265 235 26 26 128 1 0 0 254 270 1 1. 170 170 170 221 221 221 120 120 120 225 225 225 0 0 0 0 0 0;
#P user ubumenu 407 253 27 9109513 0 1 1 0;
#X add +;
#X add -;
#X add /;
#X add *;
#X add %;
#X add +;
#X add -;
#X add /;
#X add *;
#X add %;
#X prefix_set 0 0 <none> 0;
#P newex 346 393 59 9109513 scrlt.util.op~;
#P newex 512 273 29 9109513 r~ __;
#P newex 477 220 88 9109513 sprintf set scrlt.%s;
#P user ubumenu 432 201 100 9109513 0 1 1 0;
#X add rack.track.0.gen.out;
#X add rack.track.0.fx.0.out;
#X add rack.track.0.fx.1.out;
#X add rack.track.1.gen.out;
#X add rack.track.1.fx.0.out;
#X add rack.track.1.fx.1.out;
#X add rack.track.2.gen.out;
#X add rack.track.2.fx.0.out;
#X add rack.track.2.fx.1.out;
#X add rack.track.3.gen.out;
#X add rack.track.3.fx.0.out;
#X add rack.track.3.fx.1.out;
#X add rack.aux.0.fx.0.out;
#X add rack.aux.0.fx.1.out;
#X add rack.aux.0.fx.2.out;
#X add rack.aux.0.fx.0.out;
#X add rack.aux.0.fx.1.out;
#X add rack.aux.0.fx.2.out;
#X prefix_set 0 0 <none> 0;
#P newex 361 270 29 9109513 r~ __;
#P newex 326 217 88 9109513 sprintf set scrlt.%s;
#P user ubumenu 281 198 100 9109513 0 1 1 0;
#X add rack.track.0.gen.out;
#X add rack.track.0.fx.0.out;
#X add rack.track.0.fx.1.out;
#X add rack.track.1.gen.out;
#X add rack.track.1.fx.0.out;
#X add rack.track.1.fx.1.out;
#X add rack.track.2.gen.out;
#X add rack.track.2.fx.0.out;
#X add rack.track.2.fx.1.out;
#X add rack.track.3.gen.out;
#X add rack.track.3.fx.0.out;
#X add rack.track.3.fx.1.out;
#X add rack.aux.0.fx.0.out;
#X add rack.aux.0.fx.1.out;
#X add rack.aux.0.fx.2.out;
#X add rack.aux.0.fx.0.out;
#X add rack.aux.0.fx.1.out;
#X add rack.aux.0.fx.2.out;
#X prefix_set 0 0 <none> 0;
#P window setfont "Arial Black" 12.;
#P comment 3 3 77 10682380 gen.merge;
#P background;
#P user panel 0 0 250 184;
#X brgb 191 191 191;
#X frgb 0 0 0;
#X border 1;
#X rounded 0;
#X shadow 0;
#X done;
#P background;
#P connect 18 0 19 0;
#P connect 16 0 18 0;
#P connect 18 1 20 0;
#P connect 19 0 17 0;
#P connect 20 0 17 0;
#P connect 4 0 17 1;
#P connect 10 0 11 0;
#P connect 17 0 14 0;
#P connect 11 0 14 1;
#P connect 2 1 3 0;
#P connect 9 1 8 0;
#P connect 3 0 4 0;
#P connect 14 0 8 1;
#P connect 15 0 8 2;
#P connect 12 0 13 0;
#P connect 22 0 15 0;
#P connect 5 1 6 0;
#P connect 13 0 15 1;
#P connect 25 0 22 0;
#P connect 24 0 22 0;
#P connect 6 0 7 0;
#P connect 7 0 22 1;
#P connect 23 0 24 0;
#P connect 21 0 23 0;
#P connect 23 1 25 0;
#P pop;
