max v2;
#N vpatcher 275 115 862 743;
#P hidden outlet 0 495 15 0;
#P bpatcher 0 355 250 134 0 0 scrlt.fx.filter.mxt 4;
#P objectname fx.1;
#P bpatcher 0 222 250 134 0 0 scrlt.fx.degrade.mxt 4;
#P objectname fx.0;
#P bpatcher 0 39 250 184 0 0 scrlt.gen.groove.single.mxt 4;
#P objectname gen;
#P window setfont "Arial Black" 18.;
#P comment 5 3 135 10551314 track.2;
#P background;
#P user panel 0 0 250 40;
#X brgb 191 191 191;
#X frgb 0 0 0;
#X border 1;
#X rounded 0;
#X shadow 0;
#X done;
#P background;
#P hidden connect 2 0 3 0;
#P hidden connect 3 0 4 0;
#P hidden connect 4 0 5 0;
#P pop;
