max v2;
#N vpatcher 148 114 846 411;
#P origin -3 0;
#P window setfont "Sans Serif" 9.;
#P hidden message 534 226 62 9109513 settitle mixer;
#P hidden newex 534 249 92 9109513 js scrlt.util.settitle.js;
#P bpatcher 270 29 51 242 0 0 scrlt.mixer.chan.mxt 4 5 scrlt.mixer.chan.5;
#P objectname chan.5;
#P bpatcher 217 29 51 242 0 0 scrlt.mixer.chan.mxt 4 4 scrlt.mixer.chan.4;
#P objectname chan.4;
#P hidden message 538 180 60 9109513 window exec;
#P hidden newex 538 75 66 9109513 b 5;
#P hidden message 552 159 128 9109513 window size 100 100 584 376;
#P hidden message 566 138 93 9109513 window flags nogrow;
#P hidden message 580 117 96 9109513 window flags nozoom;
#P hidden newex 538 54 95 9109513 sel setdisplaywindow;
#N thispatcher;
#Q end;
#P hidden newobj 538 201 54 9109513 thispatcher;
#P bpatcher 323 29 104 82 0 0 scrlt.mixer.io.mxt 4;
#P objectname io;
#P hidden message 490 96 14 9109513 1;
#P hidden newex 490 74 28 9109513 sel 1;
#P hidden newex 490 52 34 9109513 active;
#P hidden message 490 140 14 9109513 0;
#P hidden newex 490 118 50 9109513 closebang;
#N comlet 0: closing 1: opening;
#P hidden outlet 490 162 15 0;
#N comlet dummy;
#P hidden inlet 490 30 15 0;
#P bpatcher 376 114 51 157 0 0 scrlt.mixer.aux.mxt 4 1 scrlt.mixer.aux.1;
#P objectname aux.1;
#P window setfont "Arial Black" 14.;
#P comment 5 4 60 10878990 mixer;
#B frgb 51 102 153;
#P bpatcher 164 29 51 242 0 0 scrlt.mixer.chan.mxt 4 3 scrlt.mixer.chan.3;
#P objectname chan.3;
#P bpatcher 111 29 51 242 0 0 scrlt.mixer.chan.mxt 4 2 scrlt.mixer.chan.2;
#P objectname chan.2;
#P bpatcher 429 29 51 242 0 0 scrlt.mixer.master.mxt 4;
#P objectname master;
#P bpatcher 323 114 51 157 0 0 scrlt.mixer.aux.mxt 4 0 scrlt.mixer.aux.0;
#P objectname aux.0;
#P bpatcher 58 29 51 242 0 0 scrlt.mixer.chan.mxt 4 1 scrlt.mixer.chan.1;
#P objectname chan.1;
#P bpatcher 5 29 51 242 0 0 scrlt.mixer.chan.mxt 4 0 scrlt.mixer.chan.0;
#P objectname chan.0;
#P window setfont "Sans Serif" 9.;
#P hidden comment 603 184 41 9109513 484 276;
#P user panel 0 0 484 276;
#X brgb 0 17 51;
#X frgb 51 102 153;
#X border 1;
#X rounded 0;
#X shadow 0;
#X done;
#P background;
#P hidden connect 14 0 15 0;
#P hidden connect 15 0 16 0;
#P hidden connect 12 0 13 0;
#P hidden connect 16 0 11 0;
#P hidden connect 13 0 11 0;
#P hidden connect 23 4 28 0;
#P hidden connect 28 0 27 0;
#P hidden connect 10 0 19 0;
#P hidden connect 19 0 23 0;
#P hidden connect 23 0 24 0;
#P hidden connect 24 0 18 0;
#P hidden connect 22 0 18 0;
#P hidden connect 21 0 18 0;
#P hidden connect 20 0 18 0;
#P hidden connect 23 1 22 0;
#P hidden connect 23 2 21 0;
#P hidden connect 23 3 20 0;
#P pop;
