max v2;
#N vpatcher 625 147 1212 775;
#P window setfont "Sans Serif" 9.;
#P window linecount 1;
#P hidden newex 271 508 128 9109513 s~ scrlt.rack.track.3.fx.1.out;
#P hidden newex 297 284 128 9109513 s~ scrlt.rack.track.3.fx.0.out;
#P hidden newex 302 218 126 9109513 s~ scrlt.rack.track.3.gen.out;
#P hidden message 291 117 14 9109513 1;
#P hidden newex 291 92 28 9109513 sel 1;
#P hidden newex 291 67 34 9109513 active;
#P hidden message 291 167 14 9109513 0;
#P hidden newex 291 142 50 9109513 closebang;
#N comlet 0: closing 1: opening;
#P hidden outlet 291 192 15 0;
#N comlet dummy;
#P hidden inlet 291 42 15 0;
#P hidden outlet 0 495 15 0;
#P bpatcher 0 355 250 134 0 0 scrlt.fx.filter.mxt 4;
#P objectname fx.1;
#P bpatcher 0 222 250 134 0 0 scrlt.fx.cloud.mxt 4;
#P objectname fx.0;
#P bpatcher 0 39 250 184 0 0 scrlt.gen.groove.single.mxt 4;
#P objectname gen;
#P window setfont "Arial Black" 18.;
#P comment 5 3 135 10682386 track.3;
#P background;
#P user panel 0 0 250 40;
#X brgb 191 191 191;
#X frgb 0 0 0;
#X border 1;
#X rounded 0;
#X shadow 0;
#X done;
#P background;
#P hidden connect 2 0 3 0;
#P hidden connect 3 0 4 0;
#P hidden connect 4 0 5 0;
#P hidden connect 4 0 15 0;
#P hidden connect 10 0 11 0;
#P hidden connect 11 0 12 0;
#P hidden connect 8 0 9 0;
#P hidden connect 9 0 7 0;
#P hidden connect 12 0 7 0;
#P hidden connect 3 0 14 0;
#P hidden connect 2 0 13 0;
#P pop;
