max v2;
#N vpatcher 104 231 1023 760;
#P origin 0 -17;
#P window setfont "Sans Serif" 9.;
#P window linecount 1;
#P hidden newex 546 233 72 9109513 scrlt.util.bcrfwd;
#P hidden newex 413 230 72 9109513 scrlt.util.bcrfwd;
#P hidden newex 301 257 72 9109513 scrlt.util.bcrfwd;
#P hidden newex 340 336 72 9109513 scrlt.util.bcrfwd;
#P hidden newex 447 336 72 9109513 scrlt.util.bcrfwd;
#P hidden newex 561 353 72 9109513 scrlt.util.bcrfwd;
#P hidden newex 614 271 66 9109513 route $1.par.5;
#P hidden newex 614 248 69 9109513 r scrlt.bcr.map;
#P hidden newex 614 202 66 9109513 route $1.par.4;
#P hidden newex 614 179 69 9109513 r scrlt.bcr.map;
#P hidden newex 508 274 66 9109513 route $1.par.3;
#P hidden newex 508 251 69 9109513 r scrlt.bcr.map;
#P hidden newex 508 205 66 9109513 route $1.par.2;
#P hidden newex 508 182 69 9109513 r scrlt.bcr.map;
#P hidden newex 395 276 66 9109513 route $1.par.1;
#P hidden newex 395 253 69 9109513 r scrlt.bcr.map;
#P hidden newex 395 207 66 9109513 route $1.par.0;
#P hidden newex 395 184 69 9109513 r scrlt.bcr.map;
#P window setfont "Sans Serif" 20.;
#P comment 102 286 214 9109524 todo: param ranges;
#B color 3;
#P hidden toggle 390 74 15 0;
#P objectname toggle[1];
#P window setfont "Sans Serif" 9.;
#P hidden newex 256 50 48 9109513 r $1.par.5;
#P hidden newex 325 50 48 9109513 r $1.par.4;
#P hidden newex 457 50 48 9109513 r $1.par.3;
#P hidden newex 524 56 48 9109513 r $1.par.0;
#P hidden newex 588 56 48 9109513 r $1.par.1;
#P hidden newex 390 50 48 9109513 r $1.par.2;
#P hidden newex 263 220 57 9109513 s $0.gb.in.0;
#P hidden newex 263 195 96 9109513 loadmess winInterp 1;
#P hidden newex 264 173 57 9109513 s $0.gb.in.0;
#P hidden newex 264 148 98 9109513 loadmess sndInterp 1;
#P button 222 25 15 0;
#P window setfont "Sans Serif" 10.;
#P comment 3 25 71 9109514 sample;
#P window setfont "Sans Serif" 9.;
#P user textedit 82 25 220 40 98460 139 9 M:/maxmsp/scrlt/scrlt.main/aughra.wav;
#P objectname textedit;
#P hidden newex 346 22 60 9109513 pattr sample;
#X prestore 1 0 M:/maxmsp/scrlt/scrlt.main/aughra.wav;
#P objectname sample;
#P hidden message 112 204 43 9109513 replace;
#P window setfont "Sans Serif" 10.;
#P comment 3 69 71 9109514 1: trigger freq;
#P window setfont "Sans Serif" 9.;
#P hidden newex 256 79 51 9109513 pattr par.5;
#X prestore 1 0 0.;
#P objectname par.5;
#P hidden newex 325 79 51 9109513 pattr par.4;
#X prestore 1 0 0.08;
#P objectname par.4;
#P hidden newex 457 79 51 9109513 pattr par.3;
#X prestore 1 0 0.;
#P objectname par.3;
#P hidden newex 390 93 51 9109513 pattr par.2;
#X prestore 1 0 0;
#P objectname par.2;
#P hidden newex 524 85 51 9109513 pattr par.0;
#X prestore 1 0 0;
#P objectname par.0;
#P hidden newex 588 86 51 9109513 pattr par.1;
#X prestore 1 0 0;
#P objectname par.1;
#P hidden newex 390 150 57 9109513 s $0.gb.in.0;
#P hidden newex 256 108 57 9109513 s $0.gb.in.3;
#P hidden newex 325 108 57 9109513 s $0.gb.in.2;
#P hidden newex 457 108 57 9109513 s $0.gb.in.1;
#P hidden newex 188 229 55 9109513 r $0.gb.in.3;
#P hidden newex 129 229 55 9109513 r $0.gb.in.2;
#P hidden newex 70 229 55 9109513 r $0.gb.in.1;
#P hidden newex 524 146 57 9109513 s $0.gb.in.0;
#P hidden newex 11 229 55 9109513 r $0.gb.in.0;
#P hidden outlet 11 281 15 0;
#P toggle 82 47 15 0;
#P objectname toggle;
#P number 82 69 35 9 0 0 32 139 0 0 0 221 221 221 222 222 222 0 0 0;
#P objectname number;
#P hidden newex 524 120 74 9109513 metro;
#P window setfont "Sans Serif" 10.;
#P comment 3 91 53 9109514 2: reverse;
#P toggle 82 91 15 0;
#P objectname toggle[3];
#P window setfont "Sans Serif" 9.;
#P hidden message 390 122 58 9109513 reverse \$1;
#P flonum 82 157 35 9 0 0 32 139 0 0 0 221 221 221 222 222 222 0 0 0;
#P objectname flonum[2];
#P flonum 82 135 35 9 0. 0 33 139 0 0 0 221 221 221 222 222 222 0 0 0;
#P objectname flonum[1];
#P flonum 82 113 35 9 0. 0 33 139 0 0 0 221 221 221 222 222 222 0 0 0;
#P objectname flonum;
#P hidden newex 11 255 189 9109513 grain.bang~ $0.sample window;
#P window setfont "Sans Serif" 10.;
#P comment 3 135 75 9109514 4: grain length;
#P comment 3 157 65 9109514 5: pitch mult;
#P comment 3 113 75 9109514 3: sound begin;
#P comment 3 47 76 9109514 0: trigger on/off;
#P window setfont "Sans Serif" 9.;
#P hidden newex 10 203 99 9109513 buffer~ window gauss;
#P hidden newex 410 23 85 9109513 buffer~ $0.sample;
#P window setfont "Arial Black" 12.;
#P comment 3 3 135 10551308 gen.gbang.single;
#P background;
#P window setfont "Sans Serif" 9.;
#N vpatcher 691 72 1291 472;
#P window setfont "Sans Serif" 9.;
#P hidden newex 50 50 48 9109513 route text;
#P hidden newex 50 76 74 9109513 prepend replace;
#P hidden message 147 51 33 9109513 sound;
#P hidden newex 147 75 54 9109513 opendialog;
#B color 5;
#P hidden newex 164 123 60 9109513 prepend set;
#P hidden newex 147 99 27 9109513 t b s;
#P inlet 147 31 15 0;
#P inlet 50 30 15 0;
#N comlet bang;
#P outlet 147 123 15 0;
#P outlet 164 147 15 0;
#P outlet 50 100 15 0;
#P connect 3 0 10 0;
#P hidden connect 10 0 9 0;
#P connect 9 0 0 0;
#P connect 4 0 8 0;
#P hidden connect 8 0 7 0;
#P hidden connect 7 0 5 0;
#P connect 5 0 2 0;
#P hidden connect 5 1 6 0;
#P connect 6 0 1 0;
#P pop;
#P hidden newobj 253 22 90 9109513 p;
#P user panel 0 0 250 184;
#X brgb 191 191 191;
#X frgb 0 0 0;
#X border 1;
#X rounded 0;
#X shadow 0;
#X done;
#P background;
#P hidden button 526 28 15 0;
#P hidden connect 37 0 5 0;
#P hidden connect 21 0 10 0;
#P hidden connect 10 0 20 0;
#P hidden connect 23 0 10 1;
#P hidden connect 2 1 39 0;
#P hidden connect 2 2 39 0;
#P hidden connect 38 1 39 0;
#P hidden connect 31 1 19 0;
#P hidden connect 30 1 18 0;
#P hidden connect 32 1 15 0;
#P hidden connect 33 1 11 0;
#P hidden connect 34 1 12 0;
#P hidden connect 35 1 13 0;
#P hidden connect 24 0 10 2;
#P hidden connect 25 0 10 3;
#P hidden connect 39 0 2 0;
#P hidden connect 51 0 35 0;
#P hidden connect 35 0 28 0;
#P hidden connect 44 0 45 0;
#P hidden connect 42 0 43 0;
#P hidden connect 31 0 69 0;
#P hidden connect 50 0 34 0;
#P hidden connect 34 0 27 0;
#P hidden connect 41 0 2 1;
#P hidden connect 30 0 68 0;
#P hidden connect 55 0 69 1;
#P hidden connect 46 0 52 0;
#P hidden connect 52 0 32 0;
#P hidden connect 32 0 14 0;
#P hidden connect 14 0 29 0;
#P hidden connect 54 0 55 0;
#P hidden connect 56 0 57 0;
#P hidden connect 57 0 68 1;
#P hidden connect 2 0 4 0;
#P hidden connect 32 0 70 0;
#P hidden connect 33 0 67 0;
#P hidden connect 49 0 33 0;
#P hidden connect 33 0 26 0;
#P hidden connect 59 0 70 1;
#P hidden connect 58 0 59 0;
#P hidden connect 60 0 61 0;
#P hidden connect 61 0 67 1;
#P hidden connect 48 0 31 0;
#P hidden connect 31 0 17 0;
#P hidden connect 17 0 22 0;
#P hidden connect 2 1 0 0;
#P hidden connect 34 0 71 0;
#P hidden connect 35 0 66 0;
#P hidden connect 47 0 30 0;
#P hidden connect 30 0 17 1;
#P hidden connect 63 0 71 1;
#P hidden connect 62 0 63 0;
#P hidden connect 64 0 65 0;
#P hidden connect 65 0 66 1;
#P pop;
