max v2;
#N vpatcher 148 147 855 481;
#P origin 7 29;
#P window setfont "Sans Serif" 9.;
#P window linecount 1;
#P hidden newex 381 90 40 9109513 change;
#P hidden message 543 160 57 9109513 settitle rack;
#P hidden newex 543 183 92 9109513 js scrlt.util.settitle.js;
#P window setfont "Sans Serif" 12.;
#P comment 5 130 52 9109516 track.5;
#P comment 5 109 52 9109516 track.4;
#P toggle 59 130 17 0;
#P window setfont "Sans Serif" 9.;
#P hidden newex 137 130 41 9109513 pcontrol;
#N vpatcher 15 55 615 455;
#P window setfont "Sans Serif" 9.;
#P message 50 73 30 9109513 close;
#P message 81 73 28 9109513 open;
#P newex 50 50 72 9109513 sel 0 1;
#P message 92 96 34 9109513 set \$1;
#P inlet 92 76 15 0;
#P inlet 50 30 15 0;
#P outlet 50 95 15 0;
#P outlet 92 118 15 0;
#P connect 2 0 5 0;
#P connect 5 0 7 0;
#P connect 7 0 1 0;
#P connect 6 0 1 0;
#P connect 5 1 6 0;
#P connect 3 0 4 0;
#P connect 4 0 0 0;
#P pop;
#P hidden newobj 104 130 27 9109513 p;
#P toggle 59 109 17 0;
#P hidden newex 137 108 41 9109513 pcontrol;
#N vpatcher 15 55 615 455;
#P window setfont "Sans Serif" 9.;
#P message 50 73 30 9109513 close;
#P message 81 73 28 9109513 open;
#P newex 50 50 72 9109513 sel 0 1;
#P message 92 96 34 9109513 set \$1;
#P inlet 92 76 15 0;
#P inlet 50 30 15 0;
#P outlet 50 95 15 0;
#P outlet 92 118 15 0;
#P connect 2 0 5 0;
#P connect 5 0 7 0;
#P connect 6 0 1 0;
#P connect 7 0 1 0;
#P connect 5 1 6 0;
#P connect 3 0 4 0;
#P connect 4 0 0 0;
#P pop;
#P hidden newobj 104 108 27 9109513 p;
#P hidden newex 180 130 79 9109513 scrlt.rack.track.5;
#P objectname track.5;
#P hidden newex 180 108 79 9109513 scrlt.rack.track.4;
#P objectname track.4;
#P hidden newex 261 130 106 9109513 s~ scrlt.mixer.chan.5.in;
#P hidden newex 261 108 106 9109513 s~ scrlt.mixer.chan.4.in;
#P hidden message 470 152 60 9109513 window exec;
#P hidden newex 470 47 66 9109513 b 5;
#P hidden message 484 131 113 9109513 window size 10 30 90 222;
#P hidden message 498 110 93 9109513 window flags nogrow;
#P hidden message 512 89 96 9109513 window flags nozoom;
#P hidden newex 470 26 95 9109513 sel setdisplaywindow;
#N thispatcher;
#Q end;
#P hidden newobj 470 173 54 9109513 thispatcher;
#P hidden newex 402 268 105 9109513 t s s s s s s s s;
#P hidden newex 402 245 123 9109513 loadmess setdisplaywindow;
#P window setfont "Sans Serif" 12.;
#P comment 5 172 52 9109516 aux.1;
#P comment 5 151 52 9109516 aux.0;
#P comment 5 88 52 9109516 track.3;
#P comment 5 67 52 9109516 track.2;
#P comment 5 25 52 9109516 track.0;
#P comment 5 46 52 9109516 track.1;
#P toggle 59 151 17 0;
#P window setfont "Sans Serif" 9.;
#P hidden newex 137 152 41 9109513 pcontrol;
#N vpatcher 15 55 615 455;
#P window setfont "Sans Serif" 9.;
#P message 50 73 30 9109513 close;
#P message 81 73 28 9109513 open;
#P newex 50 50 72 9109513 sel 0 1;
#P message 92 96 34 9109513 set \$1;
#P inlet 92 76 15 0;
#P inlet 50 30 15 0;
#P outlet 50 95 15 0;
#P outlet 92 118 15 0;
#P connect 2 0 5 0;
#P connect 5 0 7 0;
#P connect 6 0 1 0;
#P connect 7 0 1 0;
#P connect 5 1 6 0;
#P connect 3 0 4 0;
#P connect 4 0 0 0;
#P pop;
#P hidden newobj 104 152 27 9109513 p;
#P toggle 59 172 17 0;
#P hidden newex 137 174 41 9109513 pcontrol;
#N vpatcher 15 55 615 455;
#P window setfont "Sans Serif" 9.;
#P message 50 73 30 9109513 close;
#P message 81 73 28 9109513 open;
#P newex 50 50 72 9109513 sel 0 1;
#P message 92 96 34 9109513 set \$1;
#P inlet 92 76 15 0;
#P inlet 50 30 15 0;
#P outlet 50 95 15 0;
#P outlet 92 118 15 0;
#P connect 2 0 5 0;
#P connect 5 0 7 0;
#P connect 7 0 1 0;
#P connect 6 0 1 0;
#P connect 5 1 6 0;
#P connect 3 0 4 0;
#P connect 4 0 0 0;
#P pop;
#P hidden newobj 104 174 27 9109513 p;
#P toggle 59 88 17 0;
#P hidden newex 137 88 41 9109513 pcontrol;
#N vpatcher 15 55 615 455;
#P window setfont "Sans Serif" 9.;
#P message 50 73 30 9109513 close;
#P message 81 73 28 9109513 open;
#P newex 50 50 72 9109513 sel 0 1;
#P message 92 96 34 9109513 set \$1;
#P inlet 92 76 15 0;
#P inlet 50 30 15 0;
#P outlet 50 95 15 0;
#P outlet 92 118 15 0;
#P connect 2 0 5 0;
#P connect 5 0 7 0;
#P connect 6 0 1 0;
#P connect 7 0 1 0;
#P connect 5 1 6 0;
#P connect 3 0 4 0;
#P connect 4 0 0 0;
#P pop;
#P hidden newobj 104 88 27 9109513 p;
#P toggle 59 67 17 0;
#P hidden newex 137 66 41 9109513 pcontrol;
#N vpatcher 15 55 615 455;
#P window setfont "Sans Serif" 9.;
#P message 50 73 30 9109513 close;
#P message 81 73 28 9109513 open;
#P newex 50 50 72 9109513 sel 0 1;
#P message 92 96 34 9109513 set \$1;
#P inlet 92 76 15 0;
#P inlet 50 30 15 0;
#P outlet 50 95 15 0;
#P outlet 92 118 15 0;
#P connect 2 0 5 0;
#P connect 5 0 7 0;
#P connect 7 0 1 0;
#P connect 6 0 1 0;
#P connect 5 1 6 0;
#P connect 3 0 4 0;
#P connect 4 0 0 0;
#P pop;
#P hidden newobj 104 66 27 9109513 p;
#P toggle 59 46 17 0;
#P hidden newex 137 44 41 9109513 pcontrol;
#N vpatcher 15 55 615 455;
#P window setfont "Sans Serif" 9.;
#P message 50 73 30 9109513 close;
#P message 81 73 28 9109513 open;
#P newex 50 50 72 9109513 sel 0 1;
#P message 92 96 34 9109513 set \$1;
#P inlet 92 76 15 0;
#P inlet 50 30 15 0;
#P outlet 50 95 15 0;
#P outlet 92 118 15 0;
#P connect 2 0 5 0;
#P connect 5 0 7 0;
#P connect 6 0 1 0;
#P connect 7 0 1 0;
#P connect 5 1 6 0;
#P connect 3 0 4 0;
#P connect 4 0 0 0;
#P pop;
#P hidden newobj 104 44 27 9109513 p;
#P toggle 59 25 17 0;
#P hidden newex 137 22 41 9109513 pcontrol;
#N vpatcher 15 55 615 455;
#P window setfont "Sans Serif" 9.;
#P message 50 73 30 9109513 close;
#P message 81 73 28 9109513 open;
#P newex 50 50 72 9109513 sel 0 1;
#P message 92 96 34 9109513 set \$1;
#P inlet 92 76 15 0;
#P inlet 50 30 15 0;
#P outlet 50 95 15 0;
#P outlet 92 118 15 0;
#P connect 2 0 5 0;
#P connect 5 0 7 0;
#P connect 7 0 1 0;
#P connect 6 0 1 0;
#P connect 5 1 6 0;
#P connect 3 0 4 0;
#P connect 4 0 0 0;
#P pop;
#P hidden newobj 104 22 27 9109513 p;
#P hidden newex 275 174 73 9109513 scrlt.rack.aux.1;
#P objectname aux.1;
#P hidden newex 275 152 73 9109513 scrlt.rack.aux.0;
#P objectname aux.0;
#P hidden newex 180 88 79 9109513 scrlt.rack.track.3;
#P objectname track.3;
#P hidden newex 180 66 79 9109513 scrlt.rack.track.2;
#P objectname track.2;
#P hidden newex 180 44 79 9109513 scrlt.rack.track.1;
#P objectname track.1;
#P hidden newex 180 22 79 9109513 scrlt.rack.track.0;
#P objectname track.0;
#P hidden message 378 66 14 9109513 1;
#P hidden newex 378 45 28 9109513 sel 1;
#P hidden newex 378 24 34 9109513 active;
#P hidden message 414 45 14 9109513 0;
#P hidden newex 414 24 50 9109513 closebang;
#N comlet 0: closing 1: opening;
#P hidden outlet 375 115 15 0;
#N comlet dummy;
#P hidden inlet 434 48 15 0;
#P hidden newex 180 174 94 9109513 r~ scrlt.rack.aux.1.in;
#P hidden newex 180 152 94 9109513 r~ scrlt.rack.aux.0.in;
#P hidden newex 350 174 101 9109513 s~ scrlt.mixer.aux.1.in;
#P hidden newex 350 152 101 9109513 s~ scrlt.mixer.aux.0.in;
#P hidden newex 261 88 106 9109513 s~ scrlt.mixer.chan.3.in;
#P hidden newex 261 66 106 9109513 s~ scrlt.mixer.chan.2.in;
#P hidden newex 261 44 106 9109513 s~ scrlt.mixer.chan.1.in;
#P hidden newex 261 22 106 9109513 s~ scrlt.mixer.chan.0.in;
#P window setfont "Arial Black" 12.;
#P comment 5 3 37 10878988 rack;
#P background;
#P user panel 0 0 80 194;
#X brgb 191 191 191;
#X frgb 0 0 0;
#X border 1;
#X rounded 0;
#X shadow 0;
#X done;
#P background;
#P hidden connect 23 1 25 0;
#P hidden connect 26 1 28 0;
#P hidden connect 29 1 31 0;
#P hidden connect 32 1 34 0;
#P hidden connect 60 1 62 0;
#P hidden connect 63 1 65 0;
#P hidden connect 38 1 40 0;
#P hidden connect 35 1 37 0;
#P hidden connect 25 0 23 0;
#P hidden connect 28 0 26 0;
#P hidden connect 31 0 29 0;
#P hidden connect 34 0 32 0;
#P hidden connect 62 0 60 0;
#P hidden connect 65 0 63 0;
#P hidden connect 40 0 38 0;
#P hidden connect 37 0 35 0;
#P hidden connect 17 1 23 1;
#P hidden connect 18 1 26 1;
#P hidden connect 19 1 29 1;
#P hidden connect 20 1 32 1;
#P hidden connect 58 1 60 1;
#P hidden connect 59 1 63 1;
#P hidden connect 21 1 38 1;
#P hidden connect 22 1 35 1;
#P hidden connect 23 0 24 0;
#P hidden connect 26 0 27 0;
#P hidden connect 29 0 30 0;
#P hidden connect 32 0 33 0;
#P hidden connect 60 0 61 0;
#P hidden connect 63 0 64 0;
#P hidden connect 38 0 39 0;
#P hidden connect 35 0 36 0;
#P hidden connect 24 0 17 0;
#P hidden connect 48 0 17 0;
#P hidden connect 27 0 18 0;
#P hidden connect 48 1 18 0;
#P hidden connect 30 0 19 0;
#P hidden connect 48 2 19 0;
#P hidden connect 33 0 20 0;
#P hidden connect 48 3 20 0;
#P hidden connect 61 0 58 0;
#P hidden connect 48 6 58 0;
#P hidden connect 64 0 59 0;
#P hidden connect 48 7 59 0;
#P hidden connect 17 0 2 0;
#P hidden connect 18 0 3 0;
#P hidden connect 19 0 4 0;
#P hidden connect 20 0 5 0;
#P hidden connect 58 0 56 0;
#P hidden connect 59 0 57 0;
#P hidden connect 8 0 21 0;
#P hidden connect 9 0 22 0;
#P hidden connect 39 0 21 1;
#P hidden connect 48 4 21 1;
#P hidden connect 36 0 22 1;
#P hidden connect 48 5 22 1;
#P hidden connect 21 0 6 0;
#P hidden connect 22 0 7 0;
#P hidden connect 70 0 11 0;
#P hidden connect 14 0 15 0;
#P hidden connect 15 0 16 0;
#P hidden connect 16 0 70 0;
#P hidden connect 13 0 70 0;
#P hidden connect 47 0 48 0;
#P hidden connect 12 0 13 0;
#P hidden connect 10 0 50 0;
#P hidden connect 50 0 54 0;
#P hidden connect 54 0 55 0;
#P hidden connect 51 0 49 0;
#P hidden connect 52 0 49 0;
#P hidden connect 53 0 49 0;
#P hidden connect 55 0 49 0;
#P hidden connect 54 1 53 0;
#P hidden connect 54 2 52 0;
#P hidden connect 54 3 51 0;
#P hidden connect 54 4 69 0;
#P hidden connect 69 0 68 0;
#P pop;
