max v2;
#N vpatcher 50 60 815 538;
#P setbglock 1;
#P window setfont "Sans Serif" 9.;
#P window linecount 1;
#P hidden newex 638 91 72 9109513 scrlt.util.0or127;
#P hidden newex 378 69 72 9109513 scrlt.util.0or127;
#P hidden newex 481 81 72 9109513 scrlt.util.0or127;
#P hidden newex 362 94 98 9109513 scrlt.util.bcrfwd $1.on;
#P objectname rneg[10];
#P hidden newex 429 16 37 9109513 r $1.on;
#P objectname rneg[9];
#P hidden newex 430 40 40 9109513 pattr on;
#X prestore 1 0 0;
#P objectname on;
#P comment 3 25 22 9109513 on;
#P toggle 30 25 15 0;
#P objectname toggle[2];
#P hidden outlet 346 428 15 0;
#P hidden newex 506 187 108 9109513 scrlt.util.bcrfwd $1.rscal;
#P objectname rneg[7];
#P hidden newex 528 114 47 9109513 r $1.rscal;
#P objectname rneg[8];
#P hidden newex 376 194 107 9109513 scrlt.util.bcrfwd $1.lscal;
#P objectname rneg[5];
#P hidden newex 388 120 46 9109513 r $1.lscal;
#P objectname rneg[6];
#P hidden newex 614 119 106 9109513 scrlt.util.bcrfwd $1.rneg;
#P objectname rneg[3];
#P hidden newex 626 45 45 9109513 r $1.rneg;
#P objectname rneg[4];
#P hidden newex 479 99 105 9109513 scrlt.util.bcrfwd $1.lneg;
#P objectname rneg[2];
#P hidden newex 491 25 44 9109513 r $1.lneg;
#P objectname rneg[1];
#P hidden newex 508 142 50 9109513 pattr rscal;
#X prestore 1 0 0;
#P objectname rscal;
#P hidden newex 375 145 49 9109513 pattr lscal;
#X prestore 1 0 0;
#P objectname lscal;
#P hidden newex 564 62 48 9109513 pattr rneg;
#X prestore 1 0 0;
#P objectname rneg;
#P hidden newex 491 56 47 9109513 pattr lneg;
#X prestore 1 0 0;
#P objectname lneg;
#P hidden newex 370 44 46 9109513 pattr rsrc;
#X prestore 1 0 0;
#P objectname rsrc;
#P hidden newex 292 40 45 9109513 pattr lsrc;
#X prestore 1 0 0;
#P objectname lsrc;
#P comment 177 99 30 9109513 scale;
#P comment 146 81 32 9109513 negate;
#P toggle 183 81 15 0;
#P objectname toggle[1];
#P user dial 211 81 32 32 128 1 0 0 254 270 1 1. 170 170 170 221 221 221 120 120 120 225 225 225 0 0 0 0 0 0;
#P objectname dial[1];
#P comment 111 46 18 9109513 op;
#P comment 34 99 30 9109513 scale;
#P comment 3 81 32 9109513 negate;
#P comment 214 46 26 9109513 right;
#P hidden message 638 229 19 9109513 -1.;
#P hidden message 621 230 16 9109513 1.;
#P hidden newex 621 205 45 9109513 sel 0 1;
#P hidden newex 503 312 27 9109513 *~;
#P hidden message 165 232 19 9109513 -1.;
#P hidden message 148 232 16 9109513 1.;
#P hidden newex 148 204 45 9109513 sel 0 1;
#P hidden newex 148 313 27 9109513 *~;
#P toggle 40 81 15 0;
#P objectname toggle;
#P hidden newex 470 342 28 9109513 *~ 1.;
#P hidden newex 288 332 28 9109513 *~ 1.;
#P hidden newex 461 292 32 9109513 / 127.;
#P hidden newex 269 281 32 9109513 / 127.;
#P user dial 68 81 32 32 128 1 0 0 254 270 1 1. 170 170 170 221 221 221 120 120 120 225 225 225 0 0 0 0 0 0;
#P objectname dial;
#P user ubumenu 109 63 27 9109513 0 1 1 0;
#X add +;
#X add -;
#X add /;
#X add *;
#X add %;
#X add +;
#X add -;
#X add /;
#X add *;
#X add %;
#X prefix_set 0 0 <none> 0;
#P hidden newex 346 393 59 9109513 scrlt.util.op~;
#P hidden newex 512 273 29 9109513 r~ __;
#P hidden newex 477 220 104 9109513 sprintf set scrlt.%s.out;
#P user ubumenu 142 63 100 9109513 0 1 1 0;
#X add rack.track.0.gen;
#X add rack.track.0.fx.0 rack.track.0.fx.1;
#X add rack.track.1.gen;
#X add rack.track.1.fx.0;
#X add rack.track.1.fx.1;
#X add rack.track.2.gen;
#X add rack.track.2.fx.0;
#X add rack.track.2.fx.1;
#X add rack.track.3.gen;
#X add rack.track.3.fx.0;
#X add rack.track.3.fx.1;
#X add rack.aux.0.fx.0;
#X add rack.aux.0.fx.1;
#X add rack.aux.0.fx.2;
#X add rack.aux.0.fx.0;
#X add rack.aux.0.fx.1;
#X add rack.aux.0.fx.2;
#X prefix_set 0 0 <none> 0;
#P objectname ubumenu[1];
#P hidden newex 165 282 29 9109513 r~ __;
#P hidden newex 165 255 104 9109513 sprintf set scrlt.%s.out;
#P user ubumenu 3 63 97 9109513 0 1 1 0;
#X add rack.track.0.gen;
#X add rack.track.0.fx.0 rack.track.0.fx.1;
#X add rack.track.1.gen;
#X add rack.track.1.fx.0;
#X add rack.track.1.fx.1;
#X add rack.track.2.gen;
#X add rack.track.2.fx.0;
#X add rack.track.2.fx.1;
#X add rack.track.3.gen;
#X add rack.track.3.fx.0;
#X add rack.track.3.fx.1;
#X add rack.aux.0.fx.0;
#X add rack.aux.0.fx.1;
#X add rack.aux.0.fx.2;
#X add rack.aux.0.fx.0;
#X add rack.aux.0.fx.1;
#X add rack.aux.0.fx.2;
#X prefix_set 0 0 <none> 0;
#P objectname ubumenu;
#P comment 3 46 22 9109513 left;
#P window setfont "Arial Black" 12.;
#P comment 3 3 77 10682380 gen.merge;
#P background;
#P user panel 0 0 250 184;
#X brgb 191 191 191;
#X frgb 0 0 0;
#X border 1;
#X rounded 0;
#X shadow 0;
#X done;
#P background;
#P hidden connect 33 1 3 0;
#P hidden connect 50 1 48 0;
#P hidden connect 35 1 16 0;
#P hidden connect 37 1 11 0;
#P hidden connect 34 1 6 0;
#P hidden connect 35 0 18 0;
#P hidden connect 18 0 19 0;
#P hidden connect 20 0 17 0;
#P hidden connect 19 0 17 0;
#P hidden connect 18 1 20 0;
#P hidden connect 3 1 4 0;
#P hidden connect 4 0 5 0;
#P hidden connect 5 0 17 1;
#P hidden connect 36 1 30 0;
#P hidden connect 38 1 29 0;
#P hidden connect 37 0 12 0;
#P hidden connect 17 0 14 0;
#P hidden connect 12 0 14 1;
#P hidden connect 10 1 9 0;
#P hidden connect 9 0 47 0;
#P hidden connect 54 0 52 0;
#P hidden connect 14 0 9 1;
#P hidden connect 43 0 37 0;
#P hidden connect 37 0 44 0;
#P hidden connect 50 0 54 0;
#P hidden connect 15 0 9 2;
#P hidden connect 51 0 50 0;
#P hidden connect 38 0 13 0;
#P hidden connect 21 0 15 0;
#P hidden connect 6 1 7 0;
#P hidden connect 53 0 40 0;
#P hidden connect 35 0 53 0;
#P hidden connect 13 0 15 1;
#P hidden connect 39 0 35 0;
#P hidden connect 23 0 21 0;
#P hidden connect 24 0 21 0;
#P hidden connect 38 0 46 0;
#P hidden connect 45 0 38 0;
#P hidden connect 7 0 8 0;
#P hidden connect 8 0 21 1;
#P hidden connect 41 0 36 0;
#P hidden connect 55 0 42 0;
#P hidden connect 36 0 22 0;
#P hidden connect 22 0 23 0;
#P hidden connect 36 0 55 0;
#P hidden connect 22 1 24 0;
#P pop;
