max v2;
#N vpatcher 174 65 1205 773;
#P window setfont "Sans Serif" 9.;
#P window linecount 1;
#P hidden newex 697 470 76 9109513 scrlt.util.valfade;
#P hidden newex 583 469 76 9109513 scrlt.util.valfade;
#P hidden newex 400 70 76 9109513 scrlt.util.valfade;
#P hidden newex 262 414 76 9109513 scrlt.util.valfade;
#P hidden newex 823 429 44 9109513 clip 0. 1.;
#P hidden newex 763 427 44 9109513 clip 0. 1.;
#P hidden newex 683 550 79 9109513 scale 0. 1. 0. 1.;
#P hidden newex 683 523 40 9109513 pow 2.5;
#P hidden newex 683 496 32 9109513 / 127.;
#P hidden newex 683 439 67 9109513 r $1.sel.length;
#P hidden newex 573 548 79 9109513 scale 0. 1. 0. 1.;
#P hidden newex 573 521 40 9109513 pow 2.5;
#P hidden newex 573 494 32 9109513 / 127.;
#P hidden newex 573 437 68 9109513 r $1.sel.center;
#P hidden newex 783 390 76 9109513 scrlt.util.CLtoSE;
#P hidden newex 643 377 76 9109513 scrlt.util.SEtoCL;
#P hidden newex 832 106 27 9109513 t f f;
#P hidden newex 759 94 27 9109513 t f f;
#P hidden newex 873 129 29 9109513 _ set;
#P hidden newex 733 134 29 9109513 _ set;
#P hidden newex 875 273 27 9109513 f;
#P hidden newex 787 264 27 9109513 f;
#P hidden newex 887 199 27 9109513 t b f;
#P hidden newex 771 208 27 9109513 t f b;
#P hidden newex 683 579 70 9109513 pattr sel.length;
#X prestore 1 0 1631.020508;
#P objectname sel.length;
#P hidden newex 573 575 71 9109513 pattr sel.center;
#X prestore 1 0 6740.476563;
#P objectname sel.center;
#P window setfont "Sans Serif" 10.;
#P comment 124 90 66 9109514 sel length ms;
#P comment 5 90 68 9109514 sel center ms;
#P window setfont "Sans Serif" 9.;
#P flonum 192 90 49 9 10. 13275.21582 35 139 0 0 0 221 221 221 222 222 222 0 0 0;
#P objectname flonum[1];
#P flonum 74 90 49 9 0. 13265.193359 35 139 0 0 0 221 221 221 222 222 222 0 0 0;
#P objectname flonum[5];
#P hidden newex 11 282 19 9109513 t b;
#P hidden newex 11 259 71 9109513 r scrlt.bcr.send;
#P hidden newex 603 168 27 9109513 - 10.;
#P hidden newex 647 124 29 9109513 + 10.;
#P hidden newex 342 183 103 9109513 scrlt.util.gvrateunscale;
#P hidden newex 470 69 93 9109513 scrlt.util.gvratescale;
#P hidden newex 440 165 84 9109513 scale 0. 1. 0. 127.;
#P hidden newex 479 102 84 9109513 scale 0. 127. 0. 1.;
#P hidden newex 392 515 84 9109513 scale 0. 1. 0. 127.;
#P hidden newex 301 445 84 9109513 scale 0. 127. 0. 1.;
#P hidden newex 368 360 34 9109513 _ max;
#P hidden newex 420 465 105 9109513 info~ $0.sample;
#P hidden newex 472 311 67 9109513 r $0.load.done;
#P hidden newex 253 260 29 9109513 _ set;
#P hidden newex 204 264 29 9109513 _ set;
#P hidden newex 603 194 34 9109513 _ max;
#P hidden newex 647 156 31 9109513 _ min;
#P bpatcher 66 32 145 16 0 0 scrlt.util.samplechooser.mxt 4;
#P objectname sample;
#P hidden newex 341 213 72 9109513 scrlt.util.0or127;
#P hidden newex 355 556 122 9109513 scrlt.util.bcrfwd $1.sel.start;
#P hidden newex 341 236 98 9109513 scrlt.util.bcrfwd $1.on;
#P hidden newex 444 211 104 9109513 scrlt.util.bcrfwd $1.rate;
#P hidden newex 453 246 118 9109513 scrlt.util.bcrfwd $1.sel.end;
#P hidden newex 114 223 61 9109513 rset $1.par.3;
#P hidden newex 189 223 50 9109513 s $1.par.3;
#P hidden newex 401 44 57 9109513 r $1.sel.end;
#P hidden newex 116 198 61 9109513 rset $1.par.2;
#P hidden newex 189 200 50 9109513 s $1.par.2;
#P hidden newex 268 378 61 9109513 r $1.sel.start;
#P hidden newex 330 64 43 9109513 r $1.rate;
#P hidden newex 256 64 37 9109513 r $1.on;
#P hidden newex 356 265 76 9109513 loadmess loop 1;
#P hidden newex 356 287 58 9109513 s $0.gv.in.0;
#P hidden newex 356 309 99 9109513 loadmess loopinterp 1;
#P hidden newex 356 332 58 9109513 s $0.gv.in.0;
#P bpatcher 6 123 19 38 0 0 scrlt.util.wfmodesel.mxt 4;
#P hidden newex 256 199 71 9109513 s~ $0.gv.in.0.s;
#P hidden newex 26 552 69 9109513 r~ $0.gv.in.0.s;
#P hidden newex 256 149 27 9109513 + 1;
#P hidden newex 293 149 33 9109513 sig~ 0;
#P window setfont "Sans Serif" 10.;
#P comment 127 50 50 9109514 rate;
#P window setfont "Sans Serif" 9.;
#P hidden newex 256 174 85 9109513 selector~ 2;
#P hidden newex 256 125 40 9109513 pattr on;
#X prestore 1 0 0;
#P objectname on;
#P toggle 66 50 15 0;
#P objectname toggle[3];
#P window setfont "Sans Serif" 10.;
#P comment 6 50 50 9109514 on/off;
#P window setfont "Sans Serif" 9.;
#P hidden newex 330 125 46 9109513 pattr rate;
#X prestore 1 0 1.;
#P objectname rate;
#P flonum 187 50 49 9 0 0 32 139 0 0 0 221 221 221 222 222 222 0 0 0;
#P objectname flonum[4];
#P hidden newex 396 122 58 9109513 s $0.gv.in.2;
#P hidden newex 258 510 58 9109513 s $0.gv.in.1;
#P hidden newex 396 94 60 9109513 pattr sel.end;
#X prestore 1 0 7555.986816;
#P objectname sel.end;
#P hidden newex 290 477 64 9109513 pattr sel.start;
#X prestore 1 0 5924.966309;
#P objectname sel.start;
#P hidden newex 491 32 69 9109513 s $0.load.done;
#P hidden newex 7 189 67 9109513 r $0.load.done;
#P hidden newex 7 211 45 9109513 loadbang;
#P window setfont "Sans Serif" 10.;
#P comment 127 69 66 9109514 sel end ms;
#P comment 6 69 68 9109514 sel start ms;
#P window setfont "Sans Serif" 9.;
#P flonum 195 69 49 9 5934.966309 13275.21582 35 139 0 0 0 221 221 221 222 222 222 0 0 0;
#P objectname flonum[2];
#P flonum 74 69 49 9 0. 7545.986816 35 139 0 0 0 221 221 221 222 222 222 0 0 0;
#P objectname flonum[3];
#P hidden newex 330 149 33 9109513 sig~ 1;
#P user waveform~ 24 123 213 38 139 9;
#W mode loop;
#W mouseoutput continuous;
#W clipdraw 1;
#W unit ms;
#W grid 500.;
#W ticks 8;
#W labels 1;
#W vlabels 1;
#W vticks 1;
#W bpm 120. 4.;
#W frgb 16 0 0;
#W brgb 94 166 169;
#W rgb2 63 112 185;
#W rgb3 0 0 0;
#W rgb4 0 0 0;
#W rgb5 169 165 207;
#W rgb6 108 108 108;
#W rgb7 78 74 220;
#P hidden outlet 26 600 15 0;
#P hidden newex 146 528 56 9109513 r $0.gv.in.2;
#P hidden newex 86 528 56 9109513 r $0.gv.in.1;
#P hidden newex 26 528 56 9109513 r $0.gv.in.0;
#P hidden newex 26 576 131 9109513 groove~ $0.sample;
#P window setfont "Arial Black" 12.;
#P comment 6 7 141 10682380 gen.groove.single;
#P window setfont "Sans Serif" 10.;
#P comment 6 32 51 9109514 sample;
#P window setfont "Sans Serif" 9.;
#P hidden newex 331 18 85 9109513 buffer~ $0.sample;
#P hidden message 7 235 75 9109513 set $0.sample 1;
#P user panel 0 0 250 184;
#X brgb 191 191 191;
#X frgb 0 0 0;
#X border 1;
#X rounded 0;
#X shadow 0;
#X done;
#P background;
#P hidden toggle 256 93 15 0;
#P hidden connect 18 0 2 0;
#P hidden connect 17 0 2 0;
#P hidden connect 69 0 70 0;
#P hidden connect 35 0 11 0;
#P hidden connect 2 0 11 0;
#P hidden connect 7 0 6 0;
#P hidden connect 33 0 6 0;
#P hidden connect 6 0 10 0;
#P hidden connect 70 0 27 0;
#P hidden connect 28 1 27 0;
#P hidden connect 70 0 13 0;
#P hidden connect 11 2 13 0;
#P hidden connect 95 0 13 0;
#P hidden connect 55 0 13 0;
#P hidden connect 20 1 13 0;
#P hidden connect 81 0 71 0;
#P hidden connect 75 1 71 0;
#P hidden connect 8 0 6 1;
#P hidden connect 44 0 11 2;
#P hidden connect 56 0 11 2;
#P hidden connect 9 0 6 2;
#P hidden connect 47 0 11 3;
#P hidden connect 57 0 11 3;
#P hidden connect 70 0 24 0;
#P hidden connect 25 1 24 0;
#P hidden connect 11 2 43 0;
#P hidden connect 11 3 46 0;
#P hidden connect 82 0 72 0;
#P hidden connect 76 1 72 0;
#P hidden connect 70 0 14 0;
#P hidden connect 11 3 14 0;
#P hidden connect 96 0 14 0;
#P hidden connect 60 0 14 0;
#P hidden connect 54 0 14 0;
#P hidden connect 21 1 14 0;
#P hidden connect 13 0 56 0;
#P hidden connect 14 0 57 0;
#P hidden connect 40 0 0 0;
#P hidden connect 0 0 28 0;
#P hidden connect 28 0 32 0;
#P hidden connect 32 0 29 0;
#P hidden connect 29 0 34 0;
#P hidden connect 20 0 22 0;
#P hidden connect 42 0 97 0;
#P hidden connect 61 0 20 0;
#P hidden connect 31 0 29 1;
#P hidden connect 97 0 61 0;
#P hidden connect 65 0 25 0;
#P hidden connect 25 0 12 0;
#P hidden connect 12 0 29 2;
#P hidden connect 53 0 3 0;
#P hidden connect 28 0 52 0;
#P hidden connect 52 0 50 0;
#P hidden connect 25 0 66 0;
#P hidden connect 62 0 51 0;
#P hidden connect 39 0 38 0;
#P hidden connect 37 0 36 0;
#P hidden connect 59 6 61 4;
#P hidden connect 59 6 60 0;
#P hidden connect 20 0 62 0;
#P hidden connect 63 0 21 0;
#P hidden connect 21 0 23 0;
#P hidden connect 45 0 98 0;
#P hidden connect 58 0 59 0;
#P hidden connect 59 6 62 2;
#P hidden connect 21 0 64 0;
#P hidden connect 66 0 49 0;
#P hidden connect 64 0 48 0;
#P hidden connect 59 6 64 2;
#P hidden connect 41 0 65 0;
#P hidden connect 98 0 63 0;
#P hidden connect 3 1 19 0;
#P hidden connect 59 6 63 4;
#P hidden connect 99 0 88 0;
#P hidden connect 88 0 89 0;
#P hidden connect 89 0 90 0;
#P hidden connect 90 0 75 0;
#P hidden connect 87 0 99 0;
#P hidden connect 14 0 68 0;
#P hidden connect 68 0 55 0;
#P hidden connect 59 6 90 4;
#P hidden connect 13 0 85 0;
#P hidden connect 13 0 67 0;
#P hidden connect 67 0 54 0;
#P hidden connect 100 0 92 0;
#P hidden connect 92 0 93 0;
#P hidden connect 93 0 94 0;
#P hidden connect 94 0 76 0;
#P hidden connect 91 0 100 0;
#P hidden connect 14 0 85 1;
#P hidden connect 83 0 81 0;
#P hidden connect 59 6 94 4;
#P hidden connect 85 0 83 0;
#P hidden connect 86 0 95 0;
#P hidden connect 71 0 77 0;
#P hidden connect 79 0 86 0;
#P hidden connect 78 0 79 0;
#P hidden connect 77 0 79 0;
#P hidden connect 59 6 95 2;
#P hidden connect 83 1 79 1;
#P hidden connect 86 1 96 0;
#P hidden connect 85 1 84 0;
#P hidden connect 80 0 86 1;
#P hidden connect 59 6 96 2;
#P hidden connect 84 0 82 0;
#P hidden connect 78 1 80 0;
#P hidden connect 77 1 80 0;
#P hidden connect 72 0 78 0;
#P hidden connect 84 1 80 1;
#P pop;
