max v2;
#N vpatcher 96 72 696 472;
#P toggle 69 125 17 0;
#P window setfont "Sans Serif" 9.;
#P window linecount 1;
#P hidden newex 225 125 41 9109513 pcontrol;
#P window setfont "Sans Serif" 12.;
#P comment 15 125 52 9109516 mapper;
#P window setfont "Sans Serif" 9.;
#P newex 89 125 96 9109513 scrlt.midi.bcr.mapper;
#P objectname midi.bcr[2];
#N vpatcher 15 55 615 455;
#P window setfont "Sans Serif" 9.;
#P message 50 73 30 9109513 close;
#P message 81 73 28 9109513 open;
#P newex 50 50 72 9109513 sel 0 1;
#P message 92 96 34 9109513 set \$1;
#P inlet 92 76 15 0;
#P inlet 50 30 15 0;
#P outlet 50 95 15 0;
#P outlet 92 118 15 0;
#P connect 2 0 5 0;
#P connect 5 0 7 0;
#P connect 6 0 1 0;
#P connect 7 0 1 0;
#P connect 5 1 6 0;
#P connect 3 0 4 0;
#P connect 4 0 0 0;
#P pop;
#P hidden newobj 195 125 27 9109513 p;
#P toggle 69 102 17 0;
#P hidden newex 183 102 41 9109513 pcontrol;
#P window setfont "Sans Serif" 12.;
#P comment 15 102 52 9109516 debug;
#P window setfont "Sans Serif" 9.;
#P newex 89 102 54 9109513 scrlt.debug;
#P objectname midi.bcr[1];
#N vpatcher 15 55 615 455;
#P window setfont "Sans Serif" 9.;
#P message 50 73 30 9109513 close;
#P message 81 73 28 9109513 open;
#P newex 50 50 72 9109513 sel 0 1;
#P message 92 96 34 9109513 set \$1;
#P inlet 92 76 15 0;
#P inlet 50 30 15 0;
#P outlet 50 95 15 0;
#P outlet 92 118 15 0;
#P connect 2 0 5 0;
#P connect 5 0 7 0;
#P connect 7 0 1 0;
#P connect 6 0 1 0;
#P connect 5 1 6 0;
#P connect 3 0 4 0;
#P connect 4 0 0 0;
#P pop;
#P hidden newobj 153 102 27 9109513 p;
#P newex 259 82 58 9109513 pattrstorage;
#X client_rect 427 135 1083 697;
#X storage_rect 0 0 640 240;
#P objectname u518000001;
#P toggle 69 80 17 0;
#P hidden newex 183 80 41 9109513 pcontrol;
#P toggle 69 58 17 0;
#P hidden newex 183 58 41 9109513 pcontrol;
#P window setfont "Sans Serif" 12.;
#P comment 15 80 52 9109516 midi.bcr;
#P comment 15 58 47 9109516 rack;
#P toggle 69 36 17 0;
#P window setfont "Sans Serif" 9.;
#P hidden newex 183 36 41 9109513 pcontrol;
#P newex 89 80 62 9109513 scrlt.midi.bcr;
#P objectname midi.bcr;
#P newex 89 36 52 9109513 scrlt.mixer;
#P objectname mixer;
#P newex 89 58 47 9109513 scrlt.rack;
#P objectname rack;
#P window setfont "Sans Serif" 12.;
#P comment 15 36 47 9109516 mixer;
#P window setfont "Sans Serif" 9.;
#N vpatcher 15 55 615 455;
#P window setfont "Sans Serif" 9.;
#P message 50 73 30 9109513 close;
#P message 81 73 28 9109513 open;
#P newex 50 50 72 9109513 sel 0 1;
#P message 92 96 34 9109513 set \$1;
#P inlet 92 76 15 0;
#P inlet 50 30 15 0;
#P outlet 50 95 15 0;
#P outlet 92 118 15 0;
#P connect 2 0 5 0;
#P connect 5 0 7 0;
#P connect 6 0 1 0;
#P connect 7 0 1 0;
#P connect 5 1 6 0;
#P connect 3 0 4 0;
#P connect 4 0 0 0;
#P pop;
#P hidden newobj 153 36 27 9109513 p;
#N vpatcher 15 55 615 455;
#P window setfont "Sans Serif" 9.;
#P message 50 73 30 9109513 close;
#P message 81 73 28 9109513 open;
#P newex 50 50 72 9109513 sel 0 1;
#P message 92 96 34 9109513 set \$1;
#P inlet 92 76 15 0;
#P inlet 50 30 15 0;
#P outlet 92 118 15 0;
#P outlet 50 95 15 0;
#P connect 2 0 5 0;
#P connect 5 0 7 0;
#P connect 6 0 0 0;
#P connect 7 0 0 0;
#P connect 5 1 6 0;
#P connect 3 0 4 0;
#P connect 4 0 1 0;
#P pop;
#P hidden newobj 153 58 27 9109513 p;
#N vpatcher 15 55 615 455;
#P window setfont "Sans Serif" 9.;
#P message 50 73 30 9109513 close;
#P message 81 73 28 9109513 open;
#P newex 50 50 72 9109513 sel 0 1;
#P message 92 96 34 9109513 set \$1;
#P inlet 92 76 15 0;
#P inlet 50 30 15 0;
#P outlet 50 95 15 0;
#P outlet 92 118 15 0;
#P connect 2 0 5 0;
#P connect 5 0 7 0;
#P connect 6 0 1 0;
#P connect 7 0 1 0;
#P connect 5 1 6 0;
#P connect 3 0 4 0;
#P connect 4 0 0 0;
#P pop;
#P hidden newobj 153 80 27 9109513 p;
#P message 259 59 59 9109513 clientwindow;
#P hidden connect 3 1 9 0;
#P hidden connect 2 1 13 0;
#P hidden connect 1 1 15 0;
#P hidden connect 17 1 21 0;
#P hidden connect 22 1 26 0;
#P hidden connect 8 0 6 0;
#P hidden connect 12 0 5 0;
#P hidden connect 14 0 7 0;
#P hidden connect 20 0 18 0;
#P hidden connect 25 0 23 0;
#P hidden connect 9 0 3 0;
#P hidden connect 13 0 2 0;
#P hidden connect 15 0 1 0;
#P hidden connect 21 0 17 0;
#P hidden connect 6 0 3 1;
#P hidden connect 5 0 2 1;
#P hidden connect 7 0 1 1;
#P hidden connect 18 0 17 1;
#P hidden connect 3 0 8 0;
#P hidden connect 2 0 12 0;
#P hidden connect 1 0 14 0;
#P hidden connect 17 0 20 0;
#P hidden connect 26 0 22 0;
#P hidden connect 23 0 22 1;
#P hidden connect 22 0 25 0;
#P connect 0 0 16 0;
#P pop;
