max v2;
#N vpatcher 382 204 1036 768;
#P window setfont "Sans Serif" 9.;
#P hidden message 323 270 81 9109513 settitle scrlt.trans;
#P hidden newex 323 293 92 9109513 js scrlt.util.settitle.js;
#P hidden message 321 222 60 9109513 window exec;
#P hidden newex 321 117 66 9109513 b 5;
#P hidden message 335 201 128 9109513 window size 1200 40 1346 74;
#P hidden message 349 180 93 9109513 window flags nogrow;
#P hidden message 363 159 96 9109513 window flags nozoom;
#P hidden newex 321 96 95 9109513 sel setdisplaywindow;
#N thispatcher;
#Q end;
#P hidden newobj 321 243 54 9109513 thispatcher;
#N comlet dummy;
#P hidden inlet 333 74 15 0;
#P hidden comment 395 134 41 9109513 146 34;
#P hidden newex 325 387 40 9109513 change;
#P hidden message 324 368 14 9109513 1;
#P hidden newex 324 346 28 9109513 sel 1;
#P hidden newex 324 324 34 9109513 active;
#P hidden message 362 346 14 9109513 0;
#P hidden newex 362 324 50 9109513 closebang;
#N comlet 0: closing 1: opening;
#P hidden outlet 326 417 15 0;
#P hidden button 255 160 15 0;
#P hidden newex 177 43 80 9109513 r scrlt.trans.state;
#P hidden newex 70 150 82 9109513 s scrlt.trans.state;
#P hidden newex 89 77 74 9109513 r scrlt.trans.pos;
#P hidden newex 194 239 76 9109513 s scrlt.trans.pos;
#P hidden newex 177 87 27 9109513 t i i;
#P objectname state[2];
#P hidden newex 236 133 28 9109513 sel 1;
#P objectname state[1];
#P hidden message 236 169 14 9109513 0;
#N counter 0 127;
#X flags 0 0;
#P hidden newobj 194 195 66 9109513 counter 0 127;
#P hidden newex 216 100 32 9109513 / 127.;
#P hidden toggle 194 121 15 0;
#P hidden newex 194 142 32 9109513 metro;
#P hidden message 68 94 14 9109513 0;
#P hidden button 68 76 15 0;
#P hidden message 41 94 14 9109513 1;
#P hidden button 41 76 15 0;
#P hidden newex 70 125 51 9109513 pattr state;
#X prestore 1 0 0;
#P objectname state;
#P user hslider 1 16 18 128 128 1 0 0;
#P message 32 1 32 9109513 STOP;
#P message 1 1 32 9109513 PLAY;
#P hidden newex 216 65 58 9109513 pattr len.ms;
#X prestore 1 0 4000.;
#P objectname len.ms;
#P window setfont "Sans Serif" 10.;
#P flonum 101 1 44 10 0 0 0 139 0 0 0 221 221 221 222 222 222 0 0 0;
#P objectname flonum[1];
#P hidden connect 18 0 4 0;
#P hidden connect 2 0 6 0;
#P hidden connect 6 0 7 0;
#P hidden connect 3 0 8 0;
#P hidden connect 8 0 9 0;
#P hidden connect 7 0 5 0;
#P hidden connect 9 0 5 0;
#P hidden connect 5 0 19 0;
#P hidden connect 1 1 0 0;
#P hidden connect 20 0 16 0;
#P hidden connect 16 1 11 0;
#P hidden connect 11 0 10 0;
#P hidden connect 10 0 13 0;
#P hidden connect 13 0 17 0;
#P hidden connect 1 0 12 0;
#P hidden connect 12 0 10 1;
#P hidden connect 16 0 15 0;
#P hidden connect 15 0 14 0;
#P hidden connect 21 0 14 0;
#P hidden connect 14 0 13 3;
#P hidden connect 15 1 21 0;
#P hidden connect 30 0 32 0;
#P hidden connect 32 0 36 0;
#P hidden connect 36 0 37 0;
#P hidden connect 37 0 31 0;
#P hidden connect 35 0 31 0;
#P hidden connect 34 0 31 0;
#P hidden connect 33 0 31 0;
#P hidden connect 36 4 39 0;
#P hidden connect 39 0 38 0;
#P hidden connect 25 0 26 0;
#P hidden connect 26 0 27 0;
#P hidden connect 24 0 28 0;
#P hidden connect 27 0 28 0;
#P hidden connect 28 0 22 0;
#P hidden connect 36 1 35 0;
#P hidden connect 36 2 34 0;
#P hidden connect 23 0 24 0;
#P hidden connect 36 3 33 0;
#P pop;
