max v2;
#N vpatcher 115 106 937 560;
#P window setfont "Sans Serif" 9.;
#P window linecount 1;
#P hidden newex 662 193 109 9109513 scrlt.util.bcrfwd $2.mute;
#P hidden newex 633 274 98 9109513 scrlt.util.bcrfwd $2.lvl;
#P hidden newex 616 348 106 9109513 scrlt.util.bcrfwd $2.mon;
#P hidden newex 476 197 111 9109513 scrlt.util.bcrfwd $2.aux.1;
#P hidden newex 435 153 111 9109513 scrlt.util.bcrfwd $2.aux.0;
#P hidden newex 391 109 138 9109513 scrlt.util.bcrfwd $2.aux.prefade;
#P hidden newex 270 125 48 9109513 r $2.mute;
#P objectname aux.prefade[4];
#P hidden newex 270 156 51 9109513 pattr mute;
#X prestore 1 0 0;
#P objectname mute;
#P hidden newex 205 151 37 9109513 r $2.lvl;
#P objectname aux.prefade[3];
#P hidden newex 205 182 40 9109513 pattr lvl;
#X prestore 1 0 0;
#P objectname lvl;
#P hidden newex 261 234 45 9109513 r $2.mon;
#P objectname aux.prefade[2];
#P hidden newex 261 265 48 9109513 pattr mon;
#X prestore 1 0 0;
#P objectname mon;
#P hidden newex 213 19 77 9109513 r $2.aux.prefade;
#P objectname aux.prefade[1];
#P hidden newex 213 50 80 9109513 pattr aux.prefade;
#X prestore 1 0 0;
#P objectname aux.prefade;
#P hidden newex 472 253 50 9109513 r $2.aux.1;
#P hidden newex 472 279 53 9109513 pattr aux.1;
#X prestore 1 0 0;
#P objectname aux.1;
#P hidden newex 360 249 50 9109513 r $2.aux.0;
#P hidden newex 360 275 53 9109513 pattr aux.0;
#X prestore 1 0 0;
#P objectname aux.0;
#P hidden comment 313 57 171 9109513 arg 2: s/r prefix (ex: scrlt.mixer.chan.0);
#P user pictctrl 501 36 50 50 scrlt.knob.png 0 0 1 2 90 0 0 0 50 50 128 0 1 33 2 1 1 270;
#P hidden newex 66 258 45 9109513 loadbang;
#P hidden message 66 283 156 9109513 script send ch_num_lbl set chan $1;
#N thispatcher;
#Q end;
#P hidden newobj 66 308 54 9109513 thispatcher;
#P window setfont "Sans Serif" 14.;
#P comment 1 0 65 9109518 chan $1;
#P objectname ch_num_lbl;
#P window setfont "Sans Serif" 9.;
#P hidden newex 67 208 23 9109513 Not;
#P hidden newex 97 208 31 9109513 gate~;
#P comment 0 105 25 9109513 mute;
#P toggle 35 106 14 0;
#P objectname toggle[1];
#P hidden newex 67 46 27 9109513 + 1;
#P hidden newex 97 46 54 9109513 selector~ 2;
#P toggle 36 24 13 0;
#P objectname toggle;
#P comment 24 62 29 9109513 aux 1;
#P hidden user gain~ 463 326 14 30 158 0 1.071519 7.94321 10.;
#P hidden newex 462 392 96 9109513 s~ scrlt.rack.aux.1.in;
#P user dial 0 58 22 22 128 1 0 0 240 270 1 1. 170 170 170 221 221 221 120 120 120 225 225 225 0 0 0 0 0 0;
#P objectname dial[1];
#P comment 0 43 29 9109513 aux 0;
#P hidden user gain~ 360 326 14 30 158 0 1.071519 7.94321 10.;
#P hidden newex 363 393 96 9109513 s~ scrlt.rack.aux.0.in;
#P user dial 30 39 22 22 128 1 0 0 240 270 1 1. 170 170 170 221 221 221 120 120 120 225 225 225 0 0 0 0 0 0;
#P objectname dial;
#P hidden newex 143 393 112 9109513 s~ scrlt.mixer.master.in;
#P hidden user gain~ 259 324 14 39 158 0 1.071519 7.94321 10.;
#P hidden newex 259 393 101 9109513 s~ scrlt.mixer.mon.in;
#P hidden newex 202 100 39 9109513 r~ $2.in;
#P user dial 30 81 22 22 128 1 0 0 240 270 1 1. 170 170 170 221 221 221 120 120 120 225 225 225 0 0 0 0 0 0;
#P objectname dial[2];
#P user meter~ 36 122 51 242 50 0 168 0 103 103 103 255 153 0 255 0 0 217 217 0 153 186 0 12 3 3 3 3;
#P user gain~ 0 122 37 98 158 0 1.071519 7.94321 10.;
#P objectname gain~;
#P comment 0 85 24 9109513 mon;
#P comment 0 23 36 9109513 prefade;
#P hidden comment 102 21 101 9109513 scrlt.mixer.chan.0.in;
#P hidden comment 314 38 100 9109513 arg 1: channel number;
#P user panel 0 0 51 20;
#X brgb 191 191 191;
#X frgb 0 0 0;
#X border 1;
#X rounded 0;
#X shadow 0;
#X done;
#P background;
#P user panel 0 19 51 104;
#X brgb 191 191 191;
#X frgb 0 0 0;
#X border 1;
#X rounded 0;
#X shadow 0;
#X done;
#P background;
#P hidden connect 36 1 17 0;
#P hidden connect 9 0 6 0;
#P hidden connect 42 1 6 0;
#P hidden connect 34 1 13 0;
#P hidden connect 40 1 8 0;
#P hidden connect 44 1 24 0;
#P hidden connect 38 1 21 0;
#P hidden connect 26 0 7 0;
#P hidden connect 31 0 30 0;
#P hidden connect 30 0 29 0;
#P hidden connect 38 0 23 0;
#P hidden connect 44 0 27 0;
#P hidden connect 23 0 22 0;
#P hidden connect 27 0 26 0;
#P hidden connect 6 0 26 1;
#P hidden connect 9 0 22 1;
#P hidden connect 26 0 22 2;
#P hidden connect 26 0 12 0;
#P hidden connect 43 0 42 0;
#P hidden connect 39 0 38 0;
#P hidden connect 40 0 11 0;
#P hidden connect 9 0 11 0;
#P hidden connect 11 0 10 0;
#P hidden connect 41 0 40 0;
#P hidden connect 45 0 44 0;
#P hidden connect 35 0 34 0;
#P hidden connect 34 0 15 0;
#P hidden connect 22 0 15 0;
#P hidden connect 15 0 14 0;
#P hidden connect 38 0 46 0;
#P hidden connect 34 0 47 0;
#P hidden connect 19 0 18 0;
#P hidden connect 36 0 19 0;
#P hidden connect 22 0 19 0;
#P hidden connect 37 0 36 0;
#P hidden connect 36 0 48 0;
#P hidden connect 40 0 49 0;
#P hidden connect 42 0 50 0;
#P hidden connect 44 0 51 0;
#P pop;
