max v2;
#N vpatcher 761 170 957 532;
#P outlet 17 292 15 0;
#P inlet 59 25 15 0;
#P window setfont "Sans Serif" 9.;
#P newex 17 115 27 9109513 + 1;
#P newex 17 142 52 9109513 gate 2;
#P newex 59 56 27 9109513 t f f;
#P newex 17 92 34 9109513 >= 63.;
#P newex 17 263 52 9109513 V;
#P newex 17 236 27 9109513 * -1.;
#P newex 17 213 35 9109513 pow 2.;
#P newex 17 190 27 9109513 / 14.;
#P newex 17 167 30 9109513 !- 63.;
#P newex 59 217 35 9109513 pow 2.;
#P newex 59 192 27 9109513 / 14.;
#P newex 59 167 27 9109513 - 63.;
#P connect 9 1 8 0;
#P connect 8 0 11 0;
#P connect 11 0 10 0;
#P connect 10 0 3 0;
#P connect 3 0 4 0;
#P connect 4 0 5 0;
#P connect 5 0 6 0;
#P connect 6 0 7 0;
#P connect 7 0 13 0;
#P connect 12 0 9 0;
#P connect 9 0 10 1;
#P connect 10 1 0 0;
#P connect 0 0 1 0;
#P connect 1 0 2 0;
#P connect 2 0 7 1;
#P pop;
