max v2;
#N vpatcher 25 70 625 470;
#P toggle 120 17 13 0;
#P toggle 108 17 13 0;
#P toggle 96 17 13 0;
#P window setfont "Sans Serif" 12.;
#P number 0 0 21 12 -2 8 35 139 0 0 0 221 221 221 222 222 222 0 0 0;
#P objectname octave;
#P toggle 84 17 13 0;
#P toggle 72 17 13 0;
#P toggle 60 17 13 0;
#P toggle 48 17 13 0;
#P toggle 36 17 13 0;
#P toggle 24 17 13 0;
#P toggle 12 17 13 0;
#P toggle 0 17 13 0;
#P window setfont "Sans Serif" 9.;
#P window linecount 1;
#P hidden newex 0 67 147 9109513 sel -2 -1 0 1 2 3 4 5 6 7 8;
#N vpatcher 15 55 549 280;
#P outlet 370 114 15 0;
#P inlet 370 48 15 0;
#P window setfont "Sans Serif" 9.;
#P window linecount 1;
#P newex 370 87 29 9109513 _ set;
#P outlet 340 114 15 0;
#P inlet 340 48 15 0;
#P newex 340 87 29 9109513 _ set;
#P outlet 310 114 15 0;
#P inlet 310 48 15 0;
#P newex 310 87 29 9109513 _ set;
#P inlet 423 43 15 0;
#P outlet 280 114 15 0;
#P inlet 280 48 15 0;
#P window linecount 0;
#P newex 280 87 29 9109513 _ set;
#P outlet 250 114 15 0;
#P inlet 250 48 15 0;
#P newex 250 87 29 9109513 _ set;
#P outlet 220 114 15 0;
#P inlet 220 48 15 0;
#P newex 220 87 29 9109513 _ set;
#P outlet 190 114 15 0;
#P inlet 190 48 15 0;
#P newex 190 87 29 9109513 _ set;
#P outlet 160 114 15 0;
#P inlet 160 48 15 0;
#P newex 160 87 29 9109513 _ set;
#P outlet 130 114 15 0;
#P inlet 130 48 15 0;
#P newex 130 87 29 9109513 _ set;
#P outlet 100 114 15 0;
#P inlet 100 48 15 0;
#P newex 100 87 29 9109513 _ set;
#P outlet 70 114 15 0;
#P inlet 70 48 15 0;
#P newex 70 87 29 9109513 _ set;
#P outlet 40 114 15 0;
#P inlet 40 48 15 0;
#P newex 40 87 29 9109513 _ set;
#P connect 27 0 0 0;
#P connect 1 0 0 0;
#P connect 0 0 2 0;
#P connect 27 0 3 0;
#P connect 4 0 3 0;
#P connect 3 0 5 0;
#P connect 27 0 6 0;
#P connect 7 0 6 0;
#P connect 6 0 8 0;
#P connect 27 0 9 0;
#P connect 10 0 9 0;
#P connect 9 0 11 0;
#P connect 27 0 12 0;
#P connect 13 0 12 0;
#P connect 12 0 14 0;
#P connect 27 0 15 0;
#P connect 16 0 15 0;
#P connect 15 0 17 0;
#P connect 27 0 18 0;
#P connect 19 0 18 0;
#P connect 18 0 20 0;
#P connect 27 0 21 0;
#P connect 22 0 21 0;
#P connect 21 0 23 0;
#P connect 27 0 24 0;
#P connect 25 0 24 0;
#P connect 24 0 26 0;
#P connect 27 0 28 0;
#P connect 29 0 28 0;
#P connect 28 0 30 0;
#P connect 27 0 31 0;
#P connect 32 0 31 0;
#P connect 31 0 33 0;
#P connect 27 0 34 0;
#P connect 35 0 34 0;
#P connect 34 0 36 0;
#P pop;
#P hidden newobj 0 121 148 9109513 p sets;
#N vpatcher 15 55 615 455;
#P window setfont "Sans Serif" 9.;
#P window linecount 1;
#P newex 266 50 23 9109513 b 2;
#P newex 290 50 23 9109513 b 2;
#P newex 314 50 23 9109513 b 2;
#P inlet 266 30 15 0;
#P inlet 290 30 15 0;
#P inlet 314 30 15 0;
#P message 210 113 14 9109513 1;
#P message 194 113 14 9109513 1;
#P message 226 113 14 9109513 1;
#P outlet 194 135 15 0;
#P outlet 210 135 15 0;
#P outlet 226 135 15 0;
#P window linecount 0;
#P newex 50 50 23 9109513 b 2;
#P newex 74 50 23 9109513 b 2;
#P newex 98 50 23 9109513 b 2;
#P newex 122 50 23 9109513 b 2;
#P newex 146 50 23 9109513 b 2;
#P newex 170 50 23 9109513 b 2;
#P newex 194 50 23 9109513 b 2;
#P newex 218 50 23 9109513 b 2;
#P message 162 113 14 9109513 1;
#P message 146 113 14 9109513 1;
#P message 130 113 14 9109513 1;
#P message 114 113 14 9109513 1;
#P message 98 113 14 9109513 1;
#P message 82 113 14 9109513 1;
#P message 66 113 14 9109513 1;
#P message 50 113 14 9109513 1;
#P message 178 113 14 9109513 1;
#P newex 242 50 23 9109513 b 2;
#P message 270 113 14 9109513 0;
#P inlet 50 30 15 0;
#P inlet 74 30 15 0;
#P inlet 98 30 15 0;
#P inlet 122 30 15 0;
#P inlet 146 30 15 0;
#P inlet 170 30 15 0;
#P inlet 194 30 15 0;
#P inlet 218 30 15 0;
#P inlet 242 30 15 0;
#P outlet 50 135 15 0;
#P outlet 66 135 15 0;
#P outlet 82 135 15 0;
#P outlet 98 135 15 0;
#P outlet 114 135 15 0;
#P outlet 130 135 15 0;
#P outlet 146 135 15 0;
#P outlet 162 135 15 0;
#P outlet 178 135 15 0;
#P outlet 270 135 15 0;
#P connect 18 0 37 0;
#P connect 37 0 22 0;
#P connect 22 0 9 0;
#P connect 36 0 23 0;
#P connect 23 0 8 0;
#P connect 17 0 36 0;
#P connect 35 0 24 0;
#P connect 24 0 7 0;
#P connect 16 0 35 0;
#P connect 34 0 25 0;
#P connect 25 0 6 0;
#P connect 33 0 26 0;
#P connect 26 0 5 0;
#P connect 15 0 34 0;
#P connect 32 0 27 0;
#P connect 27 0 4 0;
#P connect 14 0 33 0;
#P connect 31 0 28 0;
#P connect 28 0 3 0;
#P connect 30 0 29 0;
#P connect 29 0 2 0;
#P connect 13 0 32 0;
#P connect 20 0 21 0;
#P connect 21 0 1 0;
#P connect 12 0 31 0;
#P connect 49 0 42 0;
#P connect 42 0 40 0;
#P connect 48 0 43 0;
#P connect 43 0 39 0;
#P connect 11 0 30 0;
#P connect 47 0 41 0;
#P connect 41 0 38 0;
#P connect 10 0 20 0;
#P connect 46 0 49 0;
#P connect 47 1 19 0;
#P connect 48 1 19 0;
#P connect 49 1 19 0;
#P connect 37 1 19 0;
#P connect 36 1 19 0;
#P connect 35 1 19 0;
#P connect 34 1 19 0;
#P connect 33 1 19 0;
#P connect 32 1 19 0;
#P connect 31 1 19 0;
#P connect 30 1 19 0;
#P connect 20 1 19 0;
#P connect 19 0 0 0;
#P connect 45 0 48 0;
#P connect 44 0 47 0;
#P pop;
#P hidden newobj 0 94 148 9109513 p routings;
#N vpatcher 15 55 615 455;
#P window setfont "Sans Serif" 9.;
#P hidden message 170 50 14 9109513 8;
#P hidden message 158 50 14 9109513 7;
#P hidden message 146 50 14 9109513 6;
#P hidden message 134 50 14 9109513 5;
#P hidden message 122 50 14 9109513 4;
#P hidden message 110 50 14 9109513 3;
#P hidden message 98 50 14 9109513 2;
#P hidden message 86 50 14 9109513 1;
#P hidden message 74 50 14 9109513 0;
#P hidden message 62 50 16 9109513 -1;
#P hidden newex 116 91 16 9109513 t i;
#P hidden message 50 50 16 9109513 -2;
#P inlet 170 30 15 0;
#P inlet 158 30 15 0;
#P inlet 146 30 15 0;
#P inlet 134 30 15 0;
#P inlet 122 30 15 0;
#P inlet 110 30 15 0;
#P inlet 98 30 15 0;
#P inlet 86 30 15 0;
#P inlet 74 30 15 0;
#P inlet 62 30 15 0;
#P inlet 50 30 15 0;
#P outlet 116 115 15 0;
#P connect 1 0 12 0;
#P connect 2 0 14 0;
#P connect 3 0 15 0;
#P connect 4 0 16 0;
#P connect 5 0 17 0;
#P connect 6 0 18 0;
#P hidden connect 20 0 13 0;
#P hidden connect 19 0 13 0;
#P hidden connect 18 0 13 0;
#P hidden connect 17 0 13 0;
#P hidden connect 16 0 13 0;
#P hidden connect 15 0 13 0;
#P hidden connect 14 0 13 0;
#P hidden connect 12 0 13 0;
#P connect 21 0 13 0;
#P connect 22 0 13 0;
#P connect 23 0 13 0;
#P connect 13 0 0 0;
#P connect 7 0 19 0;
#P connect 8 0 20 0;
#P connect 9 0 21 0;
#P connect 10 0 22 0;
#P connect 11 0 23 0;
#P pop;
#P hidden newobj 0 40 136 9109513 p;
#P hidden connect 0 0 12 0;
#P hidden connect 2 0 4 0;
#P hidden connect 4 0 0 0;
#P hidden connect 12 0 3 0;
#P hidden connect 3 0 1 0;
#P hidden connect 1 0 2 0;
#P hidden connect 1 1 2 1;
#P hidden connect 2 1 5 0;
#P hidden connect 5 0 0 1;
#P hidden connect 3 1 1 1;
#P hidden connect 1 2 2 2;
#P hidden connect 2 2 6 0;
#P hidden connect 6 0 0 2;
#P hidden connect 3 2 1 2;
#P hidden connect 1 3 2 3;
#P hidden connect 2 3 7 0;
#P hidden connect 7 0 0 3;
#P hidden connect 3 3 1 3;
#P hidden connect 1 4 2 4;
#P hidden connect 2 4 8 0;
#P hidden connect 8 0 0 4;
#P hidden connect 3 4 1 4;
#P hidden connect 1 5 2 5;
#P hidden connect 2 5 9 0;
#P hidden connect 9 0 0 5;
#P hidden connect 3 5 1 5;
#P hidden connect 1 6 2 6;
#P hidden connect 2 6 10 0;
#P hidden connect 10 0 0 6;
#P hidden connect 3 6 1 6;
#P hidden connect 1 7 2 7;
#P hidden connect 2 7 11 0;
#P hidden connect 11 0 0 7;
#P hidden connect 3 7 1 7;
#P hidden connect 1 8 2 8;
#P hidden connect 2 8 13 0;
#P hidden connect 13 0 0 8;
#P hidden connect 3 8 1 8;
#P hidden connect 1 9 2 9;
#P hidden connect 2 9 14 0;
#P hidden connect 14 0 0 9;
#P hidden connect 3 9 1 9;
#P hidden connect 1 10 2 10;
#P hidden connect 2 10 15 0;
#P hidden connect 15 0 0 10;
#P hidden connect 3 10 1 10;
#P hidden connect 1 11 2 11;
#P hidden connect 3 11 1 11;
#P hidden connect 1 12 2 12;
#P pop;
