max v2;
#N vpatcher 732 83 1209 524;
#P window setfont "Sans Serif" 9.;
#P window linecount 1;
#P hidden newex 125 379 40 9109513 dac~;
#P hidden newex 155 323 29 9109513 _ set;
#P hidden newex 125 323 29 9109513 _ set;
#P hidden newex 125 299 40 9109513 unpack;
#P hidden newex 125 275 91 9109513 r scrlt.mixer.io.main;
#P hidden newex 31 379 40 9109513 dac~;
#P hidden newex 61 323 29 9109513 _ set;
#P hidden newex 31 323 29 9109513 _ set;
#P hidden newex 31 299 40 9109513 unpack;
#P hidden newex 31 275 89 9109513 r scrlt.mixer.io.mon;
#P window setfont "Sans Serif" 20.;
#P comment 211 331 214 9109524 todo: bcr forwarding!!!;
#B color 3;
#P window setfont "Sans Serif" 9.;
#P hidden newex 325 282 40 9109513 pattr lvl;
#X prestore 1 0 0;
#P objectname lvl;
#P hidden newex 325 255 95 9109513 r scrlt.mix.master.lvl;
#P hidden newex 327 211 51 9109513 pattr mute;
#X prestore 1 0 0;
#P objectname mute;
#P hidden newex 327 184 106 9109513 r scrlt.mix.master.mute;
#P hidden newex 318 92 48 9109513 pattr mon;
#X prestore 1 0 0;
#P objectname mon;
#P hidden newex 318 65 103 9109513 r scrlt.mix.master.mon;
#P hidden newex 80 188 23 9109513 Not;
#P hidden newex 113 176 31 9109513 gate~;
#P window setfont "Sans Serif" 14.;
#P comment 1 0 50 9109518 master;
#P objectname ch_num_lbl;
#P window setfont "Sans Serif" 9.;
#P comment 0 105 25 9109513 mute;
#P toggle 35 106 14 0;
#P objectname toggle;
#P hidden user gain~ 172 154 50 38 158 0 1.071519 7.94321 10.;
#P hidden newex 89 43 97 9109513 r~ scrlt.mix.master.in;
#P user dial 30 81 22 22 128 1 0 0 240 270 1 1. 170 170 170 221 221 221 120 120 120 225 225 225 0 0 0 0 0 0;
#P objectname dial;
#P user meter~ 36 122 51 242 50 0 168 0 103 103 103 255 153 0 255 0 0 217 217 0 153 186 0 12 3 3 3 3;
#P user gain~ 0 122 37 98 158 0 1.071519 7.94321 10.;
#P objectname gain~;
#P comment 0 85 24 9109513 mon;
#P user panel 0 0 51 20;
#X brgb 191 191 191;
#X frgb 0 0 0;
#X border 1;
#X rounded 0;
#X shadow 0;
#X done;
#P background;
#P user panel 0 19 51 104;
#X brgb 191 191 191;
#X frgb 0 0 0;
#X border 1;
#X rounded 0;
#X shadow 0;
#X done;
#P background;
#P hidden newex 167 75 86 9109513 r~ scrlt.mix.mon.in;
#P hidden connect 19 1 4 0;
#P hidden connect 7 0 4 0;
#P hidden connect 15 1 6 0;
#P hidden connect 21 0 22 0;
#P hidden connect 22 0 23 0;
#P hidden connect 12 0 25 0;
#P hidden connect 23 0 25 0;
#P hidden connect 17 1 9 0;
#P hidden connect 12 0 5 0;
#P hidden connect 22 1 24 0;
#P hidden connect 24 0 25 1;
#P hidden connect 12 0 25 1;
#P hidden connect 17 0 13 0;
#P hidden connect 13 0 12 0;
#P hidden connect 26 0 27 0;
#P hidden connect 27 0 28 0;
#P hidden connect 8 0 30 0;
#P hidden connect 28 0 30 0;
#P hidden connect 4 0 12 1;
#P hidden connect 27 1 29 0;
#P hidden connect 29 0 30 1;
#P hidden connect 8 0 30 1;
#P hidden connect 15 0 8 0;
#P hidden connect 0 0 8 0;
#P hidden connect 14 0 15 0;
#P hidden connect 18 0 19 0;
#P hidden connect 16 0 17 0;
#P pop;
