max v2;
#N vpatcher 218 36 671 340;
#P origin -3 0;
#P bpatcher 217 29 104 82 0 0 scrlt.mixer.io.mxt 4;
#P window setfont "Sans Serif" 9.;
#P hidden message 384 96 14 9109513 1;
#P hidden newex 384 74 28 9109513 sel 1;
#P hidden newex 384 52 34 9109513 active;
#P hidden message 384 140 14 9109513 0;
#P hidden newex 384 118 50 9109513 closebang;
#N comlet 0: closing 1: opening;
#P hidden outlet 384 162 15 0;
#N comlet dummy;
#P hidden inlet 384 30 15 0;
#P bpatcher 270 114 51 157 0 0 scrlt.mixer.aux.mxt 4 1 scrlt.mixer.aux.1;
#P objectname aux.1;
#P window setfont "Arial Black" 14.;
#P comment 5 4 60 10682382 mixer;
#P bpatcher 164 29 51 242 0 0 scrlt.mixer.chan.mxt 4 3 scrlt.mixer.chan.3;
#P objectname chan.3;
#P bpatcher 111 29 51 242 0 0 scrlt.mixer.chan.mxt 4 2 scrlt.mixer.chan.2;
#P objectname chan.2;
#P bpatcher 323 29 51 242 0 0 scrlt.mixer.master.mxt 4;
#P objectname master;
#P bpatcher 217 114 51 157 0 0 scrlt.mixer.aux.mxt 4 0 scrlt.mixer.aux.0;
#P objectname aux.0;
#P bpatcher 58 29 51 242 0 0 scrlt.mixer.chan.mxt 4 1 scrlt.mixer.chan.1;
#P objectname chan.1;
#P bpatcher 5 29 51 242 0 0 scrlt.mixer.chan.mxt 4 0 scrlt.mixer.chan.0;
#P objectname chan.0;
#P user panel 0 0 380 276;
#X brgb 154 154 154;
#X frgb 0 0 0;
#X border 1;
#X rounded 0;
#X shadow 0;
#X done;
#P background;
#P hidden connect 13 0 14 0;
#P hidden connect 14 0 15 0;
#P hidden connect 11 0 12 0;
#P hidden connect 15 0 10 0;
#P hidden connect 12 0 10 0;
#P pop;
