max v2;
#N vpatcher 15 41 1329 949;
#P origin 24 0;
#P window setfont "Sans Serif" 12.;
#P comment 401 742 156 9109516 scrlt.rack.track.1.fx.1.par.2;
#P toggle 587 742 17 0;
#P button 605 742 17 0;
#P window setfont "Sans Serif" 9.;
#P message 623 742 90 9109513 .;
#P hidden newex 824 742 40 9109513 t l b l;
#P hidden newex 895 742 27 9109513 gate;
#P hidden newex 923 742 144 9109513 print scrlt.rack.track.1.fx.1.par.2;
#P hidden newex 865 742 29 9109513 _ set;
#P hidden newex 1080 742 129 9109513 r scrlt.rack.track.1.fx.1.par.2;
#P hidden newex 824 742 40 9109513 t l b l;
#P window setfont "Sans Serif" 12.;
#P comment 401 688 156 9109516 scrlt.rack.track.1.fx.1.drywet;
#P toggle 587 688 17 0;
#P button 605 688 17 0;
#P window setfont "Sans Serif" 9.;
#P message 623 688 90 9109513 .;
#P hidden newex 824 688 40 9109513 t l b l;
#P hidden newex 895 688 27 9109513 gate;
#P hidden newex 923 688 151 9109513 print scrlt.rack.track.1.fx.1.drywet;
#P hidden newex 865 688 29 9109513 _ set;
#P hidden newex 1080 688 136 9109513 r scrlt.rack.track.1.fx.1.drywet;
#P hidden newex 824 688 40 9109513 t l b l;
#P window setfont "Sans Serif" 12.;
#P comment 401 670 156 9109516 scrlt.rack.track.1.fx.1.bypass;
#P toggle 587 670 17 0;
#P button 605 670 17 0;
#P window setfont "Sans Serif" 9.;
#P message 623 670 90 9109513 .;
#P hidden newex 824 670 40 9109513 t l b l;
#P hidden newex 895 670 27 9109513 gate;
#P hidden newex 923 670 154 9109513 print scrlt.rack.track.1.fx.1.bypass;
#P hidden newex 865 670 29 9109513 _ set;
#P hidden newex 1080 670 139 9109513 r scrlt.rack.track.1.fx.1.bypass;
#P hidden newex 824 670 40 9109513 t l b l;
#P window setfont "Sans Serif" 12.;
#P comment 401 724 156 9109516 scrlt.rack.track.1.fx.1.par.1;
#P toggle 587 724 17 0;
#P button 605 724 17 0;
#P window setfont "Sans Serif" 9.;
#P message 623 724 90 9109513 .;
#P hidden newex 824 724 40 9109513 t l b l;
#P hidden newex 895 724 27 9109513 gate;
#P hidden newex 923 724 144 9109513 print scrlt.rack.track.1.fx.1.par.1;
#P hidden newex 865 724 29 9109513 _ set;
#P hidden newex 1080 724 129 9109513 r scrlt.rack.track.1.fx.1.par.1;
#P hidden newex 824 724 40 9109513 t l b l;
#P window setfont "Sans Serif" 12.;
#P comment 401 706 156 9109516 scrlt.rack.track.1.fx.1.par.0;
#P toggle 587 706 17 0;
#P button 605 706 17 0;
#P window setfont "Sans Serif" 9.;
#P message 623 706 90 9109513 .;
#P hidden newex 824 706 40 9109513 t l b l;
#P hidden newex 895 706 27 9109513 gate;
#P hidden newex 923 706 144 9109513 print scrlt.rack.track.1.fx.1.par.0;
#P hidden newex 865 706 29 9109513 _ set;
#P hidden newex 1080 706 129 9109513 r scrlt.rack.track.1.fx.1.par.0;
#P hidden newex 824 706 40 9109513 t l b l;
#P window setfont "Sans Serif" 12.;
#P comment 401 652 156 9109516 scrlt.rack.track.1.fx.0.par.8;
#P toggle 587 652 17 0;
#P button 605 652 17 0;
#P window setfont "Sans Serif" 9.;
#P message 623 652 90 9109513 .;
#P hidden newex 824 652 40 9109513 t l b l;
#P hidden newex 895 652 27 9109513 gate;
#P hidden newex 923 652 144 9109513 print scrlt.rack.track.1.fx.0.par.8;
#P hidden newex 865 652 29 9109513 _ set;
#P hidden newex 1080 652 129 9109513 r scrlt.rack.track.1.fx.0.par.8;
#P hidden newex 824 652 40 9109513 t l b l;
#P window setfont "Sans Serif" 12.;
#P comment 401 634 156 9109516 scrlt.rack.track.1.fx.0.par.7;
#P toggle 587 634 17 0;
#P button 605 634 17 0;
#P window setfont "Sans Serif" 9.;
#P message 623 634 90 9109513 .;
#P hidden newex 824 634 40 9109513 t l b l;
#P hidden newex 895 634 27 9109513 gate;
#P hidden newex 923 634 144 9109513 print scrlt.rack.track.1.fx.0.par.7;
#P hidden newex 865 634 29 9109513 _ set;
#P hidden newex 1080 634 129 9109513 r scrlt.rack.track.1.fx.0.par.7;
#P hidden newex 824 634 40 9109513 t l b l;
#P window setfont "Sans Serif" 12.;
#P comment 401 616 156 9109516 scrlt.rack.track.1.fx.0.par.6;
#P toggle 587 616 17 0;
#P button 605 616 17 0;
#P window setfont "Sans Serif" 9.;
#P message 623 616 90 9109513 .;
#P hidden newex 824 616 40 9109513 t l b l;
#P hidden newex 895 616 27 9109513 gate;
#P hidden newex 923 616 144 9109513 print scrlt.rack.track.1.fx.0.par.6;
#P hidden newex 865 616 29 9109513 _ set;
#P hidden newex 1080 616 129 9109513 r scrlt.rack.track.1.fx.0.par.6;
#P hidden newex 824 616 40 9109513 t l b l;
#P window setfont "Sans Serif" 12.;
#P comment 402 598 156 9109516 scrlt.rack.track.1.fx.0.par.5;
#P toggle 587 598 17 0;
#P button 605 598 17 0;
#P window setfont "Sans Serif" 9.;
#P message 623 598 90 9109513 .;
#P hidden newex 824 598 40 9109513 t l b l;
#P hidden newex 895 598 27 9109513 gate;
#P hidden newex 923 598 144 9109513 print scrlt.rack.track.1.fx.0.par.5;
#P hidden newex 865 598 29 9109513 _ set;
#P hidden newex 1080 598 129 9109513 r scrlt.rack.track.1.fx.0.par.5;
#P hidden newex 824 598 40 9109513 t l b l;
#P window setfont "Sans Serif" 12.;
#P comment 401 580 156 9109516 scrlt.rack.track.1.fx.0.par.4;
#P toggle 587 580 17 0;
#P button 605 580 17 0;
#P window setfont "Sans Serif" 9.;
#P message 623 580 90 9109513 .;
#P hidden newex 824 580 40 9109513 t l b l;
#P hidden newex 895 580 27 9109513 gate;
#P hidden newex 923 580 144 9109513 print scrlt.rack.track.1.fx.0.par.4;
#P hidden newex 865 580 29 9109513 _ set;
#P hidden newex 1080 580 129 9109513 r scrlt.rack.track.1.fx.0.par.4;
#P hidden newex 824 580 40 9109513 t l b l;
#P window setfont "Sans Serif" 12.;
#P comment 401 562 156 9109516 scrlt.rack.track.1.fx.0.par.3;
#P toggle 587 562 17 0;
#P button 605 562 17 0;
#P window setfont "Sans Serif" 9.;
#P message 623 562 90 9109513 .;
#P hidden newex 824 562 40 9109513 t l b l;
#P hidden newex 895 562 27 9109513 gate;
#P hidden newex 923 562 144 9109513 print scrlt.rack.track.1.fx.0.par.3;
#P hidden newex 865 562 29 9109513 _ set;
#P hidden newex 1080 562 129 9109513 r scrlt.rack.track.1.fx.0.par.3;
#P hidden newex 824 562 40 9109513 t l b l;
#P window setfont "Sans Serif" 12.;
#P comment 401 544 156 9109516 scrlt.rack.track.1.fx.0.par.2;
#P toggle 587 544 17 0;
#P button 605 544 17 0;
#P window setfont "Sans Serif" 9.;
#P message 623 544 90 9109513 .;
#P hidden newex 824 544 40 9109513 t l b l;
#P hidden newex 895 544 27 9109513 gate;
#P hidden newex 923 544 144 9109513 print scrlt.rack.track.1.fx.0.par.2;
#P hidden newex 865 544 29 9109513 _ set;
#P hidden newex 1080 544 129 9109513 r scrlt.rack.track.1.fx.0.par.2;
#P hidden newex 824 544 40 9109513 t l b l;
#P window setfont "Sans Serif" 12.;
#P comment 401 490 156 9109516 scrlt.rack.track.1.fx.0.drywet;
#P toggle 587 490 17 0;
#P button 605 490 17 0;
#P window setfont "Sans Serif" 9.;
#P message 623 490 90 9109513 .;
#P hidden newex 824 490 40 9109513 t l b l;
#P hidden newex 895 490 27 9109513 gate;
#P hidden newex 923 490 151 9109513 print scrlt.rack.track.1.fx.0.drywet;
#P hidden newex 865 490 29 9109513 _ set;
#P hidden newex 1080 490 136 9109513 r scrlt.rack.track.1.fx.0.drywet;
#P hidden newex 824 490 40 9109513 t l b l;
#P window setfont "Sans Serif" 12.;
#P comment 401 472 156 9109516 scrlt.rack.track.1.fx.0.bypass;
#P toggle 587 472 17 0;
#P button 605 472 17 0;
#P window setfont "Sans Serif" 9.;
#P message 623 472 90 9109513 .;
#P hidden newex 824 472 40 9109513 t l b l;
#P hidden newex 895 472 27 9109513 gate;
#P hidden newex 923 472 154 9109513 print scrlt.rack.track.1.fx.0.bypass;
#P hidden newex 865 472 29 9109513 _ set;
#P hidden newex 1080 472 139 9109513 r scrlt.rack.track.1.fx.0.bypass;
#P hidden newex 824 472 40 9109513 t l b l;
#P window setfont "Sans Serif" 12.;
#P comment 401 526 156 9109516 scrlt.rack.track.1.fx.0.par.1;
#P toggle 587 526 17 0;
#P button 605 526 17 0;
#P window setfont "Sans Serif" 9.;
#P message 623 526 90 9109513 .;
#P hidden newex 824 526 40 9109513 t l b l;
#P hidden newex 895 526 27 9109513 gate;
#P hidden newex 923 526 144 9109513 print scrlt.rack.track.1.fx.0.par.1;
#P hidden newex 865 526 29 9109513 _ set;
#P hidden newex 1080 526 129 9109513 r scrlt.rack.track.1.fx.0.par.1;
#P hidden newex 824 526 40 9109513 t l b l;
#P window setfont "Sans Serif" 12.;
#P comment 401 508 156 9109516 scrlt.rack.track.1.fx.0.par.0;
#P toggle 587 508 17 0;
#P button 605 508 17 0;
#P window setfont "Sans Serif" 9.;
#P message 623 508 90 9109513 .;
#P hidden newex 824 508 40 9109513 t l b l;
#P hidden newex 895 508 27 9109513 gate;
#P hidden newex 923 508 144 9109513 print scrlt.rack.track.1.fx.0.par.0;
#P hidden newex 865 508 29 9109513 _ set;
#P hidden newex 1080 508 129 9109513 r scrlt.rack.track.1.fx.0.par.0;
#P hidden newex 824 508 40 9109513 t l b l;
#P window setfont "Sans Serif" 12.;
#P comment 401 454 156 9109516 scrlt.rack.track.1.gen.par.5;
#P toggle 587 454 17 0;
#P button 605 454 17 0;
#P window setfont "Sans Serif" 9.;
#P message 623 454 90 9109513 .;
#P hidden newex 824 454 40 9109513 t l b l;
#P hidden newex 895 454 27 9109513 gate;
#P hidden newex 923 454 142 9109513 print scrlt.rack.track.1.gen.par.5;
#P hidden newex 865 454 29 9109513 _ set;
#P hidden newex 1080 454 127 9109513 r scrlt.rack.track.1.gen.par.5;
#P hidden newex 824 454 40 9109513 t l b l;
#P window setfont "Sans Serif" 12.;
#P comment 401 436 156 9109516 scrlt.rack.track.1.gen.par.4;
#P toggle 587 436 17 0;
#P button 605 436 17 0;
#P window setfont "Sans Serif" 9.;
#P message 623 436 90 9109513 .;
#P hidden newex 824 436 40 9109513 t l b l;
#P hidden newex 895 436 27 9109513 gate;
#P hidden newex 923 436 142 9109513 print scrlt.rack.track.1.gen.par.4;
#P hidden newex 865 436 29 9109513 _ set;
#P hidden newex 1080 436 127 9109513 r scrlt.rack.track.1.gen.par.4;
#P hidden newex 824 436 40 9109513 t l b l;
#P window setfont "Sans Serif" 12.;
#P comment 401 418 156 9109516 scrlt.rack.track.1.gen.par.3;
#P toggle 587 418 17 0;
#P button 605 418 17 0;
#P window setfont "Sans Serif" 9.;
#P message 623 418 90 9109513 .;
#P hidden newex 824 418 40 9109513 t l b l;
#P hidden newex 895 418 27 9109513 gate;
#P hidden newex 923 418 142 9109513 print scrlt.rack.track.1.gen.par.3;
#P hidden newex 865 418 29 9109513 _ set;
#P hidden newex 1080 418 127 9109513 r scrlt.rack.track.1.gen.par.3;
#P hidden newex 824 418 40 9109513 t l b l;
#P window setfont "Sans Serif" 12.;
#P comment 401 400 156 9109516 scrlt.rack.track.1.gen.par.2;
#P toggle 587 400 17 0;
#P button 605 400 17 0;
#P window setfont "Sans Serif" 9.;
#P message 623 400 90 9109513 .;
#P hidden newex 824 400 40 9109513 t l b l;
#P hidden newex 895 400 27 9109513 gate;
#P hidden newex 923 400 142 9109513 print scrlt.rack.track.1.gen.par.2;
#P hidden newex 865 400 29 9109513 _ set;
#P hidden newex 1080 400 127 9109513 r scrlt.rack.track.1.gen.par.2;
#P hidden newex 824 400 40 9109513 t l b l;
#P window setfont "Sans Serif" 12.;
#P comment 401 382 156 9109516 scrlt.rack.track.1.gen.par.1;
#P toggle 587 382 17 0;
#P button 605 382 17 0;
#P window setfont "Sans Serif" 9.;
#P message 623 382 90 9109513 .;
#P hidden newex 824 382 40 9109513 t l b l;
#P hidden newex 895 382 27 9109513 gate;
#P hidden newex 923 382 142 9109513 print scrlt.rack.track.1.gen.par.1;
#P hidden newex 865 382 29 9109513 _ set;
#P hidden newex 1080 382 127 9109513 r scrlt.rack.track.1.gen.par.1;
#P hidden newex 824 382 40 9109513 t l b l;
#P window setfont "Sans Serif" 12.;
#P comment 401 364 156 9109516 scrlt.rack.track.1.gen.par.0;
#P toggle 587 364 17 0;
#P button 605 364 17 0;
#P window setfont "Sans Serif" 9.;
#P message 623 364 90 9109513 .;
#P hidden newex 824 364 40 9109513 t l b l;
#P hidden newex 895 364 27 9109513 gate;
#P hidden newex 923 364 142 9109513 print scrlt.rack.track.1.gen.par.0;
#P hidden newex 865 364 29 9109513 _ set;
#P hidden newex 1080 364 127 9109513 r scrlt.rack.track.1.gen.par.0;
#P hidden newex 824 364 40 9109513 t l b l;
#P window setfont "Sans Serif" 12.;
#P comment 397 308 156 9109516 scrlt.rack.track.0.fx.1.par.2;
#P toggle 583 308 17 0;
#P button 601 308 17 0;
#P window setfont "Sans Serif" 9.;
#P message 619 308 90 9109513 .;
#P hidden newex 820 308 40 9109513 t l b l;
#P hidden newex 891 308 27 9109513 gate;
#P hidden newex 919 308 144 9109513 print scrlt.rack.track.0.fx.1.par.2;
#P hidden newex 861 308 29 9109513 _ set;
#P hidden newex 1076 308 129 9109513 r scrlt.rack.track.0.fx.1.par.2;
#P hidden newex 820 308 40 9109513 t l b l;
#P window setfont "Sans Serif" 12.;
#P comment 397 254 156 9109516 scrlt.rack.track.0.fx.1.drywet;
#P toggle 583 254 17 0;
#P button 601 254 17 0;
#P window setfont "Sans Serif" 9.;
#P message 619 254 90 9109513 .;
#P hidden newex 820 254 40 9109513 t l b l;
#P hidden newex 891 254 27 9109513 gate;
#P hidden newex 919 254 151 9109513 print scrlt.rack.track.0.fx.1.drywet;
#P hidden newex 861 254 29 9109513 _ set;
#P hidden newex 1076 254 136 9109513 r scrlt.rack.track.0.fx.1.drywet;
#P hidden newex 820 254 40 9109513 t l b l;
#P window setfont "Sans Serif" 12.;
#P comment 397 236 156 9109516 scrlt.rack.track.0.fx.1.bypass;
#P toggle 583 236 17 0;
#P button 601 236 17 0;
#P window setfont "Sans Serif" 9.;
#P message 619 236 90 9109513 .;
#P hidden newex 820 236 40 9109513 t l b l;
#P hidden newex 891 236 27 9109513 gate;
#P hidden newex 919 236 154 9109513 print scrlt.rack.track.0.fx.1.bypass;
#P hidden newex 861 236 29 9109513 _ set;
#P hidden newex 1076 236 139 9109513 r scrlt.rack.track.0.fx.1.bypass;
#P hidden newex 820 236 40 9109513 t l b l;
#P window setfont "Sans Serif" 12.;
#P comment 397 290 156 9109516 scrlt.rack.track.0.fx.1.par.1;
#P toggle 583 290 17 0;
#P button 601 290 17 0;
#P window setfont "Sans Serif" 9.;
#P message 619 290 90 9109513 .;
#P hidden newex 820 290 40 9109513 t l b l;
#P hidden newex 891 290 27 9109513 gate;
#P hidden newex 919 290 144 9109513 print scrlt.rack.track.0.fx.1.par.1;
#P hidden newex 861 290 29 9109513 _ set;
#P hidden newex 1076 290 129 9109513 r scrlt.rack.track.0.fx.1.par.1;
#P hidden newex 820 290 40 9109513 t l b l;
#P window setfont "Sans Serif" 12.;
#P comment 397 272 156 9109516 scrlt.rack.track.0.fx.1.par.0;
#P toggle 583 272 17 0;
#P button 601 272 17 0;
#P window setfont "Sans Serif" 9.;
#P message 619 272 90 9109513 .;
#P hidden newex 820 272 40 9109513 t l b l;
#P hidden newex 891 272 27 9109513 gate;
#P hidden newex 919 272 144 9109513 print scrlt.rack.track.0.fx.1.par.0;
#P hidden newex 861 272 29 9109513 _ set;
#P hidden newex 1076 272 129 9109513 r scrlt.rack.track.0.fx.1.par.0;
#P hidden newex 820 272 40 9109513 t l b l;
#P window setfont "Sans Serif" 12.;
#P comment 397 182 156 9109516 scrlt.rack.track.0.fx.0.drywet;
#P toggle 583 182 17 0;
#P button 601 182 17 0;
#P window setfont "Sans Serif" 9.;
#P message 619 182 90 9109513 .;
#P hidden newex 820 182 40 9109513 t l b l;
#P hidden newex 891 182 27 9109513 gate;
#P hidden newex 919 182 151 9109513 print scrlt.rack.track.0.fx.0.drywet;
#P hidden newex 861 182 29 9109513 _ set;
#P hidden newex 1076 182 136 9109513 r scrlt.rack.track.0.fx.0.drywet;
#P hidden newex 820 182 40 9109513 t l b l;
#P window setfont "Sans Serif" 12.;
#P comment 397 164 156 9109516 scrlt.rack.track.0.fx.0.bypass;
#P toggle 583 164 17 0;
#P button 601 164 17 0;
#P window setfont "Sans Serif" 9.;
#P message 619 164 90 9109513 .;
#P hidden newex 820 164 40 9109513 t l b l;
#P hidden newex 891 164 27 9109513 gate;
#P hidden newex 919 164 154 9109513 print scrlt.rack.track.0.fx.0.bypass;
#P hidden newex 861 164 29 9109513 _ set;
#P hidden newex 1076 164 139 9109513 r scrlt.rack.track.0.fx.0.bypass;
#P hidden newex 820 164 40 9109513 t l b l;
#P window setfont "Sans Serif" 12.;
#P comment 397 218 156 9109516 scrlt.rack.track.0.fx.0.par.1;
#P toggle 583 218 17 0;
#P button 601 218 17 0;
#P window setfont "Sans Serif" 9.;
#P message 619 218 90 9109513 .;
#P hidden newex 820 218 40 9109513 t l b l;
#P hidden newex 891 218 27 9109513 gate;
#P hidden newex 919 218 144 9109513 print scrlt.rack.track.0.fx.0.par.1;
#P hidden newex 861 218 29 9109513 _ set;
#P hidden newex 1076 218 129 9109513 r scrlt.rack.track.0.fx.0.par.1;
#P hidden newex 820 218 40 9109513 t l b l;
#P window setfont "Sans Serif" 12.;
#P comment 397 200 156 9109516 scrlt.rack.track.0.fx.0.par.0;
#P toggle 583 200 17 0;
#P button 601 200 17 0;
#P window setfont "Sans Serif" 9.;
#P message 619 200 90 9109513 .;
#P hidden newex 820 200 40 9109513 t l b l;
#P hidden newex 891 200 27 9109513 gate;
#P hidden newex 919 200 144 9109513 print scrlt.rack.track.0.fx.0.par.0;
#P hidden newex 861 200 29 9109513 _ set;
#P hidden newex 1076 200 129 9109513 r scrlt.rack.track.0.fx.0.par.0;
#P hidden newex 820 200 40 9109513 t l b l;
#P window setfont "Sans Serif" 12.;
#P comment 397 146 156 9109516 scrlt.rack.track.0.gen.par.5;
#P toggle 583 146 17 0;
#P button 601 146 17 0;
#P window setfont "Sans Serif" 9.;
#P message 619 146 90 9109513 .;
#P hidden newex 820 146 40 9109513 t l b l;
#P hidden newex 891 146 27 9109513 gate;
#P hidden newex 919 146 142 9109513 print scrlt.rack.track.0.gen.par.5;
#P hidden newex 861 146 29 9109513 _ set;
#P hidden newex 1076 146 127 9109513 r scrlt.rack.track.0.gen.par.5;
#P hidden newex 820 146 40 9109513 t l b l;
#P window setfont "Sans Serif" 12.;
#P comment 397 128 156 9109516 scrlt.rack.track.0.gen.par.4;
#P toggle 583 128 17 0;
#P button 601 128 17 0;
#P window setfont "Sans Serif" 9.;
#P message 619 128 90 9109513 .;
#P hidden newex 820 128 40 9109513 t l b l;
#P hidden newex 891 128 27 9109513 gate;
#P hidden newex 919 128 142 9109513 print scrlt.rack.track.0.gen.par.4;
#P hidden newex 861 128 29 9109513 _ set;
#P hidden newex 1076 128 127 9109513 r scrlt.rack.track.0.gen.par.4;
#P hidden newex 820 128 40 9109513 t l b l;
#P window setfont "Sans Serif" 12.;
#P comment 397 110 156 9109516 scrlt.rack.track.0.gen.par.3;
#P toggle 583 110 17 0;
#P button 601 110 17 0;
#P window setfont "Sans Serif" 9.;
#P message 619 110 90 9109513 .;
#P hidden newex 820 110 40 9109513 t l b l;
#P hidden newex 891 110 27 9109513 gate;
#P hidden newex 919 110 142 9109513 print scrlt.rack.track.0.gen.par.3;
#P hidden newex 861 110 29 9109513 _ set;
#P hidden newex 1076 110 127 9109513 r scrlt.rack.track.0.gen.par.3;
#P hidden newex 820 110 40 9109513 t l b l;
#P window setfont "Sans Serif" 12.;
#P comment 397 92 156 9109516 scrlt.rack.track.0.gen.par.2;
#P toggle 583 92 17 0;
#P button 601 92 17 0;
#P window setfont "Sans Serif" 9.;
#P message 619 92 90 9109513 .;
#P hidden newex 820 92 40 9109513 t l b l;
#P hidden newex 891 92 27 9109513 gate;
#P hidden newex 919 92 142 9109513 print scrlt.rack.track.0.gen.par.2;
#P hidden newex 861 92 29 9109513 _ set;
#P hidden newex 1076 92 127 9109513 r scrlt.rack.track.0.gen.par.2;
#P hidden newex 820 92 40 9109513 t l b l;
#P window setfont "Sans Serif" 12.;
#P comment 397 74 156 9109516 scrlt.rack.track.0.gen.par.1;
#P toggle 583 74 17 0;
#P button 601 74 17 0;
#P window setfont "Sans Serif" 9.;
#P message 619 74 90 9109513 .;
#P hidden newex 820 74 40 9109513 t l b l;
#P hidden newex 891 74 27 9109513 gate;
#P hidden newex 919 74 142 9109513 print scrlt.rack.track.0.gen.par.1;
#P hidden newex 861 74 29 9109513 _ set;
#P hidden newex 1076 74 127 9109513 r scrlt.rack.track.0.gen.par.1;
#P hidden newex 820 74 40 9109513 t l b l;
#P window setfont "Sans Serif" 12.;
#P comment 397 56 156 9109516 scrlt.rack.track.0.gen.par.0;
#P toggle 583 56 17 0;
#P button 601 56 17 0;
#P window setfont "Sans Serif" 9.;
#P message 619 56 90 9109513 .;
#P hidden newex 820 56 40 9109513 t l b l;
#P hidden newex 891 56 27 9109513 gate;
#P hidden newex 919 56 142 9109513 print scrlt.rack.track.0.gen.par.0;
#P hidden newex 861 56 29 9109513 _ set;
#P hidden newex 1076 56 127 9109513 r scrlt.rack.track.0.gen.par.0;
#P hidden newex 820 56 40 9109513 t l b l;
#P window setfont "Sans Serif" 12.;
#P comment 4 590 126 9109516 scrlt.mix.chan.3.mute;
#P toggle 190 591 17 0;
#P button 208 591 17 0;
#P window setfont "Sans Serif" 9.;
#P message 226 591 90 9109513 .;
#P hidden newex 8 1453 40 9109513 t l b l;
#P hidden newex 79 1453 27 9109513 gate;
#P hidden newex 107 1453 120 9109513 print scrlt.mix.chan.3.mute;
#P hidden newex 49 1453 29 9109513 _ set;
#P hidden newex 264 1453 105 9109513 r scrlt.mix.chan.3.mute;
#P hidden newex 8 1453 40 9109513 t l b l;
#P window setfont "Sans Serif" 12.;
#P comment 4 680 134 9109516 scrlt.mix.chan.3.aux.1;
#P toggle 190 681 17 0;
#P button 208 681 17 0;
#P window setfont "Sans Serif" 9.;
#P message 226 681 90 9109513 .;
#P hidden newex 8 1566 40 9109513 t l b l;
#P hidden newex 79 1566 27 9109513 gate;
#P hidden newex 107 1566 122 9109513 print scrlt.mix.chan.3.aux.1;
#P hidden newex 49 1566 29 9109513 _ set;
#P hidden newex 264 1566 107 9109513 r scrlt.mix.chan.3.aux.1;
#P window setfont "Sans Serif" 12.;
#P comment 4 662 137 9109516 scrlt.mix.chan.3.aux.0;
#P toggle 190 663 17 0;
#P button 208 663 17 0;
#P window setfont "Sans Serif" 9.;
#P message 226 663 90 9109513 .;
#P hidden newex 8 1543 40 9109513 t l b l;
#P hidden newex 79 1543 27 9109513 gate;
#P hidden newex 107 1543 122 9109513 print scrlt.mix.chan.3.aux.0;
#P hidden newex 49 1543 29 9109513 _ set;
#P hidden newex 264 1543 107 9109513 r scrlt.mix.chan.3.aux.0;
#P window setfont "Sans Serif" 12.;
#P comment 4 644 160 9109516 scrlt.mix.chan.3.aux.prefade;
#P toggle 190 645 17 0;
#P button 208 645 17 0;
#P window setfont "Sans Serif" 9.;
#P message 226 645 90 9109513 .;
#P hidden newex 8 1520 40 9109513 t l b l;
#P hidden newex 79 1520 27 9109513 gate;
#P hidden newex 107 1520 149 9109513 print scrlt.mix.chan.3.aux.prefade;
#P hidden newex 49 1520 29 9109513 _ set;
#P hidden newex 264 1520 134 9109513 r scrlt.mix.chan.3.aux.prefade;
#P window setfont "Sans Serif" 12.;
#P comment 4 626 134 9109516 scrlt.mix.chan.3.mon;
#P toggle 190 627 17 0;
#P button 208 627 17 0;
#P window setfont "Sans Serif" 9.;
#P message 226 627 90 9109513 .;
#P hidden newex 8 1497 40 9109513 t l b l;
#P hidden newex 79 1497 27 9109513 gate;
#P hidden newex 107 1497 117 9109513 print scrlt.mix.chan.3.mon;
#P hidden newex 49 1497 29 9109513 _ set;
#P hidden newex 264 1497 102 9109513 r scrlt.mix.chan.3.mon;
#P window setfont "Sans Serif" 12.;
#P comment 4 608 137 9109516 scrlt.mix.chan.3.lvl;
#P toggle 190 609 17 0;
#P button 208 609 17 0;
#P window setfont "Sans Serif" 9.;
#P message 226 609 90 9109513 .;
#P hidden newex 8 1474 40 9109513 t l b l;
#P hidden newex 79 1474 27 9109513 gate;
#P hidden newex 107 1474 109 9109513 print scrlt.mix.chan.3.lvl;
#P hidden newex 49 1474 29 9109513 _ set;
#P hidden newex 264 1474 94 9109513 r scrlt.mix.chan.3.lvl;
#P hidden newex 8 1566 40 9109513 t l b l;
#P hidden newex 8 1543 40 9109513 t l b l;
#P hidden newex 8 1520 40 9109513 t l b l;
#P hidden newex 8 1497 40 9109513 t l b l;
#P hidden newex 8 1474 40 9109513 t l b l;
#P window setfont "Sans Serif" 12.;
#P comment 4 572 134 9109516 scrlt.mix.chan.2.aux.1;
#P toggle 190 573 17 0;
#P button 208 573 17 0;
#P window setfont "Sans Serif" 9.;
#P message 226 573 90 9109513 .;
#P hidden newex 7 1152 40 9109513 t l b l;
#P hidden newex 78 1152 27 9109513 gate;
#P hidden newex 106 1152 122 9109513 print scrlt.mix.chan.2.aux.1;
#P hidden newex 48 1152 29 9109513 _ set;
#P hidden newex 263 1152 107 9109513 r scrlt.mix.chan.2.aux.1;
#P window setfont "Sans Serif" 12.;
#P comment 4 554 137 9109516 scrlt.mix.chan.2.aux.0;
#P toggle 190 555 17 0;
#P button 208 555 17 0;
#P window setfont "Sans Serif" 9.;
#P message 226 555 90 9109513 .;
#P hidden newex 7 1129 40 9109513 t l b l;
#P hidden newex 78 1129 27 9109513 gate;
#P hidden newex 106 1129 122 9109513 print scrlt.mix.chan.2.aux.0;
#P hidden newex 48 1129 29 9109513 _ set;
#P hidden newex 263 1129 107 9109513 r scrlt.mix.chan.2.aux.0;
#P window setfont "Sans Serif" 12.;
#P comment 4 536 160 9109516 scrlt.mix.chan.2.aux.prefade;
#P toggle 190 537 17 0;
#P button 208 537 17 0;
#P window setfont "Sans Serif" 9.;
#P message 226 537 90 9109513 .;
#P hidden newex 7 1106 40 9109513 t l b l;
#P hidden newex 78 1106 27 9109513 gate;
#P hidden newex 106 1106 149 9109513 print scrlt.mix.chan.2.aux.prefade;
#P hidden newex 48 1106 29 9109513 _ set;
#P hidden newex 263 1106 134 9109513 r scrlt.mix.chan.2.aux.prefade;
#P window setfont "Sans Serif" 12.;
#P comment 4 518 134 9109516 scrlt.mix.chan.2.mon;
#P toggle 190 519 17 0;
#P button 208 519 17 0;
#P window setfont "Sans Serif" 9.;
#P message 226 519 90 9109513 .;
#P hidden newex 7 1083 40 9109513 t l b l;
#P hidden newex 78 1083 27 9109513 gate;
#P hidden newex 106 1083 117 9109513 print scrlt.mix.chan.2.mon;
#P hidden newex 48 1083 29 9109513 _ set;
#P hidden newex 263 1083 102 9109513 r scrlt.mix.chan.2.mon;
#P window setfont "Sans Serif" 12.;
#P comment 4 500 137 9109516 scrlt.mix.chan.2.lvl;
#P toggle 190 501 17 0;
#P button 208 501 17 0;
#P window setfont "Sans Serif" 9.;
#P message 226 501 90 9109513 .;
#P hidden newex 7 1060 40 9109513 t l b l;
#P hidden newex 78 1060 27 9109513 gate;
#P hidden newex 106 1060 109 9109513 print scrlt.mix.chan.2.lvl;
#P hidden newex 48 1060 29 9109513 _ set;
#P hidden newex 263 1060 94 9109513 r scrlt.mix.chan.2.lvl;
#P window setfont "Sans Serif" 12.;
#P comment 4 482 126 9109516 scrlt.mix.chan.2.mute;
#P toggle 190 483 17 0;
#P button 208 483 17 0;
#P window setfont "Sans Serif" 9.;
#P message 226 483 90 9109513 .;
#P hidden newex 7 1037 40 9109513 t l b l;
#P hidden newex 78 1037 27 9109513 gate;
#P hidden newex 106 1037 120 9109513 print scrlt.mix.chan.2.mute;
#P hidden newex 48 1037 29 9109513 _ set;
#P hidden newex 263 1037 105 9109513 r scrlt.mix.chan.2.mute;
#P hidden newex 7 1152 40 9109513 t l b l;
#P hidden newex 7 1129 40 9109513 t l b l;
#P hidden newex 7 1106 40 9109513 t l b l;
#P hidden newex 7 1083 40 9109513 t l b l;
#P hidden newex 7 1060 40 9109513 t l b l;
#P hidden newex 7 1037 40 9109513 t l b l;
#P window setfont "Sans Serif" 12.;
#P comment 4 68 83 9109516 scrlt.bcr.ctlin;
#P toggle 190 69 17 0;
#P button 208 69 17 0;
#P window setfont "Sans Serif" 9.;
#P message 226 69 90 9109513 .;
#P hidden newex 7 748 40 9109513 t l b l;
#P hidden newex 78 748 27 9109513 gate;
#P hidden newex 106 748 83 9109513 print scrlt.bcr.ctlin;
#P hidden newex 48 748 29 9109513 _ set;
#P hidden newex 263 748 68 9109513 r scrlt.bcr.ctlin;
#P hidden newex 7 748 40 9109513 t l b l;
#P window setfont "Sans Serif" 12.;
#P comment 4 464 134 9109516 scrlt.mix.chan.1.aux.1;
#P toggle 190 465 17 0;
#P button 208 465 17 0;
#P window setfont "Sans Serif" 9.;
#P message 226 465 90 9109513 .;
#P hidden newex 8 1416 40 9109513 t l b l;
#P hidden newex 79 1416 27 9109513 gate;
#P hidden newex 107 1416 122 9109513 print scrlt.mix.chan.1.aux.1;
#P hidden newex 49 1416 29 9109513 _ set;
#P hidden newex 264 1416 107 9109513 r scrlt.mix.chan.1.aux.1;
#P window setfont "Sans Serif" 12.;
#P comment 4 446 137 9109516 scrlt.mix.chan.1.aux.0;
#P toggle 190 447 17 0;
#P button 208 447 17 0;
#P window setfont "Sans Serif" 9.;
#P message 226 447 90 9109513 .;
#P hidden newex 8 1393 40 9109513 t l b l;
#P hidden newex 79 1393 27 9109513 gate;
#P hidden newex 107 1393 122 9109513 print scrlt.mix.chan.1.aux.0;
#P hidden newex 49 1393 29 9109513 _ set;
#P hidden newex 264 1393 107 9109513 r scrlt.mix.chan.1.aux.0;
#P window setfont "Sans Serif" 12.;
#P comment 4 428 160 9109516 scrlt.mix.chan.1.aux.prefade;
#P toggle 190 429 17 0;
#P button 208 429 17 0;
#P window setfont "Sans Serif" 9.;
#P message 226 429 90 9109513 .;
#P hidden newex 8 1370 40 9109513 t l b l;
#P hidden newex 79 1370 27 9109513 gate;
#P hidden newex 107 1370 149 9109513 print scrlt.mix.chan.1.aux.prefade;
#P hidden newex 49 1370 29 9109513 _ set;
#P hidden newex 264 1370 134 9109513 r scrlt.mix.chan.1.aux.prefade;
#P window setfont "Sans Serif" 12.;
#P comment 4 410 134 9109516 scrlt.mix.chan.1.mon;
#P toggle 190 411 17 0;
#P button 208 411 17 0;
#P window setfont "Sans Serif" 9.;
#P message 226 411 90 9109513 .;
#P hidden newex 8 1347 40 9109513 t l b l;
#P hidden newex 79 1347 27 9109513 gate;
#P hidden newex 107 1347 117 9109513 print scrlt.mix.chan.1.mon;
#P hidden newex 49 1347 29 9109513 _ set;
#P hidden newex 264 1347 102 9109513 r scrlt.mix.chan.1.mon;
#P window setfont "Sans Serif" 12.;
#P comment 4 392 137 9109516 scrlt.mix.chan.1.lvl;
#P toggle 190 393 17 0;
#P button 208 393 17 0;
#P window setfont "Sans Serif" 9.;
#P message 226 393 90 9109513 .;
#P hidden newex 8 1324 40 9109513 t l b l;
#P hidden newex 79 1324 27 9109513 gate;
#P hidden newex 107 1324 109 9109513 print scrlt.mix.chan.1.lvl;
#P hidden newex 49 1324 29 9109513 _ set;
#P hidden newex 264 1324 94 9109513 r scrlt.mix.chan.1.lvl;
#P window setfont "Sans Serif" 12.;
#P comment 4 374 126 9109516 scrlt.mix.chan.1.mute;
#P toggle 190 375 17 0;
#P button 208 375 17 0;
#P window setfont "Sans Serif" 9.;
#P message 226 375 90 9109513 .;
#P hidden newex 8 1301 40 9109513 t l b l;
#P hidden newex 79 1301 27 9109513 gate;
#P hidden newex 107 1301 120 9109513 print scrlt.mix.chan.1.mute;
#P hidden newex 49 1301 29 9109513 _ set;
#P hidden newex 264 1301 105 9109513 r scrlt.mix.chan.1.mute;
#P window setfont "Sans Serif" 12.;
#P comment 4 356 134 9109516 scrlt.mix.chan.0.aux.1;
#P toggle 190 357 17 0;
#P button 208 357 17 0;
#P window setfont "Sans Serif" 9.;
#P message 226 357 90 9109513 .;
#P hidden newex 7 1002 40 9109513 t l b l;
#P hidden newex 78 1002 27 9109513 gate;
#P hidden newex 106 1002 122 9109513 print scrlt.mix.chan.0.aux.1;
#P hidden newex 48 1002 29 9109513 _ set;
#P hidden newex 263 1002 107 9109513 r scrlt.mix.chan.0.aux.1;
#P window setfont "Sans Serif" 12.;
#P comment 4 338 137 9109516 scrlt.mix.chan.0.aux.0;
#P toggle 190 339 17 0;
#P button 208 339 17 0;
#P window setfont "Sans Serif" 9.;
#P message 226 339 90 9109513 .;
#P hidden newex 7 979 40 9109513 t l b l;
#P hidden newex 78 979 27 9109513 gate;
#P hidden newex 106 979 122 9109513 print scrlt.mix.chan.0.aux.0;
#P hidden newex 48 979 29 9109513 _ set;
#P hidden newex 263 979 107 9109513 r scrlt.mix.chan.0.aux.0;
#P window setfont "Sans Serif" 12.;
#P comment 4 320 160 9109516 scrlt.mix.chan.0.aux.prefade;
#P toggle 190 321 17 0;
#P button 208 321 17 0;
#P window setfont "Sans Serif" 9.;
#P message 226 321 90 9109513 .;
#P hidden newex 7 956 40 9109513 t l b l;
#P hidden newex 78 956 27 9109513 gate;
#P hidden newex 106 956 149 9109513 print scrlt.mix.chan.0.aux.prefade;
#P hidden newex 48 956 29 9109513 _ set;
#P hidden newex 263 956 134 9109513 r scrlt.mix.chan.0.aux.prefade;
#P window setfont "Sans Serif" 12.;
#P comment 4 302 134 9109516 scrlt.mix.chan.0.mon;
#P toggle 190 303 17 0;
#P button 208 303 17 0;
#P window setfont "Sans Serif" 9.;
#P message 226 303 90 9109513 .;
#P hidden newex 7 933 40 9109513 t l b l;
#P hidden newex 78 933 27 9109513 gate;
#P hidden newex 106 933 117 9109513 print scrlt.mix.chan.0.mon;
#P hidden newex 48 933 29 9109513 _ set;
#P hidden newex 263 933 102 9109513 r scrlt.mix.chan.0.mon;
#P window setfont "Sans Serif" 12.;
#P comment 4 284 137 9109516 scrlt.mix.chan.0.lvl;
#P toggle 190 285 17 0;
#P button 208 285 17 0;
#P window setfont "Sans Serif" 9.;
#P message 226 285 90 9109513 .;
#P hidden newex 7 910 40 9109513 t l b l;
#P hidden newex 78 910 27 9109513 gate;
#P hidden newex 106 910 109 9109513 print scrlt.mix.chan.0.lvl;
#P hidden newex 48 910 29 9109513 _ set;
#P hidden newex 263 910 94 9109513 r scrlt.mix.chan.0.lvl;
#P window setfont "Sans Serif" 12.;
#P comment 4 266 126 9109516 scrlt.mix.chan.0.mute;
#P toggle 190 267 17 0;
#P button 208 267 17 0;
#P window setfont "Sans Serif" 9.;
#P message 226 267 90 9109513 .;
#P hidden newex 7 887 40 9109513 t l b l;
#P hidden newex 78 887 27 9109513 gate;
#P hidden newex 106 887 120 9109513 print scrlt.mix.chan.0.mute;
#P hidden newex 48 887 29 9109513 _ set;
#P hidden newex 263 887 105 9109513 r scrlt.mix.chan.0.mute;
#P window setfont "Sans Serif" 12.;
#P comment 4 158 86 9109516 scrlt.trans.pos;
#P toggle 190 159 17 0;
#P button 208 159 17 0;
#P window setfont "Sans Serif" 9.;
#P message 226 159 90 9109513 .;
#P hidden newex 7 860 40 9109513 t l b l;
#P hidden newex 78 860 27 9109513 gate;
#P hidden newex 106 860 89 9109513 print scrlt.trans.pos;
#P hidden newex 48 860 29 9109513 _ set;
#P hidden newex 263 860 74 9109513 r scrlt.trans.pos;
#P window setfont "Sans Serif" 12.;
#P comment 4 122 92 9109516 scrlt.trans.state;
#P toggle 190 123 17 0;
#P button 208 123 17 0;
#P window setfont "Sans Serif" 9.;
#P message 226 123 90 9109513 .;
#P hidden newex 7 818 40 9109513 t l b l;
#P hidden newex 78 818 27 9109513 gate;
#P hidden newex 106 818 95 9109513 print scrlt.trans.state;
#P hidden newex 48 818 29 9109513 _ set;
#P hidden newex 263 818 80 9109513 r scrlt.trans.state;
#P window setfont "Sans Serif" 12.;
#P comment 4 140 90 9109516 scrlt.trans.bpm;
#P toggle 190 141 17 0;
#P button 208 141 17 0;
#P window setfont "Sans Serif" 9.;
#P message 226 141 90 9109513 .;
#P hidden newex 7 839 40 9109513 t l b l;
#P hidden newex 78 839 27 9109513 gate;
#P hidden newex 106 839 92 9109513 print scrlt.trans.bpm;
#P hidden newex 48 839 29 9109513 _ set;
#P hidden newex 263 839 77 9109513 r scrlt.trans.bpm;
#P window setfont "Sans Serif" 12.;
#P comment 4 194 105 9109516 scrlt.mix.io.mon;
#P toggle 190 195 17 0;
#P button 208 195 17 0;
#P window setfont "Sans Serif" 9.;
#P message 226 195 90 9109513 .;
#P hidden newex 8 1200 40 9109513 t l b l;
#P hidden newex 79 1200 27 9109513 gate;
#P hidden newex 107 1200 96 9109513 print scrlt.mix.io.mon;
#P hidden newex 49 1200 29 9109513 _ set;
#P hidden newex 264 1200 81 9109513 r scrlt.mix.io.mon;
#P window setfont "Sans Serif" 12.;
#P comment 4 176 108 9109516 scrlt.mix.io.main;
#P toggle 190 177 17 0;
#P button 208 177 17 0;
#P window setfont "Sans Serif" 9.;
#P message 226 177 90 9109513 .;
#P hidden newex 8 1176 40 9109513 t l b l;
#P hidden newex 79 1176 27 9109513 gate;
#P hidden newex 107 1176 98 9109513 print scrlt.mix.io.main;
#P hidden newex 49 1176 29 9109513 _ set;
#P hidden newex 264 1176 83 9109513 r scrlt.mix.io.main;
#P window setfont "Sans Serif" 12.;
#P comment 4 248 134 9109516 scrlt.mix.master.mon;
#P toggle 190 249 17 0;
#P button 208 249 17 0;
#P window setfont "Sans Serif" 9.;
#P message 226 249 90 9109513 .;
#P hidden newex 8 1269 40 9109513 t l b l;
#P hidden newex 79 1269 27 9109513 gate;
#P hidden newex 107 1269 118 9109513 print scrlt.mix.master.mon;
#P hidden newex 49 1269 29 9109513 _ set;
#P hidden newex 264 1269 103 9109513 r scrlt.mix.master.mon;
#P window setfont "Sans Serif" 12.;
#P comment 4 230 137 9109516 scrlt.mix.master.lvl;
#P toggle 190 231 17 0;
#P button 208 231 17 0;
#P window setfont "Sans Serif" 9.;
#P message 226 231 90 9109513 .;
#P hidden newex 8 1246 40 9109513 t l b l;
#P hidden newex 79 1246 27 9109513 gate;
#P hidden newex 107 1246 110 9109513 print scrlt.mix.master.lvl;
#P hidden newex 49 1246 29 9109513 _ set;
#P hidden newex 264 1246 95 9109513 r scrlt.mix.master.lvl;
#P window setfont "Sans Serif" 12.;
#P comment 4 212 126 9109516 scrlt.mix.master.mute;
#P toggle 190 213 17 0;
#P button 208 213 17 0;
#P window setfont "Sans Serif" 9.;
#P message 226 213 90 9109513 .;
#P hidden newex 8 1223 40 9109513 t l b l;
#P hidden newex 79 1223 27 9109513 gate;
#P hidden newex 107 1223 121 9109513 print scrlt.mix.master.mute;
#P hidden newex 49 1223 29 9109513 _ set;
#P hidden newex 264 1223 106 9109513 r scrlt.mix.master.mute;
#P window setfont "Sans Serif" 12.;
#P comment 4 104 79 9109516 scrlt.bcr.map;
#P toggle 190 105 17 0;
#P button 208 105 17 0;
#P window setfont "Sans Serif" 9.;
#P message 226 105 90 9109513 .;
#P hidden newex 7 792 40 9109513 t l b l;
#P hidden newex 78 792 27 9109513 gate;
#P hidden newex 106 792 84 9109513 print scrlt.bcr.map;
#P hidden newex 48 792 29 9109513 _ set;
#P hidden newex 263 792 69 9109513 r scrlt.bcr.map;
#P window setfont "Sans Serif" 12.;
#P comment 4 86 83 9109516 scrlt.bcr.ctlout;
#P toggle 190 87 17 0;
#P button 208 87 17 0;
#P window setfont "Sans Serif" 9.;
#P message 226 87 90 9109513 .;
#P hidden newex 7 774 40 9109513 t l b l;
#P hidden newex 78 774 27 9109513 gate;
#P hidden newex 106 774 89 9109513 print scrlt.bcr.ctlout;
#P hidden newex 48 774 29 9109513 _ set;
#P hidden newex 263 774 74 9109513 r scrlt.bcr.ctlout;
#P comment 226 38 38 9109513 VALUE;
#P comment 208 38 14 9109513 !!;
#P window setfont "Arial Black" 14.;
#P comment 0 38 56 10551310 debug;
#P window setfont "Sans Serif" 9.;
#P comment 190 38 14 9109513 P;
#P hidden newex 8 1416 40 9109513 t l b l;
#P hidden newex 8 1393 40 9109513 t l b l;
#P hidden newex 8 1370 40 9109513 t l b l;
#P hidden newex 8 1347 40 9109513 t l b l;
#P hidden newex 8 1324 40 9109513 t l b l;
#P hidden newex 8 1301 40 9109513 t l b l;
#P hidden newex 7 1002 40 9109513 t l b l;
#P hidden newex 7 979 40 9109513 t l b l;
#P hidden newex 7 956 40 9109513 t l b l;
#P hidden newex 7 933 40 9109513 t l b l;
#P hidden newex 7 910 40 9109513 t l b l;
#P hidden newex 7 887 40 9109513 t l b l;
#P hidden newex 7 860 40 9109513 t l b l;
#P hidden newex 7 818 40 9109513 t l b l;
#P hidden newex 7 839 40 9109513 t l b l;
#P hidden newex 8 1200 40 9109513 t l b l;
#P hidden newex 8 1176 40 9109513 t l b l;
#P hidden newex 8 1269 40 9109513 t l b l;
#P hidden newex 8 1246 40 9109513 t l b l;
#P hidden newex 8 1223 40 9109513 t l b l;
#P hidden newex 7 792 40 9109513 t l b l;
#P hidden newex 7 774 40 9109513 t l b l;
#P hidden connect 226 0 224 0;
#P hidden connect 225 0 229 0;
#P hidden connect 27 0 0 0;
#P hidden connect 26 0 30 0;
#P hidden connect 35 0 1 0;
#P hidden connect 35 0 39 0;
#P hidden connect 98 0 102 0;
#P hidden connect 83 0 7 0;
#P hidden connect 89 0 93 0;
#P hidden connect 107 0 111 0;
#P hidden connect 99 0 9 0;
#P hidden connect 107 0 10 0;
#P hidden connect 11 1 120 0;
#P hidden connect 116 0 120 0;
#P hidden connect 125 0 129 0;
#P hidden connect 123 0 12 0;
#P hidden connect 134 0 138 0;
#P hidden connect 131 0 13 0;
#P hidden connect 143 0 147 0;
#P hidden connect 16 2 156 0;
#P hidden connect 139 0 14 0;
#P hidden connect 152 0 156 0;
#P hidden connect 147 0 15 0;
#P hidden connect 161 0 165 0;
#P hidden connect 240 0 244 0;
#P hidden connect 249 0 253 0;
#P hidden connect 241 0 236 0;
#P hidden connect 258 0 262 0;
#P hidden connect 238 1 262 0;
#P hidden connect 249 0 237 0;
#P hidden connect 267 0 271 0;
#P hidden connect 276 0 280 0;
#P hidden connect 265 0 239 0;
#P hidden connect 285 0 289 0;
#P hidden connect 67 0 5 0;
#P hidden connect 71 0 75 0;
#P hidden connect 75 0 6 0;
#P hidden connect 7 2 84 0;
#P hidden connect 80 0 84 0;
#P hidden connect 2 1 48 0;
#P hidden connect 44 0 48 0;
#P hidden connect 51 0 3 0;
#P hidden connect 53 0 57 0;
#P hidden connect 59 0 4 0;
#P hidden connect 62 0 66 0;
#P hidden connect 155 0 16 0;
#P hidden connect 170 0 174 0;
#P hidden connect 179 0 183 0;
#P hidden connect 171 0 18 0;
#P hidden connect 20 1 192 0;
#P hidden connect 188 0 192 0;
#P hidden connect 179 0 19 0;
#P hidden connect 197 0 201 0;
#P hidden connect 206 0 210 0;
#P hidden connect 195 0 21 0;
#P hidden connect 215 0 219 0;
#P hidden connect 345 0 349 0;
#P hidden connect 299 0 303 0;
#P hidden connect 308 0 312 0;
#P hidden connect 297 1 312 0;
#P hidden connect 299 0 296 0;
#P hidden connect 317 0 321 0;
#P hidden connect 326 0 330 0;
#P hidden connect 315 0 298 0;
#P hidden connect 335 0 339 0;
#P hidden connect 229 2 226 0;
#P hidden connect 30 2 27 0;
#P hidden connect 1 2 36 0;
#P hidden connect 39 2 36 0;
#P hidden connect 102 2 99 0;
#P hidden connect 93 2 90 0;
#P hidden connect 10 2 108 0;
#P hidden connect 111 2 108 0;
#P hidden connect 120 2 117 0;
#P hidden connect 129 2 126 0;
#P hidden connect 138 2 135 0;
#P hidden connect 14 1 144 0;
#P hidden connect 147 2 144 0;
#P hidden connect 156 2 153 0;
#P hidden connect 165 2 162 0;
#P hidden connect 244 2 241 0;
#P hidden connect 253 2 250 0;
#P hidden connect 237 2 250 0;
#P hidden connect 262 2 259 0;
#P hidden connect 271 2 268 0;
#P hidden connect 280 2 277 0;
#P hidden connect 289 2 286 0;
#P hidden connect 5 1 72 0;
#P hidden connect 75 2 72 0;
#P hidden connect 84 2 81 0;
#P hidden connect 48 2 45 0;
#P hidden connect 57 2 54 0;
#P hidden connect 66 2 63 0;
#P hidden connect 174 2 171 0;
#P hidden connect 19 2 180 0;
#P hidden connect 183 2 180 0;
#P hidden connect 192 2 189 0;
#P hidden connect 201 2 198 0;
#P hidden connect 210 2 207 0;
#P hidden connect 219 2 216 0;
#P hidden connect 349 2 346 0;
#P hidden connect 296 2 300 0;
#P hidden connect 303 2 300 0;
#P hidden connect 312 2 309 0;
#P hidden connect 321 2 318 0;
#P hidden connect 330 2 327 0;
#P hidden connect 339 2 336 0;
#P hidden connect 232 0 228 0;
#P hidden connect 33 0 29 0;
#P hidden connect 42 0 38 0;
#P hidden connect 105 0 101 0;
#P hidden connect 8 2 92 0;
#P hidden connect 96 0 92 0;
#P hidden connect 114 0 110 0;
#P hidden connect 123 0 119 0;
#P hidden connect 12 1 128 0;
#P hidden connect 132 0 128 0;
#P hidden connect 141 0 137 0;
#P hidden connect 150 0 146 0;
#P hidden connect 159 0 155 0;
#P hidden connect 17 2 164 0;
#P hidden connect 168 0 164 0;
#P hidden connect 247 0 243 0;
#P hidden connect 256 0 252 0;
#P hidden connect 265 0 261 0;
#P hidden connect 274 0 270 0;
#P hidden connect 239 1 270 0;
#P hidden connect 283 0 279 0;
#P hidden connect 292 0 288 0;
#P hidden connect 78 0 74 0;
#P hidden connect 87 0 83 0;
#P hidden connect 51 0 47 0;
#P hidden connect 3 1 56 0;
#P hidden connect 60 0 56 0;
#P hidden connect 69 0 65 0;
#P hidden connect 177 0 173 0;
#P hidden connect 186 0 182 0;
#P hidden connect 195 0 191 0;
#P hidden connect 21 1 200 0;
#P hidden connect 204 0 200 0;
#P hidden connect 213 0 209 0;
#P hidden connect 222 0 218 0;
#P hidden connect 352 0 348 0;
#P hidden connect 306 0 302 0;
#P hidden connect 315 0 311 0;
#P hidden connect 298 1 320 0;
#P hidden connect 324 0 320 0;
#P hidden connect 333 0 329 0;
#P hidden connect 342 0 338 0;
#P hidden connect 229 0 228 1;
#P hidden connect 30 0 29 1;
#P hidden connect 1 0 38 1;
#P hidden connect 39 0 38 1;
#P hidden connect 102 0 101 1;
#P hidden connect 93 0 92 1;
#P hidden connect 10 0 110 1;
#P hidden connect 111 0 110 1;
#P hidden connect 120 0 119 1;
#P hidden connect 129 0 128 1;
#P hidden connect 138 0 137 1;
#P hidden connect 147 0 146 1;
#P hidden connect 156 0 155 1;
#P hidden connect 165 0 164 1;
#P hidden connect 244 0 243 1;
#P hidden connect 253 0 252 1;
#P hidden connect 237 0 252 1;
#P hidden connect 262 0 261 1;
#P hidden connect 271 0 270 1;
#P hidden connect 280 0 279 1;
#P hidden connect 289 0 288 1;
#P hidden connect 75 0 74 1;
#P hidden connect 84 0 83 1;
#P hidden connect 48 0 47 1;
#P hidden connect 57 0 56 1;
#P hidden connect 66 0 65 1;
#P hidden connect 174 0 173 1;
#P hidden connect 19 0 182 1;
#P hidden connect 183 0 182 1;
#P hidden connect 192 0 191 1;
#P hidden connect 201 0 200 1;
#P hidden connect 210 0 209 1;
#P hidden connect 219 0 218 1;
#P hidden connect 349 0 348 1;
#P hidden connect 296 0 302 1;
#P hidden connect 303 0 302 1;
#P hidden connect 312 0 311 1;
#P hidden connect 321 0 320 1;
#P hidden connect 330 0 329 1;
#P hidden connect 339 0 338 1;
#P hidden connect 224 2 227 0;
#P hidden connect 228 0 227 0;
#P hidden connect 0 2 28 0;
#P hidden connect 29 0 28 0;
#P hidden connect 38 0 37 0;
#P hidden connect 9 2 100 0;
#P hidden connect 101 0 100 0;
#P hidden connect 92 0 91 0;
#P hidden connect 110 0 109 0;
#P hidden connect 119 0 118 0;
#P hidden connect 128 0 127 0;
#P hidden connect 13 1 136 0;
#P hidden connect 137 0 136 0;
#P hidden connect 146 0 145 0;
#P hidden connect 155 0 154 0;
#P hidden connect 164 0 163 0;
#P hidden connect 236 2 242 0;
#P hidden connect 243 0 242 0;
#P hidden connect 252 0 251 0;
#P hidden connect 261 0 260 0;
#P hidden connect 270 0 269 0;
#P hidden connect 279 0 278 0;
#P hidden connect 288 0 287 0;
#P hidden connect 74 0 73 0;
#P hidden connect 83 0 82 0;
#P hidden connect 47 0 46 0;
#P hidden connect 56 0 55 0;
#P hidden connect 4 1 64 0;
#P hidden connect 65 0 64 0;
#P hidden connect 18 2 172 0;
#P hidden connect 173 0 172 0;
#P hidden connect 182 0 181 0;
#P hidden connect 191 0 190 0;
#P hidden connect 200 0 199 0;
#P hidden connect 209 0 208 0;
#P hidden connect 218 0 217 0;
#P hidden connect 348 0 347 0;
#P hidden connect 302 0 301 0;
#P hidden connect 311 0 310 0;
#P hidden connect 320 0 319 0;
#P hidden connect 329 0 328 0;
#P hidden connect 338 0 337 0;
#P hidden connect 8 1 96 0;
#P hidden connect 4 2 60 0;
#P hidden connect 13 2 132 0;
#P hidden connect 17 1 168 0;
#P hidden connect 229 1 231 0;
#P hidden connect 224 1 231 0;
#P hidden connect 0 1 32 0;
#P hidden connect 30 1 32 0;
#P hidden connect 39 1 41 0;
#P hidden connect 9 1 104 0;
#P hidden connect 102 1 104 0;
#P hidden connect 93 1 95 0;
#P hidden connect 111 1 113 0;
#P hidden connect 75 1 77 0;
#P hidden connect 84 1 86 0;
#P hidden connect 48 1 50 0;
#P hidden connect 57 1 59 0;
#P hidden connect 5 2 68 0;
#P hidden connect 66 1 68 0;
#P hidden connect 120 1 122 0;
#P hidden connect 129 1 131 0;
#P hidden connect 14 2 140 0;
#P hidden connect 138 1 140 0;
#P hidden connect 147 1 149 0;
#P hidden connect 156 1 158 0;
#P hidden connect 165 1 167 0;
#P hidden connect 18 1 176 0;
#P hidden connect 174 1 176 0;
#P hidden connect 183 1 185 0;
#P hidden connect 192 1 194 0;
#P hidden connect 201 1 203 0;
#P hidden connect 210 1 212 0;
#P hidden connect 219 1 221 0;
#P hidden connect 244 1 246 0;
#P hidden connect 236 1 246 0;
#P hidden connect 253 1 255 0;
#P hidden connect 262 1 264 0;
#P hidden connect 271 1 273 0;
#P hidden connect 280 1 282 0;
#P hidden connect 289 1 291 0;
#P hidden connect 349 1 351 0;
#P hidden connect 303 1 305 0;
#P hidden connect 312 1 314 0;
#P hidden connect 321 1 323 0;
#P hidden connect 330 1 332 0;
#P hidden connect 339 1 341 0;
#P hidden connect 226 0 230 0;
#P hidden connect 27 0 31 0;
#P hidden connect 1 1 40 0;
#P hidden connect 36 0 40 0;
#P hidden connect 99 0 103 0;
#P hidden connect 90 0 94 0;
#P hidden connect 10 1 112 0;
#P hidden connect 108 0 112 0;
#P hidden connect 6 2 76 0;
#P hidden connect 72 0 76 0;
#P hidden connect 81 0 85 0;
#P hidden connect 45 0 49 0;
#P hidden connect 54 0 58 0;
#P hidden connect 63 0 67 0;
#P hidden connect 117 0 121 0;
#P hidden connect 126 0 130 0;
#P hidden connect 135 0 139 0;
#P hidden connect 15 2 148 0;
#P hidden connect 144 0 148 0;
#P hidden connect 153 0 157 0;
#P hidden connect 162 0 166 0;
#P hidden connect 171 0 175 0;
#P hidden connect 19 1 184 0;
#P hidden connect 180 0 184 0;
#P hidden connect 189 0 193 0;
#P hidden connect 198 0 202 0;
#P hidden connect 207 0 211 0;
#P hidden connect 216 0 220 0;
#P hidden connect 241 0 245 0;
#P hidden connect 250 0 254 0;
#P hidden connect 237 1 254 0;
#P hidden connect 259 0 263 0;
#P hidden connect 268 0 272 0;
#P hidden connect 277 0 281 0;
#P hidden connect 286 0 290 0;
#P hidden connect 346 0 350 0;
#P hidden connect 296 1 304 0;
#P hidden connect 300 0 304 0;
#P hidden connect 309 0 313 0;
#P hidden connect 318 0 322 0;
#P hidden connect 327 0 331 0;
#P hidden connect 336 0 340 0;
#P hidden connect 355 0 359 0;
#P hidden connect 365 0 369 0;
#P hidden connect 375 0 379 0;
#P hidden connect 385 0 389 0;
#P hidden connect 395 0 399 0;
#P hidden connect 405 0 409 0;
#P hidden connect 435 0 439 0;
#P hidden connect 445 0 449 0;
#P hidden connect 415 0 419 0;
#P hidden connect 425 0 429 0;
#P hidden connect 475 0 479 0;
#P hidden connect 485 0 489 0;
#P hidden connect 455 0 459 0;
#P hidden connect 465 0 469 0;
#P hidden connect 495 0 499 0;
#P hidden connect 505 0 509 0;
#P hidden connect 515 0 519 0;
#P hidden connect 525 0 529 0;
#P hidden connect 535 0 539 0;
#P hidden connect 545 0 549 0;
#P hidden connect 555 0 559 0;
#P hidden connect 585 0 589 0;
#P hidden connect 595 0 599 0;
#P hidden connect 565 0 569 0;
#P hidden connect 575 0 579 0;
#P hidden connect 605 0 609 0;
#P hidden connect 615 0 619 0;
#P hidden connect 625 0 629 0;
#P hidden connect 635 0 639 0;
#P hidden connect 645 0 649 0;
#P hidden connect 655 0 659 0;
#P hidden connect 665 0 669 0;
#P hidden connect 695 0 699 0;
#P hidden connect 705 0 709 0;
#P hidden connect 675 0 679 0;
#P hidden connect 685 0 689 0;
#P hidden connect 715 0 719 0;
#P hidden connect 359 2 356 0;
#P hidden connect 369 2 366 0;
#P hidden connect 379 2 376 0;
#P hidden connect 389 2 386 0;
#P hidden connect 399 2 396 0;
#P hidden connect 409 2 406 0;
#P hidden connect 439 2 436 0;
#P hidden connect 449 2 446 0;
#P hidden connect 419 2 416 0;
#P hidden connect 429 2 426 0;
#P hidden connect 479 2 476 0;
#P hidden connect 489 2 486 0;
#P hidden connect 459 2 456 0;
#P hidden connect 469 2 466 0;
#P hidden connect 499 2 496 0;
#P hidden connect 509 2 506 0;
#P hidden connect 519 2 516 0;
#P hidden connect 529 2 526 0;
#P hidden connect 539 2 536 0;
#P hidden connect 549 2 546 0;
#P hidden connect 559 2 556 0;
#P hidden connect 589 2 586 0;
#P hidden connect 599 2 596 0;
#P hidden connect 569 2 566 0;
#P hidden connect 579 2 576 0;
#P hidden connect 609 2 606 0;
#P hidden connect 619 2 616 0;
#P hidden connect 629 2 626 0;
#P hidden connect 639 2 636 0;
#P hidden connect 649 2 646 0;
#P hidden connect 659 2 656 0;
#P hidden connect 669 2 666 0;
#P hidden connect 699 2 696 0;
#P hidden connect 709 2 706 0;
#P hidden connect 679 2 676 0;
#P hidden connect 689 2 686 0;
#P hidden connect 719 2 716 0;
#P hidden connect 359 0 358 1;
#P hidden connect 369 0 368 1;
#P hidden connect 379 0 378 1;
#P hidden connect 389 0 388 1;
#P hidden connect 399 0 398 1;
#P hidden connect 409 0 408 1;
#P hidden connect 439 0 438 1;
#P hidden connect 449 0 448 1;
#P hidden connect 419 0 418 1;
#P hidden connect 429 0 428 1;
#P hidden connect 479 0 478 1;
#P hidden connect 489 0 488 1;
#P hidden connect 459 0 458 1;
#P hidden connect 469 0 468 1;
#P hidden connect 499 0 498 1;
#P hidden connect 509 0 508 1;
#P hidden connect 519 0 518 1;
#P hidden connect 529 0 528 1;
#P hidden connect 539 0 538 1;
#P hidden connect 549 0 548 1;
#P hidden connect 559 0 558 1;
#P hidden connect 589 0 588 1;
#P hidden connect 599 0 598 1;
#P hidden connect 569 0 568 1;
#P hidden connect 579 0 578 1;
#P hidden connect 609 0 608 1;
#P hidden connect 619 0 618 1;
#P hidden connect 629 0 628 1;
#P hidden connect 639 0 638 1;
#P hidden connect 649 0 648 1;
#P hidden connect 659 0 658 1;
#P hidden connect 669 0 668 1;
#P hidden connect 699 0 698 1;
#P hidden connect 709 0 708 1;
#P hidden connect 679 0 678 1;
#P hidden connect 689 0 688 1;
#P hidden connect 719 0 718 1;
#P hidden connect 358 0 357 0;
#P hidden connect 368 0 367 0;
#P hidden connect 378 0 377 0;
#P hidden connect 388 0 387 0;
#P hidden connect 398 0 397 0;
#P hidden connect 408 0 407 0;
#P hidden connect 438 0 437 0;
#P hidden connect 448 0 447 0;
#P hidden connect 418 0 417 0;
#P hidden connect 428 0 427 0;
#P hidden connect 478 0 477 0;
#P hidden connect 488 0 487 0;
#P hidden connect 458 0 457 0;
#P hidden connect 468 0 467 0;
#P hidden connect 498 0 497 0;
#P hidden connect 508 0 507 0;
#P hidden connect 518 0 517 0;
#P hidden connect 528 0 527 0;
#P hidden connect 538 0 537 0;
#P hidden connect 548 0 547 0;
#P hidden connect 558 0 557 0;
#P hidden connect 588 0 587 0;
#P hidden connect 598 0 597 0;
#P hidden connect 568 0 567 0;
#P hidden connect 578 0 577 0;
#P hidden connect 608 0 607 0;
#P hidden connect 618 0 617 0;
#P hidden connect 628 0 627 0;
#P hidden connect 638 0 637 0;
#P hidden connect 648 0 647 0;
#P hidden connect 658 0 657 0;
#P hidden connect 668 0 667 0;
#P hidden connect 698 0 697 0;
#P hidden connect 708 0 707 0;
#P hidden connect 678 0 677 0;
#P hidden connect 688 0 687 0;
#P hidden connect 718 0 717 0;
#P pop;
