max v2;
#N vpatcher 843 369 1182 646;
#P window setfont "Sans Serif" 9.;
#P hidden message 235 100 55 9109513 offset 0 \$1;
#P hidden newex 235 78 28 9109513 * -58;
#N thispatcher;
#Q end;
#P hidden newobj 235 122 54 9109513 thispatcher;
#P hidden inlet 235 56 15 0;
#P bpatcher 182 216 26 16 0 0 scrlt.midi.bcr.node.toggle.mxt 4 64;
#P objectname node.64;
#P bpatcher 156 216 26 16 0 0 scrlt.midi.bcr.node.toggle.mxt 4 63;
#P objectname node.63;
#P bpatcher 130 216 26 16 0 0 scrlt.midi.bcr.node.toggle.mxt 4 62;
#P objectname node.62;
#P bpatcher 104 216 26 16 0 0 scrlt.midi.bcr.node.toggle.mxt 4 61;
#P objectname node.61;
#P bpatcher 78 216 26 16 0 0 scrlt.midi.bcr.node.toggle.mxt 4 60;
#P objectname node.60;
#P bpatcher 52 216 26 16 0 0 scrlt.midi.bcr.node.toggle.mxt 4 59;
#P objectname node.59;
#P bpatcher 26 216 26 16 0 0 scrlt.midi.bcr.node.toggle.mxt 4 58;
#P objectname node.58;
#P bpatcher 0 216 26 16 0 0 scrlt.midi.bcr.node.toggle.mxt 4 57;
#P objectname node.57;
#P bpatcher 182 174 26 40 0 0 scrlt.midi.bcr.node.knob.mxt 4 32;
#P objectname node.32;
#P bpatcher 156 174 26 40 0 0 scrlt.midi.bcr.node.knob.mxt 4 31;
#P objectname node.31;
#P bpatcher 130 174 26 40 0 0 scrlt.midi.bcr.node.knob.mxt 4 30;
#P objectname node.30;
#P bpatcher 104 174 26 40 0 0 scrlt.midi.bcr.node.knob.mxt 4 29;
#P objectname node.29;
#P bpatcher 78 174 26 40 0 0 scrlt.midi.bcr.node.knob.mxt 4 28;
#P objectname node.28;
#P bpatcher 52 174 26 40 0 0 scrlt.midi.bcr.node.knob.mxt 4 27;
#P objectname node.27;
#P bpatcher 26 174 26 40 0 0 scrlt.midi.bcr.node.knob.mxt 4 26;
#P objectname node.26;
#P bpatcher 0 174 26 40 0 0 scrlt.midi.bcr.node.knob.mxt 4 25;
#P objectname node.25;
#P bpatcher 182 116 26 40 0 0 scrlt.midi.bcr.node.knob.mxt 4 24;
#P objectname node.24;
#P bpatcher 156 116 26 40 0 0 scrlt.midi.bcr.node.knob.mxt 4 23;
#P objectname node.23;
#P bpatcher 130 116 26 40 0 0 scrlt.midi.bcr.node.knob.mxt 4 22;
#P objectname node.22;
#P bpatcher 104 116 26 40 0 0 scrlt.midi.bcr.node.knob.mxt 4 21;
#P objectname node.21;
#P bpatcher 78 116 26 40 0 0 scrlt.midi.bcr.node.knob.mxt 4 20;
#P objectname node.20;
#P bpatcher 52 116 26 40 0 0 scrlt.midi.bcr.node.knob.mxt 4 19;
#P objectname node.19;
#P bpatcher 26 116 26 40 0 0 scrlt.midi.bcr.node.knob.mxt 4 18;
#P objectname node.18;
#P bpatcher 0 116 26 40 0 0 scrlt.midi.bcr.node.knob.mxt 4 17;
#P objectname node.17;
#P bpatcher 182 158 26 16 0 0 scrlt.midi.bcr.node.toggle.mxt 4 56;
#P objectname node.56;
#P bpatcher 156 158 26 16 0 0 scrlt.midi.bcr.node.toggle.mxt 4 55;
#P objectname node.55;
#P bpatcher 130 158 26 16 0 0 scrlt.midi.bcr.node.toggle.mxt 4 54;
#P objectname node.54;
#P bpatcher 104 158 26 16 0 0 scrlt.midi.bcr.node.toggle.mxt 4 53;
#P objectname node.53;
#P bpatcher 78 158 26 16 0 0 scrlt.midi.bcr.node.toggle.mxt 4 52;
#P objectname node.52;
#P bpatcher 52 158 26 16 0 0 scrlt.midi.bcr.node.toggle.mxt 4 51;
#P objectname node.51;
#P bpatcher 26 158 26 16 0 0 scrlt.midi.bcr.node.toggle.mxt 4 50;
#P objectname node.50;
#P bpatcher 0 158 26 16 0 0 scrlt.midi.bcr.node.toggle.mxt 4 49;
#P objectname node.49;
#P bpatcher 182 100 26 16 0 0 scrlt.midi.bcr.node.toggle.mxt 4 48;
#P objectname node.48;
#P bpatcher 156 100 26 16 0 0 scrlt.midi.bcr.node.toggle.mxt 4 47;
#P objectname node.47;
#P bpatcher 130 100 26 16 0 0 scrlt.midi.bcr.node.toggle.mxt 4 46;
#P objectname node.46;
#P bpatcher 104 100 26 16 0 0 scrlt.midi.bcr.node.toggle.mxt 4 45;
#P objectname node.45;
#P bpatcher 78 100 26 16 0 0 scrlt.midi.bcr.node.toggle.mxt 4 44;
#P objectname node.44;
#P bpatcher 52 100 26 16 0 0 scrlt.midi.bcr.node.toggle.mxt 4 43;
#P objectname node.43;
#P bpatcher 26 100 26 16 0 0 scrlt.midi.bcr.node.toggle.mxt 4 42;
#P objectname node.42;
#P bpatcher 0 100 26 16 0 0 scrlt.midi.bcr.node.toggle.mxt 4 41;
#P objectname node.41;
#P bpatcher 182 58 26 40 0 0 scrlt.midi.bcr.node.knob.mxt 4 16;
#P objectname node.16;
#P bpatcher 156 58 26 40 0 0 scrlt.midi.bcr.node.knob.mxt 4 15;
#P objectname node.15;
#P bpatcher 130 58 26 40 0 0 scrlt.midi.bcr.node.knob.mxt 4 14;
#P objectname node.14;
#P bpatcher 104 58 26 40 0 0 scrlt.midi.bcr.node.knob.mxt 4 13;
#P objectname node.13;
#P bpatcher 78 58 26 40 0 0 scrlt.midi.bcr.node.knob.mxt 4 12;
#P objectname node.12;
#P bpatcher 52 58 26 40 0 0 scrlt.midi.bcr.node.knob.mxt 4 11;
#P objectname node.11;
#P bpatcher 26 58 26 40 0 0 scrlt.midi.bcr.node.knob.mxt 4 10;
#P objectname node.10;
#P bpatcher 0 58 26 40 0 0 scrlt.midi.bcr.node.knob.mxt 4 9;
#P objectname node.9;
#P bpatcher 182 42 26 16 0 0 scrlt.midi.bcr.node.toggle.mxt 4 40;
#P objectname node.40;
#P bpatcher 156 42 26 16 0 0 scrlt.midi.bcr.node.toggle.mxt 4 39;
#P objectname node.39;
#P bpatcher 130 42 26 16 0 0 scrlt.midi.bcr.node.toggle.mxt 4 38;
#P objectname node.38;
#P bpatcher 104 42 26 16 0 0 scrlt.midi.bcr.node.toggle.mxt 4 37;
#P objectname node.37;
#P bpatcher 78 42 26 16 0 0 scrlt.midi.bcr.node.toggle.mxt 4 36;
#P objectname node.36;
#P bpatcher 52 42 26 16 0 0 scrlt.midi.bcr.node.toggle.mxt 4 35;
#P objectname node.35;
#P bpatcher 26 42 26 16 0 0 scrlt.midi.bcr.node.toggle.mxt 4 34;
#P objectname node.34;
#P bpatcher 0 42 26 16 0 0 scrlt.midi.bcr.node.toggle.mxt 4 33;
#P objectname node.33;
#P bpatcher 182 0 26 40 0 0 scrlt.midi.bcr.node.knob.mxt 4 8;
#P objectname node.8;
#P bpatcher 156 0 26 40 0 0 scrlt.midi.bcr.node.knob.mxt 4 7;
#P objectname node.7;
#P bpatcher 130 0 26 40 0 0 scrlt.midi.bcr.node.knob.mxt 4 6;
#P objectname node.6;
#P bpatcher 104 0 26 40 0 0 scrlt.midi.bcr.node.knob.mxt 4 5;
#P objectname node.5;
#P bpatcher 78 0 26 40 0 0 scrlt.midi.bcr.node.knob.mxt 4 4;
#P objectname node.4;
#P bpatcher 52 0 26 40 0 0 scrlt.midi.bcr.node.knob.mxt 4 3;
#P objectname node.3;
#P bpatcher 26 0 26 40 0 0 scrlt.midi.bcr.node.knob.mxt 4 2;
#P objectname node.2;
#P bpatcher 0 0 26 40 0 0 scrlt.midi.bcr.node.knob.mxt 4 1;
#P objectname node.1;
#P hidden connect 64 0 66 0;
#P hidden connect 66 0 67 0;
#P hidden connect 67 0 65 0;
#P pop;
