max v2;
#N vpatcher 580 375 1256 868;
#P window setfont "Sans Serif" 9.;
#P window linecount 1;
#P hidden message 171 356 26 9109513 read;
#P hidden message 139 364 14 9109513 1;
#P hidden newex 133 320 27 9109513 t b b;
#P hidden message 67 359 37 9109513 store 1;
#P hidden message 33 367 27 9109513 write;
#P hidden newex 27 323 27 9109513 t b b;
#P hidden newex 97 155 140 9109513 s scrlt.wind.midi.bcr.vfunc.rack;
#P hidden newex 245 155 151 9109513 rset scrlt.wind.midi.bcr.vfunc.rack;
#P toggle 71 155 17 0;
#P window setfont "Sans Serif" 12.;
#P comment 17 155 52 9109516 vfunc;
#P message 109 36 34 9109516 write;
#P message 73 36 33 9109516 read;
#P window setfont "Sans Serif" 9.;
#P hidden newex 268 66 33 9109513 sel 32;
#P hidden newex 224 66 40 9109513 key;
#P hidden newex 104 181 109 9109513 s scrlt.wind.midi.mapper;
#P hidden newex 216 181 120 9109513 rset scrlt.wind.midi.mapper;
#P hidden newex 105 208 83 9109513 s scrlt.wind.debug;
#P hidden newex 197 208 94 9109513 rset scrlt.wind.debug;
#P hidden newex 97 132 91 9109513 s scrlt.wind.midi.bcr;
#P hidden newex 190 132 102 9109513 rset scrlt.wind.midi.bcr;
#P hidden newex 159 109 76 9109513 s scrlt.wind.rack;
#P hidden newex 241 109 87 9109513 rset scrlt.wind.rack;
#P hidden newex 89 88 81 9109513 s scrlt.wind.mixer;
#P hidden newex 171 88 92 9109513 rset scrlt.wind.mixer;
#P window setfont "Sans Serif" 12.;
#P comment 17 242 52 9109516 pattr;
#P button 71 242 17 0;
#P comment 17 66 47 9109516 audio;
#P toggle 71 66 17 0;
#P window setfont "Sans Serif" 9.;
#P hidden newex 93 66 40 9109513 sel 1 0;
#P hidden message 166 66 26 9109513 stop;
#P hidden newex 194 66 28 9109513 dac~;
#P toggle 71 177 17 0;
#P window setfont "Sans Serif" 12.;
#P comment 17 177 52 9109516 mapper;
#P toggle 71 208 17 0;
#P comment 17 208 52 9109516 debug;
#P window setfont "Sans Serif" 9.;
#P hidden newex 116 246 258 9109513 pattrstorage @savemode 2 @flat 1 @clientlist_colwidth 220;
#X autorestore scrlt.config.a.xml;
#X client_rect 445 151 997 951;
#X clientlist_colwidth 220;
#X storage_rect 0 0 640 240;
#P objectname u339000005;
#P toggle 71 132 17 0;
#P toggle 71 110 17 0;
#P window setfont "Sans Serif" 12.;
#P comment 17 132 52 9109516 midi.bcr;
#P comment 17 110 47 9109516 rack;
#P toggle 71 88 17 0;
#P comment 17 88 47 9109516 mixer;
#P window setfont "Sans Serif" 9.;
#P hidden message 136 66 27 9109513 start;
#N vpatcher 5 40 605 440;
#P window setfont "Sans Serif" 9.;
#P newex 50 50 71 9109513 b 2;
#P message 111 78 87 9109513 client_size 550 800;
#P message 50 78 59 9109513 clientwindow;
#P inlet 50 30 15 0;
#P outlet 50 100 15 0;
#P connect 1 0 4 0;
#P connect 4 0 2 0;
#P connect 2 0 0 0;
#P connect 3 0 0 0;
#P connect 4 1 3 0;
#P pop;
#P hidden newobj 98 246 14 9109513 p;
#P hidden button 555 132 15 0;
#P hidden newex 411 207 41 9109513 pcontrol;
#P hidden newex 454 207 111 9109513 scrlt.midi.bcr.vfunc.rack;
#P objectname midi.bcr.vfunc.rack;
#P hidden newex 411 87 41 9109513 pcontrol;
#P hidden newex 411 183 41 9109513 pcontrol;
#P hidden newex 411 135 41 9109513 pcontrol;
#P hidden newex 411 159 41 9109513 pcontrol;
#P hidden newex 454 87 96 9109513 scrlt.midi.bcr.mapper;
#P objectname midi.bcr.mapper;
#P hidden newex 454 183 54 9109513 scrlt.debug;
#P objectname midi.bcr[1];
#P hidden newex 411 111 41 9109513 pcontrol;
#P hidden newex 454 135 62 9109513 scrlt.midi.bcr;
#P objectname midi.bcr;
#P hidden newex 454 111 52 9109513 scrlt.mixer;
#P objectname mixer;
#P hidden newex 454 159 47 9109513 scrlt.rack;
#P objectname rack;
#N vpatcher 330 459 1060 851;
#P inlet 436 31 15 0;
#P window setfont "Sans Serif" 9.;
#P window linecount 1;
#P hidden newex 574 82 138 9109513 r scrlt.wind.midi.bcr.vfunc.rack;
#P hidden message 574 132 30 9109513 close;
#P hidden message 605 132 28 9109513 open;
#P hidden newex 574 107 72 9109513 sel 0 1;
#N comlet midi.bcr.vfunc.rack open;
#P outlet 605 154 15 0;
#N comlet midi.bcr.vfunc.rack close;
#P outlet 574 154 15 0;
#P hidden newex 567 209 140 9109513 s scrlt.wind.midi.bcr.vfunc.rack;
#N comlet wind.midi.bcr.vfunc.rack;
#P inlet 567 189 15 0;
#P window linecount 0;
#P hidden newex 503 32 123 9109513 loadmess setdisplaywindow;
#P hidden newex 50 83 107 9109513 r scrlt.wind.midi.mapper;
#P hidden newex 50 208 109 9109513 s scrlt.wind.midi.mapper;
#P hidden message 50 133 30 9109513 close;
#P hidden message 81 133 28 9109513 open;
#P hidden newex 50 108 72 9109513 sel 0 1;
#P hidden newex 459 86 81 9109513 r scrlt.wind.debug;
#P hidden newex 459 211 83 9109513 s scrlt.wind.debug;
#P hidden message 459 136 30 9109513 close;
#P hidden message 490 136 28 9109513 open;
#P hidden newex 459 111 72 9109513 sel 0 1;
#P hidden newex 263 83 89 9109513 r scrlt.wind.midi.bcr;
#P hidden newex 263 208 91 9109513 s scrlt.wind.midi.bcr;
#P hidden message 263 133 30 9109513 close;
#P hidden message 294 133 28 9109513 open;
#P hidden newex 263 108 72 9109513 sel 0 1;
#P hidden newex 367 85 74 9109513 r scrlt.wind.rack;
#P hidden newex 367 210 76 9109513 s scrlt.wind.rack;
#P hidden message 367 135 30 9109513 close;
#P hidden message 398 135 28 9109513 open;
#P hidden newex 367 110 72 9109513 sel 0 1;
#P hidden newex 164 84 79 9109513 r scrlt.wind.mixer;
#P hidden newex 164 209 81 9109513 s scrlt.wind.mixer;
#P hidden message 164 134 30 9109513 close;
#P hidden message 195 134 28 9109513 open;
#P hidden newex 164 109 72 9109513 sel 0 1;
#P inlet 459 191 15 0;
#P inlet 367 190 15 0;
#P inlet 263 188 15 0;
#P inlet 164 189 15 0;
#P inlet 50 188 15 0;
#P outlet 490 158 15 0;
#P outlet 459 158 15 0;
#P outlet 367 157 15 0;
#P outlet 398 157 15 0;
#P outlet 263 155 15 0;
#P outlet 294 155 15 0;
#P outlet 195 156 15 0;
#P outlet 164 156 15 0;
#P outlet 50 155 15 0;
#P outlet 81 155 15 0;
#N comlet setdisplaywindow message;
#P outlet 503 56 15 0;
#P hidden connect 40 0 36 0;
#P hidden connect 36 0 38 0;
#P connect 38 0 2 0;
#P connect 11 0 39 0;
#P hidden connect 36 1 37 0;
#P connect 37 0 1 0;
#P hidden connect 20 0 16 0;
#P hidden connect 16 0 18 0;
#P connect 18 0 3 0;
#P connect 12 0 19 0;
#P hidden connect 16 1 17 0;
#P connect 17 0 4 0;
#P hidden connect 30 0 26 0;
#P hidden connect 26 0 28 0;
#P connect 28 0 6 0;
#P connect 13 0 29 0;
#P hidden connect 26 1 27 0;
#P connect 27 0 5 0;
#P hidden connect 25 0 21 0;
#P hidden connect 21 0 23 0;
#P connect 23 0 8 0;
#P connect 14 0 24 0;
#P hidden connect 21 1 22 0;
#P connect 22 0 7 0;
#P hidden connect 35 0 31 0;
#P hidden connect 31 0 33 0;
#P connect 33 0 9 0;
#P connect 15 0 34 0;
#P hidden connect 31 1 32 0;
#P connect 32 0 10 0;
#P connect 50 0 41 0;
#P connect 41 0 0 0;
#P connect 42 0 43 0;
#P hidden connect 49 0 46 0;
#P hidden connect 46 0 48 0;
#P connect 48 0 44 0;
#P hidden connect 46 1 47 0;
#P connect 47 0 45 0;
#P pop;
#P hidden newobj 431 58 213 9109513 p;
#P hidden connect 47 0 52 0;
#P hidden connect 52 0 53 0;
#P hidden connect 52 1 54 0;
#P hidden connect 45 0 30 0;
#P hidden connect 34 0 17 0;
#P hidden connect 36 0 20 0;
#P hidden connect 38 0 21 0;
#P hidden connect 50 0 49 0;
#P hidden connect 42 0 26 0;
#P hidden connect 40 0 24 0;
#P hidden connect 17 0 35 0;
#P hidden connect 30 0 29 0;
#P hidden connect 21 0 39 0;
#P hidden connect 49 0 51 0;
#P hidden connect 32 0 14 0;
#P hidden connect 26 0 43 0;
#P hidden connect 24 0 41 0;
#P hidden connect 14 0 22 0;
#P hidden connect 54 0 22 0;
#P hidden connect 53 0 22 0;
#P hidden connect 57 0 22 0;
#P hidden connect 56 0 22 0;
#P hidden connect 46 0 55 0;
#P hidden connect 29 0 15 0;
#P hidden connect 55 0 56 0;
#P hidden connect 20 0 37 0;
#P hidden connect 29 1 28 0;
#P hidden connect 55 1 57 0;
#P hidden connect 28 0 27 0;
#P hidden connect 15 0 27 0;
#P hidden connect 44 0 45 0;
#P hidden connect 0 1 10 0;
#P hidden connect 0 0 10 0;
#P hidden connect 0 2 4 0;
#P hidden connect 0 3 4 0;
#P hidden connect 0 5 8 0;
#P hidden connect 0 4 8 0;
#P hidden connect 0 7 7 0;
#P hidden connect 0 6 7 0;
#P hidden connect 0 8 9 0;
#P hidden connect 0 9 9 0;
#P hidden connect 0 11 12 0;
#P hidden connect 0 12 12 0;
#P hidden connect 6 0 0 0;
#P hidden connect 10 0 6 0;
#P hidden connect 0 10 6 0;
#P hidden connect 4 0 2 0;
#P hidden connect 0 10 2 0;
#P hidden connect 8 0 3 0;
#P hidden connect 0 10 3 0;
#P hidden connect 7 0 1 0;
#P hidden connect 0 10 1 0;
#P hidden connect 9 0 5 0;
#P hidden connect 0 10 5 0;
#P hidden connect 12 0 11 0;
#P hidden connect 0 10 11 0;
#P hidden connect 2 0 0 1;
#P hidden connect 3 0 0 2;
#P hidden connect 1 0 0 3;
#P hidden connect 13 0 0 4;
#P hidden connect 5 0 0 5;
#P hidden connect 11 0 0 6;
#P pop;
