max v2;
#N vpatcher 422 393 1252 876;
#P origin 0 -17;
#P hidden inlet 309 27 15 0;
#P window setfont "Sans Serif" 9.;
#P hidden newex 284 250 76 9109513 scrlt.util.valfade;
#P hidden newex 425 235 76 9109513 scrlt.util.valfade;
#P hidden newex 712 253 76 9109513 scrlt.util.valfade;
#P hidden newex 417 54 76 9109513 scrlt.util.valfade;
#P hidden newex 288 116 19 9109513 t b;
#P hidden newex 288 93 71 9109513 r scrlt.bcr.send;
#P bpatcher 82 25 145 16 0 0 scrlt.util.samplechooser.mxt 4;
#P objectname sample;
#P hidden newex 565 301 72 9109513 scrlt.util.0or127;
#P hidden newex 422 130 72 9109513 scrlt.util.0or127;
#P hidden newex 381 307 105 9109513 scrlt.util.bcrfwd $1.glen;
#P hidden newex 514 328 102 9109513 scrlt.util.bcrfwd $1.rev;
#P hidden newex 475 171 98 9109513 scrlt.util.bcrfwd $1.on;
#P hidden newex 619 156 108 9109513 scrlt.util.bcrfwd $1.tfreq;
#P hidden newex 649 324 110 9109513 scrlt.util.bcrfwd $1.begin;
#P hidden newex 261 334 111 9109513 scrlt.util.bcrfwd $1.pmult;
#P window setfont "Sans Serif" 20.;
#P comment 51 295 181 9109524 todo: param ranges;
#B color 3;
#P hidden toggle 502 221 15 0;
#P objectname toggle[1];
#P window setfont "Sans Serif" 9.;
#P hidden newex 272 221 50 9109513 r $1.pmult;
#P hidden newex 376 222 44 9109513 r $1.glen;
#P hidden newex 640 231 49 9109513 r $1.begin;
#P hidden newex 524 56 37 9109513 r $1.on;
#P hidden newex 588 56 47 9109513 r $1.tfreq;
#P hidden newex 502 197 41 9109513 r $1.rev;
#P hidden newex 674 108 57 9109513 s $0.gb.in.0;
#P hidden newex 674 83 96 9109513 loadmess winInterp 1;
#P hidden newex 675 61 57 9109513 s $0.gb.in.0;
#P hidden newex 675 36 98 9109513 loadmess sndInterp 1;
#P window setfont "Sans Serif" 10.;
#P comment 3 25 71 9109514 sample;
#P window setfont "Sans Serif" 9.;
#P hidden message 112 204 43 9109513 replace;
#P window setfont "Sans Serif" 10.;
#P comment 3 69 71 9109514 1: trigger freq;
#P window setfont "Sans Serif" 9.;
#P hidden newex 273 277 53 9109513 pattr pmult;
#X prestore 1 0 0.;
#P objectname pmult;
#P hidden newex 376 251 47 9109513 pattr glen;
#X prestore 1 0 0.08;
#P objectname glen;
#P hidden newex 640 260 52 9109513 pattr begin;
#X prestore 1 0 0.;
#P objectname begin;
#P hidden newex 502 240 44 9109513 pattr rev;
#X prestore 1 0 0;
#P objectname rev;
#P hidden newex 524 85 40 9109513 pattr on;
#X prestore 1 0 0;
#P objectname on;
#P hidden newex 588 86 50 9109513 pattr tfreq;
#X prestore 1 0 0;
#P objectname tfreq;
#P hidden newex 502 297 57 9109513 s $0.gb.in.0;
#P hidden newex 273 306 57 9109513 s $0.gb.in.3;
#P hidden newex 376 280 57 9109513 s $0.gb.in.2;
#P hidden newex 640 289 57 9109513 s $0.gb.in.1;
#P hidden newex 188 229 55 9109513 r $0.gb.in.3;
#P hidden newex 129 229 55 9109513 r $0.gb.in.2;
#P hidden newex 70 229 55 9109513 r $0.gb.in.1;
#P hidden newex 524 146 57 9109513 s $0.gb.in.0;
#P hidden newex 11 229 55 9109513 r $0.gb.in.0;
#P hidden outlet 11 281 15 0;
#P toggle 82 47 15 0;
#P objectname toggle;
#P number 82 69 35 9 0 0 32 139 0 0 0 221 221 221 222 222 222 0 0 0;
#P objectname number;
#P hidden newex 524 120 74 9109513 metro;
#P window setfont "Sans Serif" 10.;
#P comment 3 91 53 9109514 2: reverse;
#P toggle 82 91 15 0;
#P objectname toggle[3];
#P window setfont "Sans Serif" 9.;
#P hidden message 502 269 58 9109513 reverse \$1;
#P flonum 82 157 35 9 0 0 32 139 0 0 0 221 221 221 222 222 222 0 0 0;
#P objectname flonum[2];
#P flonum 82 135 35 9 0. 0 33 139 0 0 0 221 221 221 222 222 222 0 0 0;
#P objectname flonum[1];
#P flonum 82 113 35 9 0. 0 33 139 0 0 0 221 221 221 222 222 222 0 0 0;
#P objectname flonum;
#P hidden newex 11 255 189 9109513 grain.bang~ $0.sample window;
#P window setfont "Sans Serif" 10.;
#P comment 3 135 75 9109514 4: grain length;
#P comment 3 157 65 9109514 5: pitch mult;
#P comment 3 113 75 9109514 3: sound begin;
#P comment 3 47 76 9109514 0: trigger on/off;
#P window setfont "Sans Serif" 9.;
#P hidden newex 10 203 99 9109513 buffer~ window gauss;
#P hidden newex 168 87 85 9109513 buffer~ $0.sample;
#P window setfont "Arial Black" 12.;
#P comment 3 3 135 10682380 gen.gbang.single;
#P background;
#P user panel 0 0 250 184;
#X brgb 191 191 191;
#X frgb 0 0 0;
#X border 1;
#X rounded 0;
#X shadow 0;
#X done;
#P background;
#P hidden connect 35 0 3 0;
#P hidden connect 19 0 8 0;
#P hidden connect 8 0 18 0;
#P hidden connect 21 0 8 1;
#P hidden connect 59 0 17 0;
#P hidden connect 29 1 17 0;
#P hidden connect 59 0 16 0;
#P hidden connect 28 1 16 0;
#P hidden connect 59 0 13 0;
#P hidden connect 30 1 13 0;
#P hidden connect 59 0 9 0;
#P hidden connect 31 1 9 0;
#P hidden connect 59 0 10 0;
#P hidden connect 32 1 10 0;
#P hidden connect 59 0 11 0;
#P hidden connect 33 1 11 0;
#P hidden connect 22 0 8 2;
#P hidden connect 57 0 2 0;
#P hidden connect 23 0 8 3;
#P hidden connect 33 0 49 0;
#P hidden connect 63 0 33 0;
#P hidden connect 33 0 26 0;
#P hidden connect 46 0 63 0;
#P hidden connect 58 0 59 0;
#P hidden connect 62 0 32 0;
#P hidden connect 32 0 25 0;
#P hidden connect 32 0 54 0;
#P hidden connect 42 0 60 0;
#P hidden connect 29 0 55 0;
#P hidden connect 45 0 62 0;
#P hidden connect 55 0 52 0;
#P hidden connect 41 0 47 0;
#P hidden connect 47 0 30 0;
#P hidden connect 30 0 12 0;
#P hidden connect 12 0 27 0;
#P hidden connect 56 0 53 0;
#P hidden connect 43 0 29 0;
#P hidden connect 29 0 15 0;
#P hidden connect 15 0 20 0;
#P hidden connect 30 0 56 0;
#P hidden connect 60 0 28 0;
#P hidden connect 28 0 15 1;
#P hidden connect 28 0 51 0;
#P hidden connect 61 0 31 0;
#P hidden connect 31 0 24 0;
#P hidden connect 31 0 50 0;
#P hidden connect 39 0 40 0;
#P hidden connect 37 0 38 0;
#P hidden connect 44 0 61 0;
#P pop;
