max v2;
#N vpatcher 547 145 1242 724;
#P window setfont "Sans Serif" 9.;
#P window linecount 1;
#P hidden message 350 164 14 9109513 1;
#P hidden newex 350 139 28 9109513 sel 1;
#P hidden newex 350 114 34 9109513 active;
#P hidden message 350 214 14 9109513 0;
#P hidden newex 350 189 50 9109513 closebang;
#N comlet 0: closing 1: opening;
#P hidden outlet 350 239 15 0;
#N comlet dummy;
#P hidden inlet 350 89 15 0;
#P hidden newex 403 69 96 9109513 r scrlt.rack.aux.0.fbk;
#P objectname fbk[1];
#P hidden newex 403 97 44 9109513 pattr fbk;
#X prestore 1 0 0;
#P objectname fbk;
#P hidden newex 385 291 28 9109513 *~ 0.;
#P hidden newex 402 228 32 9109513 / 127.;
#P user dial 226 16 21 21 128 1 0 0 255 270 1 1. 170 170 170 221 221 221 120 120 120 225 225 225 0 0 0 0 0 0;
#P objectname dial;
#N comlet signal in;
#P hidden inlet 313 74 15 0;
#P bpatcher 0 305 250 134 0 0 scrlt.fx.delay.mxt 4;
#P objectname fx.2;
#P hidden outlet 0 469 15 0;
#P bpatcher 0 172 250 134 0 0 scrlt.fx.degrade.mxt 4;
#P objectname fx.1;
#P bpatcher 0 39 250 134 0 0 scrlt.fx.filter.mxt 4;
#P objectname fx.0;
#P comment 226 3 20 9109513 fbk;
#P window setfont "Arial Black" 18.;
#P comment 5 3 135 10682386 aux.0;
#P background;
#P user panel 0 0 250 40;
#X brgb 191 191 191;
#X frgb 0 0 0;
#X border 1;
#X rounded 0;
#X shadow 0;
#X done;
#P background;
#P hidden connect 7 0 3 0;
#P hidden connect 10 0 3 0;
#P hidden connect 3 0 4 0;
#P hidden connect 4 0 6 0;
#P hidden connect 6 0 5 0;
#P hidden connect 11 1 8 0;
#P hidden connect 17 0 18 0;
#P hidden connect 18 0 19 0;
#P hidden connect 15 0 16 0;
#P hidden connect 19 0 14 0;
#P hidden connect 16 0 14 0;
#P hidden connect 6 0 10 0;
#P hidden connect 11 0 9 0;
#P hidden connect 12 0 11 0;
#P hidden connect 9 0 10 1;
#P pop;
