max v2;
#N vpatcher 435 228 1166 730;
#P window setfont "Sans Serif" 9.;
#P window linecount 1;
#P hidden newex 293 280 66 9109513 route $1.par.1;
#P hidden newex 293 257 69 9109513 r scrlt.bcr.map;
#N vpatcher 15 55 615 455;
#N comlet recv;
#P inlet 50 27 15 0;
#P window setfont "Sans Serif" 9.;
#P hidden newex 50 127 27 9109513 V;
#P hidden newex 91 73 40 9109513 t b b i;
#P hidden newex 91 127 40 9109513 pack;
#P hidden newex 50 202 76 9109513 s scrlt.bcr.ctlout;
#P message 67 102 14 9109513 1;
#P hidden newex 50 177 51 9109513 gate;
#P toggle 50 152 15 0;
#P hidden newex 50 50 51 9109513 sel none;
#P message 50 102 14 9109513 0;
#P newex 91 102 27 9109513 int;
#N comlet val;
#P inlet 18 54 15 0;
#P connect 11 0 3 0;
#P connect 3 0 2 0;
#P connect 2 0 10 0;
#P connect 10 0 4 0;
#P connect 4 0 5 0;
#P connect 5 0 7 0;
#P connect 9 1 6 0;
#P connect 6 0 10 1;
#P connect 3 1 9 0;
#P connect 0 0 1 0;
#P connect 9 0 1 0;
#P connect 1 0 8 0;
#P connect 8 0 5 1;
#P connect 9 2 8 1;
#P pop;
#P hidden newobj 276 303 27 9109513 p;
#P hidden newex 293 211 66 9109513 route $1.par.0;
#P hidden newex 293 188 69 9109513 r scrlt.bcr.map;
#N vpatcher 15 55 615 455;
#N comlet recv;
#P inlet 50 27 15 0;
#P window setfont "Sans Serif" 9.;
#P hidden newex 50 127 27 9109513 V;
#P hidden newex 91 73 40 9109513 t b b i;
#P hidden newex 91 127 40 9109513 pack;
#P hidden newex 50 202 76 9109513 s scrlt.bcr.ctlout;
#P message 67 102 14 9109513 1;
#P hidden newex 50 177 51 9109513 gate;
#P toggle 50 152 15 0;
#P hidden newex 50 50 51 9109513 sel none;
#P message 50 102 14 9109513 0;
#P newex 91 102 27 9109513 int;
#N comlet val;
#P inlet 18 54 15 0;
#P connect 11 0 3 0;
#P connect 3 0 2 0;
#P connect 2 0 10 0;
#P connect 10 0 4 0;
#P connect 4 0 5 0;
#P connect 5 0 7 0;
#P connect 9 1 6 0;
#P connect 6 0 10 1;
#P connect 3 1 9 0;
#P connect 9 0 1 0;
#P connect 0 0 1 0;
#P connect 1 0 8 0;
#P connect 8 0 5 1;
#P connect 9 2 8 1;
#P pop;
#P hidden newobj 276 234 27 9109513 p;
#P hidden newex 293 142 73 9109513 route $1.drywet;
#P hidden newex 293 119 69 9109513 r scrlt.bcr.map;
#N vpatcher 15 55 615 455;
#N comlet recv;
#P inlet 50 27 15 0;
#P window setfont "Sans Serif" 9.;
#P hidden newex 50 127 27 9109513 V;
#P hidden newex 91 73 40 9109513 t b b i;
#P hidden newex 91 127 40 9109513 pack;
#P hidden newex 50 202 76 9109513 s scrlt.bcr.ctlout;
#P message 67 102 14 9109513 1;
#P hidden newex 50 177 51 9109513 gate;
#P toggle 50 152 15 0;
#P hidden newex 50 50 51 9109513 sel none;
#P message 50 102 14 9109513 0;
#P newex 91 102 27 9109513 int;
#N comlet val;
#P inlet 18 54 15 0;
#P connect 11 0 3 0;
#P connect 3 0 2 0;
#P connect 2 0 10 0;
#P connect 10 0 4 0;
#P connect 4 0 5 0;
#P connect 5 0 7 0;
#P connect 9 1 6 0;
#P connect 6 0 10 1;
#P connect 3 1 9 0;
#P connect 0 0 1 0;
#P connect 9 0 1 0;
#P connect 1 0 8 0;
#P connect 8 0 5 1;
#P connect 9 2 8 1;
#P pop;
#P hidden newobj 276 165 27 9109513 p;
#P hidden newex 293 73 76 9109513 route $1.bypass;
#P hidden newex 293 50 69 9109513 r scrlt.bcr.map;
#P hidden newex 7 296 65 9109513 scrlt.util.dwbp;
#P hidden newex 166 192 51 9109513 pattr par.1;
#X prestore 1 0 54;
#P objectname par.1;
#P hidden newex 166 166 48 9109513 r $1.par.1;
#P hidden newex 113 193 51 9109513 pattr par.0;
#X prestore 1 0 0;
#P objectname par.0;
#P hidden newex 113 167 48 9109513 r $1.par.0;
#P hidden newex 25 221 58 9109513 pattr drywet;
#X prestore 1 0 0;
#P objectname drywet;
#P hidden newex 25 195 55 9109513 r $1.drywet;
#P hidden newex 7 168 61 9109513 pattr bypass;
#X prestore 1 0 0;
#P objectname bypass;
#P hidden newex 7 142 58 9109513 r $1.bypass;
#P user dial 144 42 69 69 128 1 0 0 255 270 1 1. 170 170 170 221 221 221 120 120 120 225 225 225 0 0 0 0 0 0;
#P objectname dial[2];
#P user dial 5 80 40 40 128 1 0 0 255 270 1 1. 170 170 170 221 221 221 120 120 120 225 225 225 0 0 0 0 0 0;
#P objectname dial;
#P user dial 63 42 69 69 128 1 0 0 255 270 1 1. 170 170 170 221 221 221 120 120 120 225 225 225 0 0 0 0 0 0;
#P objectname dial[1];
#P comment 5 25 39 9109513 bypass;
#P toggle 16 42 15 0;
#P objectname toggle;
#P comment 144 25 78 9109513 1: word size (bits);
#P hidden outlet 7 332 15 0;
#P hidden inlet 43 242 15 0;
#P hidden newex 166 224 83 9109513 scale 0 127 1. 24.;
#P hidden newex 113 224 32 9109513 / 127.;
#P hidden newex 60 265 117 9109513 degrade~;
#P comment 63 25 72 9109513 0: sampling rate;
#P comment 5 63 39 9109513 dry/wet;
#P window setfont "Arial Black" 12.;
#P comment 5 3 135 10551308 fx.degrade;
#P background;
#P user panel 0 0 250 134;
#X brgb 191 191 191;
#X frgb 0 0 0;
#X border 1;
#X rounded 0;
#X shadow 0;
#X done;
#P background;
#P window setfont "Sans Serif" 9.;
#N vpatcher 15 55 615 455;
#N comlet recv;
#P inlet 50 27 15 0;
#P window setfont "Sans Serif" 9.;
#P hidden newex 50 127 27 9109513 V;
#P hidden newex 91 73 40 9109513 t b b i;
#P hidden newex 91 127 40 9109513 pack;
#P hidden newex 50 202 76 9109513 s scrlt.bcr.ctlout;
#P message 67 102 14 9109513 1;
#P hidden newex 50 177 51 9109513 gate;
#P toggle 50 152 15 0;
#P hidden newex 50 50 51 9109513 sel none;
#P message 50 102 14 9109513 0;
#P newex 91 102 27 9109513 int;
#N comlet val;
#P inlet 18 54 15 0;
#P connect 11 0 3 0;
#P connect 3 0 2 0;
#P connect 2 0 10 0;
#P connect 10 0 4 0;
#P connect 4 0 5 0;
#P connect 5 0 7 0;
#P connect 9 1 6 0;
#P connect 6 0 10 1;
#P connect 3 1 9 0;
#P connect 9 0 1 0;
#P connect 0 0 1 0;
#P connect 1 0 8 0;
#P connect 8 0 5 1;
#P connect 9 2 8 1;
#P pop;
#P hidden newobj 276 96 27 9109513 p;
#P hidden connect 19 1 14 0;
#P hidden connect 16 0 17 0;
#P hidden connect 17 0 24 0;
#P hidden connect 24 0 9 0;
#P hidden connect 17 1 11 0;
#P hidden connect 18 0 19 0;
#P hidden connect 19 0 24 1;
#P hidden connect 8 0 24 2;
#P hidden connect 8 0 5 0;
#P hidden connect 5 0 24 3;
#P hidden connect 21 1 13 0;
#P hidden connect 20 0 21 0;
#P hidden connect 21 0 6 0;
#P hidden connect 6 0 5 1;
#P hidden connect 23 1 15 0;
#P hidden connect 22 0 23 0;
#P hidden connect 23 0 7 0;
#P hidden connect 7 0 5 2;
#P hidden connect 17 0 0 0;
#P hidden connect 19 0 27 0;
#P hidden connect 21 0 30 0;
#P hidden connect 23 0 33 0;
#P hidden connect 25 0 26 0;
#P hidden connect 26 0 0 1;
#P hidden connect 28 0 29 0;
#P hidden connect 29 0 27 1;
#P hidden connect 31 0 32 0;
#P hidden connect 32 0 30 1;
#P hidden connect 34 0 35 0;
#P hidden connect 35 0 33 1;
#P pop;
